G04*
G04 #@! TF.GenerationSoftware,Altium Limited,Altium Designer,20.0.7 (75)*
G04*
G04 Layer_Color=65535*
%FSLAX44Y44*%
%MOMM*%
G71*
G01*
G75*
%ADD10C,0.5080*%
%ADD11C,0.1524*%
%ADD12C,0.2540*%
%ADD13C,0.1500*%
%ADD14C,0.2000*%
%ADD15C,0.1270*%
%ADD16C,0.1800*%
%ADD17C,0.0762*%
D10*
X-93440Y97021D02*
G03*
X-93440Y97021I-3810J0D01*
G01*
D11*
X-147130Y-22195D02*
G03*
X-142870Y-22195I2130J2181D01*
G01*
X-126288Y32759D02*
Y79241D01*
X-111867Y32759D02*
X-104133D01*
X-89712D02*
Y79241D01*
X-111867D02*
X-104133D01*
X-149068Y-20014D02*
X-140932D01*
X-149068Y-49986D02*
X-140932D01*
X-67310Y42723D02*
X67310D01*
Y211379D01*
X-67310D02*
X67310D01*
X-67310Y42723D02*
Y211379D01*
D12*
X145000Y-96000D02*
G03*
X145000Y-96000I-25000J0D01*
G01*
X144000Y-38000D02*
G03*
X144000Y-38000I-25000J0D01*
G01*
X-208100Y-12940D02*
Y93740D01*
X-131900D01*
Y-12940D02*
Y93740D01*
X-208100Y-12940D02*
X-131900D01*
X90740Y-73140D02*
X103490D01*
X97265Y-79390D02*
Y-66640D01*
X89740Y-15140D02*
X102490D01*
X96265Y-21390D02*
Y-8640D01*
D13*
X-50000Y-117500D02*
Y-92500D01*
Y-117500D02*
X50000D01*
Y-92500D01*
X-50000D02*
X50000D01*
X-12700Y8900D02*
X12700D01*
X-12700Y-16500D02*
Y8900D01*
Y-16500D02*
X12700D01*
Y8900D01*
X103165Y191500D02*
X96500D01*
X103165Y198165D01*
Y199831D01*
X101498Y201497D01*
X98166D01*
X96500Y199831D01*
X77500Y191500D02*
X80832D01*
X79166D01*
Y201497D01*
X77500Y199831D01*
X36500Y-105503D02*
Y-110834D01*
X39166Y-113500D01*
X41832Y-110834D01*
Y-105503D01*
X44497Y-113500D02*
X47163D01*
X45830D01*
Y-105503D01*
X44497Y-106835D01*
X-40668Y-105503D02*
X-46000D01*
Y-113500D01*
X-40668D01*
X-46000Y-109501D02*
X-43334D01*
X-38003Y-113500D02*
Y-112167D01*
X-36670D01*
Y-113500D01*
X-38003D01*
X-31338D02*
Y-105503D01*
X-27339D01*
X-26007Y-106835D01*
Y-109501D01*
X-27339Y-110834D01*
X-31338D01*
X-28672D02*
X-26007Y-113500D01*
X-10012D02*
X-15343D01*
X-10012Y-108168D01*
Y-106835D01*
X-11344Y-105503D01*
X-14010D01*
X-15343Y-106835D01*
X-7346D02*
X-6013Y-105503D01*
X-3347D01*
X-2014Y-106835D01*
Y-112167D01*
X-3347Y-113500D01*
X-6013D01*
X-7346Y-112167D01*
Y-106835D01*
X5983Y-113500D02*
X652D01*
X5983Y-108168D01*
Y-106835D01*
X4650Y-105503D01*
X1984D01*
X652Y-106835D01*
X8649D02*
X9982Y-105503D01*
X12648D01*
X13981Y-106835D01*
Y-108168D01*
X12648Y-109501D01*
X11315D01*
X12648D01*
X13981Y-110834D01*
Y-112167D01*
X12648Y-113500D01*
X9982D01*
X8649Y-112167D01*
X42500Y-178500D02*
X34503D01*
X37168Y-175834D01*
X34503Y-173168D01*
X42500D01*
Y-165171D02*
Y-170503D01*
X37168Y-165171D01*
X35835D01*
X34503Y-166504D01*
Y-169170D01*
X35835Y-170503D01*
X42500Y-162505D02*
X37168D01*
X34503Y-159839D01*
X37168Y-157174D01*
X42500D01*
X38501D01*
Y-162505D01*
X16500Y-178500D02*
X8503D01*
X11168Y-175834D01*
X8503Y-173168D01*
X16500D01*
Y-170503D02*
Y-167837D01*
Y-169170D01*
X8503D01*
X9836Y-170503D01*
X16500Y-163838D02*
X11168D01*
X8503Y-161172D01*
X11168Y-158506D01*
X16500D01*
X12501D01*
Y-163838D01*
X-8500Y-178500D02*
X-16497D01*
X-13832Y-175834D01*
X-16497Y-173168D01*
X-8500D01*
Y-165171D02*
Y-170503D01*
X-13832Y-165171D01*
X-15165D01*
X-16497Y-166504D01*
Y-169170D01*
X-15165Y-170503D01*
X-8500Y-162505D02*
X-13832D01*
X-16497Y-159839D01*
X-13832Y-157174D01*
X-8500D01*
X-12499D01*
Y-162505D01*
X-34500Y-178500D02*
X-42497D01*
X-39832Y-175834D01*
X-42497Y-173168D01*
X-34500D01*
Y-165171D02*
Y-170503D01*
X-39832Y-165171D01*
X-41164D01*
X-42497Y-166504D01*
Y-169170D01*
X-41164Y-170503D01*
X-42497Y-162505D02*
X-34500D01*
Y-158506D01*
X-35833Y-157174D01*
X-37166D01*
X-38499Y-158506D01*
Y-162505D01*
Y-158506D01*
X-39832Y-157174D01*
X-41164D01*
X-42497Y-158506D01*
Y-162505D01*
X154500Y14165D02*
X155833Y15497D01*
X158499D01*
X159832Y14165D01*
Y12832D01*
X158499Y11499D01*
X157166D01*
X158499D01*
X159832Y10166D01*
Y8833D01*
X158499Y7500D01*
X155833D01*
X154500Y8833D01*
X162497Y7500D02*
Y8833D01*
X163830D01*
Y7500D01*
X162497D01*
X169162Y14165D02*
X170495Y15497D01*
X173161D01*
X174494Y14165D01*
Y12832D01*
X173161Y11499D01*
X171828D01*
X173161D01*
X174494Y10166D01*
Y8833D01*
X173161Y7500D01*
X170495D01*
X169162Y8833D01*
X159500Y34500D02*
Y42497D01*
X163499D01*
X164832Y41164D01*
Y38499D01*
X163499Y37166D01*
X159500D01*
X162166D02*
X164832Y34500D01*
X167497Y42497D02*
X172829Y34500D01*
Y42497D02*
X167497Y34500D01*
X157500Y66497D02*
X162832D01*
X160166D01*
Y58500D01*
X165497Y66497D02*
X170829Y58500D01*
Y66497D02*
X165497Y58500D01*
X158832Y76164D02*
X157499Y77497D01*
X154833D01*
X153500Y76164D01*
Y70833D01*
X154833Y69500D01*
X157499D01*
X158832Y70833D01*
Y73499D01*
X156166D01*
X161497Y69500D02*
Y77497D01*
X166829Y69500D01*
Y77497D01*
X169495D02*
Y69500D01*
X173493D01*
X174826Y70833D01*
Y76164D01*
X173493Y77497D01*
X169495D01*
X156832Y-21835D02*
X155499Y-20503D01*
X152833D01*
X151500Y-21835D01*
Y-27167D01*
X152833Y-28500D01*
X155499D01*
X156832Y-27167D01*
Y-24501D01*
X154166D01*
X159497Y-28500D02*
Y-20503D01*
X164829Y-28500D01*
Y-20503D01*
X167495D02*
Y-28500D01*
X171493D01*
X172826Y-27167D01*
Y-21835D01*
X171493Y-20503D01*
X167495D01*
X156500Y-68503D02*
Y-78500D01*
X161498D01*
X163165Y-76834D01*
Y-70169D01*
X161498Y-68503D01*
X156500D01*
X166497Y-73502D02*
X173161D01*
X156500Y-43503D02*
Y-53500D01*
X161498D01*
X163165Y-51834D01*
Y-45169D01*
X161498Y-43503D01*
X156500D01*
X166497Y-48502D02*
X173161D01*
X169829Y-45169D02*
Y-51834D01*
X141334Y-66668D02*
X139668Y-65002D01*
X136335D01*
X134669Y-66668D01*
Y-73332D01*
X136335Y-74998D01*
X139668D01*
X141334Y-73332D01*
X144666D02*
X146332Y-74998D01*
X149664D01*
X151331Y-73332D01*
Y-66668D01*
X149664Y-65002D01*
X146332D01*
X144666Y-66668D01*
Y-68334D01*
X146332Y-70000D01*
X151331D01*
X143334Y-11668D02*
X141668Y-10002D01*
X138336D01*
X136669Y-11668D01*
Y-18332D01*
X138336Y-19998D01*
X141668D01*
X143334Y-18332D01*
X146666Y-11668D02*
X148332Y-10002D01*
X151664D01*
X153331Y-11668D01*
Y-13334D01*
X151664Y-15000D01*
X153331Y-16666D01*
Y-18332D01*
X151664Y-19998D01*
X148332D01*
X146666Y-18332D01*
Y-16666D01*
X148332Y-15000D01*
X146666Y-13334D01*
Y-11668D01*
X148332Y-15000D02*
X151664D01*
X-129331Y-9002D02*
Y-17332D01*
X-127664Y-18998D01*
X-124332D01*
X-122666Y-17332D01*
Y-9002D01*
X-112669D02*
X-119334D01*
Y-14000D01*
X-116002Y-12334D01*
X-114335D01*
X-112669Y-14000D01*
Y-17332D01*
X-114335Y-18998D01*
X-117668D01*
X-119334Y-17332D01*
X72669Y62998D02*
Y54668D01*
X74335Y53002D01*
X77668D01*
X79334Y54668D01*
Y62998D01*
X87664Y53002D02*
Y62998D01*
X82666Y58000D01*
X89331D01*
X-76331Y33998D02*
Y25668D01*
X-74665Y24002D01*
X-71332D01*
X-69666Y25668D01*
Y33998D01*
X-66334Y32332D02*
X-64668Y33998D01*
X-61336D01*
X-59669Y32332D01*
Y30666D01*
X-61336Y29000D01*
X-63002D01*
X-61336D01*
X-59669Y27334D01*
Y25668D01*
X-61336Y24002D01*
X-64668D01*
X-66334Y25668D01*
X-87331Y207998D02*
Y199668D01*
X-85665Y198002D01*
X-82332D01*
X-80666Y199668D01*
Y207998D01*
X-70669Y198002D02*
X-77334D01*
X-70669Y204666D01*
Y206332D01*
X-72336Y207998D01*
X-75668D01*
X-77334Y206332D01*
X-202663Y-72998D02*
Y-63002D01*
X-197665D01*
X-195998Y-64668D01*
Y-68000D01*
X-197665Y-69666D01*
X-202663D01*
X-199331D02*
X-195998Y-72998D01*
X-186002D02*
X-192666D01*
X-186002Y-66334D01*
Y-64668D01*
X-187668Y-63002D01*
X-191000D01*
X-192666Y-64668D01*
X-182669Y-72998D02*
X-179337D01*
X-181003D01*
Y-63002D01*
X-182669Y-64668D01*
X-92998Y-77504D02*
X-83002D01*
Y-82502D01*
X-84668Y-84169D01*
X-88000D01*
X-89666Y-82502D01*
Y-77504D01*
Y-80836D02*
X-92998Y-84169D01*
Y-87501D02*
Y-90833D01*
Y-89167D01*
X-83002D01*
X-84668Y-87501D01*
Y-95831D02*
X-83002Y-97498D01*
Y-100830D01*
X-84668Y-102496D01*
X-86334D01*
X-88000Y-100830D01*
X-89666Y-102496D01*
X-91332D01*
X-92998Y-100830D01*
Y-97498D01*
X-91332Y-95831D01*
X-89666D01*
X-88000Y-97498D01*
X-86334Y-95831D01*
X-84668D01*
X-88000Y-97498D02*
Y-100830D01*
X-150496Y-73998D02*
Y-64002D01*
X-145498D01*
X-143832Y-65668D01*
Y-69000D01*
X-145498Y-70666D01*
X-150496D01*
X-147164D02*
X-143832Y-73998D01*
X-140499D02*
X-137167D01*
X-138833D01*
Y-64002D01*
X-140499Y-65668D01*
X-132169Y-64002D02*
X-125504D01*
Y-65668D01*
X-132169Y-72332D01*
Y-73998D01*
X-125496Y1002D02*
Y10998D01*
X-120498D01*
X-118832Y9332D01*
Y6000D01*
X-120498Y4334D01*
X-125496D01*
X-122164D02*
X-118832Y1002D01*
X-115499D02*
X-112167D01*
X-113833D01*
Y10998D01*
X-115499Y9332D01*
X-100504Y10998D02*
X-107169D01*
Y6000D01*
X-103836Y7666D01*
X-102170D01*
X-100504Y6000D01*
Y2668D01*
X-102170Y1002D01*
X-105502D01*
X-107169Y2668D01*
X166002Y107496D02*
X175998D01*
Y102498D01*
X174332Y100831D01*
X171000D01*
X169334Y102498D01*
Y107496D01*
Y104164D02*
X166002Y100831D01*
Y97499D02*
Y94167D01*
Y95833D01*
X175998D01*
X174332Y97499D01*
X166002Y84170D02*
X175998D01*
X171000Y89169D01*
Y82504D01*
X-87331Y39002D02*
Y48998D01*
X-82332D01*
X-80666Y47332D01*
Y44000D01*
X-82332Y42334D01*
X-87331D01*
X-83998D02*
X-80666Y39002D01*
X-70669Y48998D02*
X-74002Y47332D01*
X-77334Y44000D01*
Y40668D01*
X-75668Y39002D01*
X-72336D01*
X-70669Y40668D01*
Y42334D01*
X-72336Y44000D01*
X-77334D01*
X-84998Y167331D02*
X-75002D01*
Y162332D01*
X-76668Y160666D01*
X-80000D01*
X-81666Y162332D01*
Y167331D01*
Y163998D02*
X-84998Y160666D01*
X-76668Y157334D02*
X-75002Y155668D01*
Y152336D01*
X-76668Y150669D01*
X-78334D01*
X-80000Y152336D01*
Y154002D01*
Y152336D01*
X-81666Y150669D01*
X-83332D01*
X-84998Y152336D01*
Y155668D01*
X-83332Y157334D01*
X-109666Y-70332D02*
Y-63668D01*
X-111332Y-62002D01*
X-114664D01*
X-116331Y-63668D01*
Y-70332D01*
X-114664Y-71998D01*
X-111332D01*
X-112998Y-68666D02*
X-109666Y-71998D01*
X-111332D02*
X-109666Y-70332D01*
X-106334Y-63668D02*
X-104668Y-62002D01*
X-101335D01*
X-99669Y-63668D01*
Y-65334D01*
X-101335Y-67000D01*
X-103002D01*
X-101335D01*
X-99669Y-68666D01*
Y-70332D01*
X-101335Y-71998D01*
X-104668D01*
X-106334Y-70332D01*
X-139666Y-104332D02*
Y-97668D01*
X-141332Y-96002D01*
X-144664D01*
X-146331Y-97668D01*
Y-104332D01*
X-144664Y-105998D01*
X-141332D01*
X-142998Y-102666D02*
X-139666Y-105998D01*
X-141332D02*
X-139666Y-104332D01*
X-129669Y-105998D02*
X-136334D01*
X-129669Y-99334D01*
Y-97668D01*
X-131335Y-96002D01*
X-134668D01*
X-136334Y-97668D01*
X-195000Y-106332D02*
Y-99668D01*
X-196666Y-98002D01*
X-199998D01*
X-201665Y-99668D01*
Y-106332D01*
X-199998Y-107998D01*
X-196666D01*
X-198332Y-104666D02*
X-195000Y-107998D01*
X-196666D02*
X-195000Y-106332D01*
X-191668Y-107998D02*
X-188335D01*
X-190002D01*
Y-98002D01*
X-191668Y-99668D01*
X-129331Y83002D02*
Y92998D01*
X-124332D01*
X-122666Y91332D01*
Y88000D01*
X-124332Y86334D01*
X-129331D01*
X-114335Y83002D02*
Y92998D01*
X-119334Y88000D01*
X-112669D01*
X182669Y-122998D02*
Y-113002D01*
X187668D01*
X189334Y-114668D01*
Y-118000D01*
X187668Y-119666D01*
X182669D01*
X192666Y-114668D02*
X194332Y-113002D01*
X197665D01*
X199331Y-114668D01*
Y-116334D01*
X197665Y-118000D01*
X195998D01*
X197665D01*
X199331Y-119666D01*
Y-121332D01*
X197665Y-122998D01*
X194332D01*
X192666Y-121332D01*
X181669Y104002D02*
Y113998D01*
X186668D01*
X188334Y112332D01*
Y109000D01*
X186668Y107334D01*
X181669D01*
X198331Y104002D02*
X191666D01*
X198331Y110666D01*
Y112332D01*
X196665Y113998D01*
X193332D01*
X191666Y112332D01*
X-68664Y-199998D02*
Y-190002D01*
X-63666D01*
X-62000Y-191668D01*
Y-195000D01*
X-63666Y-196666D01*
X-68664D01*
X-58668Y-199998D02*
X-55335D01*
X-57002D01*
Y-190002D01*
X-58668Y-191668D01*
X-108329Y23998D02*
Y14002D01*
X-103331D01*
X-101664Y15668D01*
Y22332D01*
X-103331Y23998D01*
X-108329D01*
X-98332D02*
X-91668D01*
Y22332D01*
X-98332Y15668D01*
Y14002D01*
X-91668D01*
X-81671D02*
X-88336D01*
X-81671Y20666D01*
Y22332D01*
X-83337Y23998D01*
X-86669D01*
X-88336Y22332D01*
X-181663Y-102002D02*
Y-111998D01*
X-176665D01*
X-174998Y-110332D01*
Y-103668D01*
X-176665Y-102002D01*
X-181663D01*
X-171666D02*
X-165002D01*
Y-103668D01*
X-171666Y-110332D01*
Y-111998D01*
X-165002D01*
X-161669D02*
X-158337D01*
X-160003D01*
Y-102002D01*
X-161669Y-103668D01*
X117334Y119332D02*
X115668Y120998D01*
X112336D01*
X110669Y119332D01*
Y112668D01*
X112336Y111002D01*
X115668D01*
X117334Y112668D01*
X127331Y120998D02*
X123998Y119332D01*
X120666Y116000D01*
Y112668D01*
X122332Y111002D01*
X125665D01*
X127331Y112668D01*
Y114334D01*
X125665Y116000D01*
X120666D01*
X95334Y119332D02*
X93668Y120998D01*
X90336D01*
X88669Y119332D01*
Y112668D01*
X90336Y111002D01*
X93668D01*
X95334Y112668D01*
X105331Y120998D02*
X98666D01*
Y116000D01*
X101998Y117666D01*
X103665D01*
X105331Y116000D01*
Y112668D01*
X103665Y111002D01*
X100332D01*
X98666Y112668D01*
X-96668Y182666D02*
X-95002Y184332D01*
Y187665D01*
X-96668Y189331D01*
X-103332D01*
X-104998Y187665D01*
Y184332D01*
X-103332Y182666D01*
X-104998Y174335D02*
X-95002D01*
X-100000Y179334D01*
Y172669D01*
X-96668Y162666D02*
X-95002Y164332D01*
Y167665D01*
X-96668Y169331D01*
X-103332D01*
X-104998Y167665D01*
Y164332D01*
X-103332Y162666D01*
X-96668Y159334D02*
X-95002Y157668D01*
Y154335D01*
X-96668Y152669D01*
X-98334D01*
X-100000Y154335D01*
Y156002D01*
Y154335D01*
X-101666Y152669D01*
X-103332D01*
X-104998Y154335D01*
Y157668D01*
X-103332Y159334D01*
X-76668Y181666D02*
X-75002Y183332D01*
Y186665D01*
X-76668Y188331D01*
X-83332D01*
X-84998Y186665D01*
Y183332D01*
X-83332Y181666D01*
X-84998Y171669D02*
Y178334D01*
X-78334Y171669D01*
X-76668D01*
X-75002Y173335D01*
Y176668D01*
X-76668Y178334D01*
D14*
X50800Y-207700D02*
Y-182300D01*
X-50800D02*
X50800D01*
X-50800Y-207700D02*
X50800D01*
X-50800D02*
Y-182300D01*
X-147500Y102000D02*
X-144500D01*
X-147500Y108000D02*
X-144500D01*
X-108000Y-16500D02*
Y-13500D01*
X-102000Y-16500D02*
Y-13500D01*
X-179001Y100873D02*
X-179000Y101250D01*
Y108750D02*
X-178999Y109127D01*
X-191751Y101312D02*
X-191749Y101688D01*
X-177750Y-47500D02*
Y-32250D01*
X-192250Y-47750D02*
Y-32500D01*
X-199000Y-94000D02*
X-171000D01*
X-199000D02*
Y-86000D01*
X-179000D01*
X-171000Y-94000D01*
X-174000Y-86000D02*
X-171000D01*
X-174000D02*
X-171000Y-89000D01*
Y-86000D01*
X-162000Y-92000D02*
Y-82000D01*
Y-92000D02*
X-148000D01*
Y-82000D01*
X-139000Y-94000D02*
X-111000D01*
X-139000D02*
Y-86000D01*
X-119000D01*
X-111000Y-94000D01*
X-114000Y-86000D02*
X-111000D01*
X-114000D02*
X-111000Y-89000D01*
Y-86000D01*
X-97000Y-91500D02*
Y-88500D01*
X-103000Y-91500D02*
Y-88500D01*
X-109000Y-59000D02*
X-81000D01*
X-109000D02*
Y-51000D01*
X-89000D01*
X-81000Y-59000D01*
X-84000Y-51000D02*
X-81000D01*
X-84000D02*
X-81000Y-54000D01*
Y-51000D01*
X57150Y-181600D02*
X69850D01*
X-76200D02*
Y21599D01*
X76200D01*
Y-181600D02*
Y21599D01*
X-76200Y-181600D02*
X57150D01*
X69850D02*
X76200D01*
X-97000Y-15000D02*
Y-5000D01*
Y-15000D02*
X-83000D01*
Y-5000D01*
X-77000Y63500D02*
Y66500D01*
X-83000Y63500D02*
Y66500D01*
X-77000Y98500D02*
Y101500D01*
X-83000Y98500D02*
Y101500D01*
X-93250Y98750D02*
Y101250D01*
X-106750Y98750D02*
Y101250D01*
X-86750Y133750D02*
Y136250D01*
X-73250Y133750D02*
Y136250D01*
X-106750Y133750D02*
Y136250D01*
X-93250Y133750D02*
Y136250D01*
X103000Y141000D02*
Y144000D01*
X97000Y141000D02*
Y144000D01*
X103750Y175000D02*
X104127Y174999D01*
X95873Y175001D02*
X96250Y175000D01*
X103312Y162250D02*
X103688Y162250D01*
X83750Y175000D02*
X84127Y174999D01*
X75873Y175001D02*
X76250Y175000D01*
X83311Y162250D02*
X83688Y162250D01*
X152501Y17201D02*
Y51008D01*
X87499Y17201D02*
Y51008D01*
X164000Y93500D02*
Y96500D01*
X158000Y93500D02*
Y96500D01*
X138873Y95001D02*
X139250Y95000D01*
X146750D02*
X147127Y94999D01*
X139312Y107751D02*
X139689Y107750D01*
X113250Y93750D02*
Y96250D01*
X126750Y93750D02*
Y96250D01*
X90250Y93750D02*
Y96250D01*
X103750Y93750D02*
Y96250D01*
X177300Y-110800D02*
X202700D01*
Y-9200D01*
X177300Y-110800D02*
Y-9200D01*
X202700D01*
X177300Y-800D02*
X202700D01*
Y100800D01*
X177300Y-800D02*
Y100800D01*
X202700D01*
X-147500Y-62000D02*
X-144500D01*
X-147500Y-56000D02*
X-144500D01*
X77000Y141000D02*
Y144000D01*
X83000Y141000D02*
Y144000D01*
D15*
X-47230Y-101230D02*
Y-95232D01*
X-43231Y-101230D01*
Y-95232D01*
X-38233Y-101230D02*
X-40232D01*
X-41232Y-100230D01*
Y-98231D01*
X-40232Y-97231D01*
X-38233D01*
X-37233Y-98231D01*
Y-99231D01*
X-41232D01*
X-35234Y-101230D02*
Y-97231D01*
X-34234D01*
X-33235Y-98231D01*
Y-101230D01*
Y-98231D01*
X-32235Y-97231D01*
X-31235Y-98231D01*
Y-101230D01*
X-28236Y-97231D02*
X-26237D01*
X-25237Y-98231D01*
Y-101230D01*
X-28236D01*
X-29236Y-100230D01*
X-28236Y-99231D01*
X-25237D01*
X-23238Y-101230D02*
X-21238D01*
X-22238D01*
Y-95232D01*
X-23238Y-96232D01*
X-18239Y-95232D02*
X-14241D01*
Y-96232D01*
X-18239Y-100230D01*
Y-101230D01*
X-2245Y-96232D02*
X-3244Y-95232D01*
X-5244D01*
X-6243Y-96232D01*
Y-100230D01*
X-5244Y-101230D01*
X-3244D01*
X-2245Y-100230D01*
X754Y-101230D02*
X2754D01*
X3753Y-100230D01*
Y-98231D01*
X2754Y-97231D01*
X754D01*
X-245Y-98231D01*
Y-100230D01*
X754Y-101230D01*
X5753D02*
Y-97231D01*
X8752D01*
X9751Y-98231D01*
Y-101230D01*
X12751Y-96232D02*
Y-97231D01*
X11751D01*
X13750D01*
X12751D01*
Y-100230D01*
X13750Y-101230D01*
X16749Y-97231D02*
Y-101230D01*
Y-99231D01*
X17749Y-98231D01*
X18749Y-97231D01*
X19748D01*
X23747Y-101230D02*
X25746D01*
X26746Y-100230D01*
Y-98231D01*
X25746Y-97231D01*
X23747D01*
X22747Y-98231D01*
Y-100230D01*
X23747Y-101230D01*
X28745D02*
X30745D01*
X29745D01*
Y-95232D01*
X28745D01*
X33744Y-101230D02*
X35743D01*
X34743D01*
Y-95232D01*
X33744D01*
X41741Y-101230D02*
X39742D01*
X38742Y-100230D01*
Y-98231D01*
X39742Y-97231D01*
X41741D01*
X42741Y-98231D01*
Y-99231D01*
X38742D01*
X44740Y-97231D02*
Y-101230D01*
Y-99231D01*
X45740Y-98231D01*
X46740Y-97231D01*
X47739D01*
X-8730Y-7730D02*
Y-1732D01*
X-5731D01*
X-4731Y-2732D01*
Y-4731D01*
X-5731Y-5731D01*
X-8730D01*
X267Y-1732D02*
X-1732D01*
X-2732Y-2732D01*
Y-6730D01*
X-1732Y-7730D01*
X267D01*
X1267Y-6730D01*
Y-2732D01*
X267Y-1732D01*
X3266D02*
X7265D01*
X5265D01*
Y-7730D01*
D16*
X-197203Y121203D02*
X-195204Y123202D01*
Y127201D01*
X-197203Y129200D01*
X-205201D01*
X-207200Y127201D01*
Y123202D01*
X-205201Y121203D01*
X-201202D01*
Y125201D01*
X-207200Y117204D02*
X-195204D01*
X-207200Y109206D01*
X-195204D01*
Y105208D02*
X-207200D01*
Y99210D01*
X-205201Y97210D01*
X-197203D01*
X-195204Y99210D01*
Y105208D01*
X-207200Y-18800D02*
Y-22799D01*
Y-20799D01*
X-195204D01*
X-197203Y-18800D01*
X-207200Y-36794D02*
Y-28797D01*
X-199202Y-36794D01*
X-197203D01*
X-195204Y-34795D01*
Y-30796D01*
X-197203Y-28797D01*
X-195204Y-40793D02*
X-203201D01*
X-207200Y-44792D01*
X-203201Y-48790D01*
X-195204D01*
D17*
X-162653Y-11622D02*
X-154189Y-20086D01*
X-162653D02*
X-154189Y-11622D01*
X-162653Y-15854D02*
X-154189D01*
X-158421Y-20086D02*
Y-11622D01*
X-72589Y152040D02*
X-64125Y143576D01*
X-72589D02*
X-64125Y152040D01*
X-72589Y147808D02*
X-64125D01*
X-68357Y143576D02*
Y152040D01*
M02*
