G04*
G04 #@! TF.GenerationSoftware,Altium Limited,Altium Designer,20.0.7 (75)*
G04*
G04 Layer_Color=8388736*
%FSLAX44Y44*%
%MOMM*%
G71*
G01*
G75*
%ADD20R,0.8128X0.4064*%
%ADD21R,0.4064X0.8128*%
%ADD24R,0.7112X0.9906*%
G04:AMPARAMS|DCode=36|XSize=1.5432mm|YSize=2.0032mm|CornerRadius=0.1686mm|HoleSize=0mm|Usage=FLASHONLY|Rotation=270.000|XOffset=0mm|YOffset=0mm|HoleType=Round|Shape=RoundedRectangle|*
%AMROUNDEDRECTD36*
21,1,1.5432,1.6660,0,0,270.0*
21,1,1.2060,2.0032,0,0,270.0*
1,1,0.3372,-0.8330,-0.6030*
1,1,0.3372,-0.8330,0.6030*
1,1,0.3372,0.8330,0.6030*
1,1,0.3372,0.8330,-0.6030*
%
%ADD36ROUNDEDRECTD36*%
%ADD37R,1.6510X1.6510*%
%ADD38R,0.9144X0.9144*%
G04:AMPARAMS|DCode=39|XSize=1.1032mm|YSize=1.0032mm|CornerRadius=0.1616mm|HoleSize=0mm|Usage=FLASHONLY|Rotation=0.000|XOffset=0mm|YOffset=0mm|HoleType=Round|Shape=RoundedRectangle|*
%AMROUNDEDRECTD39*
21,1,1.1032,0.6800,0,0,0.0*
21,1,0.7800,1.0032,0,0,0.0*
1,1,0.3232,0.3900,-0.3400*
1,1,0.3232,-0.3900,-0.3400*
1,1,0.3232,-0.3900,0.3400*
1,1,0.3232,0.3900,0.3400*
%
%ADD39ROUNDEDRECTD39*%
G04:AMPARAMS|DCode=40|XSize=1.1032mm|YSize=1.0032mm|CornerRadius=0.1616mm|HoleSize=0mm|Usage=FLASHONLY|Rotation=270.000|XOffset=0mm|YOffset=0mm|HoleType=Round|Shape=RoundedRectangle|*
%AMROUNDEDRECTD40*
21,1,1.1032,0.6800,0,0,270.0*
21,1,0.7800,1.0032,0,0,270.0*
1,1,0.3232,-0.3400,-0.3900*
1,1,0.3232,-0.3400,0.3900*
1,1,0.3232,0.3400,0.3900*
1,1,0.3232,0.3400,-0.3900*
%
%ADD40ROUNDEDRECTD40*%
G04:AMPARAMS|DCode=41|XSize=1.0032mm|YSize=1.1032mm|CornerRadius=0.1616mm|HoleSize=0mm|Usage=FLASHONLY|Rotation=0.000|XOffset=0mm|YOffset=0mm|HoleType=Round|Shape=RoundedRectangle|*
%AMROUNDEDRECTD41*
21,1,1.0032,0.7800,0,0,0.0*
21,1,0.6800,1.1032,0,0,0.0*
1,1,0.3232,0.3400,-0.3900*
1,1,0.3232,-0.3400,-0.3900*
1,1,0.3232,-0.3400,0.3900*
1,1,0.3232,0.3400,0.3900*
%
%ADD41ROUNDEDRECTD41*%
%ADD42R,1.5240X0.6350*%
G04:AMPARAMS|DCode=43|XSize=1.2032mm|YSize=1.7032mm|CornerRadius=0.1516mm|HoleSize=0mm|Usage=FLASHONLY|Rotation=270.000|XOffset=0mm|YOffset=0mm|HoleType=Round|Shape=RoundedRectangle|*
%AMROUNDEDRECTD43*
21,1,1.2032,1.4000,0,0,270.0*
21,1,0.9000,1.7032,0,0,270.0*
1,1,0.3032,-0.7000,-0.4500*
1,1,0.3032,-0.7000,0.4500*
1,1,0.3032,0.7000,0.4500*
1,1,0.3032,0.7000,-0.4500*
%
%ADD43ROUNDEDRECTD43*%
G04:AMPARAMS|DCode=44|XSize=0.8032mm|YSize=1.2532mm|CornerRadius=0.1466mm|HoleSize=0mm|Usage=FLASHONLY|Rotation=0.000|XOffset=0mm|YOffset=0mm|HoleType=Round|Shape=RoundedRectangle|*
%AMROUNDEDRECTD44*
21,1,0.8032,0.9600,0,0,0.0*
21,1,0.5100,1.2532,0,0,0.0*
1,1,0.2932,0.2550,-0.4800*
1,1,0.2932,-0.2550,-0.4800*
1,1,0.2932,-0.2550,0.4800*
1,1,0.2932,0.2550,0.4800*
%
%ADD44ROUNDEDRECTD44*%
%ADD45R,1.1532X1.1032*%
G04:AMPARAMS|DCode=46|XSize=1.1532mm|YSize=1.6032mm|CornerRadius=0.1729mm|HoleSize=0mm|Usage=FLASHONLY|Rotation=90.000|XOffset=0mm|YOffset=0mm|HoleType=Round|Shape=RoundedRectangle|*
%AMROUNDEDRECTD46*
21,1,1.1532,1.2575,0,0,90.0*
21,1,0.8075,1.6032,0,0,90.0*
1,1,0.3457,0.6288,0.4037*
1,1,0.3457,0.6288,-0.4037*
1,1,0.3457,-0.6288,-0.4037*
1,1,0.3457,-0.6288,0.4037*
%
%ADD46ROUNDEDRECTD46*%
G04:AMPARAMS|DCode=47|XSize=1.0032mm|YSize=1.1032mm|CornerRadius=0.1616mm|HoleSize=0mm|Usage=FLASHONLY|Rotation=90.000|XOffset=0mm|YOffset=0mm|HoleType=Round|Shape=RoundedRectangle|*
%AMROUNDEDRECTD47*
21,1,1.0032,0.7800,0,0,90.0*
21,1,0.6800,1.1032,0,0,90.0*
1,1,0.3232,0.3900,0.3400*
1,1,0.3232,0.3900,-0.3400*
1,1,0.3232,-0.3900,-0.3400*
1,1,0.3232,-0.3900,0.3400*
%
%ADD47ROUNDEDRECTD47*%
G04:AMPARAMS|DCode=48|XSize=1.7032mm|YSize=2.2032mm|CornerRadius=0.2891mm|HoleSize=0mm|Usage=FLASHONLY|Rotation=180.000|XOffset=0mm|YOffset=0mm|HoleType=Round|Shape=RoundedRectangle|*
%AMROUNDEDRECTD48*
21,1,1.7032,1.6250,0,0,180.0*
21,1,1.1250,2.2032,0,0,180.0*
1,1,0.5782,-0.5625,0.8125*
1,1,0.5782,0.5625,0.8125*
1,1,0.5782,0.5625,-0.8125*
1,1,0.5782,-0.5625,-0.8125*
%
%ADD48ROUNDEDRECTD48*%
G04:AMPARAMS|DCode=49|XSize=4.0032mm|YSize=2.2032mm|CornerRadius=0.1516mm|HoleSize=0mm|Usage=FLASHONLY|Rotation=180.000|XOffset=0mm|YOffset=0mm|HoleType=Round|Shape=RoundedRectangle|*
%AMROUNDEDRECTD49*
21,1,4.0032,1.9000,0,0,180.0*
21,1,3.7000,2.2032,0,0,180.0*
1,1,0.3032,-1.8500,0.9500*
1,1,0.3032,1.8500,0.9500*
1,1,0.3032,1.8500,-0.9500*
1,1,0.3032,-1.8500,-0.9500*
%
%ADD49ROUNDEDRECTD49*%
%ADD50C,1.7032*%
%ADD51R,1.7032X1.7032*%
%ADD52O,2.0032X3.2032*%
%ADD53R,2.0032X3.2032*%
%ADD54R,1.7032X1.7032*%
%ADD55C,3.2032*%
%ADD56R,3.2032X3.2032*%
%ADD57R,1.7032X2.2032*%
%ADD58O,1.7032X2.2032*%
%ADD59C,8.2032*%
%ADD60C,0.5000*%
%ADD61C,0.7032*%
D20*
X-59000Y140000D02*
D03*
Y132000D02*
D03*
Y124000D02*
D03*
Y116000D02*
D03*
Y108000D02*
D03*
Y100000D02*
D03*
Y92000D02*
D03*
Y84000D02*
D03*
Y76000D02*
D03*
Y68000D02*
D03*
Y60000D02*
D03*
X59000D02*
D03*
Y68000D02*
D03*
Y76000D02*
D03*
Y84000D02*
D03*
Y92000D02*
D03*
Y100000D02*
D03*
Y108000D02*
D03*
Y116000D02*
D03*
Y124000D02*
D03*
Y132000D02*
D03*
Y140000D02*
D03*
D21*
X-48000Y51000D02*
D03*
X-40000D02*
D03*
X-32000D02*
D03*
X-24000D02*
D03*
X-16000D02*
D03*
X-8000D02*
D03*
X0D02*
D03*
X8000D02*
D03*
X16000D02*
D03*
X24000D02*
D03*
X32000D02*
D03*
X40000D02*
D03*
X48000D02*
D03*
X48000Y149000D02*
D03*
X40000D02*
D03*
X32000D02*
D03*
X24000D02*
D03*
X16000D02*
D03*
X8000D02*
D03*
X0D02*
D03*
X-8000D02*
D03*
X-16000D02*
D03*
X-24000D02*
D03*
X-32000D02*
D03*
X-40000D02*
D03*
X-48000D02*
D03*
D24*
X-97250Y78500D02*
D03*
Y33500D02*
D03*
X-118750Y78500D02*
D03*
Y33500D02*
D03*
D36*
X161036Y-70282D02*
D03*
Y-98882D02*
D03*
D37*
X0Y100000D02*
D03*
X19750Y119750D02*
D03*
Y100000D02*
D03*
Y80250D02*
D03*
X0D02*
D03*
X-19750D02*
D03*
Y100000D02*
D03*
Y119750D02*
D03*
X0D02*
D03*
D38*
X59500Y149500D02*
D03*
Y50500D02*
D03*
X-59500D02*
D03*
Y149500D02*
D03*
D39*
X-137500Y105000D02*
D03*
X-154500D02*
D03*
X-137500Y-59000D02*
D03*
X-154500D02*
D03*
D40*
X-105000Y-23500D02*
D03*
Y-6500D02*
D03*
X-100000Y-81500D02*
D03*
Y-98500D02*
D03*
X-80000Y73500D02*
D03*
Y56500D02*
D03*
Y108500D02*
D03*
Y91500D02*
D03*
X100000Y151000D02*
D03*
Y134000D02*
D03*
X161000Y103500D02*
D03*
Y86500D02*
D03*
X80000Y134000D02*
D03*
Y151000D02*
D03*
D41*
X-186500Y105000D02*
D03*
X-171500D02*
D03*
D42*
X-133062Y-25250D02*
D03*
Y-31750D02*
D03*
Y-38250D02*
D03*
Y-44750D02*
D03*
X-156938D02*
D03*
Y-38250D02*
D03*
Y-31750D02*
D03*
Y-25250D02*
D03*
D43*
X-185000Y-56000D02*
D03*
Y-24000D02*
D03*
D44*
X-185000Y-101850D02*
D03*
X-194500Y-78150D02*
D03*
X-175500D02*
D03*
X-125000Y-101850D02*
D03*
X-134500Y-78150D02*
D03*
X-115500D02*
D03*
X-95000Y-66850D02*
D03*
X-104500Y-43150D02*
D03*
X-85500D02*
D03*
D45*
X-155000Y-102750D02*
D03*
Y-71250D02*
D03*
X-90000Y-25750D02*
D03*
Y5750D02*
D03*
D46*
X-100000Y90750D02*
D03*
Y109250D02*
D03*
X-80000Y144250D02*
D03*
Y125750D02*
D03*
X-100000Y144250D02*
D03*
Y125750D02*
D03*
X120000Y104250D02*
D03*
Y85750D02*
D03*
X97000Y104250D02*
D03*
Y85750D02*
D03*
D47*
X100000Y167500D02*
D03*
Y182500D02*
D03*
X80000Y167500D02*
D03*
Y182500D02*
D03*
X143000Y102500D02*
D03*
Y87500D02*
D03*
D48*
X97000Y65000D02*
D03*
X143000D02*
D03*
X120000D02*
D03*
D49*
Y3000D02*
D03*
D50*
X-109474Y195326D02*
D03*
X63500Y-92700D02*
D03*
X63500Y-16501D02*
D03*
X63500Y-41900D02*
D03*
Y-67300D02*
D03*
Y-118100D02*
D03*
Y-143500D02*
D03*
Y-168900D02*
D03*
X-63500D02*
D03*
Y-143500D02*
D03*
Y-118100D02*
D03*
Y-92700D02*
D03*
Y-67300D02*
D03*
Y-41900D02*
D03*
Y-16500D02*
D03*
Y8900D02*
D03*
X190000Y-72700D02*
D03*
X190000Y-47300D02*
D03*
Y-21900D02*
D03*
X190000Y37300D02*
D03*
X190000Y62700D02*
D03*
Y88100D02*
D03*
D51*
X-84074Y195326D02*
D03*
D52*
X-38100Y-196596D02*
D03*
X-12700D02*
D03*
X12700Y-196596D02*
D03*
D53*
X38100D02*
D03*
D54*
X63500Y8899D02*
D03*
X190000Y-98100D02*
D03*
Y11900D02*
D03*
D55*
X-170000Y65000D02*
D03*
D56*
Y15000D02*
D03*
D57*
X110000Y-96000D02*
D03*
X109000Y-38000D02*
D03*
D58*
X130000Y-96000D02*
D03*
X129000Y-38000D02*
D03*
D59*
X-155000Y155000D02*
D03*
X155000D02*
D03*
X-155000Y-155000D02*
D03*
X155000D02*
D03*
D60*
X200000Y180000D02*
D03*
Y140000D02*
D03*
X190000Y120000D02*
D03*
X200000Y100000D02*
D03*
Y-60000D02*
D03*
X190000Y-120000D02*
D03*
X200000Y-140000D02*
D03*
Y-180000D02*
D03*
X190000Y-200000D02*
D03*
X180000Y100000D02*
D03*
X170000Y80000D02*
D03*
Y0D02*
D03*
Y-40000D02*
D03*
Y-200000D02*
D03*
X150000Y40000D02*
D03*
X160000Y20000D02*
D03*
Y-20000D02*
D03*
X150000Y-40000D02*
D03*
Y-200000D02*
D03*
X130000Y40000D02*
D03*
X140000Y20000D02*
D03*
Y-20000D02*
D03*
X130000Y-200000D02*
D03*
X110000Y120000D02*
D03*
Y40000D02*
D03*
X120000Y-20000D02*
D03*
X110000Y-160000D02*
D03*
Y-200000D02*
D03*
X90000Y160000D02*
D03*
Y120000D02*
D03*
Y-80000D02*
D03*
Y-120000D02*
D03*
Y-200000D02*
D03*
X70000Y40000D02*
D03*
X80000Y-60000D02*
D03*
X70000Y-80000D02*
D03*
X80000Y-100000D02*
D03*
Y-140000D02*
D03*
X70000Y-200000D02*
D03*
X50000Y40000D02*
D03*
Y-40000D02*
D03*
Y-80000D02*
D03*
X40000Y-60000D02*
D03*
X30000Y-80000D02*
D03*
X20000Y-60000D02*
D03*
X0Y140000D02*
D03*
X-40000D02*
D03*
X-70000Y-200000D02*
D03*
X-90000Y160000D02*
D03*
X-80000Y-60000D02*
D03*
X-90000Y-80000D02*
D03*
X-80000Y-100000D02*
D03*
X-90000Y-200000D02*
D03*
X-100000Y180000D02*
D03*
X-110000Y160000D02*
D03*
X-100000Y-180000D02*
D03*
X-110000Y-200000D02*
D03*
X-130000Y80000D02*
D03*
Y40000D02*
D03*
X-120000Y20000D02*
D03*
X-130000Y0D02*
D03*
Y-200000D02*
D03*
X-150000Y80000D02*
D03*
X-140000Y60000D02*
D03*
X-150000Y40000D02*
D03*
X-140000Y20000D02*
D03*
X-150000Y-200000D02*
D03*
X-170000Y40000D02*
D03*
Y-200000D02*
D03*
X-190000Y120000D02*
D03*
Y40000D02*
D03*
Y-120000D02*
D03*
Y-200000D02*
D03*
D61*
X40132Y134620D02*
D03*
X80010Y118872D02*
D03*
X-97000Y67000D02*
D03*
X-142304Y-67384D02*
D03*
X72250Y76230D02*
D03*
X72323Y68056D02*
D03*
X-126750Y104250D02*
D03*
X-88000Y80250D02*
D03*
X-114750Y108000D02*
D03*
X-167750Y-46250D02*
D03*
X-48750Y27040D02*
D03*
X42000Y35000D02*
D03*
X8250Y61500D02*
D03*
X91750Y133250D02*
D03*
X-46750Y101250D02*
D03*
X72750Y99500D02*
D03*
Y107500D02*
D03*
X-39252Y26001D02*
D03*
X-479Y24521D02*
D03*
M02*
