G04*
G04 #@! TF.GenerationSoftware,Altium Limited,Altium Designer,20.0.7 (75)*
G04*
G04 Layer_Color=32896*
%FSLAX44Y44*%
%MOMM*%
G71*
G01*
G75*
%ADD10C,0.5080*%
%ADD11C,0.1524*%
%ADD12C,0.2540*%
%ADD13C,0.1500*%
%ADD14C,0.2000*%
%ADD15C,0.1270*%
%ADD17C,0.0762*%
D10*
X-93440Y97021D02*
G03*
X-93440Y97021I-3810J0D01*
G01*
D11*
X-20828Y-25781D02*
X20828D01*
X-20828Y25781D02*
X20828D01*
D12*
X-118078Y95887D02*
X-120618Y98426D01*
Y103505D01*
X-118078Y106044D01*
X-107922D01*
X-105382Y103505D01*
Y98426D01*
X-107922Y95887D01*
X-105382Y90809D02*
Y85730D01*
Y88270D01*
X-120618D01*
X-118078Y90809D01*
Y78113D02*
X-120618Y75574D01*
Y70495D01*
X-118078Y67956D01*
X-107922D01*
X-105382Y70495D01*
Y75574D01*
X-107922Y78113D01*
X-118078D01*
D13*
X62332Y10168D02*
X63998Y8502D01*
Y5170D01*
X62332Y3504D01*
X55668D01*
X54002Y5170D01*
Y8502D01*
X55668Y10168D01*
X54002Y13501D02*
Y16833D01*
Y15167D01*
X63998D01*
X62332Y13501D01*
X54002Y28496D02*
Y21831D01*
X60666Y28496D01*
X62332D01*
X63998Y26830D01*
Y23498D01*
X62332Y21831D01*
X-185334Y-39668D02*
X-183668Y-38002D01*
X-180336D01*
X-178669Y-39668D01*
Y-46332D01*
X-180336Y-47998D01*
X-183668D01*
X-185334Y-46332D01*
X-188666Y-38002D02*
X-195331D01*
Y-39668D01*
X-188666Y-46332D01*
Y-47998D01*
X19664Y38998D02*
Y30668D01*
X17998Y29002D01*
X14666D01*
X13000Y30668D01*
Y38998D01*
X9668Y29002D02*
X6335D01*
X8002D01*
Y38998D01*
X9668Y37332D01*
X-44671Y44002D02*
Y53998D01*
X-49669D01*
X-51336Y52332D01*
Y49000D01*
X-49669Y47334D01*
X-44671D01*
X-48003D02*
X-51336Y44002D01*
X-61332D02*
X-54668D01*
X-61332Y50666D01*
Y52332D01*
X-59666Y53998D01*
X-56334D01*
X-54668Y52332D01*
X-64665D02*
X-66331Y53998D01*
X-69663D01*
X-71329Y52332D01*
Y45668D01*
X-69663Y44002D01*
X-66331D01*
X-64665Y45668D01*
Y52332D01*
X-16504Y44002D02*
Y53998D01*
X-21502D01*
X-23168Y52332D01*
Y49000D01*
X-21502Y47334D01*
X-16504D01*
X-19836D02*
X-23168Y44002D01*
X-26501D02*
X-29833D01*
X-28167D01*
Y53998D01*
X-26501Y52332D01*
X-34832Y45668D02*
X-36498Y44002D01*
X-39830D01*
X-41496Y45668D01*
Y52332D01*
X-39830Y53998D01*
X-36498D01*
X-34832Y52332D01*
Y50666D01*
X-36498Y49000D01*
X-41496D01*
X175496Y-44998D02*
Y-35002D01*
X170498D01*
X168832Y-36668D01*
Y-40000D01*
X170498Y-41666D01*
X175496D01*
X172164D02*
X168832Y-44998D01*
X165499D02*
X162167D01*
X163833D01*
Y-35002D01*
X165499Y-36668D01*
X157169D02*
X155502Y-35002D01*
X152170D01*
X150504Y-36668D01*
Y-38334D01*
X152170Y-40000D01*
X153836D01*
X152170D01*
X150504Y-41666D01*
Y-43332D01*
X152170Y-44998D01*
X155502D01*
X157169Y-43332D01*
X176496Y-82998D02*
Y-73002D01*
X171498D01*
X169832Y-74668D01*
Y-78000D01*
X171498Y-79666D01*
X176496D01*
X173164D02*
X169832Y-82998D01*
X166499D02*
X163167D01*
X164833D01*
Y-73002D01*
X166499Y-74668D01*
X151504Y-82998D02*
X158168D01*
X151504Y-76334D01*
Y-74668D01*
X153170Y-73002D01*
X156502D01*
X158168Y-74668D01*
X33830Y43002D02*
Y52998D01*
X28831D01*
X27165Y51332D01*
Y48000D01*
X28831Y46334D01*
X33830D01*
X30498D02*
X27165Y43002D01*
X23833D02*
X20501D01*
X22167D01*
Y52998D01*
X23833Y51332D01*
X15502Y43002D02*
X12170D01*
X13836D01*
Y52998D01*
X15502Y51332D01*
X13496Y-108998D02*
Y-99002D01*
X8498D01*
X6831Y-100668D01*
Y-104000D01*
X8498Y-105666D01*
X13496D01*
X10164D02*
X6831Y-108998D01*
X3499D02*
X167D01*
X1833D01*
Y-99002D01*
X3499Y-100668D01*
X-4832D02*
X-6498Y-99002D01*
X-9830D01*
X-11496Y-100668D01*
Y-107332D01*
X-9830Y-108998D01*
X-6498D01*
X-4832Y-107332D01*
Y-100668D01*
X13331Y-121998D02*
Y-112002D01*
X8332D01*
X6666Y-113668D01*
Y-117000D01*
X8332Y-118666D01*
X13331D01*
X9998D02*
X6666Y-121998D01*
X3334Y-120332D02*
X1668Y-121998D01*
X-1664D01*
X-3331Y-120332D01*
Y-113668D01*
X-1664Y-112002D01*
X1668D01*
X3334Y-113668D01*
Y-115334D01*
X1668Y-117000D01*
X-3331D01*
X13331Y-138998D02*
Y-129002D01*
X8332D01*
X6666Y-130668D01*
Y-134000D01*
X8332Y-135666D01*
X13331D01*
X9998D02*
X6666Y-138998D01*
X3334Y-130668D02*
X1668Y-129002D01*
X-1664D01*
X-3331Y-130668D01*
Y-132334D01*
X-1664Y-134000D01*
X-3331Y-135666D01*
Y-137332D01*
X-1664Y-138998D01*
X1668D01*
X3334Y-137332D01*
Y-135666D01*
X1668Y-134000D01*
X3334Y-132334D01*
Y-130668D01*
X1668Y-134000D02*
X-1664D01*
X26331Y-53998D02*
Y-44002D01*
X21332D01*
X19666Y-45668D01*
Y-49000D01*
X21332Y-50666D01*
X26331D01*
X22998D02*
X19666Y-53998D01*
X9669D02*
X16334D01*
X9669Y-47334D01*
Y-45668D01*
X11336Y-44002D01*
X14668D01*
X16334Y-45668D01*
X-7336Y-53998D02*
Y-44002D01*
X-12334D01*
X-14000Y-45668D01*
Y-49000D01*
X-12334Y-50666D01*
X-7336D01*
X-10668D02*
X-14000Y-53998D01*
X-17332D02*
X-20665D01*
X-18998D01*
Y-44002D01*
X-17332Y-45668D01*
X-168000Y-39668D02*
X-166334Y-38002D01*
X-163002D01*
X-161336Y-39668D01*
Y-46332D01*
X-163002Y-47998D01*
X-166334D01*
X-168000Y-46332D01*
X-171332Y-47998D02*
X-174664D01*
X-172998D01*
Y-38002D01*
X-171332Y-39668D01*
D14*
X28000Y-108500D02*
X31000D01*
X28000Y-102500D02*
X31000D01*
X28000Y-123500D02*
X31000D01*
X28000Y-117500D02*
X31000D01*
X28000Y-138500D02*
X31000D01*
X28000Y-132500D02*
X31000D01*
X161500Y-69000D02*
X164500D01*
X161500Y-63000D02*
X164500D01*
X161500Y-56000D02*
X164500D01*
X161500Y-50000D02*
X164500D01*
X-171627Y-62501D02*
X-171250Y-62500D01*
X-163750D02*
X-163373Y-62499D01*
X-185127Y-63001D02*
X-184750Y-63000D01*
X-177250D02*
X-176873Y-62999D01*
X-16500Y-40500D02*
X-13500D01*
X-16500Y-34500D02*
X-13500D01*
X16000Y-40500D02*
X19000D01*
X16000Y-34500D02*
X19000D01*
X23500Y32000D02*
X26500D01*
X23500Y38000D02*
X26500D01*
X-97250Y55000D02*
X-96873Y55001D01*
X-105127Y54999D02*
X-104750Y55000D01*
X40873Y14999D02*
X41250Y15000D01*
X48750D02*
X49127Y15001D01*
X-59000Y38000D02*
X-56000D01*
X-59000Y32000D02*
X-56000D01*
X-29000D02*
X-26000D01*
X-29000Y38000D02*
X-26000D01*
D15*
X-18770Y-136230D02*
Y-130232D01*
X-20769Y-132231D01*
X-22769Y-130232D01*
Y-136230D01*
X-28767Y-131232D02*
X-27767Y-130232D01*
X-25768D01*
X-24768Y-131232D01*
Y-132231D01*
X-25768Y-133231D01*
X-27767D01*
X-28767Y-134231D01*
Y-135230D01*
X-27767Y-136230D01*
X-25768D01*
X-24768Y-135230D01*
X-30766Y-136230D02*
X-32766D01*
X-31766D01*
Y-130232D01*
X-30766Y-131232D01*
X-18770Y-121230D02*
Y-115232D01*
X-20769Y-117231D01*
X-22769Y-115232D01*
Y-121230D01*
X-28767Y-116232D02*
X-27767Y-115232D01*
X-25768D01*
X-24768Y-116232D01*
Y-117231D01*
X-25768Y-118231D01*
X-27767D01*
X-28767Y-119231D01*
Y-120230D01*
X-27767Y-121230D01*
X-25768D01*
X-24768Y-120230D01*
X-34765Y-121230D02*
X-30766D01*
X-34765Y-117231D01*
Y-116232D01*
X-33765Y-115232D01*
X-31766D01*
X-30766Y-116232D01*
X-18770Y-106230D02*
Y-100232D01*
X-20769Y-102231D01*
X-22769Y-100232D01*
Y-106230D01*
X-28767Y-101232D02*
X-27767Y-100232D01*
X-25768D01*
X-24768Y-101232D01*
Y-102231D01*
X-25768Y-103231D01*
X-27767D01*
X-28767Y-104231D01*
Y-105230D01*
X-27767Y-106230D01*
X-25768D01*
X-24768Y-105230D01*
X-30766Y-101232D02*
X-31766Y-100232D01*
X-33765D01*
X-34765Y-101232D01*
Y-102231D01*
X-33765Y-103231D01*
X-32766D01*
X-33765D01*
X-34765Y-104231D01*
Y-105230D01*
X-33765Y-106230D01*
X-31766D01*
X-30766Y-105230D01*
D17*
X33288Y33948D02*
X24824Y25484D01*
X33288D02*
X24824Y33948D01*
X33288Y29716D02*
X24824D01*
X29056Y25484D02*
Y33948D01*
M02*
