G04*
G04 #@! TF.GenerationSoftware,Altium Limited,Altium Designer,20.0.7 (75)*
G04*
G04 Layer_Color=16711935*
%FSLAX44Y44*%
%MOMM*%
G71*
G01*
G75*
G04:AMPARAMS|DCode=39|XSize=1.1032mm|YSize=1.0032mm|CornerRadius=0.1616mm|HoleSize=0mm|Usage=FLASHONLY|Rotation=0.000|XOffset=0mm|YOffset=0mm|HoleType=Round|Shape=RoundedRectangle|*
%AMROUNDEDRECTD39*
21,1,1.1032,0.6800,0,0,0.0*
21,1,0.7800,1.0032,0,0,0.0*
1,1,0.3232,0.3900,-0.3400*
1,1,0.3232,-0.3900,-0.3400*
1,1,0.3232,-0.3900,0.3400*
1,1,0.3232,0.3900,0.3400*
%
%ADD39ROUNDEDRECTD39*%
G04:AMPARAMS|DCode=47|XSize=1.0032mm|YSize=1.1032mm|CornerRadius=0.1616mm|HoleSize=0mm|Usage=FLASHONLY|Rotation=90.000|XOffset=0mm|YOffset=0mm|HoleType=Round|Shape=RoundedRectangle|*
%AMROUNDEDRECTD47*
21,1,1.0032,0.7800,0,0,90.0*
21,1,0.6800,1.1032,0,0,90.0*
1,1,0.3232,0.3900,0.3400*
1,1,0.3232,0.3900,-0.3400*
1,1,0.3232,-0.3900,-0.3400*
1,1,0.3232,-0.3900,0.3400*
%
%ADD47ROUNDEDRECTD47*%
%ADD50C,1.7032*%
%ADD51R,1.7032X1.7032*%
%ADD52O,2.0032X3.2032*%
%ADD53R,2.0032X3.2032*%
%ADD54R,1.7032X1.7032*%
%ADD55C,3.2032*%
%ADD56R,3.2032X3.2032*%
%ADD57R,1.7032X2.2032*%
%ADD58O,1.7032X2.2032*%
%ADD59C,8.2032*%
%ADD61C,0.7032*%
%ADD77R,1.6030X0.5588*%
D39*
X21000Y-105500D02*
D03*
X38000D02*
D03*
X21000Y-120500D02*
D03*
X38000D02*
D03*
X21000Y-135500D02*
D03*
X38000D02*
D03*
X154500Y-66000D02*
D03*
X171500D02*
D03*
X154500Y-53000D02*
D03*
X171500D02*
D03*
X-23500Y-37500D02*
D03*
X-6500D02*
D03*
X9000D02*
D03*
X26000D02*
D03*
X16500Y35000D02*
D03*
X33500D02*
D03*
X-49000D02*
D03*
X-66000D02*
D03*
X-36000D02*
D03*
X-19000D02*
D03*
D47*
X-167500Y-70000D02*
D03*
Y-55000D02*
D03*
X-181000Y-70500D02*
D03*
Y-55500D02*
D03*
X-101000Y62500D02*
D03*
Y47500D02*
D03*
X45000Y7500D02*
D03*
Y22500D02*
D03*
D50*
X-109474Y195326D02*
D03*
X63500Y-92700D02*
D03*
X63500Y-16501D02*
D03*
X63500Y-41900D02*
D03*
Y-67300D02*
D03*
Y-118100D02*
D03*
Y-143500D02*
D03*
Y-168900D02*
D03*
X-63500D02*
D03*
Y-143500D02*
D03*
Y-118100D02*
D03*
Y-92700D02*
D03*
Y-67300D02*
D03*
Y-41900D02*
D03*
Y-16500D02*
D03*
Y8900D02*
D03*
X190000Y-72700D02*
D03*
X190000Y-47300D02*
D03*
Y-21900D02*
D03*
X190000Y37300D02*
D03*
X190000Y62700D02*
D03*
Y88100D02*
D03*
D51*
X-84074Y195326D02*
D03*
D52*
X-38100Y-196596D02*
D03*
X-12700D02*
D03*
X12700Y-196596D02*
D03*
D53*
X38100D02*
D03*
D54*
X63500Y8899D02*
D03*
X190000Y-98100D02*
D03*
Y11900D02*
D03*
D55*
X-170000Y65000D02*
D03*
D56*
Y15000D02*
D03*
D57*
X110000Y-96000D02*
D03*
X109000Y-38000D02*
D03*
D58*
X130000Y-96000D02*
D03*
X129000Y-38000D02*
D03*
D59*
X-155000Y155000D02*
D03*
X155000D02*
D03*
X-155000Y-155000D02*
D03*
X155000D02*
D03*
D61*
X40132Y134620D02*
D03*
X80010Y118872D02*
D03*
X-97000Y67000D02*
D03*
X-142304Y-67384D02*
D03*
X72250Y76230D02*
D03*
X72323Y68056D02*
D03*
X-126750Y104250D02*
D03*
X-88000Y80250D02*
D03*
X-114750Y108000D02*
D03*
X-167750Y-46250D02*
D03*
X-48750Y27040D02*
D03*
X42000Y35000D02*
D03*
X8250Y61500D02*
D03*
X91750Y133250D02*
D03*
X-46750Y101250D02*
D03*
X72750Y99500D02*
D03*
Y107500D02*
D03*
X-39252Y26001D02*
D03*
X-479Y24521D02*
D03*
D77*
X27573Y19050D02*
D03*
Y6350D02*
D03*
Y-6350D02*
D03*
Y-19050D02*
D03*
X-27573D02*
D03*
Y-6350D02*
D03*
Y6350D02*
D03*
Y19050D02*
D03*
M02*
