G04*
G04 #@! TF.GenerationSoftware,Altium Limited,Altium Designer,20.0.7 (75)*
G04*
G04 Layer_Physical_Order=1*
G04 Layer_Color=255*
%FSLAX44Y44*%
%MOMM*%
G71*
G01*
G75*
%ADD13C,0.2000*%
G04:AMPARAMS|DCode=19|XSize=1.34mm|YSize=1.8mm|CornerRadius=0.067mm|HoleSize=0mm|Usage=FLASHONLY|Rotation=270.000|XOffset=0mm|YOffset=0mm|HoleType=Round|Shape=RoundedRectangle|*
%AMROUNDEDRECTD19*
21,1,1.3400,1.6660,0,0,270.0*
21,1,1.2060,1.8000,0,0,270.0*
1,1,0.1340,-0.8330,-0.6030*
1,1,0.1340,-0.8330,0.6030*
1,1,0.1340,0.8330,0.6030*
1,1,0.1340,0.8330,-0.6030*
%
%ADD19ROUNDEDRECTD19*%
%ADD20R,0.8128X0.4064*%
%ADD21R,0.4064X0.8128*%
%ADD22R,1.4478X1.4478*%
%ADD23R,0.7112X0.7112*%
%ADD24R,0.7112X0.9906*%
G04:AMPARAMS|DCode=25|XSize=0.9mm|YSize=0.8mm|CornerRadius=0.06mm|HoleSize=0mm|Usage=FLASHONLY|Rotation=0.000|XOffset=0mm|YOffset=0mm|HoleType=Round|Shape=RoundedRectangle|*
%AMROUNDEDRECTD25*
21,1,0.9000,0.6800,0,0,0.0*
21,1,0.7800,0.8000,0,0,0.0*
1,1,0.1200,0.3900,-0.3400*
1,1,0.1200,-0.3900,-0.3400*
1,1,0.1200,-0.3900,0.3400*
1,1,0.1200,0.3900,0.3400*
%
%ADD25ROUNDEDRECTD25*%
G04:AMPARAMS|DCode=26|XSize=0.9mm|YSize=0.8mm|CornerRadius=0.06mm|HoleSize=0mm|Usage=FLASHONLY|Rotation=270.000|XOffset=0mm|YOffset=0mm|HoleType=Round|Shape=RoundedRectangle|*
%AMROUNDEDRECTD26*
21,1,0.9000,0.6800,0,0,270.0*
21,1,0.7800,0.8000,0,0,270.0*
1,1,0.1200,-0.3400,-0.3900*
1,1,0.1200,-0.3400,0.3900*
1,1,0.1200,0.3400,0.3900*
1,1,0.1200,0.3400,-0.3900*
%
%ADD26ROUNDEDRECTD26*%
G04:AMPARAMS|DCode=27|XSize=0.8mm|YSize=0.9mm|CornerRadius=0.06mm|HoleSize=0mm|Usage=FLASHONLY|Rotation=0.000|XOffset=0mm|YOffset=0mm|HoleType=Round|Shape=RoundedRectangle|*
%AMROUNDEDRECTD27*
21,1,0.8000,0.7800,0,0,0.0*
21,1,0.6800,0.9000,0,0,0.0*
1,1,0.1200,0.3400,-0.3900*
1,1,0.1200,-0.3400,-0.3900*
1,1,0.1200,-0.3400,0.3900*
1,1,0.1200,0.3400,0.3900*
%
%ADD27ROUNDEDRECTD27*%
%ADD28R,1.3208X0.4318*%
G04:AMPARAMS|DCode=29|XSize=1mm|YSize=1.5mm|CornerRadius=0.05mm|HoleSize=0mm|Usage=FLASHONLY|Rotation=270.000|XOffset=0mm|YOffset=0mm|HoleType=Round|Shape=RoundedRectangle|*
%AMROUNDEDRECTD29*
21,1,1.0000,1.4000,0,0,270.0*
21,1,0.9000,1.5000,0,0,270.0*
1,1,0.1000,-0.7000,-0.4500*
1,1,0.1000,-0.7000,0.4500*
1,1,0.1000,0.7000,0.4500*
1,1,0.1000,0.7000,-0.4500*
%
%ADD29ROUNDEDRECTD29*%
G04:AMPARAMS|DCode=30|XSize=0.6mm|YSize=1.05mm|CornerRadius=0.045mm|HoleSize=0mm|Usage=FLASHONLY|Rotation=0.000|XOffset=0mm|YOffset=0mm|HoleType=Round|Shape=RoundedRectangle|*
%AMROUNDEDRECTD30*
21,1,0.6000,0.9600,0,0,0.0*
21,1,0.5100,1.0500,0,0,0.0*
1,1,0.0900,0.2550,-0.4800*
1,1,0.0900,-0.2550,-0.4800*
1,1,0.0900,-0.2550,0.4800*
1,1,0.0900,0.2550,0.4800*
%
%ADD30ROUNDEDRECTD30*%
%ADD31R,0.9500X0.9000*%
G04:AMPARAMS|DCode=32|XSize=0.95mm|YSize=1.4mm|CornerRadius=0.0712mm|HoleSize=0mm|Usage=FLASHONLY|Rotation=90.000|XOffset=0mm|YOffset=0mm|HoleType=Round|Shape=RoundedRectangle|*
%AMROUNDEDRECTD32*
21,1,0.9500,1.2575,0,0,90.0*
21,1,0.8075,1.4000,0,0,90.0*
1,1,0.1425,0.6288,0.4037*
1,1,0.1425,0.6288,-0.4037*
1,1,0.1425,-0.6288,-0.4037*
1,1,0.1425,-0.6288,0.4037*
%
%ADD32ROUNDEDRECTD32*%
G04:AMPARAMS|DCode=33|XSize=0.8mm|YSize=0.9mm|CornerRadius=0.06mm|HoleSize=0mm|Usage=FLASHONLY|Rotation=90.000|XOffset=0mm|YOffset=0mm|HoleType=Round|Shape=RoundedRectangle|*
%AMROUNDEDRECTD33*
21,1,0.8000,0.7800,0,0,90.0*
21,1,0.6800,0.9000,0,0,90.0*
1,1,0.1200,0.3900,0.3400*
1,1,0.1200,0.3900,-0.3400*
1,1,0.1200,-0.3900,-0.3400*
1,1,0.1200,-0.3900,0.3400*
%
%ADD33ROUNDEDRECTD33*%
G04:AMPARAMS|DCode=34|XSize=1.5mm|YSize=2mm|CornerRadius=0.1875mm|HoleSize=0mm|Usage=FLASHONLY|Rotation=180.000|XOffset=0mm|YOffset=0mm|HoleType=Round|Shape=RoundedRectangle|*
%AMROUNDEDRECTD34*
21,1,1.5000,1.6250,0,0,180.0*
21,1,1.1250,2.0000,0,0,180.0*
1,1,0.3750,-0.5625,0.8125*
1,1,0.3750,0.5625,0.8125*
1,1,0.3750,0.5625,-0.8125*
1,1,0.3750,-0.5625,-0.8125*
%
%ADD34ROUNDEDRECTD34*%
G04:AMPARAMS|DCode=35|XSize=3.8mm|YSize=2mm|CornerRadius=0.05mm|HoleSize=0mm|Usage=FLASHONLY|Rotation=180.000|XOffset=0mm|YOffset=0mm|HoleType=Round|Shape=RoundedRectangle|*
%AMROUNDEDRECTD35*
21,1,3.8000,1.9000,0,0,180.0*
21,1,3.7000,2.0000,0,0,180.0*
1,1,0.1000,-1.8500,0.9500*
1,1,0.1000,1.8500,0.9500*
1,1,0.1000,1.8500,-0.9500*
1,1,0.1000,-1.8500,-0.9500*
%
%ADD35ROUNDEDRECTD35*%
%ADD60C,0.5000*%
%ADD62C,0.3000*%
%ADD63C,1.2500*%
%ADD64C,0.5000*%
%ADD65C,0.1824*%
%ADD66C,1.0000*%
%ADD67C,1.5000*%
%ADD68R,1.5000X1.5000*%
%ADD69O,1.8000X3.0000*%
%ADD70R,1.8000X3.0000*%
%ADD71R,1.5000X1.5000*%
%ADD72C,3.0000*%
%ADD73R,3.0000X3.0000*%
%ADD74R,1.5000X2.0000*%
%ADD75O,1.5000X2.0000*%
%ADD76C,8.0000*%
G36*
X210000Y190000D02*
Y-190000D01*
X190000Y-210000D01*
X52100D01*
Y-176596D01*
X49447D01*
Y-160500D01*
X50620Y-160014D01*
X55442Y-164836D01*
X54732Y-166551D01*
X54422Y-168900D01*
X54732Y-171250D01*
X55638Y-173439D01*
X57081Y-175319D01*
X58961Y-176761D01*
X61150Y-177668D01*
X63500Y-177978D01*
X65849Y-177668D01*
X68039Y-176761D01*
X69919Y-175319D01*
X71361Y-173439D01*
X72268Y-171250D01*
X72578Y-168900D01*
X72268Y-166551D01*
X71361Y-164361D01*
X69919Y-162481D01*
X68039Y-161038D01*
X65849Y-160132D01*
X63500Y-159822D01*
X61150Y-160132D01*
X59436Y-160842D01*
X53674Y-155080D01*
Y-146614D01*
X54944Y-146362D01*
X55638Y-148039D01*
X57081Y-149919D01*
X58961Y-151361D01*
X61150Y-152268D01*
X63500Y-152578D01*
X65849Y-152268D01*
X68039Y-151361D01*
X69919Y-149919D01*
X71361Y-148039D01*
X72268Y-145850D01*
X72578Y-143500D01*
X72268Y-141151D01*
X71361Y-138961D01*
X69919Y-137081D01*
X68039Y-135639D01*
X65849Y-134732D01*
X63500Y-134422D01*
X61150Y-134732D01*
X58961Y-135639D01*
X57081Y-137081D01*
X55638Y-138961D01*
X54944Y-140638D01*
X53674Y-140386D01*
Y-132600D01*
X53459Y-131519D01*
X52847Y-130603D01*
X52847Y-130603D01*
X-13176Y-64580D01*
Y45666D01*
X-12698D01*
Y56334D01*
X-19302D01*
Y45666D01*
X-18824D01*
Y-65750D01*
X-18824Y-65750D01*
X-18680Y-66477D01*
X-19816Y-67137D01*
X-52598Y-34355D01*
X-54948Y-32552D01*
X-55386Y-32370D01*
X-57196Y-30981D01*
X-60237Y-29722D01*
X-63500Y-29292D01*
X-66763Y-29722D01*
X-69804Y-30981D01*
X-72415Y-32985D01*
X-74419Y-35596D01*
X-75678Y-38637D01*
X-76108Y-41900D01*
X-75678Y-45163D01*
X-74419Y-48204D01*
X-72415Y-50815D01*
X-69804Y-52819D01*
X-67077Y-53948D01*
X-67077Y-53950D01*
Y-55250D01*
X-67077Y-55252D01*
X-69804Y-56381D01*
X-72415Y-58385D01*
X-74419Y-60996D01*
X-75678Y-64037D01*
X-76108Y-67300D01*
X-75678Y-70563D01*
X-74419Y-73604D01*
X-72415Y-76215D01*
X-69804Y-78219D01*
X-67077Y-79348D01*
X-67077Y-79350D01*
Y-80650D01*
X-67077Y-80652D01*
X-69804Y-81781D01*
X-72415Y-83785D01*
X-74419Y-86396D01*
X-75678Y-89437D01*
X-76108Y-92700D01*
X-75678Y-95963D01*
X-74419Y-99004D01*
X-72415Y-101615D01*
X-69804Y-103619D01*
X-67077Y-104748D01*
X-67077Y-104750D01*
Y-106050D01*
X-67077Y-106052D01*
X-69804Y-107181D01*
X-72415Y-109185D01*
X-74419Y-111796D01*
X-75678Y-114837D01*
X-76108Y-118100D01*
X-75678Y-121363D01*
X-74419Y-124404D01*
X-72415Y-127015D01*
X-69804Y-129019D01*
X-66763Y-130278D01*
X-66175Y-130356D01*
X-64329Y-132202D01*
X-64784Y-133542D01*
X-66121Y-133718D01*
X-68563Y-134730D01*
X-70661Y-136339D01*
X-72270Y-138437D01*
X-73282Y-140879D01*
X-73459Y-142230D01*
X-63500D01*
Y-143500D01*
X-62230D01*
Y-153459D01*
X-60879Y-153282D01*
X-58437Y-152270D01*
X-56339Y-150661D01*
X-54730Y-148563D01*
X-53718Y-146121D01*
X-53542Y-144784D01*
X-52202Y-144329D01*
X-49447Y-147084D01*
Y-182386D01*
X-50329Y-183536D01*
X-51739Y-186941D01*
X-52220Y-190596D01*
Y-202596D01*
X-51739Y-206251D01*
X-50712Y-208730D01*
X-51561Y-210000D01*
X-190000D01*
X-210000Y-190000D01*
Y190000D01*
X-190000Y210000D01*
X-67415D01*
Y156007D01*
X-67012Y155035D01*
X-66040Y154632D01*
X-65596D01*
Y150770D01*
X-59500D01*
Y148230D01*
X-65596D01*
Y144572D01*
X-65604D01*
Y141270D01*
X-59000D01*
X-52396D01*
Y142396D01*
X-49270D01*
Y149000D01*
X-46730D01*
Y142396D01*
X-41270D01*
Y149000D01*
X-38730D01*
Y142396D01*
X-33270D01*
Y149000D01*
X-30730D01*
Y142396D01*
X-25270D01*
Y149000D01*
X-22730D01*
Y142396D01*
X-17270D01*
Y149000D01*
X-14730D01*
Y142396D01*
X-9270D01*
Y149000D01*
X-6730D01*
Y142396D01*
X-1270D01*
Y149000D01*
X1270D01*
Y142396D01*
X6730D01*
Y149000D01*
X9270D01*
Y142396D01*
X14730D01*
Y149000D01*
X17270D01*
Y142396D01*
X22730D01*
Y149000D01*
X25270D01*
Y142396D01*
X30730D01*
Y149000D01*
X33270D01*
Y142396D01*
X38730D01*
Y149000D01*
X41270D01*
Y142396D01*
X46730D01*
Y149000D01*
X49270D01*
Y142396D01*
X52396D01*
X52572Y142396D01*
X53666Y141971D01*
Y136698D01*
X64334D01*
X64334Y143302D01*
X65562Y143404D01*
X65596D01*
Y148230D01*
X59500D01*
Y150770D01*
X65596D01*
Y154632D01*
X66040D01*
X67012Y155035D01*
X67415Y156007D01*
Y210000D01*
X190000D01*
X210000Y190000D01*
D02*
G37*
%LPC*%
G36*
X-108204Y205285D02*
Y196596D01*
X-99515D01*
X-99692Y197947D01*
X-100704Y200389D01*
X-102313Y202487D01*
X-104411Y204096D01*
X-106853Y205108D01*
X-108204Y205285D01*
D02*
G37*
G36*
X-110744Y205285D02*
X-112095Y205108D01*
X-114537Y204096D01*
X-116635Y202487D01*
X-118244Y200389D01*
X-119256Y197947D01*
X-119433Y196596D01*
X-110744D01*
Y205285D01*
D02*
G37*
G36*
X-84074Y204404D02*
X-86411Y204096D01*
X-92844D01*
Y197663D01*
X-93152Y195326D01*
X-92844Y192989D01*
Y186556D01*
X-86411D01*
X-84074Y186248D01*
X-81737Y186556D01*
X-75304D01*
Y192989D01*
X-74996Y195326D01*
X-75304Y197663D01*
Y204096D01*
X-81737D01*
X-84074Y204404D01*
D02*
G37*
G36*
X-99515Y194056D02*
X-108204D01*
Y185367D01*
X-106853Y185544D01*
X-104411Y186556D01*
X-102313Y188165D01*
X-100704Y190263D01*
X-99692Y192705D01*
X-99515Y194056D01*
D02*
G37*
G36*
X-110744D02*
X-119433D01*
X-119256Y192705D01*
X-118244Y190263D01*
X-116635Y188165D01*
X-114537Y186556D01*
X-112095Y185544D01*
X-110744Y185367D01*
Y194056D01*
D02*
G37*
G36*
X153730Y197548D02*
X149436Y197267D01*
X143966Y196179D01*
X138686Y194386D01*
X133684Y191920D01*
X129048Y188822D01*
X124855Y185145D01*
X121178Y180952D01*
X118080Y176316D01*
X115614Y171314D01*
X114094Y166838D01*
X112824Y167048D01*
Y172500D01*
X112609Y173581D01*
X111997Y174497D01*
X105807Y180688D01*
Y185900D01*
X105661Y186630D01*
X105248Y187248D01*
X104630Y187661D01*
X103900Y187807D01*
X96100D01*
X95370Y187661D01*
X94752Y187248D01*
X94339Y186630D01*
X94282Y186344D01*
X85718D01*
X85661Y186630D01*
X85248Y187248D01*
X84630Y187661D01*
X83900Y187807D01*
X76100D01*
X75370Y187661D01*
X74752Y187248D01*
X74338Y186630D01*
X74193Y185900D01*
Y179100D01*
X74338Y178370D01*
X74752Y177752D01*
X75370Y177339D01*
X75500Y177313D01*
Y172687D01*
X75370Y172661D01*
X74752Y172248D01*
X74338Y171630D01*
X74193Y170900D01*
Y164100D01*
X74338Y163370D01*
X74752Y162752D01*
X75370Y162339D01*
X76100Y162193D01*
X76156D01*
Y156718D01*
X75870Y156662D01*
X75252Y156248D01*
X74839Y155630D01*
X74693Y154900D01*
Y147100D01*
X74752Y146807D01*
X74625Y146502D01*
Y138502D01*
X74752Y138196D01*
X74693Y137900D01*
Y130100D01*
X74839Y129370D01*
X75252Y128752D01*
X75870Y128338D01*
X76600Y128193D01*
X77176D01*
Y123593D01*
X76045Y122837D01*
X74829Y121018D01*
X74402Y118872D01*
X74829Y116726D01*
X76045Y114907D01*
X77864Y113691D01*
X80010Y113264D01*
X82156Y113691D01*
X83975Y114907D01*
X85191Y116726D01*
X85618Y118872D01*
X85191Y121018D01*
X83975Y122837D01*
X82824Y123606D01*
Y128193D01*
X83400D01*
X84130Y128338D01*
X84748Y128752D01*
X85162Y129370D01*
X85307Y130100D01*
Y130941D01*
X86569Y131104D01*
X87785Y129285D01*
X89604Y128069D01*
X91750Y127642D01*
X93896Y128069D01*
X95149Y128906D01*
X95252Y128752D01*
X95870Y128338D01*
X96600Y128193D01*
X103400D01*
X104130Y128338D01*
X104748Y128752D01*
X105162Y129370D01*
X105307Y130100D01*
Y137900D01*
X105248Y138196D01*
X105374Y138503D01*
Y146503D01*
X105248Y146807D01*
X105307Y147100D01*
Y154900D01*
X105162Y155630D01*
X104748Y156248D01*
X104130Y156662D01*
X103844Y156718D01*
Y162193D01*
X103900D01*
X104630Y162339D01*
X105248Y162752D01*
X105661Y163370D01*
X105807Y164100D01*
Y169536D01*
X107077Y170256D01*
X107176Y170196D01*
Y135750D01*
X107176Y135750D01*
X107391Y134669D01*
X108003Y133753D01*
X129945Y111810D01*
X129846Y111102D01*
X129151Y110833D01*
X128510Y110714D01*
X127557Y111351D01*
X126287Y111604D01*
X121270D01*
Y104250D01*
X120000D01*
D01*
X121270D01*
Y96896D01*
X126287D01*
X127557Y97149D01*
X128632Y97867D01*
X128906Y98277D01*
X130176Y97891D01*
Y91307D01*
X130176Y91306D01*
X130264Y90864D01*
X129562Y89829D01*
X129035Y89812D01*
X128277Y89948D01*
X128155Y90561D01*
X127717Y91217D01*
X127061Y91655D01*
X126287Y91809D01*
X113713D01*
X112939Y91655D01*
X112283Y91217D01*
X111845Y90561D01*
X111691Y89788D01*
Y81713D01*
X111845Y80939D01*
X112283Y80283D01*
X112939Y79845D01*
X113713Y79691D01*
X116156D01*
Y76332D01*
X114375D01*
X113148Y76087D01*
X112108Y75392D01*
X111412Y74352D01*
X111168Y73125D01*
Y56875D01*
X111412Y55648D01*
X112108Y54608D01*
X113148Y53913D01*
X114375Y53668D01*
X116156D01*
Y14305D01*
X101500D01*
X101085Y14222D01*
X100175Y14718D01*
X99815Y15030D01*
Y32117D01*
X102349Y34651D01*
X103551Y36218D01*
X104307Y38042D01*
X104436Y39021D01*
X104565Y40000D01*
X104565Y40000D01*
Y50237D01*
X106092Y50870D01*
X107528Y51972D01*
X108630Y53408D01*
X109323Y55080D01*
X109559Y56875D01*
Y73125D01*
X109323Y74920D01*
X108630Y76592D01*
X107618Y77911D01*
X108669Y79484D01*
X109112Y81713D01*
Y89788D01*
X108669Y92016D01*
X107406Y93906D01*
X105516Y95169D01*
X103287Y95612D01*
X90712D01*
X88484Y95169D01*
X86594Y93906D01*
X85331Y92016D01*
X84888Y89788D01*
Y81713D01*
X85331Y79484D01*
X86382Y77911D01*
X85370Y76592D01*
X84677Y74920D01*
X84441Y73125D01*
Y56875D01*
X84677Y55080D01*
X85370Y53408D01*
X86472Y51972D01*
X87908Y50870D01*
X89435Y50237D01*
Y43133D01*
X86901Y40599D01*
X85699Y39032D01*
X84943Y37208D01*
X84685Y35250D01*
Y-32750D01*
X84943Y-34708D01*
X85699Y-36532D01*
X86901Y-38099D01*
X91580Y-42778D01*
X91580Y-42778D01*
X93147Y-43980D01*
X94971Y-44736D01*
X96500Y-44937D01*
Y-53000D01*
X98653D01*
Y-60960D01*
Y-81000D01*
X97500D01*
Y-111000D01*
X122500D01*
Y-107001D01*
X123770Y-106375D01*
X124937Y-107270D01*
X127379Y-108282D01*
X128730Y-108459D01*
Y-96000D01*
Y-83541D01*
X127379Y-83718D01*
X124937Y-84730D01*
X123770Y-85625D01*
X122500Y-84999D01*
Y-81000D01*
X121347D01*
Y-77847D01*
X147230D01*
X147365Y-78524D01*
X148618Y-80400D01*
X150494Y-81653D01*
X152706Y-82093D01*
X169366D01*
X171578Y-81653D01*
X173454Y-80400D01*
X174707Y-78524D01*
X175147Y-76312D01*
Y-64252D01*
X174707Y-62040D01*
X173454Y-60164D01*
X171578Y-58911D01*
X169366Y-58471D01*
X152706D01*
X150494Y-58911D01*
X148618Y-60164D01*
X147365Y-62040D01*
X147230Y-62717D01*
X122455D01*
X121347Y-61609D01*
Y-53000D01*
X121500D01*
Y-49001D01*
X122770Y-48375D01*
X123937Y-49270D01*
X126379Y-50282D01*
X127730Y-50459D01*
Y-38000D01*
Y-25541D01*
X126379Y-25718D01*
X123937Y-26730D01*
X122770Y-27625D01*
X121500Y-26999D01*
Y-23000D01*
X99815D01*
Y-9030D01*
X100175Y-8718D01*
X101085Y-8222D01*
X101500Y-8305D01*
X138500D01*
X139191Y-8167D01*
X139776Y-7776D01*
X140167Y-7191D01*
X140305Y-6500D01*
Y-844D01*
X160250D01*
X160250Y-844D01*
X161721Y-551D01*
X162968Y282D01*
X170743Y8056D01*
X181230D01*
Y3130D01*
X187663D01*
X190000Y2823D01*
X192337Y3130D01*
X198770D01*
Y9564D01*
X199078Y11900D01*
X198770Y14237D01*
Y20670D01*
X192337D01*
X190000Y20978D01*
X187663Y20670D01*
X181230D01*
Y15744D01*
X169151D01*
X169150Y15744D01*
X167679Y15452D01*
X166432Y14618D01*
X166432Y14618D01*
X158658Y6844D01*
X140305D01*
Y12500D01*
X140167Y13191D01*
X139776Y13776D01*
X139191Y14167D01*
X138500Y14305D01*
X123844D01*
Y53668D01*
X125625D01*
X126852Y53913D01*
X127892Y54608D01*
X128588Y55648D01*
X128832Y56875D01*
Y73125D01*
X128588Y74352D01*
X127892Y75392D01*
X126852Y76087D01*
X125625Y76332D01*
X123844D01*
Y79691D01*
X126287D01*
X127061Y79845D01*
X127717Y80283D01*
X128155Y80939D01*
X128309Y81713D01*
Y81906D01*
X133250D01*
X133250Y81906D01*
X134721Y82199D01*
X135968Y83032D01*
X136205Y83269D01*
X137452Y83200D01*
X137752Y82752D01*
X138370Y82338D01*
X139100Y82193D01*
X146900D01*
X147630Y82338D01*
X148248Y82752D01*
X148661Y83370D01*
X148807Y84100D01*
Y90900D01*
X148661Y91630D01*
X148248Y92248D01*
X147630Y92662D01*
X147500Y92687D01*
Y97313D01*
X147630Y97338D01*
X148248Y97752D01*
X148661Y98370D01*
X148718Y98656D01*
X152000D01*
X152000Y98656D01*
X153471Y98949D01*
X153965Y99279D01*
X155437D01*
X155625Y98997D01*
Y92857D01*
X155336Y92664D01*
X154642Y91625D01*
X154398Y90400D01*
Y87770D01*
X161000D01*
X167602D01*
Y90400D01*
X167358Y91625D01*
X166664Y92664D01*
X166375Y92857D01*
Y98997D01*
X166248Y99304D01*
X166307Y99600D01*
Y107400D01*
X166161Y108130D01*
X165748Y108748D01*
X165130Y109162D01*
X164400Y109307D01*
X157600D01*
X156870Y109162D01*
X156252Y108748D01*
X155838Y108130D01*
X155693Y107400D01*
Y106966D01*
X152623D01*
X152622Y106966D01*
X151152Y106674D01*
X150658Y106344D01*
X148718D01*
X148661Y106630D01*
X148248Y107248D01*
X147630Y107662D01*
X146900Y107807D01*
X139100D01*
X138370Y107662D01*
X137752Y107248D01*
X137338Y106630D01*
X137193Y105900D01*
Y99100D01*
X137338Y98370D01*
X137752Y97752D01*
X138370Y97338D01*
X138500Y97313D01*
Y92687D01*
X138370Y92662D01*
X137752Y92248D01*
X137734Y92221D01*
X136079D01*
X135824Y92476D01*
Y112750D01*
X135824Y112750D01*
X135609Y113831D01*
X134997Y114747D01*
X132199Y117545D01*
X133008Y118532D01*
X133684Y118080D01*
X138686Y115614D01*
X143966Y113821D01*
X149436Y112733D01*
X153730Y112452D01*
Y155000D01*
Y197548D01*
D02*
G37*
G36*
X156270D02*
Y156270D01*
X197548D01*
X197267Y160564D01*
X196179Y166034D01*
X194386Y171314D01*
X191920Y176316D01*
X188822Y180952D01*
X185145Y185145D01*
X180952Y188822D01*
X176316Y191920D01*
X171314Y194386D01*
X166034Y196179D01*
X160564Y197267D01*
X156270Y197548D01*
D02*
G37*
G36*
X-153730D02*
Y156270D01*
X-112452D01*
X-112733Y160564D01*
X-113821Y166034D01*
X-115614Y171314D01*
X-118080Y176316D01*
X-121178Y180952D01*
X-124855Y185145D01*
X-129048Y188822D01*
X-133684Y191920D01*
X-138686Y194386D01*
X-143966Y196179D01*
X-149436Y197267D01*
X-153730Y197548D01*
D02*
G37*
G36*
X-156270D02*
X-160564Y197267D01*
X-166034Y196179D01*
X-171314Y194386D01*
X-176316Y191920D01*
X-180952Y188822D01*
X-185145Y185145D01*
X-188822Y180952D01*
X-191920Y176316D01*
X-194386Y171314D01*
X-196179Y166034D01*
X-197267Y160564D01*
X-197548Y156270D01*
X-156270D01*
Y197548D01*
D02*
G37*
G36*
X-81270Y151604D02*
X-86287D01*
X-87556Y151351D01*
X-88632Y150632D01*
X-89351Y149557D01*
X-89353Y149550D01*
X-90647D01*
X-90649Y149557D01*
X-91368Y150632D01*
X-92443Y151351D01*
X-93713Y151604D01*
X-98730D01*
Y144250D01*
Y136896D01*
X-93713D01*
X-92443Y137149D01*
X-91368Y137868D01*
X-90649Y138943D01*
X-90647Y138950D01*
X-89353D01*
X-89351Y138943D01*
X-88632Y137868D01*
X-87556Y137149D01*
X-86287Y136896D01*
X-81270D01*
Y144250D01*
Y151604D01*
D02*
G37*
G36*
X-73713D02*
X-78730D01*
Y145520D01*
X-70396D01*
Y148287D01*
X-70649Y149557D01*
X-71368Y150632D01*
X-72443Y151351D01*
X-73713Y151604D01*
D02*
G37*
G36*
X-101270D02*
X-106287D01*
X-107556Y151351D01*
X-108632Y150632D01*
X-109351Y149557D01*
X-109604Y148287D01*
Y145520D01*
X-101270D01*
Y151604D01*
D02*
G37*
G36*
X-70396Y142980D02*
X-78730D01*
Y136896D01*
X-73713D01*
X-72443Y137149D01*
X-71368Y137868D01*
X-70649Y138943D01*
X-70396Y140212D01*
Y142980D01*
D02*
G37*
G36*
X-101270D02*
X-109604D01*
Y140212D01*
X-109351Y138943D01*
X-108632Y137868D01*
X-107556Y137149D01*
X-106287Y136896D01*
X-101270D01*
Y142980D01*
D02*
G37*
G36*
X-52396Y138730D02*
X-59000D01*
X-65604D01*
Y135428D01*
Y133270D01*
X-59000D01*
X-52396D01*
Y135428D01*
Y138730D01*
D02*
G37*
G36*
X9971Y129529D02*
X8701Y129529D01*
X1270D01*
Y119750D01*
X-1270D01*
Y129529D01*
X-8701D01*
X-9779Y129529D01*
X-11049Y129529D01*
X-18480D01*
Y119750D01*
X-19750D01*
Y118480D01*
X-29529D01*
Y111049D01*
X-29529Y109971D01*
X-29529Y108701D01*
Y101270D01*
X-19750D01*
Y98730D01*
X-29529D01*
Y91299D01*
X-29529Y90221D01*
X-29529Y88951D01*
Y81520D01*
X-19750D01*
Y80250D01*
X-18480D01*
Y70471D01*
X-11049D01*
X-9971Y70471D01*
X-8701Y70471D01*
X-1270D01*
Y80250D01*
X1270D01*
Y70471D01*
X8701D01*
X9779Y70471D01*
X11049Y70471D01*
X18480D01*
Y80250D01*
X19750D01*
Y81520D01*
X29529D01*
Y88951D01*
X29529Y90029D01*
X29529Y91299D01*
Y98730D01*
X19750D01*
Y101270D01*
X29529D01*
Y108701D01*
X29529Y109779D01*
X29529Y111049D01*
Y118480D01*
X19750D01*
Y119750D01*
X18480D01*
Y129529D01*
X11049D01*
X9971Y129529D01*
D02*
G37*
G36*
X64334Y135302D02*
X53666D01*
Y128698D01*
X64334D01*
Y135302D01*
D02*
G37*
G36*
X21020Y129529D02*
Y121020D01*
X29529D01*
Y129529D01*
X21020D01*
D02*
G37*
G36*
X-21020D02*
X-29529D01*
Y121020D01*
X-21020D01*
Y129529D01*
D02*
G37*
G36*
X64334Y127302D02*
X53666D01*
Y120698D01*
X64334D01*
Y127302D01*
D02*
G37*
G36*
Y119302D02*
X53666D01*
Y112698D01*
X64334D01*
Y119302D01*
D02*
G37*
G36*
X-112452Y153730D02*
X-153730D01*
Y112452D01*
X-149436Y112733D01*
X-146224Y113372D01*
X-145984Y113087D01*
X-145594Y112203D01*
X-146675Y110585D01*
X-146717Y110374D01*
X-150000D01*
X-150305Y110248D01*
X-150600Y110307D01*
X-158400D01*
X-159130Y110162D01*
X-159748Y109748D01*
X-160161Y109130D01*
X-160307Y108400D01*
Y107824D01*
X-166193D01*
Y108900D01*
X-166339Y109630D01*
X-166752Y110248D01*
X-167370Y110661D01*
X-168100Y110807D01*
X-174900D01*
X-175630Y110661D01*
X-176248Y110248D01*
X-176661Y109630D01*
X-176687Y109500D01*
X-180018D01*
X-180142Y110125D01*
X-180836Y111164D01*
X-181875Y111858D01*
X-183100Y112101D01*
X-185230D01*
Y105000D01*
Y97899D01*
X-183100D01*
X-181875Y98142D01*
X-180836Y98836D01*
X-180142Y99875D01*
X-180018Y100500D01*
X-176687D01*
X-176661Y100370D01*
X-176248Y99752D01*
X-175630Y99339D01*
X-174900Y99193D01*
X-168100D01*
X-167370Y99339D01*
X-166752Y99752D01*
X-166339Y100370D01*
X-166193Y101100D01*
Y102176D01*
X-160307D01*
Y101600D01*
X-160161Y100870D01*
X-159748Y100252D01*
X-159130Y99838D01*
X-158400Y99693D01*
X-150600D01*
X-150306Y99752D01*
X-150000Y99625D01*
X-146717D01*
X-146675Y99415D01*
X-145437Y97563D01*
X-143585Y96325D01*
X-141400Y95890D01*
X-133600D01*
X-131415Y96325D01*
X-129808Y97399D01*
X-128708Y96943D01*
X-126750Y96685D01*
X-124792Y96943D01*
X-122968Y97699D01*
X-121401Y98901D01*
X-120199Y100468D01*
X-119443Y102292D01*
X-119358Y102937D01*
X-117996Y103554D01*
X-116896Y102819D01*
X-114750Y102392D01*
X-112604Y102819D01*
X-110785Y104035D01*
X-109868Y105406D01*
X-108309D01*
Y105212D01*
X-108155Y104439D01*
X-107717Y103783D01*
X-107061Y103345D01*
X-106287Y103191D01*
X-93713D01*
X-92939Y103345D01*
X-92283Y103783D01*
X-91845Y104439D01*
X-91802Y104656D01*
X-86479D01*
X-85375Y104002D01*
Y96002D01*
X-85248Y95696D01*
X-85307Y95400D01*
Y87600D01*
X-85162Y86870D01*
X-84748Y86252D01*
X-84130Y85838D01*
X-83400Y85693D01*
X-76600D01*
X-75870Y85838D01*
X-75252Y86252D01*
X-74839Y86870D01*
X-74693Y87600D01*
Y90418D01*
X-73257D01*
X-73257Y90418D01*
X-72176Y90633D01*
X-71260Y91246D01*
X-67753Y94753D01*
X-67753Y94753D01*
X-67141Y95669D01*
X-66926Y96750D01*
X-66926Y96750D01*
Y102080D01*
X-65533Y103472D01*
X-64334Y102876D01*
X-64334Y102209D01*
Y96698D01*
X-53666D01*
Y97176D01*
X-50552D01*
X-48896Y96069D01*
X-46750Y95642D01*
X-44604Y96069D01*
X-42785Y97285D01*
X-41569Y99104D01*
X-41142Y101250D01*
X-41569Y103396D01*
X-42785Y105215D01*
X-44604Y106431D01*
X-46750Y106858D01*
X-48896Y106431D01*
X-50715Y105215D01*
X-51931Y103396D01*
X-52045Y102824D01*
X-53666D01*
Y103302D01*
X-62555D01*
X-63249Y104425D01*
X-63262Y104572D01*
X-63184Y104698D01*
X-53666D01*
Y111302D01*
X-64334D01*
Y110594D01*
X-65230D01*
X-66311Y110379D01*
X-67227Y109767D01*
X-67227Y109767D01*
X-71747Y105247D01*
X-72359Y104331D01*
X-72574Y103250D01*
X-72574Y103250D01*
Y98017D01*
X-73531Y97241D01*
X-74625Y97709D01*
Y104002D01*
X-74752Y104307D01*
X-74693Y104600D01*
Y112400D01*
X-74839Y113130D01*
X-75252Y113748D01*
X-75870Y114162D01*
X-76600Y114307D01*
X-83400D01*
X-84130Y114162D01*
X-84748Y113748D01*
X-85162Y113130D01*
X-85307Y112400D01*
Y112344D01*
X-91691D01*
Y113287D01*
X-91845Y114061D01*
X-92283Y114717D01*
X-92939Y115155D01*
X-93713Y115309D01*
X-96156D01*
Y119691D01*
X-93713D01*
X-92939Y119845D01*
X-92283Y120283D01*
X-91845Y120939D01*
X-91691Y121713D01*
Y121906D01*
X-88309D01*
Y121713D01*
X-88155Y120939D01*
X-87717Y120283D01*
X-87061Y119845D01*
X-86287Y119691D01*
X-73713D01*
X-72939Y119845D01*
X-72283Y120283D01*
X-71976Y120744D01*
X-71339Y121016D01*
X-70510Y121143D01*
X-69471Y120449D01*
X-68000Y120156D01*
X-65250D01*
X-64334Y119302D01*
X-64334Y118886D01*
Y112698D01*
X-53666D01*
Y119302D01*
X-55822D01*
X-55863Y119339D01*
X-56274Y120572D01*
X-56105Y120698D01*
X-53666D01*
Y127302D01*
X-52448Y127428D01*
X-52396D01*
Y130730D01*
X-59000D01*
X-65604D01*
Y128836D01*
X-66874Y128310D01*
X-67282Y128718D01*
X-68529Y129551D01*
X-70000Y129844D01*
X-70000Y129844D01*
X-71702D01*
X-71845Y130561D01*
X-72283Y131217D01*
X-72939Y131655D01*
X-73713Y131809D01*
X-86287D01*
X-87061Y131655D01*
X-87717Y131217D01*
X-88155Y130561D01*
X-88309Y129788D01*
Y129594D01*
X-91691D01*
Y129788D01*
X-91845Y130561D01*
X-92283Y131217D01*
X-92939Y131655D01*
X-93713Y131809D01*
X-106287D01*
X-107061Y131655D01*
X-107717Y131217D01*
X-108155Y130561D01*
X-108309Y129788D01*
Y121713D01*
X-108155Y120939D01*
X-107717Y120283D01*
X-107061Y119845D01*
X-106287Y119691D01*
X-103844D01*
Y115309D01*
X-106287D01*
X-107061Y115155D01*
X-107717Y114717D01*
X-108155Y114061D01*
X-108309Y113287D01*
Y113094D01*
X-112474D01*
X-112604Y113181D01*
X-114750Y113608D01*
X-116896Y113181D01*
X-118715Y111965D01*
X-119931Y110146D01*
X-120020Y109699D01*
X-121257Y109411D01*
X-121401Y109599D01*
X-122968Y110801D01*
X-124792Y111557D01*
X-126750Y111815D01*
X-128708Y111557D01*
X-128917Y111470D01*
X-129563Y112437D01*
X-131415Y113675D01*
X-133600Y114110D01*
X-139166D01*
X-139375Y115380D01*
X-138686Y115614D01*
X-133684Y118080D01*
X-129048Y121178D01*
X-124855Y124855D01*
X-121178Y129048D01*
X-118080Y133684D01*
X-115614Y138686D01*
X-113821Y143966D01*
X-112733Y149436D01*
X-112452Y153730D01*
D02*
G37*
G36*
X197548D02*
X156270D01*
Y112452D01*
X160564Y112733D01*
X166034Y113821D01*
X171314Y115614D01*
X176316Y118080D01*
X180952Y121178D01*
X185145Y124855D01*
X188822Y129048D01*
X191920Y133684D01*
X194386Y138686D01*
X196179Y143966D01*
X197267Y149436D01*
X197548Y153730D01*
D02*
G37*
G36*
X-156270D02*
X-197548D01*
X-197267Y149436D01*
X-196179Y143966D01*
X-194386Y138686D01*
X-191920Y133684D01*
X-188822Y129048D01*
X-185145Y124855D01*
X-180952Y121178D01*
X-176316Y118080D01*
X-171314Y115614D01*
X-166034Y113821D01*
X-160564Y112733D01*
X-156270Y112452D01*
Y153730D01*
D02*
G37*
G36*
X72750Y113108D02*
X70604Y112681D01*
X68785Y111465D01*
X68356Y110824D01*
X64334D01*
Y111302D01*
X53666D01*
Y104698D01*
X64334D01*
Y105176D01*
X67688D01*
X68111Y104543D01*
X68422Y104046D01*
X67736Y102824D01*
X64334D01*
Y103302D01*
X53666D01*
Y96698D01*
X64334D01*
Y97176D01*
X67688D01*
X68785Y95535D01*
X70604Y94319D01*
X72750Y93892D01*
X74896Y94319D01*
X76715Y95535D01*
X77931Y97354D01*
X78358Y99500D01*
X77931Y101646D01*
X77389Y102457D01*
X76737Y103500D01*
X77389Y104543D01*
X77931Y105354D01*
X78358Y107500D01*
X77931Y109646D01*
X76715Y111465D01*
X74896Y112681D01*
X72750Y113108D01*
D02*
G37*
G36*
X-187770Y112101D02*
X-189900D01*
X-191125Y111858D01*
X-192164Y111164D01*
X-192858Y110125D01*
X-193102Y108900D01*
Y106270D01*
X-187770D01*
Y112101D01*
D02*
G37*
G36*
X103287Y111604D02*
X98270D01*
Y105520D01*
X106604D01*
Y108287D01*
X106351Y109557D01*
X105632Y110632D01*
X104557Y111351D01*
X103287Y111604D01*
D02*
G37*
G36*
X95730D02*
X90712D01*
X89444Y111351D01*
X88368Y110632D01*
X87649Y109557D01*
X87396Y108287D01*
Y105520D01*
X95730D01*
Y111604D01*
D02*
G37*
G36*
X118730D02*
X113713D01*
X112444Y111351D01*
X111368Y110632D01*
X110649Y109557D01*
X110396Y108287D01*
Y105520D01*
X118730D01*
Y111604D01*
D02*
G37*
G36*
X-187770Y103730D02*
X-193102D01*
Y101100D01*
X-192858Y99875D01*
X-192164Y98836D01*
X-191125Y98142D01*
X-189900Y97899D01*
X-187770D01*
Y103730D01*
D02*
G37*
G36*
X118730Y102980D02*
X110396D01*
Y100212D01*
X110649Y98943D01*
X111368Y97867D01*
X112444Y97149D01*
X113713Y96896D01*
X118730D01*
Y102980D01*
D02*
G37*
G36*
X106604Y102980D02*
X98270D01*
Y96896D01*
X103287D01*
X104557Y97149D01*
X105632Y97867D01*
X106351Y98943D01*
X106604Y100212D01*
Y102980D01*
D02*
G37*
G36*
X95730D02*
X87396D01*
Y100212D01*
X87649Y98943D01*
X88368Y97867D01*
X89444Y97149D01*
X90712Y96896D01*
X95730D01*
Y102980D01*
D02*
G37*
G36*
X-93713Y98104D02*
X-98730D01*
Y92020D01*
X-90396D01*
Y94788D01*
X-90649Y96057D01*
X-91368Y97132D01*
X-92444Y97851D01*
X-93713Y98104D01*
D02*
G37*
G36*
X-101270D02*
X-106287D01*
X-107557Y97851D01*
X-108632Y97132D01*
X-109351Y96057D01*
X-109604Y94788D01*
Y92020D01*
X-101270D01*
Y98104D01*
D02*
G37*
G36*
X191270Y98059D02*
Y89370D01*
X199959D01*
X199781Y90721D01*
X198770Y93163D01*
X197160Y95260D01*
X195063Y96869D01*
X192621Y97881D01*
X191270Y98059D01*
D02*
G37*
G36*
X188730D02*
X187379Y97881D01*
X184937Y96869D01*
X182839Y95260D01*
X181230Y93163D01*
X180218Y90721D01*
X180040Y89370D01*
X188730D01*
Y98059D01*
D02*
G37*
G36*
X64334Y95302D02*
X53666D01*
Y88698D01*
X64334D01*
Y95302D01*
D02*
G37*
G36*
X-53666D02*
X-64334D01*
Y88698D01*
X-53666D01*
Y95302D01*
D02*
G37*
G36*
X64334Y87302D02*
X53666D01*
Y80698D01*
X64334D01*
Y87302D01*
D02*
G37*
G36*
X-112654Y85993D02*
X-117480D01*
Y79770D01*
X-112654D01*
Y85993D01*
D02*
G37*
G36*
X-120020D02*
X-124846D01*
Y79770D01*
X-120020D01*
Y85993D01*
D02*
G37*
G36*
X167602Y85230D02*
X162270D01*
Y79398D01*
X164400D01*
X165625Y79642D01*
X166664Y80336D01*
X167358Y81375D01*
X167602Y82600D01*
Y85230D01*
D02*
G37*
G36*
X159730D02*
X154398D01*
Y82600D01*
X154642Y81375D01*
X155336Y80336D01*
X156375Y79642D01*
X157600Y79398D01*
X159730D01*
Y85230D01*
D02*
G37*
G36*
X199959Y86830D02*
X191270D01*
Y78140D01*
X192621Y78318D01*
X195063Y79330D01*
X197160Y80939D01*
X198770Y83036D01*
X199781Y85479D01*
X199959Y86830D01*
D02*
G37*
G36*
X188730D02*
X180040D01*
X180218Y85479D01*
X181230Y83036D01*
X182839Y80939D01*
X184937Y79330D01*
X187379Y78318D01*
X188730Y78140D01*
Y86830D01*
D02*
G37*
G36*
X72250Y81838D02*
X70104Y81411D01*
X68285Y80195D01*
X67069Y78376D01*
X66642Y76230D01*
X66266Y75771D01*
X64334D01*
Y79302D01*
X53666D01*
Y72698D01*
X59278D01*
X59681Y72000D01*
X59278Y71302D01*
X53666D01*
Y64698D01*
X64334D01*
Y68229D01*
X66573D01*
X66715Y68056D01*
X67142Y65910D01*
X68358Y64090D01*
X70177Y62875D01*
X72323Y62448D01*
X74469Y62875D01*
X76288Y64090D01*
X77504Y65910D01*
X77931Y68056D01*
X77504Y70202D01*
X76859Y71167D01*
X76215Y72265D01*
X77431Y74084D01*
X77858Y76230D01*
X77431Y78376D01*
X76215Y80195D01*
X74396Y81411D01*
X72250Y81838D01*
D02*
G37*
G36*
X-112654Y77230D02*
X-117480D01*
Y71007D01*
X-112654D01*
Y77230D01*
D02*
G37*
G36*
X-120020D02*
X-124846D01*
Y71007D01*
X-120020D01*
Y77230D01*
D02*
G37*
G36*
X29529Y78980D02*
X21020D01*
Y70471D01*
X29529D01*
Y78980D01*
D02*
G37*
G36*
X-21020D02*
X-29529D01*
Y70471D01*
X-21020D01*
Y78980D01*
D02*
G37*
G36*
X148625Y77627D02*
X144270D01*
Y66270D01*
X153126D01*
Y73125D01*
X152784Y74848D01*
X151808Y76308D01*
X150348Y77284D01*
X148625Y77627D01*
D02*
G37*
G36*
X141730D02*
X137375D01*
X135652Y77284D01*
X134192Y76308D01*
X133216Y74848D01*
X132873Y73125D01*
Y66270D01*
X141730D01*
Y77627D01*
D02*
G37*
G36*
X-168730Y82500D02*
Y66270D01*
X-152500D01*
X-152714Y68438D01*
X-153717Y71745D01*
X-155345Y74792D01*
X-157537Y77463D01*
X-160208Y79654D01*
X-163255Y81283D01*
X-166562Y82286D01*
X-168730Y82500D01*
D02*
G37*
G36*
X-171270Y82500D02*
X-173438Y82286D01*
X-176745Y81283D01*
X-179792Y79654D01*
X-182463Y77463D01*
X-184655Y74792D01*
X-186283Y71745D01*
X-187286Y68438D01*
X-187500Y66270D01*
X-171270D01*
Y82500D01*
D02*
G37*
G36*
X190000Y71777D02*
X187650Y71468D01*
X185461Y70561D01*
X183581Y69118D01*
X182138Y67238D01*
X181231Y65049D01*
X180922Y62700D01*
X181231Y60350D01*
X182138Y58161D01*
X183581Y56281D01*
X185461Y54838D01*
X187650Y53931D01*
X190000Y53622D01*
X192349Y53931D01*
X194539Y54838D01*
X196419Y56281D01*
X197861Y58161D01*
X198768Y60350D01*
X199077Y62700D01*
X198768Y65049D01*
X197861Y67238D01*
X196419Y69118D01*
X194539Y70561D01*
X192349Y71468D01*
X190000Y71777D01*
D02*
G37*
G36*
X153126Y63730D02*
X144270D01*
Y52373D01*
X148625D01*
X150348Y52716D01*
X151808Y53692D01*
X152784Y55152D01*
X153126Y56875D01*
Y63730D01*
D02*
G37*
G36*
X141730D02*
X132873D01*
Y56875D01*
X133216Y55152D01*
X134192Y53692D01*
X135652Y52716D01*
X137375Y52373D01*
X141730D01*
Y63730D01*
D02*
G37*
G36*
X64334Y63302D02*
X53666D01*
Y57757D01*
X53404Y56596D01*
X53404Y55536D01*
Y51770D01*
X59500D01*
X65596D01*
Y56596D01*
X65562D01*
X64334Y56698D01*
X64334Y57866D01*
Y63302D01*
D02*
G37*
G36*
X-152500Y63730D02*
X-168730D01*
Y47500D01*
X-166562Y47714D01*
X-163255Y48717D01*
X-160208Y50346D01*
X-157537Y52537D01*
X-155345Y55208D01*
X-153717Y58255D01*
X-152714Y61561D01*
X-152500Y63730D01*
D02*
G37*
G36*
X-171270D02*
X-187500D01*
X-187286Y61561D01*
X-186283Y58255D01*
X-184655Y55208D01*
X-182463Y52537D01*
X-179792Y50346D01*
X-176745Y48717D01*
X-173438Y47714D01*
X-171270Y47500D01*
Y63730D01*
D02*
G37*
G36*
X51302Y56334D02*
X44698D01*
Y45666D01*
X51302D01*
Y56334D01*
D02*
G37*
G36*
X40132Y140228D02*
X37986Y139801D01*
X36167Y138585D01*
X34951Y136766D01*
X34524Y134620D01*
X34951Y132474D01*
X36167Y130655D01*
X37685Y129640D01*
Y56334D01*
X36698D01*
Y45666D01*
X43302D01*
Y56334D01*
X42315D01*
Y129464D01*
X44097Y130655D01*
X45313Y132474D01*
X45740Y134620D01*
X45313Y136766D01*
X44097Y138585D01*
X42278Y139801D01*
X40132Y140228D01*
D02*
G37*
G36*
X-4698Y56334D02*
X-11302D01*
Y45666D01*
X-4698D01*
Y56334D01*
D02*
G37*
G36*
X65596Y49230D02*
X60770D01*
Y44404D01*
X65596D01*
Y49230D01*
D02*
G37*
G36*
X58230D02*
X53404D01*
Y44404D01*
X58230D01*
Y49230D01*
D02*
G37*
G36*
X-53404D02*
X-58230D01*
Y44404D01*
X-53404D01*
Y49230D01*
D02*
G37*
G36*
X-60770D02*
X-65596D01*
Y44404D01*
X-60770D01*
Y49230D01*
D02*
G37*
G36*
X-27428Y57604D02*
X-30730D01*
Y51000D01*
Y44396D01*
X-27428D01*
Y44448D01*
X-27302Y45666D01*
X-26158Y45666D01*
X-20698D01*
Y56334D01*
X-27302Y56334D01*
X-27428Y57552D01*
Y57604D01*
D02*
G37*
G36*
X190000Y46378D02*
X187651Y46069D01*
X185461Y45162D01*
X183581Y43719D01*
X182139Y41839D01*
X181232Y39650D01*
X180923Y37300D01*
X181232Y34951D01*
X182139Y32762D01*
X183581Y30882D01*
X185461Y29439D01*
X187651Y28532D01*
X190000Y28223D01*
X192350Y28532D01*
X194539Y29439D01*
X196419Y30882D01*
X197862Y32762D01*
X198769Y34951D01*
X199078Y37300D01*
X198769Y39650D01*
X197862Y41839D01*
X196419Y43719D01*
X194539Y45162D01*
X192350Y46069D01*
X190000Y46378D01*
D02*
G37*
G36*
X-90396Y89480D02*
X-100000D01*
X-109604D01*
Y86713D01*
X-109351Y85443D01*
X-108632Y84368D01*
X-107557Y83649D01*
X-106287Y83396D01*
X-102076D01*
Y72277D01*
X-101288D01*
X-100903Y71007D01*
X-100965Y70965D01*
X-102181Y69146D01*
X-102608Y67000D01*
X-102181Y64854D01*
X-100965Y63035D01*
X-99824Y62272D01*
Y62000D01*
X-99824Y62000D01*
X-99609Y60919D01*
X-98997Y60003D01*
X-93497Y54503D01*
X-93497Y54503D01*
X-92581Y53891D01*
X-91500Y53676D01*
X-91500Y53676D01*
X-85307D01*
Y52600D01*
X-85162Y51870D01*
X-84748Y51252D01*
X-84130Y50838D01*
X-83400Y50693D01*
X-76600D01*
X-75870Y50838D01*
X-75252Y51252D01*
X-74839Y51870D01*
X-74693Y52600D01*
Y53676D01*
X-71250D01*
X-71250Y53676D01*
X-70169Y53891D01*
X-69253Y54503D01*
X-66874Y56882D01*
X-65604Y56356D01*
Y55428D01*
X-65596D01*
Y51770D01*
X-59500D01*
X-53404D01*
Y54503D01*
X-52849Y55012D01*
X-52506Y55163D01*
X-51504Y54610D01*
X-51302Y54005D01*
Y45666D01*
X-50587D01*
Y32282D01*
X-50896Y32221D01*
X-52715Y31005D01*
X-53931Y29186D01*
X-54247Y27594D01*
X-92424D01*
Y39723D01*
X-102076D01*
Y27594D01*
X-105769D01*
X-106849Y27379D01*
X-107421Y26997D01*
X-107448Y26992D01*
X-108364Y26380D01*
X-108364Y26380D01*
X-121767Y12977D01*
X-122379Y12061D01*
X-122594Y10980D01*
X-122594Y10980D01*
Y-31938D01*
X-122648Y-31974D01*
X-123918Y-31295D01*
Y-26520D01*
X-133062D01*
Y-25250D01*
X-134332D01*
Y-20551D01*
X-142206D01*
Y-20625D01*
X-150000D01*
X-150972Y-21028D01*
X-151300Y-21821D01*
X-164812D01*
Y-22176D01*
X-168830D01*
X-169003Y-22003D01*
X-169919Y-21391D01*
X-171000Y-21176D01*
X-171000Y-21176D01*
X-176195D01*
Y-19500D01*
X-176333Y-18809D01*
X-176724Y-18224D01*
X-177309Y-17833D01*
X-177897Y-17716D01*
Y-13938D01*
X-170480Y-6520D01*
X-169094Y-4446D01*
X-168607Y-2000D01*
Y-1270D01*
X-153730D01*
Y31270D01*
X-186270D01*
Y-1270D01*
X-184970D01*
X-184484Y-2443D01*
X-188810Y-6769D01*
X-190196Y-8843D01*
X-190683Y-11290D01*
Y-17695D01*
X-192000D01*
X-192691Y-17833D01*
X-193276Y-18224D01*
X-193667Y-18809D01*
X-193805Y-19500D01*
Y-28500D01*
X-193667Y-29191D01*
X-193276Y-29776D01*
X-192691Y-30167D01*
X-192500Y-30205D01*
Y-49795D01*
X-192691Y-49833D01*
X-193276Y-50224D01*
X-193667Y-50809D01*
X-193805Y-51500D01*
Y-60500D01*
X-193667Y-61191D01*
X-193276Y-61776D01*
X-193286Y-63245D01*
X-199020Y-68980D01*
X-200406Y-71054D01*
X-200893Y-73500D01*
Y-78150D01*
X-200406Y-80596D01*
X-199020Y-82670D01*
X-198804Y-82815D01*
Y-82950D01*
X-198670Y-83621D01*
X-198290Y-84190D01*
X-197721Y-84570D01*
X-197050Y-84704D01*
X-196374D01*
Y-97000D01*
X-195972Y-97972D01*
X-195648Y-98106D01*
X-194891Y-99054D01*
X-194796Y-99645D01*
X-195086Y-101850D01*
X-194743Y-104460D01*
X-193735Y-106893D01*
X-192822Y-108083D01*
X-192684Y-108777D01*
X-191479Y-110579D01*
X-189676Y-111784D01*
X-187550Y-112207D01*
X-182450D01*
X-181090Y-111936D01*
X-164750D01*
Y-112250D01*
X-164644D01*
X-164519Y-113520D01*
X-166034Y-113821D01*
X-171314Y-115614D01*
X-176316Y-118080D01*
X-180952Y-121178D01*
X-185145Y-124855D01*
X-188822Y-129048D01*
X-191920Y-133684D01*
X-194386Y-138686D01*
X-196179Y-143966D01*
X-197267Y-149436D01*
X-197548Y-153730D01*
X-155000D01*
Y-155000D01*
X-153730D01*
Y-197548D01*
X-149436Y-197267D01*
X-143966Y-196179D01*
X-138686Y-194386D01*
X-133684Y-191920D01*
X-129048Y-188822D01*
X-124855Y-185145D01*
X-121178Y-180952D01*
X-118080Y-176316D01*
X-115614Y-171314D01*
X-113821Y-166034D01*
X-112733Y-160564D01*
X-112465Y-156461D01*
X-111131Y-155527D01*
X-110854Y-155608D01*
X-110827Y-155674D01*
X-109024Y-158024D01*
X-90124Y-176924D01*
X-87774Y-178727D01*
X-85037Y-179860D01*
X-82100Y-180247D01*
X-68770D01*
X-66763Y-181078D01*
X-63500Y-181508D01*
X-60237Y-181078D01*
X-57196Y-179819D01*
X-54585Y-177815D01*
X-52581Y-175204D01*
X-51322Y-172163D01*
X-50892Y-168900D01*
X-51322Y-165637D01*
X-52581Y-162596D01*
X-54585Y-159985D01*
X-57196Y-157981D01*
X-60237Y-156722D01*
X-63500Y-156292D01*
X-66763Y-156722D01*
X-68770Y-157553D01*
X-77400D01*
X-89653Y-145300D01*
Y-126250D01*
X-90040Y-123313D01*
X-91173Y-120576D01*
X-92976Y-118226D01*
X-104532Y-106671D01*
X-103906Y-105501D01*
X-103400Y-105602D01*
X-101270D01*
Y-98500D01*
X-100000D01*
Y-97230D01*
X-93399D01*
Y-94600D01*
X-93642Y-93375D01*
X-94336Y-92336D01*
X-94625Y-92143D01*
Y-86000D01*
X-94752Y-85695D01*
X-94693Y-85400D01*
Y-77600D01*
X-94838Y-76870D01*
X-95252Y-76252D01*
X-95252Y-76247D01*
X-94503Y-75497D01*
X-93891Y-74581D01*
X-93676Y-73500D01*
X-92460Y-73404D01*
X-92450D01*
X-91779Y-73270D01*
X-91210Y-72890D01*
X-90830Y-72321D01*
X-90696Y-71650D01*
Y-63375D01*
X-85000D01*
X-84028Y-62972D01*
X-83625Y-62000D01*
Y-49704D01*
X-82950D01*
X-82279Y-49570D01*
X-81710Y-49190D01*
X-81330Y-48621D01*
X-81196Y-47950D01*
Y-38350D01*
X-81330Y-37679D01*
X-81710Y-37110D01*
X-82279Y-36730D01*
X-82950Y-36596D01*
X-83607D01*
X-84003Y-36003D01*
X-84003Y-36003D01*
X-87176Y-32830D01*
Y-31520D01*
X-83980D01*
Y-19980D01*
X-87176D01*
Y-10000D01*
X-87176Y-10000D01*
X-87391Y-8919D01*
X-88003Y-8003D01*
X-88003Y-8003D01*
X-91503Y-4503D01*
X-92419Y-3891D01*
X-93500Y-3676D01*
X-93500Y-3676D01*
X-99693D01*
Y-2600D01*
X-99838Y-1870D01*
X-100252Y-1252D01*
X-100870Y-838D01*
X-101600Y-693D01*
X-108400D01*
X-109130Y-838D01*
X-109748Y-1252D01*
X-110162Y-1870D01*
X-110307Y-2600D01*
Y-10400D01*
X-110248Y-10695D01*
X-110374Y-11000D01*
Y-14283D01*
X-110585Y-14325D01*
X-111406Y-14873D01*
X-112676Y-14195D01*
Y7830D01*
X-102830Y17676D01*
X-70642D01*
X-70211Y16406D01*
X-70661Y16061D01*
X-72270Y13963D01*
X-73282Y11521D01*
X-73459Y10170D01*
X-63500D01*
X-53541D01*
X-53718Y11521D01*
X-54730Y13963D01*
X-56339Y16061D01*
X-56789Y16406D01*
X-56358Y17676D01*
X-41165D01*
X-41165Y17676D01*
X-40084Y17891D01*
X-39168Y18503D01*
X-37411Y20260D01*
X-37410Y20260D01*
X-36980Y20905D01*
X-35287Y22036D01*
X-34071Y23855D01*
X-33644Y26001D01*
X-34071Y28147D01*
X-35287Y29966D01*
X-36428Y30729D01*
Y40614D01*
X-36391Y40669D01*
X-36176Y41750D01*
X-36391Y42831D01*
X-36594Y43135D01*
X-35909Y44396D01*
X-33270D01*
Y51000D01*
Y57604D01*
X-36572D01*
Y57552D01*
X-36698Y56334D01*
X-37842Y56334D01*
X-43302D01*
Y45666D01*
X-43074D01*
Y43000D01*
X-43074Y43000D01*
X-42859Y41919D01*
X-42247Y41003D01*
X-42076Y40832D01*
Y31238D01*
X-43151Y30307D01*
X-44406Y30438D01*
X-44785Y31005D01*
X-44938Y31108D01*
Y45666D01*
X-44698D01*
Y56334D01*
X-51126D01*
X-51302Y56334D01*
X-52013Y56610D01*
X-52396Y57757D01*
Y58730D01*
X-59000D01*
Y61270D01*
X-52396D01*
Y64572D01*
X-52448D01*
X-53666Y64698D01*
X-53666Y65842D01*
Y71302D01*
X-63104D01*
X-63507Y72000D01*
X-63104Y72698D01*
X-53666D01*
Y79302D01*
X-63104D01*
X-63507Y80000D01*
X-63104Y80698D01*
X-53666D01*
Y87302D01*
X-64334D01*
Y86824D01*
X-65500D01*
X-66581Y86609D01*
X-67497Y85997D01*
X-67497Y85997D01*
X-69747Y83747D01*
X-70359Y82831D01*
X-70574Y81750D01*
X-70574Y81750D01*
Y61170D01*
X-72420Y59324D01*
X-74693D01*
Y60400D01*
X-74752Y60694D01*
X-74625Y61000D01*
Y69000D01*
X-74752Y69305D01*
X-74693Y69600D01*
Y77400D01*
X-74839Y78130D01*
X-75252Y78748D01*
X-75870Y79162D01*
X-76600Y79307D01*
X-81469D01*
X-82392Y80250D01*
X-82819Y82396D01*
X-84035Y84215D01*
X-85854Y85431D01*
X-88000Y85858D01*
X-89324Y85594D01*
X-90405Y86669D01*
X-90396Y86713D01*
Y89480D01*
D02*
G37*
G36*
X-113924Y39723D02*
X-123576D01*
Y27277D01*
X-113924D01*
Y39723D01*
D02*
G37*
G36*
X3302Y56334D02*
X-3302D01*
Y45666D01*
X-2824D01*
Y29569D01*
X-4445Y28486D01*
X-5660Y26667D01*
X-6087Y24521D01*
X-5660Y22375D01*
X-4445Y20555D01*
X-2625Y19340D01*
X-479Y18913D01*
X1667Y19340D01*
X3486Y20555D01*
X4701Y22375D01*
X5128Y24521D01*
X4701Y26667D01*
X3486Y28486D01*
X2824Y28928D01*
Y45666D01*
X3302D01*
Y56334D01*
D02*
G37*
G36*
X-82710Y12790D02*
X-88730D01*
Y7020D01*
X-82710D01*
Y12790D01*
D02*
G37*
G36*
X-91270D02*
X-97290D01*
Y7020D01*
X-91270D01*
Y12790D01*
D02*
G37*
G36*
X-53541Y7630D02*
X-62230D01*
Y-1059D01*
X-60879Y-882D01*
X-58437Y130D01*
X-56339Y1739D01*
X-54730Y3837D01*
X-53718Y6279D01*
X-53541Y7630D01*
D02*
G37*
G36*
X-64770D02*
X-73459D01*
X-73282Y6279D01*
X-72270Y3837D01*
X-70661Y1739D01*
X-68563Y130D01*
X-66121Y-882D01*
X-64770Y-1059D01*
Y7630D01*
D02*
G37*
G36*
X-82710Y4480D02*
X-88730D01*
Y-1290D01*
X-82710D01*
Y4480D01*
D02*
G37*
G36*
X-91270D02*
X-97290D01*
Y-1290D01*
X-91270D01*
Y4480D01*
D02*
G37*
G36*
X8250Y67108D02*
X6104Y66681D01*
X4285Y65465D01*
X3069Y63646D01*
X2642Y61500D01*
X3069Y59354D01*
X4285Y57535D01*
X4379Y57472D01*
X4698Y56334D01*
X4698D01*
Y45666D01*
X11302D01*
Y55636D01*
X12572Y56269D01*
X12698Y56174D01*
X12698Y55102D01*
Y45666D01*
X13176D01*
Y40250D01*
X13176Y40250D01*
X13391Y39169D01*
X14003Y38253D01*
X45253Y7003D01*
X46169Y6391D01*
X47250Y6176D01*
X54730D01*
Y129D01*
X61163D01*
X63500Y-178D01*
X65836Y129D01*
X72270D01*
Y6562D01*
X72577Y8899D01*
X72270Y11236D01*
Y16510D01*
X72270Y17190D01*
X73506Y17750D01*
X74426Y16830D01*
Y-11580D01*
X73119Y-12887D01*
X71637Y-12627D01*
X71361Y-11962D01*
X69918Y-10082D01*
X68038Y-8639D01*
X65849Y-7732D01*
X63500Y-7423D01*
X61150Y-7732D01*
X58961Y-8639D01*
X57081Y-10082D01*
X55638Y-11962D01*
X54731Y-14151D01*
X54422Y-16501D01*
X54731Y-18850D01*
X55638Y-21040D01*
X57081Y-22920D01*
X58961Y-24362D01*
X61150Y-25269D01*
X63500Y-25578D01*
X65849Y-25269D01*
X68038Y-24362D01*
X69918Y-22920D01*
X71361Y-21040D01*
X72172Y-19082D01*
X73742D01*
X73742Y-19082D01*
X74823Y-18867D01*
X75739Y-18255D01*
X79247Y-14747D01*
X79859Y-13831D01*
X80074Y-12750D01*
X80074Y-12750D01*
Y18000D01*
X79859Y19081D01*
X79247Y19997D01*
X79247Y19997D01*
X74497Y24747D01*
X73581Y25359D01*
X72500Y25574D01*
X72500Y25574D01*
X44670D01*
X42060Y28184D01*
X42540Y29500D01*
X44146Y29819D01*
X45965Y31035D01*
X47181Y32854D01*
X47608Y35000D01*
X47181Y37146D01*
X45965Y38965D01*
X44146Y40181D01*
X42000Y40608D01*
X39854Y40181D01*
X39530Y39964D01*
X36247Y43247D01*
X35494Y43751D01*
X34848Y44396D01*
X34882Y45666D01*
X35302D01*
Y56334D01*
X28698D01*
Y45666D01*
X29176D01*
Y43250D01*
X29176Y43250D01*
X29271Y42769D01*
X28101Y42143D01*
X26824Y43420D01*
Y45666D01*
X27302D01*
Y56334D01*
X20698D01*
Y45666D01*
X21176D01*
Y42250D01*
X21176Y42250D01*
X21391Y41169D01*
X22003Y40253D01*
X41503Y20753D01*
X41503Y20753D01*
X42419Y20141D01*
X43500Y19926D01*
X71330D01*
X72350Y18906D01*
X71791Y17669D01*
X71198Y17669D01*
X65836D01*
X63500Y17977D01*
X61163Y17669D01*
X54730D01*
Y11824D01*
X48420D01*
X18824Y41420D01*
Y45666D01*
X19302D01*
Y56334D01*
X13951D01*
X12797Y56334D01*
X12760Y56372D01*
X12215Y57535D01*
X12479Y57929D01*
X13431Y59354D01*
X13858Y61500D01*
X13431Y63646D01*
X12215Y65465D01*
X10396Y66681D01*
X8250Y67108D01*
D02*
G37*
G36*
X191270Y-11941D02*
Y-20630D01*
X199959D01*
X199781Y-19279D01*
X198770Y-16837D01*
X197160Y-14740D01*
X195063Y-13131D01*
X192621Y-12119D01*
X191270Y-11941D01*
D02*
G37*
G36*
X188730D02*
X187379Y-12119D01*
X184937Y-13131D01*
X182839Y-14740D01*
X181230Y-16837D01*
X180218Y-19279D01*
X180040Y-20630D01*
X188730D01*
Y-11941D01*
D02*
G37*
G36*
X-123918Y-20551D02*
X-131792D01*
Y-23980D01*
X-123918D01*
Y-20551D01*
D02*
G37*
G36*
X-63500Y-7422D02*
X-65849Y-7732D01*
X-68039Y-8638D01*
X-69919Y-10081D01*
X-71361Y-11961D01*
X-72268Y-14151D01*
X-72578Y-16500D01*
X-72268Y-18850D01*
X-71361Y-21039D01*
X-69919Y-22919D01*
X-68039Y-24361D01*
X-65849Y-25268D01*
X-63500Y-25578D01*
X-61150Y-25268D01*
X-58961Y-24361D01*
X-57081Y-22919D01*
X-55638Y-21039D01*
X-54732Y-18850D01*
X-54422Y-16500D01*
X-54732Y-14151D01*
X-55638Y-11961D01*
X-57081Y-10081D01*
X-58961Y-8638D01*
X-61150Y-7732D01*
X-63500Y-7422D01*
D02*
G37*
G36*
X199959Y-23170D02*
X191270D01*
Y-31860D01*
X192621Y-31682D01*
X195063Y-30670D01*
X197160Y-29061D01*
X198770Y-26964D01*
X199781Y-24521D01*
X199959Y-23170D01*
D02*
G37*
G36*
X188730D02*
X180040D01*
X180218Y-24521D01*
X181230Y-26964D01*
X182839Y-29061D01*
X184937Y-30670D01*
X187379Y-31682D01*
X188730Y-31860D01*
Y-23170D01*
D02*
G37*
G36*
X130270Y-25541D02*
Y-36730D01*
X139127D01*
Y-35500D01*
X138782Y-32879D01*
X137770Y-30437D01*
X136161Y-28339D01*
X134063Y-26730D01*
X131621Y-25718D01*
X130270Y-25541D01*
D02*
G37*
G36*
X139127Y-39270D02*
X130270D01*
Y-50459D01*
X131621Y-50282D01*
X134063Y-49270D01*
X136161Y-47661D01*
X137770Y-45563D01*
X138782Y-43121D01*
X139127Y-40500D01*
Y-39270D01*
D02*
G37*
G36*
X190000Y-38223D02*
X187650Y-38532D01*
X185461Y-39439D01*
X183581Y-40882D01*
X182138Y-42762D01*
X181231Y-44951D01*
X180922Y-47300D01*
X181231Y-49650D01*
X182138Y-51839D01*
X183581Y-53719D01*
X185461Y-55162D01*
X187650Y-56069D01*
X190000Y-56378D01*
X192349Y-56069D01*
X194539Y-55162D01*
X196419Y-53719D01*
X197861Y-51839D01*
X198768Y-49650D01*
X199077Y-47300D01*
X198768Y-44951D01*
X197861Y-42762D01*
X196419Y-40882D01*
X194539Y-39439D01*
X192349Y-38532D01*
X190000Y-38223D01*
D02*
G37*
G36*
X63500Y-32822D02*
X61150Y-33132D01*
X58961Y-34039D01*
X57081Y-35481D01*
X55638Y-37361D01*
X54732Y-39550D01*
X54422Y-41900D01*
X54732Y-44250D01*
X55638Y-46439D01*
X57081Y-48319D01*
X58961Y-49761D01*
X60676Y-50472D01*
Y-58728D01*
X58961Y-59439D01*
X57081Y-60881D01*
X55638Y-62761D01*
X54732Y-64950D01*
X54422Y-67300D01*
X54732Y-69650D01*
X55638Y-71839D01*
X57081Y-73719D01*
X58961Y-75161D01*
X61150Y-76068D01*
X63500Y-76378D01*
X65849Y-76068D01*
X68039Y-75161D01*
X69919Y-73719D01*
X71361Y-71839D01*
X72268Y-69650D01*
X72578Y-67300D01*
X72268Y-64950D01*
X71361Y-62761D01*
X69919Y-60881D01*
X68039Y-59439D01*
X66324Y-58728D01*
Y-50472D01*
X68039Y-49761D01*
X69919Y-48319D01*
X71361Y-46439D01*
X72268Y-44250D01*
X72578Y-41900D01*
X72268Y-39550D01*
X71361Y-37361D01*
X69919Y-35481D01*
X68039Y-34039D01*
X65849Y-33132D01*
X63500Y-32822D01*
D02*
G37*
G36*
X190000Y-63622D02*
X187651Y-63931D01*
X185461Y-64838D01*
X183581Y-66281D01*
X182139Y-68161D01*
X181232Y-70350D01*
X180923Y-72700D01*
X181232Y-75049D01*
X182139Y-77238D01*
X183581Y-79118D01*
X185461Y-80561D01*
X187651Y-81468D01*
X190000Y-81777D01*
X192350Y-81468D01*
X194539Y-80561D01*
X196419Y-79118D01*
X197862Y-77238D01*
X198769Y-75049D01*
X199078Y-72700D01*
X198769Y-70350D01*
X197862Y-68161D01*
X196419Y-66281D01*
X194539Y-64838D01*
X192350Y-63931D01*
X190000Y-63622D01*
D02*
G37*
G36*
Y-89022D02*
X187663Y-89330D01*
X181230D01*
Y-94256D01*
X171344D01*
Y-92852D01*
X171193Y-92095D01*
X170765Y-91453D01*
X170123Y-91025D01*
X169366Y-90874D01*
X152706D01*
X151949Y-91025D01*
X151307Y-91453D01*
X150879Y-92095D01*
X150728Y-92852D01*
Y-104912D01*
X150879Y-105669D01*
X151307Y-106311D01*
X151949Y-106739D01*
X152706Y-106890D01*
X169366D01*
X170123Y-106739D01*
X170765Y-106311D01*
X171193Y-105669D01*
X171344Y-104912D01*
Y-101944D01*
X181230D01*
Y-106870D01*
X187663D01*
X190000Y-107177D01*
X192337Y-106870D01*
X198770D01*
Y-100436D01*
X199078Y-98100D01*
X198770Y-95763D01*
Y-89330D01*
X192337D01*
X190000Y-89022D01*
D02*
G37*
G36*
X131270Y-83541D02*
Y-94730D01*
X140127D01*
Y-93500D01*
X139782Y-90879D01*
X138770Y-88437D01*
X137161Y-86339D01*
X135063Y-84730D01*
X132621Y-83718D01*
X131270Y-83541D01*
D02*
G37*
G36*
X63500Y-83622D02*
X61150Y-83932D01*
X58961Y-84838D01*
X57081Y-86281D01*
X55638Y-88161D01*
X54732Y-90351D01*
X54422Y-92700D01*
X54732Y-95049D01*
X55638Y-97239D01*
X57081Y-99119D01*
X58961Y-100561D01*
X61150Y-101468D01*
X63500Y-101778D01*
X65849Y-101468D01*
X68039Y-100561D01*
X69919Y-99119D01*
X71361Y-97239D01*
X72268Y-95049D01*
X72578Y-92700D01*
X72268Y-90351D01*
X71361Y-88161D01*
X69919Y-86281D01*
X68039Y-84838D01*
X65849Y-83932D01*
X63500Y-83622D01*
D02*
G37*
G36*
X-93399Y-99770D02*
X-98730D01*
Y-105602D01*
X-96600D01*
X-95375Y-105358D01*
X-94336Y-104664D01*
X-93642Y-103625D01*
X-93399Y-102400D01*
Y-99770D01*
D02*
G37*
G36*
X140127Y-97270D02*
X131270D01*
Y-108459D01*
X132621Y-108282D01*
X135063Y-107270D01*
X137161Y-105661D01*
X138770Y-103563D01*
X139782Y-101121D01*
X140127Y-98500D01*
Y-97270D01*
D02*
G37*
G36*
X63500Y-109022D02*
X61150Y-109332D01*
X58961Y-110239D01*
X57081Y-111681D01*
X55638Y-113561D01*
X54732Y-115751D01*
X54422Y-118100D01*
X54732Y-120449D01*
X55638Y-122639D01*
X57081Y-124519D01*
X58961Y-125961D01*
X61150Y-126868D01*
X63500Y-127178D01*
X65849Y-126868D01*
X68039Y-125961D01*
X69919Y-124519D01*
X71361Y-122639D01*
X72268Y-120449D01*
X72578Y-118100D01*
X72268Y-115751D01*
X71361Y-113561D01*
X69919Y-111681D01*
X68039Y-110239D01*
X65849Y-109332D01*
X63500Y-109022D01*
D02*
G37*
G36*
X-64770Y-144770D02*
X-73459D01*
X-73282Y-146121D01*
X-72270Y-148563D01*
X-70661Y-150661D01*
X-68563Y-152270D01*
X-66121Y-153282D01*
X-64770Y-153459D01*
Y-144770D01*
D02*
G37*
G36*
X156270Y-112452D02*
Y-153730D01*
X197548D01*
X197267Y-149436D01*
X196179Y-143966D01*
X194386Y-138686D01*
X191920Y-133684D01*
X188822Y-129048D01*
X185145Y-124855D01*
X180952Y-121178D01*
X176316Y-118080D01*
X171314Y-115614D01*
X166034Y-113821D01*
X160564Y-112733D01*
X156270Y-112452D01*
D02*
G37*
G36*
X153730D02*
X149436Y-112733D01*
X143966Y-113821D01*
X138686Y-115614D01*
X133684Y-118080D01*
X129048Y-121178D01*
X124855Y-124855D01*
X121178Y-129048D01*
X118080Y-133684D01*
X115614Y-138686D01*
X113821Y-143966D01*
X112733Y-149436D01*
X112452Y-153730D01*
X153730D01*
Y-112452D01*
D02*
G37*
G36*
X197548Y-156270D02*
X156270D01*
Y-197548D01*
X160564Y-197267D01*
X166034Y-196179D01*
X171314Y-194386D01*
X176316Y-191920D01*
X180952Y-188822D01*
X185145Y-185145D01*
X188822Y-180952D01*
X191920Y-176316D01*
X194386Y-171314D01*
X196179Y-166034D01*
X197267Y-160564D01*
X197548Y-156270D01*
D02*
G37*
G36*
X153730D02*
X112452D01*
X112733Y-160564D01*
X113821Y-166034D01*
X115614Y-171314D01*
X118080Y-176316D01*
X121178Y-180952D01*
X124855Y-185145D01*
X129048Y-188822D01*
X133684Y-191920D01*
X138686Y-194386D01*
X143966Y-196179D01*
X149436Y-197267D01*
X153730Y-197548D01*
Y-156270D01*
D02*
G37*
G36*
X-156270D02*
X-197548D01*
X-197267Y-160564D01*
X-196179Y-166034D01*
X-194386Y-171314D01*
X-191920Y-176316D01*
X-188822Y-180952D01*
X-185145Y-185145D01*
X-180952Y-188822D01*
X-176316Y-191920D01*
X-171314Y-194386D01*
X-166034Y-196179D01*
X-160564Y-197267D01*
X-156270Y-197548D01*
Y-156270D01*
D02*
G37*
%LPD*%
G36*
X94339Y178370D02*
X94752Y177752D01*
X95370Y177339D01*
X95500Y177313D01*
Y172687D01*
X95370Y172661D01*
X94752Y172248D01*
X94339Y171630D01*
X94193Y170900D01*
Y164100D01*
X94339Y163370D01*
X94752Y162752D01*
X95370Y162339D01*
X96100Y162193D01*
X96156D01*
Y156718D01*
X95870Y156662D01*
X95252Y156248D01*
X94838Y155630D01*
X94693Y154900D01*
Y147100D01*
X94752Y146807D01*
X94625Y146503D01*
Y139471D01*
X94477Y139259D01*
X93355Y138538D01*
X91750Y138858D01*
X89604Y138431D01*
X87785Y137215D01*
X86569Y135396D01*
X85307Y135559D01*
Y137900D01*
X85248Y138196D01*
X85375Y138502D01*
Y146502D01*
X85248Y146807D01*
X85307Y147100D01*
Y154900D01*
X85162Y155630D01*
X84748Y156248D01*
X84130Y156662D01*
X83844Y156718D01*
Y162193D01*
X83900D01*
X84630Y162339D01*
X85248Y162752D01*
X85661Y163370D01*
X85807Y164100D01*
Y170900D01*
X85661Y171630D01*
X85248Y172248D01*
X84630Y172661D01*
X84500Y172687D01*
Y177313D01*
X84630Y177339D01*
X85248Y177752D01*
X85661Y178370D01*
X85718Y178656D01*
X94282D01*
X94339Y178370D01*
D02*
G37*
G36*
X-112607Y-42397D02*
Y-44335D01*
X-129225Y-60953D01*
X-130399Y-60468D01*
Y-60270D01*
X-137500D01*
Y-59000D01*
X-138770D01*
Y-52399D01*
X-141400D01*
X-142625Y-52642D01*
X-143664Y-53336D01*
X-143857Y-53625D01*
X-145283D01*
X-145325Y-53415D01*
X-146563Y-51563D01*
X-147936Y-50645D01*
X-147551Y-49375D01*
X-140000D01*
X-139028Y-48972D01*
X-138700Y-48179D01*
X-125188D01*
Y-47574D01*
X-120750D01*
X-120750Y-47574D01*
X-119669Y-47359D01*
X-118753Y-46747D01*
X-113877Y-41871D01*
X-112607Y-42397D01*
D02*
G37*
%LPC*%
G36*
X-133600Y-52399D02*
X-136230D01*
Y-57730D01*
X-130399D01*
Y-55600D01*
X-130642Y-54375D01*
X-131336Y-53336D01*
X-132375Y-52642D01*
X-133600Y-52399D01*
D02*
G37*
%LPD*%
D13*
X40000Y136276D02*
X40132Y136144D01*
Y134620D02*
Y136144D01*
X40000Y51000D02*
Y136276D01*
D19*
X161036Y-70282D02*
D03*
Y-98882D02*
D03*
D20*
X-59000Y140000D02*
D03*
Y132000D02*
D03*
Y124000D02*
D03*
Y116000D02*
D03*
Y108000D02*
D03*
Y100000D02*
D03*
Y92000D02*
D03*
Y84000D02*
D03*
Y76000D02*
D03*
Y68000D02*
D03*
Y60000D02*
D03*
X59000D02*
D03*
Y68000D02*
D03*
Y76000D02*
D03*
Y84000D02*
D03*
Y92000D02*
D03*
Y100000D02*
D03*
Y108000D02*
D03*
Y116000D02*
D03*
Y124000D02*
D03*
Y132000D02*
D03*
Y140000D02*
D03*
D21*
X-48000Y51000D02*
D03*
X-40000D02*
D03*
X-32000D02*
D03*
X-24000D02*
D03*
X-16000D02*
D03*
X-8000D02*
D03*
X0D02*
D03*
X8000D02*
D03*
X16000D02*
D03*
X24000D02*
D03*
X32000D02*
D03*
X40000D02*
D03*
X48000D02*
D03*
X48000Y149000D02*
D03*
X40000D02*
D03*
X32000D02*
D03*
X24000D02*
D03*
X16000D02*
D03*
X8000D02*
D03*
X0D02*
D03*
X-8000D02*
D03*
X-16000D02*
D03*
X-24000D02*
D03*
X-32000D02*
D03*
X-40000D02*
D03*
X-48000D02*
D03*
D22*
X0Y100000D02*
D03*
X19750Y119750D02*
D03*
Y100000D02*
D03*
Y80250D02*
D03*
X0D02*
D03*
X-19750D02*
D03*
Y100000D02*
D03*
Y119750D02*
D03*
X0D02*
D03*
D23*
X59500Y149500D02*
D03*
Y50500D02*
D03*
X-59500D02*
D03*
Y149500D02*
D03*
D24*
X-97250Y78500D02*
D03*
Y33500D02*
D03*
X-118750Y78500D02*
D03*
Y33500D02*
D03*
D25*
X-137500Y105000D02*
D03*
X-154500D02*
D03*
X-137500Y-59000D02*
D03*
X-154500D02*
D03*
D26*
X-105000Y-23500D02*
D03*
Y-6500D02*
D03*
X-100000Y-81500D02*
D03*
Y-98500D02*
D03*
X-80000Y73500D02*
D03*
Y56500D02*
D03*
Y108500D02*
D03*
Y91500D02*
D03*
X100000Y151000D02*
D03*
Y134000D02*
D03*
X161000Y103500D02*
D03*
Y86500D02*
D03*
X80000Y134000D02*
D03*
Y151000D02*
D03*
D27*
X-186500Y105000D02*
D03*
X-171500D02*
D03*
D28*
X-133062Y-25250D02*
D03*
Y-31750D02*
D03*
Y-38250D02*
D03*
Y-44750D02*
D03*
X-156938D02*
D03*
Y-38250D02*
D03*
Y-31750D02*
D03*
Y-25250D02*
D03*
D29*
X-185000Y-56000D02*
D03*
Y-24000D02*
D03*
D30*
X-185000Y-101850D02*
D03*
X-194500Y-78150D02*
D03*
X-175500D02*
D03*
X-125000Y-101850D02*
D03*
X-134500Y-78150D02*
D03*
X-115500D02*
D03*
X-95000Y-66850D02*
D03*
X-104500Y-43150D02*
D03*
X-85500D02*
D03*
D31*
X-155000Y-102750D02*
D03*
Y-71250D02*
D03*
X-90000Y-25750D02*
D03*
Y5750D02*
D03*
D32*
X-100000Y90750D02*
D03*
Y109250D02*
D03*
X-80000Y144250D02*
D03*
Y125750D02*
D03*
X-100000Y144250D02*
D03*
Y125750D02*
D03*
X120000Y104250D02*
D03*
Y85750D02*
D03*
X97000Y104250D02*
D03*
Y85750D02*
D03*
D33*
X100000Y167500D02*
D03*
Y182500D02*
D03*
X80000Y167500D02*
D03*
Y182500D02*
D03*
X143000Y102500D02*
D03*
Y87500D02*
D03*
D34*
X97000Y65000D02*
D03*
X143000D02*
D03*
X120000D02*
D03*
D35*
Y3000D02*
D03*
D60*
X200000Y180000D02*
D03*
Y140000D02*
D03*
X190000Y120000D02*
D03*
X200000Y100000D02*
D03*
Y-60000D02*
D03*
X190000Y-120000D02*
D03*
X200000Y-140000D02*
D03*
Y-180000D02*
D03*
X190000Y-200000D02*
D03*
X180000Y100000D02*
D03*
X170000Y80000D02*
D03*
Y0D02*
D03*
Y-40000D02*
D03*
Y-200000D02*
D03*
X150000Y40000D02*
D03*
X160000Y20000D02*
D03*
Y-20000D02*
D03*
X150000Y-40000D02*
D03*
Y-200000D02*
D03*
X130000Y40000D02*
D03*
X140000Y20000D02*
D03*
Y-20000D02*
D03*
X130000Y-200000D02*
D03*
X110000Y120000D02*
D03*
Y40000D02*
D03*
X120000Y-20000D02*
D03*
X110000Y-160000D02*
D03*
Y-200000D02*
D03*
X90000Y160000D02*
D03*
Y120000D02*
D03*
Y-80000D02*
D03*
Y-120000D02*
D03*
Y-200000D02*
D03*
X70000Y40000D02*
D03*
X80000Y-60000D02*
D03*
X70000Y-80000D02*
D03*
X80000Y-100000D02*
D03*
Y-140000D02*
D03*
X70000Y-200000D02*
D03*
X50000Y40000D02*
D03*
Y-40000D02*
D03*
Y-80000D02*
D03*
X40000Y-60000D02*
D03*
X30000Y-80000D02*
D03*
X20000Y-60000D02*
D03*
X0Y140000D02*
D03*
X-40000D02*
D03*
X-70000Y-200000D02*
D03*
X-90000Y160000D02*
D03*
X-80000Y-60000D02*
D03*
X-90000Y-80000D02*
D03*
X-80000Y-100000D02*
D03*
X-90000Y-200000D02*
D03*
X-100000Y180000D02*
D03*
X-110000Y160000D02*
D03*
X-100000Y-180000D02*
D03*
X-110000Y-200000D02*
D03*
X-130000Y80000D02*
D03*
Y40000D02*
D03*
X-120000Y20000D02*
D03*
X-130000Y0D02*
D03*
Y-200000D02*
D03*
X-150000Y80000D02*
D03*
X-140000Y60000D02*
D03*
X-150000Y40000D02*
D03*
X-140000Y20000D02*
D03*
X-150000Y-200000D02*
D03*
X-170000Y40000D02*
D03*
Y-200000D02*
D03*
X-190000Y120000D02*
D03*
Y40000D02*
D03*
Y-120000D02*
D03*
Y-200000D02*
D03*
X40132Y134620D02*
D03*
X80010Y118872D02*
D03*
X-97000Y67000D02*
D03*
X-142304Y-67384D02*
D03*
X72250Y76230D02*
D03*
X72323Y68056D02*
D03*
X-126750Y104250D02*
D03*
X-88000Y80250D02*
D03*
X-114750Y108000D02*
D03*
X-167750Y-46250D02*
D03*
X-48750Y27040D02*
D03*
X42000Y35000D02*
D03*
X8250Y61500D02*
D03*
X91750Y133250D02*
D03*
X-46750Y101250D02*
D03*
X72750Y99500D02*
D03*
Y107500D02*
D03*
X-39252Y26001D02*
D03*
X-479Y24521D02*
D03*
D62*
X-91500Y56500D02*
X-80000D01*
X80000Y118872D02*
Y134000D01*
X-97000Y67000D02*
Y78250D01*
X-97250Y78500D02*
X-97000Y78250D01*
Y62000D02*
Y67000D01*
Y62000D02*
X-91500Y56500D01*
X-80000D02*
X-80000Y56500D01*
X-71250D01*
X-137500Y105000D02*
X-136750Y104250D01*
X-126750D01*
X-115500Y-39500D02*
Y9000D01*
X-119770Y-34270D02*
Y10980D01*
X-106367Y24383D01*
X-115500Y9000D02*
X-104000Y20500D01*
X-80000Y73500D02*
Y74000D01*
X-82500Y76500D02*
X-80000Y74000D01*
X-83000Y76500D02*
X-82500D01*
X-86750Y80250D02*
X-83000Y76500D01*
X-88000Y80250D02*
X-86750D01*
X100000Y182500D02*
X100500D01*
X103000Y180000D01*
Y179500D02*
Y180000D01*
Y179500D02*
X110000Y172500D01*
Y135750D02*
Y172500D01*
X133000Y91306D02*
X135929Y88378D01*
X133000Y91306D02*
Y112750D01*
X110000Y135750D02*
X133000Y112750D01*
X63500Y-16501D02*
X63743Y-16258D01*
X77250Y-12750D02*
Y18000D01*
X73742Y-16258D02*
X77250Y-12750D01*
X72500Y22750D02*
X77250Y18000D01*
X63743Y-16258D02*
X73742D01*
X-166250Y-44750D02*
X-156938D01*
X-167750Y-46250D02*
X-166250Y-44750D01*
X-106367Y24383D02*
X-106156D01*
X-41165Y20500D02*
X-39407Y22257D01*
X-104000Y20500D02*
X-41165D01*
X-51507Y24770D02*
X-49237Y27040D01*
X-106156Y24383D02*
X-105769Y24770D01*
X-39407Y22257D02*
Y25846D01*
X-39252Y26001D01*
X-120750Y-44750D02*
X-115500Y-39500D01*
X-123750Y-38250D02*
X-119770Y-34270D01*
X-105000Y-23500D02*
X-104500Y-24000D01*
Y-43150D02*
Y-24000D01*
X-106000Y-44650D02*
X-104500Y-43150D01*
X-133062Y-44750D02*
X-120750D01*
X-133062Y-38250D02*
X-123750D01*
X63500Y-67300D02*
Y-41900D01*
X50850Y-156250D02*
X63500Y-168900D01*
X-16000Y-65750D02*
X50850Y-132600D01*
Y-156250D02*
Y-132600D01*
X-16000Y-65750D02*
Y51000D01*
X41617Y35383D02*
X42000Y35000D01*
X40203Y35383D02*
X41617D01*
X40086Y35500D02*
X40203Y35383D01*
X40000Y35500D02*
X40086D01*
X34000Y41250D02*
X34250D01*
X40000Y35500D01*
X32000Y43250D02*
Y51000D01*
Y43250D02*
X34000Y41250D01*
X16000Y40250D02*
X47250Y9000D01*
X63399D02*
X63500Y8899D01*
X16000Y40250D02*
Y51000D01*
X47250Y9000D02*
X63399D01*
X43500Y22750D02*
X72500D01*
X24000Y42250D02*
X43500Y22750D01*
X24000Y42250D02*
Y51000D01*
X8000D02*
X8250Y51250D01*
Y61500D01*
X91750Y133250D02*
X99250D01*
X100000Y134000D01*
X-59000Y100000D02*
X-48000D01*
X-46750Y101250D01*
X59000Y100000D02*
X71709D01*
X72209Y99500D01*
X72750D01*
X59000Y108000D02*
X72250D01*
X72750Y107500D01*
X-47763Y28569D02*
Y50763D01*
X-48750Y27581D02*
X-47763Y28569D01*
X-48000Y51000D02*
X-47763Y50763D01*
X-48750Y27040D02*
Y27581D01*
X-105769Y24770D02*
X-51507D01*
X-49237Y27040D02*
X-48750D01*
X-39252Y26001D02*
Y41498D01*
X-39000Y41750D01*
X-40250Y50750D02*
X-40000Y51000D01*
X-40250Y43000D02*
Y50750D01*
Y43000D02*
X-39000Y41750D01*
X-1000Y25041D02*
X-479Y24521D01*
X-1000Y25041D02*
X0Y26041D01*
Y51000D01*
X-67750Y60000D02*
Y81750D01*
X-71250Y56500D02*
X-67750Y60000D01*
X-65500Y84000D02*
X-59000D01*
X-67750Y81750D02*
X-65500Y84000D01*
X-73257Y93243D02*
X-69750Y96750D01*
X-80000Y91500D02*
X-78257Y93243D01*
X-69750Y96750D02*
Y103250D01*
X-65230Y107770D01*
X-59230D02*
X-59000Y108000D01*
X-65230Y107770D02*
X-59230D01*
X-78257Y93243D02*
X-73257D01*
X-171500Y105000D02*
X-153304D01*
X-90000Y-25750D02*
Y-10000D01*
X-105000Y-6500D02*
X-93500D01*
X-90000Y-10000D01*
Y-34000D02*
Y-25750D01*
Y-34000D02*
X-86000Y-38000D01*
Y-42650D02*
X-85500Y-43150D01*
X-86000Y-42650D02*
Y-38000D01*
X-186000Y-56000D02*
X-183257Y-53257D01*
Y-48257D01*
X-166750Y-31750D02*
X-156938D01*
X-183257Y-48257D02*
X-166750Y-31750D01*
X-184290Y-24000D02*
X-171000D01*
X-185000D02*
X-184290D01*
X-157188Y-25000D02*
X-156938Y-25250D01*
X-170000Y-25000D02*
X-157188D01*
X-171000Y-24000D02*
X-170000Y-25000D01*
X-133000Y-76650D02*
Y-74000D01*
X-134500Y-78150D02*
X-133000Y-76650D01*
Y-74000D02*
X-106000Y-47000D01*
Y-44650D01*
X-96500Y-68350D02*
X-95000Y-66850D01*
X-96500Y-73500D02*
Y-68350D01*
X-100000Y-77000D02*
X-96500Y-73500D01*
X-100000Y-81500D02*
Y-77000D01*
X-107500Y-81500D02*
X-100000D01*
X-110000Y-79000D02*
X-107500Y-81500D01*
X-115500Y-78150D02*
X-114650Y-79000D01*
X-110000D01*
X-154500Y-70750D02*
Y-59000D01*
X-155000Y-71250D02*
X-154500Y-70750D01*
X-175500Y-78150D02*
X-161900D01*
X-158250Y-74500D01*
Y-74250D01*
X-155250Y-71250D01*
X-155000D01*
D63*
X110000Y-60960D02*
Y-39000D01*
Y-96000D02*
Y-60960D01*
X109000Y-38000D02*
X110000Y-39000D01*
X-82100Y-168900D02*
X-63500D01*
X-125000Y-102250D02*
X-101000Y-126250D01*
Y-150000D02*
Y-126250D01*
Y-150000D02*
X-82100Y-168900D01*
X-125000Y-102250D02*
Y-101850D01*
X-61574Y-93950D02*
X-60947D01*
X-63500Y-92700D02*
X-62824D01*
X-63500Y-67300D02*
X-62824D01*
X38100Y-195000D02*
Y-141100D01*
X12700Y-195000D02*
Y-142383D01*
X-12700Y-195000D02*
Y-142198D01*
X-62824Y-92700D02*
X-61574Y-93950D01*
Y-68550D02*
X-61133D01*
X-63500Y-41900D02*
X-63022Y-42378D01*
X-60622D01*
X-60947Y-93950D02*
X-12700Y-142198D01*
X-61133Y-68550D02*
X12700Y-142383D01*
X-60622Y-42378D02*
X38100Y-141100D01*
X-62824Y-67300D02*
X-61574Y-68550D01*
X-61905Y-118578D02*
X-38100Y-142384D01*
X-63022Y-118578D02*
X-61905D01*
X-38100Y-195000D02*
Y-142384D01*
X-63500Y-118100D02*
X-63022Y-118578D01*
D64*
X119322Y-70282D02*
X161036D01*
X110000Y-60960D02*
X119322Y-70282D01*
X161818Y-98100D02*
X190000D01*
X161036Y-98882D02*
X161818Y-98100D01*
X-113500Y109250D02*
X-100000D01*
X-114750Y108000D02*
X-113500Y109250D01*
X120000Y3000D02*
X160250D01*
X169150Y11900D02*
X190000D01*
X160250Y3000D02*
X169150Y11900D01*
X135929Y88378D02*
X142122D01*
X143000Y87500D01*
X108429Y-37429D02*
X109000Y-38000D01*
X96929Y-37429D02*
X108429D01*
X92250Y-32750D02*
Y35250D01*
Y-32750D02*
X96929Y-37429D01*
X97000Y40000D02*
Y65000D01*
X92250Y35250D02*
X97000Y40000D01*
X80000Y151000D02*
Y167500D01*
X100000Y151000D02*
Y167500D01*
X80000Y182500D02*
X100000D01*
X120000Y3000D02*
Y65000D01*
X160623Y103123D02*
X161000Y103500D01*
X152622Y103123D02*
X160623D01*
X152000Y102500D02*
X152622Y103123D01*
X143000Y102500D02*
X152000D01*
X120000Y85750D02*
X133250D01*
X142622Y87122D02*
X143000Y87500D01*
X134622Y87122D02*
X142622D01*
X133250Y85750D02*
X134622Y87122D01*
X120000Y65000D02*
Y85750D01*
X120000Y85750D01*
X97000Y65000D02*
Y85750D01*
X97000Y85750D01*
X-100000Y144250D02*
X-80000D01*
X-100000Y125750D02*
X-80000D01*
X-80000Y125750D01*
X-80000Y125750D02*
X-79750Y126000D01*
X-70000D01*
X-68000Y124000D02*
X-59000D01*
X-70000Y126000D02*
X-68000Y124000D01*
X-80000Y125750D02*
X-80000Y125750D01*
X-99250Y108500D02*
X-80000D01*
X-100000Y109250D02*
X-99250Y108500D01*
X-100000Y125750D02*
X-100000Y125750D01*
X-100000Y109250D02*
Y125750D01*
D65*
X-59000Y51000D02*
Y60000D01*
X-59500Y50500D02*
X-59000Y51000D01*
X-19750Y100000D02*
X0D01*
X-133062Y-31750D02*
Y-25250D01*
X-141750Y-31750D02*
X-133062D01*
X-148250Y-38250D02*
X-141750Y-31750D01*
X-156938Y-38250D02*
X-148250D01*
X-141909Y-66988D02*
X-138753D01*
X-142304Y-67384D02*
X-141909Y-66988D01*
X-137500Y-65736D02*
Y-59000D01*
X-138753Y-66988D02*
X-137500Y-65736D01*
X59000Y76000D02*
X59428Y75572D01*
X59000Y68000D02*
X59942Y67058D01*
X63220Y73547D02*
X68707D01*
X71391Y76230D01*
X72250D01*
X63220Y70453D02*
X69066D01*
X71463Y68056D01*
X72323D01*
X62152Y74615D02*
Y74880D01*
X61032Y76000D02*
X62152Y74880D01*
X61032Y68000D02*
X62152Y69120D01*
X59000Y68000D02*
X61032D01*
X62152Y74615D02*
X63220Y73547D01*
X62152Y69385D02*
X63220Y70453D01*
X62152Y69120D02*
Y69385D01*
X59000Y76000D02*
X61032D01*
D66*
X-186000Y-65000D02*
Y-56000D01*
X-184290Y-24000D02*
Y-11290D01*
X-155000Y-98650D02*
X-134500Y-78150D01*
X-155000Y-102750D02*
Y-98650D01*
X-185000Y-101850D02*
X-155900D01*
X-155000Y-102750D01*
X-194500Y-73500D02*
X-186000Y-65000D01*
X-194500Y-78150D02*
Y-73500D01*
X-175000Y10000D02*
X-170000Y15000D01*
X-175000Y-2000D02*
Y10000D01*
X-184290Y-11290D02*
X-175000Y-2000D01*
D67*
X-109474Y195326D02*
D03*
X63500Y-92700D02*
D03*
X63500Y-16501D02*
D03*
X63500Y-41900D02*
D03*
Y-67300D02*
D03*
Y-118100D02*
D03*
Y-143500D02*
D03*
Y-168900D02*
D03*
X-63500D02*
D03*
Y-143500D02*
D03*
Y-118100D02*
D03*
Y-92700D02*
D03*
Y-67300D02*
D03*
Y-41900D02*
D03*
Y-16500D02*
D03*
Y8900D02*
D03*
X190000Y-72700D02*
D03*
X190000Y-47300D02*
D03*
Y-21900D02*
D03*
X190000Y37300D02*
D03*
X190000Y62700D02*
D03*
Y88100D02*
D03*
D68*
X-84074Y195326D02*
D03*
D69*
X-38100Y-196596D02*
D03*
X-12700D02*
D03*
X12700Y-196596D02*
D03*
D70*
X38100D02*
D03*
D71*
X63500Y8899D02*
D03*
X190000Y-98100D02*
D03*
Y11900D02*
D03*
D72*
X-170000Y65000D02*
D03*
D73*
Y15000D02*
D03*
D74*
X110000Y-96000D02*
D03*
X109000Y-38000D02*
D03*
D75*
X130000Y-96000D02*
D03*
X129000Y-38000D02*
D03*
D76*
X-155000Y155000D02*
D03*
X155000D02*
D03*
X-155000Y-155000D02*
D03*
X155000D02*
D03*
M02*
