M48
;Layer_Color=9474304
;FILE_FORMAT=4:4
METRIC,LZ
;TYPE=PLATED
T1F00S00C0.3000
T2F00S00C0.7000
T3F00S00C1.0000
T4F00S00C1.5000
T5F00S00C3.4000
%
T01
X-0015Y-002
X-0013
X-0011
X-0009
X-0007
X-001Y-0018
X-0008Y-001
X-0009Y-0008
X-0008Y-0006
X-00142304Y-00067384
X-0013Y0
X-0012Y0002
X-0014
X-0013Y0004
X-0015
X-0014Y0006
X-0013Y0008
X-0015
X-0012675Y0010425
X-0011475Y00108
X-00088Y0008025
X-00097Y00067
X-0004675Y0010125
X-0004875Y0002704
X-00039252Y00026001
X-00000479Y00024521
X0000825Y000615
X00042Y00035
X0005Y0004
X0007
X00072323Y00068056
X0007225Y0007623
X0007275Y000995
Y001075
X0008001Y00118872
X0009Y0012
X0009175Y0013325
X0011Y0012
X0019
X002Y001
X0018
X0017Y0008
X0015Y0004
X0013
X0011
X0014Y0002
X0016
X0017Y0
X0016Y-0002
X0014
X0012
X0015Y-0004
X0017
X002Y-0006
X0019Y-0012
X002Y-0014
Y-0018
X0019Y-002
X0017
X0015
X0013
X0011
X0009
X0007
X0008Y-0014
X0009Y-0012
X0008Y-001
X0009Y-0008
X0007
X0005
X0003
X0004Y-0006
X0002
X0005Y-0004
X0008Y-0006
X0011Y-0016
X-0017Y-002
X-0019
Y-0012
X-0016775Y-0004625
X-0017Y0004
X-0019
Y0012
X-0011Y0016
X-0009
X-001Y0018
X-0004Y0014
X0
X00040132Y0013462
X0009Y0016
X002Y0018
Y0014
T02
X0011Y-00096
X0013
X00129Y-00038
X00109
T03
X-000381Y-00196596
X-000127
X000127Y-00196596
X000381
X000635Y-001689
Y-001435
Y-001181
Y-000927
Y-000673
Y-000419
X000635Y-00016501
Y00008899
X-000635Y000089
Y-000165
Y-000419
Y-000673
Y-000927
Y-001181
Y-001435
Y-001689
X0019Y-000981
Y-000727
X0019Y-000473
Y-000219
X0019Y000119
Y000373
X0019Y000627
Y000881
X-00084074Y00195326
X-00109474
T04
X-0017Y00015
Y00065
T05
X00155Y-00155
X-00155
Y00155
X00155
M30
