G04*
G04 #@! TF.GenerationSoftware,Altium Limited,Altium Designer,20.0.7 (75)*
G04*
G04 Layer_Color=65535*
%FSLAX44Y44*%
%MOMM*%
G71*
G01*
G75*
%ADD10C,0.5080*%
%ADD11C,0.1524*%
%ADD12C,0.2540*%
%ADD13C,0.2000*%
%ADD14C,0.1500*%
%ADD15C,0.1270*%
%ADD16C,0.1300*%
%ADD17C,0.0762*%
%ADD18C,0.1800*%
D10*
X-93440Y97021D02*
G03*
X-93440Y97021I-3810J0D01*
G01*
D11*
X-147130Y-22195D02*
G03*
X-142870Y-22195I2130J2181D01*
G01*
X-67310Y42723D02*
Y211379D01*
X67310D01*
Y42723D02*
Y211379D01*
X-67310Y42723D02*
X67310D01*
X-126288Y32759D02*
Y79241D01*
X-111867Y32759D02*
X-104133D01*
X-89712D02*
Y79241D01*
X-111867D02*
X-104133D01*
X-149068Y-20014D02*
X-140932D01*
X-149068Y-49986D02*
X-140932D01*
D12*
X145000Y-96000D02*
G03*
X145000Y-96000I-25000J0D01*
G01*
X144000Y-38000D02*
G03*
X144000Y-38000I-25000J0D01*
G01*
X-208100Y-12940D02*
Y93740D01*
X-131900D01*
Y-12940D02*
Y93740D01*
X-208100Y-12940D02*
X-131900D01*
X90740Y-73140D02*
X103490D01*
X97265Y-79390D02*
Y-66640D01*
X89740Y-15140D02*
X102490D01*
X96265Y-21390D02*
Y-8640D01*
D13*
X-122173Y182626D02*
X-71374D01*
Y208026D01*
X-122173D02*
X-71374D01*
X-122173Y182626D02*
Y208026D01*
X-50800Y-214096D02*
Y-179096D01*
Y-214096D02*
X50800D01*
X-50800Y-179096D02*
X50800D01*
Y-214096D02*
Y-179096D01*
X169536Y-89582D02*
Y-79582D01*
X152536D02*
X169536D01*
X152536Y-89582D02*
Y-79582D01*
X69850Y-181600D02*
X76200D01*
X-76200D02*
X57150D01*
X76200D02*
Y21599D01*
X-76200D02*
X76200D01*
X-76200Y-181600D02*
Y21599D01*
X57150Y-181600D02*
X69850D01*
X-147500Y102000D02*
X-144500D01*
X-147500Y108000D02*
X-144500D01*
X-108000Y-16500D02*
Y-13500D01*
X-102000Y-16500D02*
Y-13500D01*
X-179001Y100873D02*
X-179000Y101250D01*
Y108750D02*
X-178999Y109127D01*
X-191751Y101312D02*
X-191749Y101688D01*
X-177750Y-47500D02*
Y-32250D01*
X-192250Y-47750D02*
Y-32500D01*
X-199000Y-94000D02*
X-171000D01*
X-199000D02*
Y-86000D01*
X-179000D01*
X-171000Y-94000D01*
X-174000Y-86000D02*
X-171000D01*
X-174000D02*
X-171000Y-89000D01*
Y-86000D01*
X-162000Y-92000D02*
Y-82000D01*
Y-92000D02*
X-148000D01*
Y-82000D01*
X-139000Y-94000D02*
X-111000D01*
X-139000D02*
Y-86000D01*
X-119000D01*
X-111000Y-94000D01*
X-114000Y-86000D02*
X-111000D01*
X-114000D02*
X-111000Y-89000D01*
Y-86000D01*
X-97000Y-91500D02*
Y-88500D01*
X-103000Y-91500D02*
Y-88500D01*
X-109000Y-59000D02*
X-81000D01*
X-109000D02*
Y-51000D01*
X-89000D01*
X-81000Y-59000D01*
X-84000Y-51000D02*
X-81000D01*
X-84000D02*
X-81000Y-54000D01*
Y-51000D01*
X-97000Y-15000D02*
Y-5000D01*
Y-15000D02*
X-83000D01*
Y-5000D01*
X-77000Y63500D02*
Y66500D01*
X-83000Y63500D02*
Y66500D01*
X-77000Y98500D02*
Y101500D01*
X-83000Y98500D02*
Y101500D01*
X-93250Y98750D02*
Y101250D01*
X-106750Y98750D02*
Y101250D01*
X-86750Y133750D02*
Y136250D01*
X-73250Y133750D02*
Y136250D01*
X-106750Y133750D02*
Y136250D01*
X-93250Y133750D02*
Y136250D01*
X103000Y141000D02*
Y144000D01*
X97000Y141000D02*
Y144000D01*
X103750Y175000D02*
X104127Y174999D01*
X95873Y175001D02*
X96250Y175000D01*
X103312Y162250D02*
X103688Y162250D01*
X83750Y175000D02*
X84127Y174999D01*
X75873Y175001D02*
X76250Y175000D01*
X83311Y162250D02*
X83688Y162250D01*
X152501Y17201D02*
Y51008D01*
X87499Y17201D02*
Y51008D01*
X164000Y93500D02*
Y96500D01*
X158000Y93500D02*
Y96500D01*
X138873Y95001D02*
X139250Y95000D01*
X146750D02*
X147127Y94999D01*
X139312Y107751D02*
X139689Y107750D01*
X113250Y93750D02*
Y96250D01*
X126750Y93750D02*
Y96250D01*
X90250Y93750D02*
Y96250D01*
X103750Y93750D02*
Y96250D01*
X177300Y-110800D02*
X202700D01*
Y-9200D01*
X177300Y-110800D02*
Y-9200D01*
X202700D01*
X177300Y-800D02*
X202700D01*
Y100800D01*
X177300Y-800D02*
Y100800D01*
X202700D01*
X-147500Y-62000D02*
X-144500D01*
X-147500Y-56000D02*
X-144500D01*
X77000Y141000D02*
Y144000D01*
X83000Y141000D02*
Y144000D01*
D14*
X12700Y-16500D02*
Y8900D01*
X-12700Y-16500D02*
X12700D01*
X-12700D02*
Y8900D01*
X12700D01*
X-50000Y-117500D02*
Y-92500D01*
Y-117500D02*
X50000D01*
Y-92500D01*
X-50000D02*
X50000D01*
X161327Y-51495D02*
X154662D01*
Y-56494D01*
X157994Y-54827D01*
X159660D01*
X161327Y-56494D01*
Y-59826D01*
X159660Y-61492D01*
X156328D01*
X154662Y-59826D01*
X164659Y-51495D02*
Y-58160D01*
X167991Y-61492D01*
X171323Y-58160D01*
Y-51495D01*
X103165Y191500D02*
X96500D01*
X103165Y198165D01*
Y199831D01*
X101498Y201497D01*
X98166D01*
X96500Y199831D01*
X77500Y191500D02*
X80832D01*
X79166D01*
Y201497D01*
X77500Y199831D01*
X22836Y-105565D02*
Y-110896D01*
X25502Y-113562D01*
X28168Y-110896D01*
Y-105565D01*
X30833Y-113562D02*
X33499D01*
X32166D01*
Y-105565D01*
X30833Y-106897D01*
X37498Y-113562D02*
Y-112229D01*
X38831D01*
Y-113562D01*
X37498D01*
X44162D02*
X46828D01*
X45495D01*
Y-105565D01*
X44162Y-106897D01*
X-40668Y-105503D02*
X-46000D01*
Y-113500D01*
X-40668D01*
X-46000Y-109501D02*
X-43334D01*
X-38003Y-113500D02*
Y-112167D01*
X-36670D01*
Y-113500D01*
X-38003D01*
X-31338D02*
Y-105503D01*
X-27339D01*
X-26007Y-106835D01*
Y-109501D01*
X-27339Y-110834D01*
X-31338D01*
X-28672D02*
X-26007Y-113500D01*
X-10012D02*
X-15343D01*
X-10012Y-108168D01*
Y-106835D01*
X-11344Y-105503D01*
X-14010D01*
X-15343Y-106835D01*
X-7346D02*
X-6013Y-105503D01*
X-3347D01*
X-2014Y-106835D01*
Y-112167D01*
X-3347Y-113500D01*
X-6013D01*
X-7346Y-112167D01*
Y-106835D01*
X5983Y-113500D02*
X652D01*
X5983Y-108168D01*
Y-106835D01*
X4650Y-105503D01*
X1984D01*
X652Y-106835D01*
X8649D02*
X9982Y-105503D01*
X12648D01*
X13981Y-106835D01*
Y-108168D01*
X12648Y-109501D01*
X11315D01*
X12648D01*
X13981Y-110834D01*
Y-112167D01*
X12648Y-113500D01*
X9982D01*
X8649Y-112167D01*
X42500Y-178500D02*
X34503D01*
X37168Y-175834D01*
X34503Y-173168D01*
X42500D01*
Y-165171D02*
Y-170503D01*
X37168Y-165171D01*
X35835D01*
X34503Y-166504D01*
Y-169170D01*
X35835Y-170503D01*
X42500Y-162505D02*
X37168D01*
X34503Y-159839D01*
X37168Y-157174D01*
X42500D01*
X38501D01*
Y-162505D01*
X16500Y-178500D02*
X8503D01*
X11168Y-175834D01*
X8503Y-173168D01*
X16500D01*
Y-170503D02*
Y-167837D01*
Y-169170D01*
X8503D01*
X9836Y-170503D01*
X16500Y-163838D02*
X11168D01*
X8503Y-161172D01*
X11168Y-158506D01*
X16500D01*
X12501D01*
Y-163838D01*
X-8500Y-178500D02*
X-16497D01*
X-13832Y-175834D01*
X-16497Y-173168D01*
X-8500D01*
Y-165171D02*
Y-170503D01*
X-13832Y-165171D01*
X-15165D01*
X-16497Y-166504D01*
Y-169170D01*
X-15165Y-170503D01*
X-8500Y-162505D02*
X-13832D01*
X-16497Y-159839D01*
X-13832Y-157174D01*
X-8500D01*
X-12499D01*
Y-162505D01*
X-34500Y-178500D02*
X-42497D01*
X-39832Y-175834D01*
X-42497Y-173168D01*
X-34500D01*
Y-165171D02*
Y-170503D01*
X-39832Y-165171D01*
X-41164D01*
X-42497Y-166504D01*
Y-169170D01*
X-41164Y-170503D01*
X-42497Y-162505D02*
X-34500D01*
Y-158506D01*
X-35833Y-157174D01*
X-37166D01*
X-38499Y-158506D01*
Y-162505D01*
Y-158506D01*
X-39832Y-157174D01*
X-41164D01*
X-42497Y-158506D01*
Y-162505D01*
X154500Y14165D02*
X155833Y15497D01*
X158499D01*
X159832Y14165D01*
Y12832D01*
X158499Y11499D01*
X157166D01*
X158499D01*
X159832Y10166D01*
Y8833D01*
X158499Y7500D01*
X155833D01*
X154500Y8833D01*
X162497Y7500D02*
Y8833D01*
X163830D01*
Y7500D01*
X162497D01*
X169162Y14165D02*
X170495Y15497D01*
X173161D01*
X174494Y14165D01*
Y12832D01*
X173161Y11499D01*
X171828D01*
X173161D01*
X174494Y10166D01*
Y8833D01*
X173161Y7500D01*
X170495D01*
X169162Y8833D01*
X159500Y34500D02*
Y42497D01*
X163499D01*
X164832Y41164D01*
Y38499D01*
X163499Y37166D01*
X159500D01*
X162166D02*
X164832Y34500D01*
X167497Y42497D02*
X172829Y34500D01*
Y42497D02*
X167497Y34500D01*
X157500Y66497D02*
X162832D01*
X160166D01*
Y58500D01*
X165497Y66497D02*
X170829Y58500D01*
Y66497D02*
X165497Y58500D01*
X158832Y76164D02*
X157499Y77497D01*
X154833D01*
X153500Y76164D01*
Y70833D01*
X154833Y69500D01*
X157499D01*
X158832Y70833D01*
Y73499D01*
X156166D01*
X161497Y69500D02*
Y77497D01*
X166829Y69500D01*
Y77497D01*
X169495D02*
Y69500D01*
X173493D01*
X174826Y70833D01*
Y76164D01*
X173493Y77497D01*
X169495D01*
X156946Y-16727D02*
X155613Y-15395D01*
X152947D01*
X151614Y-16727D01*
Y-22059D01*
X152947Y-23392D01*
X155613D01*
X156946Y-22059D01*
Y-19393D01*
X154280D01*
X159611Y-23392D02*
Y-15395D01*
X164943Y-23392D01*
Y-15395D01*
X167609D02*
Y-23392D01*
X171607D01*
X172940Y-22059D01*
Y-16727D01*
X171607Y-15395D01*
X167609D01*
X155170Y-39303D02*
Y-49300D01*
X160168D01*
X161835Y-47634D01*
Y-40969D01*
X160168Y-39303D01*
X155170D01*
X165167Y-44302D02*
X171831D01*
X155170Y-27111D02*
Y-37108D01*
X160168D01*
X161835Y-35442D01*
Y-28777D01*
X160168Y-27111D01*
X155170D01*
X165167Y-32110D02*
X171831D01*
X168499Y-28777D02*
Y-35442D01*
D15*
X-139954Y206912D02*
X-137955D01*
X-138954D01*
Y200914D01*
X-139954D01*
X-137955D01*
X-131957Y206912D02*
X-133956D01*
X-134956Y205912D01*
Y201914D01*
X-133956Y200914D01*
X-131957D01*
X-130957Y201914D01*
Y205912D01*
X-131957Y206912D01*
X-128958Y201914D02*
X-127958Y200914D01*
X-125958D01*
X-124959Y201914D01*
Y205912D01*
X-125958Y206912D01*
X-127958D01*
X-128958Y205912D01*
Y204913D01*
X-127958Y203913D01*
X-124959D01*
X-47230Y-101230D02*
Y-95232D01*
X-43231Y-101230D01*
Y-95232D01*
X-38233Y-101230D02*
X-40232D01*
X-41232Y-100230D01*
Y-98231D01*
X-40232Y-97231D01*
X-38233D01*
X-37233Y-98231D01*
Y-99231D01*
X-41232D01*
X-35234Y-101230D02*
Y-97231D01*
X-34234D01*
X-33235Y-98231D01*
Y-101230D01*
Y-98231D01*
X-32235Y-97231D01*
X-31235Y-98231D01*
Y-101230D01*
X-28236Y-97231D02*
X-26237D01*
X-25237Y-98231D01*
Y-101230D01*
X-28236D01*
X-29236Y-100230D01*
X-28236Y-99231D01*
X-25237D01*
X-23238Y-101230D02*
X-21238D01*
X-22238D01*
Y-95232D01*
X-23238Y-96232D01*
X-18239Y-95232D02*
X-14241D01*
Y-96232D01*
X-18239Y-100230D01*
Y-101230D01*
X-2245Y-96232D02*
X-3244Y-95232D01*
X-5244D01*
X-6243Y-96232D01*
Y-100230D01*
X-5244Y-101230D01*
X-3244D01*
X-2245Y-100230D01*
X754Y-101230D02*
X2754D01*
X3753Y-100230D01*
Y-98231D01*
X2754Y-97231D01*
X754D01*
X-245Y-98231D01*
Y-100230D01*
X754Y-101230D01*
X5753D02*
Y-97231D01*
X8752D01*
X9751Y-98231D01*
Y-101230D01*
X12751Y-96232D02*
Y-97231D01*
X11751D01*
X13750D01*
X12751D01*
Y-100230D01*
X13750Y-101230D01*
X16749Y-97231D02*
Y-101230D01*
Y-99231D01*
X17749Y-98231D01*
X18749Y-97231D01*
X19748D01*
X23747Y-101230D02*
X25746D01*
X26746Y-100230D01*
Y-98231D01*
X25746Y-97231D01*
X23747D01*
X22747Y-98231D01*
Y-100230D01*
X23747Y-101230D01*
X28745D02*
X30745D01*
X29745D01*
Y-95232D01*
X28745D01*
X33744Y-101230D02*
X35743D01*
X34743D01*
Y-95232D01*
X33744D01*
X41741Y-101230D02*
X39742D01*
X38742Y-100230D01*
Y-98231D01*
X39742Y-97231D01*
X41741D01*
X42741Y-98231D01*
Y-99231D01*
X38742D01*
X44740Y-97231D02*
Y-101230D01*
Y-99231D01*
X45740Y-98231D01*
X46740Y-97231D01*
X47739D01*
X-8730Y-7730D02*
Y-1732D01*
X-5731D01*
X-4731Y-2732D01*
Y-4731D01*
X-5731Y-5731D01*
X-8730D01*
X267Y-1732D02*
X-1732D01*
X-2732Y-2732D01*
Y-6730D01*
X-1732Y-7730D01*
X267D01*
X1267Y-6730D01*
Y-2732D01*
X267Y-1732D01*
X3266D02*
X7265D01*
X5265D01*
Y-7730D01*
D16*
X156720Y-106491D02*
Y-114489D01*
X160719D01*
X162052Y-113156D01*
Y-107824D01*
X160719Y-106491D01*
X156720D01*
X164718Y-114489D02*
X167384D01*
X166051D01*
Y-106491D01*
X164718Y-107824D01*
X90107Y-114428D02*
X88774Y-113095D01*
X86108D01*
X84775Y-114428D01*
Y-119760D01*
X86108Y-121093D01*
X88774D01*
X90107Y-119760D01*
X92773D02*
X94106Y-121093D01*
X96772D01*
X98104Y-119760D01*
Y-114428D01*
X96772Y-113095D01*
X94106D01*
X92773Y-114428D01*
Y-115761D01*
X94106Y-117094D01*
X98104D01*
X89599Y-56262D02*
X88266Y-54929D01*
X85600D01*
X84268Y-56262D01*
Y-61594D01*
X85600Y-62927D01*
X88266D01*
X89599Y-61594D01*
X92265Y-56262D02*
X93598Y-54929D01*
X96264D01*
X97597Y-56262D01*
Y-57595D01*
X96264Y-58928D01*
X97597Y-60261D01*
Y-61594D01*
X96264Y-62927D01*
X93598D01*
X92265Y-61594D01*
Y-60261D01*
X93598Y-58928D01*
X92265Y-57595D01*
Y-56262D01*
X93598Y-58928D02*
X96264D01*
X-127664Y-10001D02*
Y-16666D01*
X-126332Y-17999D01*
X-123666D01*
X-122333Y-16666D01*
Y-10001D01*
X-114335D02*
X-119667D01*
Y-14000D01*
X-117001Y-12667D01*
X-115668D01*
X-114335Y-14000D01*
Y-16666D01*
X-115668Y-17999D01*
X-118334D01*
X-119667Y-16666D01*
X74335Y61999D02*
Y55334D01*
X75668Y54001D01*
X78334D01*
X79667Y55334D01*
Y61999D01*
X86332Y54001D02*
Y61999D01*
X82333Y58000D01*
X87664D01*
X-74665Y32999D02*
Y26334D01*
X-73332Y25001D01*
X-70666D01*
X-69333Y26334D01*
Y32999D01*
X-66667Y31666D02*
X-65334Y32999D01*
X-62668D01*
X-61336Y31666D01*
Y30333D01*
X-62668Y29000D01*
X-64001D01*
X-62668D01*
X-61336Y27667D01*
Y26334D01*
X-62668Y25001D01*
X-65334D01*
X-66667Y26334D01*
X-63561Y205929D02*
Y199264D01*
X-62228Y197931D01*
X-59562D01*
X-58229Y199264D01*
Y205929D01*
X-50231Y197931D02*
X-55563D01*
X-50231Y203263D01*
Y204596D01*
X-51564Y205929D01*
X-54230D01*
X-55563Y204596D01*
X-195512Y-71055D02*
Y-63057D01*
X-191514D01*
X-190181Y-64390D01*
Y-67056D01*
X-191514Y-68389D01*
X-195512D01*
X-192847D02*
X-190181Y-71055D01*
X-182183D02*
X-187515D01*
X-182183Y-65723D01*
Y-64390D01*
X-183516Y-63057D01*
X-186182D01*
X-187515Y-64390D01*
X-179517Y-71055D02*
X-176852D01*
X-178185D01*
Y-63057D01*
X-179517Y-64390D01*
X-91999Y-80003D02*
X-84001D01*
Y-84002D01*
X-85334Y-85335D01*
X-88000D01*
X-89333Y-84002D01*
Y-80003D01*
Y-82669D02*
X-91999Y-85335D01*
Y-88001D02*
Y-90667D01*
Y-89334D01*
X-84001D01*
X-85334Y-88001D01*
Y-94665D02*
X-84001Y-95998D01*
Y-98664D01*
X-85334Y-99997D01*
X-86667D01*
X-88000Y-98664D01*
X-89333Y-99997D01*
X-90666D01*
X-91999Y-98664D01*
Y-95998D01*
X-90666Y-94665D01*
X-89333D01*
X-88000Y-95998D01*
X-86667Y-94665D01*
X-85334D01*
X-88000Y-95998D02*
Y-98664D01*
X-147997Y-72999D02*
Y-65001D01*
X-143998D01*
X-142665Y-66334D01*
Y-69000D01*
X-143998Y-70333D01*
X-147997D01*
X-145331D02*
X-142665Y-72999D01*
X-139999D02*
X-137334D01*
X-138666D01*
Y-65001D01*
X-139999Y-66334D01*
X-133335Y-65001D02*
X-128003D01*
Y-66334D01*
X-133335Y-71666D01*
Y-72999D01*
X-119725Y65D02*
Y8063D01*
X-115726D01*
X-114393Y6730D01*
Y4064D01*
X-115726Y2731D01*
X-119725D01*
X-117059D02*
X-114393Y65D01*
X-111727D02*
X-109062D01*
X-110394D01*
Y8063D01*
X-111727Y6730D01*
X-99731Y8063D02*
X-105063D01*
Y4064D01*
X-102397Y5397D01*
X-101064D01*
X-99731Y4064D01*
Y1398D01*
X-101064Y65D01*
X-103730D01*
X-105063Y1398D01*
X167001Y104997D02*
X174999D01*
Y100998D01*
X173666Y99665D01*
X171000D01*
X169667Y100998D01*
Y104997D01*
Y102331D02*
X167001Y99665D01*
Y96999D02*
Y94333D01*
Y95666D01*
X174999D01*
X173666Y96999D01*
X167001Y86336D02*
X174999D01*
X171000Y90335D01*
Y85003D01*
X-85665Y40001D02*
Y47999D01*
X-81666D01*
X-80333Y46666D01*
Y44000D01*
X-81666Y42667D01*
X-85665D01*
X-82999D02*
X-80333Y40001D01*
X-72336Y47999D02*
X-75001Y46666D01*
X-77667Y44000D01*
Y41334D01*
X-76334Y40001D01*
X-73668D01*
X-72336Y41334D01*
Y42667D01*
X-73668Y44000D01*
X-77667D01*
X-84009Y164398D02*
X-76011D01*
Y160400D01*
X-77344Y159067D01*
X-80010D01*
X-81343Y160400D01*
Y164398D01*
Y161733D02*
X-84009Y159067D01*
X-77344Y156401D02*
X-76011Y155068D01*
Y152402D01*
X-77344Y151069D01*
X-78677D01*
X-80010Y152402D01*
Y153735D01*
Y152402D01*
X-81343Y151069D01*
X-82676D01*
X-84009Y152402D01*
Y155068D01*
X-82676Y156401D01*
X-108521Y-69468D02*
Y-64136D01*
X-109854Y-62803D01*
X-112520D01*
X-113853Y-64136D01*
Y-69468D01*
X-112520Y-70801D01*
X-109854D01*
X-111187Y-68135D02*
X-108521Y-70801D01*
X-109854D02*
X-108521Y-69468D01*
X-105855Y-64136D02*
X-104522Y-62803D01*
X-101856D01*
X-100524Y-64136D01*
Y-65469D01*
X-101856Y-66802D01*
X-103189D01*
X-101856D01*
X-100524Y-68135D01*
Y-69468D01*
X-101856Y-70801D01*
X-104522D01*
X-105855Y-69468D01*
X-139333Y-103666D02*
Y-98334D01*
X-140666Y-97001D01*
X-143332D01*
X-144664Y-98334D01*
Y-103666D01*
X-143332Y-104999D01*
X-140666D01*
X-141999Y-102333D02*
X-139333Y-104999D01*
X-140666D02*
X-139333Y-103666D01*
X-131335Y-104999D02*
X-136667D01*
X-131335Y-99667D01*
Y-98334D01*
X-132668Y-97001D01*
X-135334D01*
X-136667Y-98334D01*
X-195000Y-105666D02*
Y-100334D01*
X-196333Y-99001D01*
X-198999D01*
X-200332Y-100334D01*
Y-105666D01*
X-198999Y-106999D01*
X-196333D01*
X-197666Y-104333D02*
X-195000Y-106999D01*
X-196333D02*
X-195000Y-105666D01*
X-192334Y-106999D02*
X-189668D01*
X-191001D01*
Y-99001D01*
X-192334Y-100334D01*
X-127664Y84001D02*
Y91999D01*
X-123666D01*
X-122333Y90666D01*
Y88000D01*
X-123666Y86667D01*
X-127664D01*
X-115668Y84001D02*
Y91999D01*
X-119667Y88000D01*
X-114335D01*
X184335Y-121999D02*
Y-114001D01*
X188334D01*
X189667Y-115334D01*
Y-118000D01*
X188334Y-119333D01*
X184335D01*
X192333Y-115334D02*
X193666Y-114001D01*
X196332D01*
X197665Y-115334D01*
Y-116667D01*
X196332Y-118000D01*
X194999D01*
X196332D01*
X197665Y-119333D01*
Y-120666D01*
X196332Y-121999D01*
X193666D01*
X192333Y-120666D01*
X183335Y105001D02*
Y112999D01*
X187334D01*
X188667Y111666D01*
Y109000D01*
X187334Y107667D01*
X183335D01*
X196665Y105001D02*
X191333D01*
X196665Y110333D01*
Y111666D01*
X195332Y112999D01*
X192666D01*
X191333Y111666D01*
X-67332Y-200595D02*
Y-192597D01*
X-63333D01*
X-62000Y-193930D01*
Y-196596D01*
X-63333Y-197929D01*
X-67332D01*
X-59334Y-200595D02*
X-56668D01*
X-58001D01*
Y-192597D01*
X-59334Y-193930D01*
X-101341Y20509D02*
Y12511D01*
X-97343D01*
X-96010Y13844D01*
Y19176D01*
X-97343Y20509D01*
X-101341D01*
X-93344D02*
X-88012D01*
Y19176D01*
X-93344Y13844D01*
Y12511D01*
X-88012D01*
X-80015D02*
X-85346D01*
X-80015Y17843D01*
Y19176D01*
X-81348Y20509D01*
X-84014D01*
X-85346Y19176D01*
X-179002Y-99125D02*
Y-107123D01*
X-175004D01*
X-173671Y-105790D01*
Y-100458D01*
X-175004Y-99125D01*
X-179002D01*
X-171005D02*
X-165673D01*
Y-100458D01*
X-171005Y-105790D01*
Y-107123D01*
X-165673D01*
X-163008D02*
X-160342D01*
X-161675D01*
Y-99125D01*
X-163008Y-100458D01*
X117667Y118666D02*
X116334Y119999D01*
X113668D01*
X112336Y118666D01*
Y113334D01*
X113668Y112001D01*
X116334D01*
X117667Y113334D01*
X125665Y119999D02*
X122999Y118666D01*
X120333Y116000D01*
Y113334D01*
X121666Y112001D01*
X124332D01*
X125665Y113334D01*
Y114667D01*
X124332Y116000D01*
X120333D01*
X95667Y118666D02*
X94334Y119999D01*
X91668D01*
X90336Y118666D01*
Y113334D01*
X91668Y112001D01*
X94334D01*
X95667Y113334D01*
X103665Y119999D02*
X98333D01*
Y116000D01*
X100999Y117333D01*
X102332D01*
X103665Y116000D01*
Y113334D01*
X102332Y112001D01*
X99666D01*
X98333Y113334D01*
X-96902Y175069D02*
X-95569Y176402D01*
Y179068D01*
X-96902Y180401D01*
X-102234D01*
X-103567Y179068D01*
Y176402D01*
X-102234Y175069D01*
X-103567Y168404D02*
X-95569D01*
X-99568Y172403D01*
Y167071D01*
X-97156Y159321D02*
X-95823Y160654D01*
Y163320D01*
X-97156Y164653D01*
X-102488D01*
X-103821Y163320D01*
Y160654D01*
X-102488Y159321D01*
X-97156Y156655D02*
X-95823Y155322D01*
Y152656D01*
X-97156Y151323D01*
X-98489D01*
X-99822Y152656D01*
Y153989D01*
Y152656D01*
X-101155Y151323D01*
X-102488D01*
X-103821Y152656D01*
Y155322D01*
X-102488Y156655D01*
X-76836Y175069D02*
X-75503Y176402D01*
Y179068D01*
X-76836Y180401D01*
X-82168D01*
X-83501Y179068D01*
Y176402D01*
X-82168Y175069D01*
X-83501Y167071D02*
Y172403D01*
X-78169Y167071D01*
X-76836D01*
X-75503Y168404D01*
Y171070D01*
X-76836Y172403D01*
D17*
X-72589Y152040D02*
X-64125Y143576D01*
X-72589D02*
X-64125Y152040D01*
X-72589Y147808D02*
X-64125D01*
X-68357Y143576D02*
Y152040D01*
X-162653Y-11622D02*
X-154189Y-20086D01*
X-162653D02*
X-154189Y-11622D01*
X-162653Y-15854D02*
X-154189D01*
X-158421Y-20086D02*
Y-11622D01*
D18*
X-197203Y121203D02*
X-195204Y123202D01*
Y127201D01*
X-197203Y129200D01*
X-205201D01*
X-207200Y127201D01*
Y123202D01*
X-205201Y121203D01*
X-201202D01*
Y125201D01*
X-207200Y117204D02*
X-195204D01*
X-207200Y109206D01*
X-195204D01*
Y105208D02*
X-207200D01*
Y99210D01*
X-205201Y97210D01*
X-197203D01*
X-195204Y99210D01*
Y105208D01*
X-207242Y-23644D02*
Y-27643D01*
Y-25643D01*
X-195246D01*
X-197245Y-23644D01*
X-207242Y-41638D02*
Y-33641D01*
X-199245Y-41638D01*
X-197245D01*
X-195246Y-39639D01*
Y-35640D01*
X-197245Y-33641D01*
X-195246Y-45637D02*
X-203243D01*
X-207242Y-49636D01*
X-203243Y-53634D01*
X-195246D01*
M02*
