  0
SECTION
  2
HEADER
  9
$ACADVER
  1
AC1027
  9
$ACADMAINTVER
 70
     8
  9
$DWGCODEPAGE
  3
ANSI_1252
  9
$REQUIREDVERSIONS
160
                 0
  9
$INSBASE
 10
0.0
 20
0.0
 30
0.0
  9
$EXTMIN
 10
1.000000000000000E+20
 20
1.000000000000000E+20
 30
1.000000000000000E+20
  9
$EXTMAX
 10
-1.000000000000000E+20
 20
-1.000000000000000E+20
 30
-1.000000000000000E+20
  9
$LIMMIN
 10
-55.69229653999999
 20
-27.2088991
  9
$LIMMAX
 10
53.1720552
 20
22.68273848
  9
$ORTHOMODE
 70
     0
  9
$REGENMODE
 70
     1
  9
$FILLMODE
 70
     1
  9
$QTEXTMODE
 70
     0
  9
$MIRRTEXT
 70
     1
  9
$LTSCALE
 40
1.0
  9
$ATTMODE
 70
     1
  9
$TEXTSIZE
 40
2.5
  9
$TRACEWID
 40
1.0
  9
$TEXTSTYLE
  7
Standard
  9
$CLAYER
  8
0
  9
$CELTYPE
  6
ByLayer
  9
$CECOLOR
 62
   256
  9
$CELTSCALE
 40
1.0
  9
$DISPSILH
 70
     0
  9
$DIMSCALE
 40
1.0
  9
$DIMASZ
 40
2.5
  9
$DIMEXO
 40
0.625
  9
$DIMDLI
 40
3.75
  9
$DIMRND
 40
0.0
  9
$DIMDLE
 40
0.0
  9
$DIMEXE
 40
1.25
  9
$DIMTP
 40
0.0
  9
$DIMTM
 40
0.0
  9
$DIMTXT
 40
2.5
  9
$DIMCEN
 40
2.5
  9
$DIMTSZ
 40
0.0
  9
$DIMTOL
 70
     0
  9
$DIMLIM
 70
     0
  9
$DIMTIH
 70
     0
  9
$DIMTOH
 70
     0
  9
$DIMSE1
 70
     0
  9
$DIMSE2
 70
     0
  9
$DIMTAD
 70
     1
  9
$DIMZIN
 70
     8
  9
$DIMBLK
  1

  9
$DIMASO
 70
     1
  9
$DIMSHO
 70
     1
  9
$DIMPOST
  1

  9
$DIMAPOST
  1

  9
$DIMALT
 70
     0
  9
$DIMALTD
 70
     3
  9
$DIMALTF
 40
0.03937007874016
  9
$DIMLFAC
 40
1.0
  9
$DIMTOFL
 70
     1
  9
$DIMTVP
 40
0.0
  9
$DIMTIX
 70
     0
  9
$DIMSOXD
 70
     0
  9
$DIMSAH
 70
     0
  9
$DIMBLK1
  1

  9
$DIMBLK2
  1

  9
$DIMSTYLE
  2
ISO-25
  9
$DIMCLRD
 70
     0
  9
$DIMCLRE
 70
     0
  9
$DIMCLRT
 70
     0
  9
$DIMTFAC
 40
1.0
  9
$DIMGAP
 40
0.625
  9
$DIMJUST
 70
     0
  9
$DIMSD1
 70
     0
  9
$DIMSD2
 70
     0
  9
$DIMTOLJ
 70
     0
  9
$DIMTZIN
 70
     8
  9
$DIMALTZ
 70
     0
  9
$DIMALTTZ
 70
     0
  9
$DIMUPT
 70
     0
  9
$DIMDEC
 70
     2
  9
$DIMTDEC
 70
     2
  9
$DIMALTU
 70
     2
  9
$DIMALTTD
 70
     3
  9
$DIMTXSTY
  7
Standard
  9
$DIMAUNIT
 70
     0
  9
$DIMADEC
 70
     0
  9
$DIMALTRND
 40
0.0
  9
$DIMAZIN
 70
     0
  9
$DIMDSEP
 70
    44
  9
$DIMATFIT
 70
     3
  9
$DIMFRAC
 70
     0
  9
$DIMLDRBLK
  1

  9
$DIMLUNIT
 70
     2
  9
$DIMLWD
 70
    -2
  9
$DIMLWE
 70
    -2
  9
$DIMTMOVE
 70
     0
  9
$DIMFXL
 40
1.0
  9
$DIMFXLON
 70
     0
  9
$DIMJOGANG
 40
0.7853981633974483
  9
$DIMTFILL
 70
     0
  9
$DIMTFILLCLR
 70
     0
  9
$DIMARCSYM
 70
     0
  9
$DIMLTYPE
  6

  9
$DIMLTEX1
  6

  9
$DIMLTEX2
  6

  9
$DIMTXTDIRECTION
 70
     0
  9
$LUNITS
 70
     2
  9
$LUPREC
 70
     4
  9
$SKETCHINC
 40
1.0
  9
$FILLETRAD
 40
10.0
  9
$AUNITS
 70
     0
  9
$AUPREC
 70
     0
  9
$MENU
  1
.
  9
$ELEVATION
 40
0.0
  9
$PELEVATION
 40
0.0
  9
$THICKNESS
 40
0.0
  9
$LIMCHECK
 70
     0
  9
$CHAMFERA
 40
0.0
  9
$CHAMFERB
 40
0.0
  9
$CHAMFERC
 40
0.0
  9
$CHAMFERD
 40
0.0
  9
$SKPOLY
 70
     0
  9
$TDCREATE
 40
2460053.417748264
  9
$TDUCREATE
 40
2460053.584414931
  9
$TDUPDATE
 40
2460053.41774941
  9
$TDUUPDATE
 40
2460053.584416077
  9
$TDINDWG
 40
0.0000000116
  9
$TDUSRTIMER
 40
0.0000000116
  9
$USRTIMER
 70
     1
  9
$ANGBASE
 50
0.0
  9
$ANGDIR
 70
     0
  9
$PDMODE
 70
     0
  9
$PDSIZE
 40
0.0
  9
$PLINEWID
 40
0.0
  9
$SPLFRAME
 70
     0
  9
$SPLINETYPE
 70
     6
  9
$SPLINESEGS
 70
     8
  9
$HANDSEED
  5
3C4
  9
$SURFTAB1
 70
     6
  9
$SURFTAB2
 70
     6
  9
$SURFTYPE
 70
     6
  9
$SURFU
 70
     6
  9
$SURFV
 70
     6
  9
$UCSBASE
  2

  9
$UCSNAME
  2

  9
$UCSORG
 10
0.0
 20
0.0
 30
0.0
  9
$UCSXDIR
 10
1.0
 20
0.0
 30
0.0
  9
$UCSYDIR
 10
0.0
 20
1.0
 30
0.0
  9
$UCSORTHOREF
  2

  9
$UCSORTHOVIEW
 70
     0
  9
$UCSORGTOP
 10
0.0
 20
0.0
 30
0.0
  9
$UCSORGBOTTOM
 10
0.0
 20
0.0
 30
0.0
  9
$UCSORGLEFT
 10
0.0
 20
0.0
 30
0.0
  9
$UCSORGRIGHT
 10
0.0
 20
0.0
 30
0.0
  9
$UCSORGFRONT
 10
0.0
 20
0.0
 30
0.0
  9
$UCSORGBACK
 10
0.0
 20
0.0
 30
0.0
  9
$PUCSBASE
  2

  9
$PUCSNAME
  2

  9
$PUCSORG
 10
0.0
 20
0.0
 30
0.0
  9
$PUCSXDIR
 10
1.0
 20
0.0
 30
0.0
  9
$PUCSYDIR
 10
0.0
 20
1.0
 30
0.0
  9
$PUCSORTHOREF
  2

  9
$PUCSORTHOVIEW
 70
     0
  9
$PUCSORGTOP
 10
0.0
 20
0.0
 30
0.0
  9
$PUCSORGBOTTOM
 10
0.0
 20
0.0
 30
0.0
  9
$PUCSORGLEFT
 10
0.0
 20
0.0
 30
0.0
  9
$PUCSORGRIGHT
 10
0.0
 20
0.0
 30
0.0
  9
$PUCSORGFRONT
 10
0.0
 20
0.0
 30
0.0
  9
$PUCSORGBACK
 10
0.0
 20
0.0
 30
0.0
  9
$USERI1
 70
     0
  9
$USERI2
 70
     0
  9
$USERI3
 70
     0
  9
$USERI4
 70
     0
  9
$USERI5
 70
     0
  9
$USERR1
 40
0.0
  9
$USERR2
 40
0.0
  9
$USERR3
 40
0.0
  9
$USERR4
 40
0.0
  9
$USERR5
 40
0.0
  9
$WORLDVIEW
 70
     1
  9
$SHADEDGE
 70
     3
  9
$SHADEDIF
 70
    70
  9
$TILEMODE
 70
     1
  9
$MAXACTVP
 70
    64
  9
$PINSBASE
 10
0.0
 20
0.0
 30
0.0
  9
$PLIMCHECK
 70
     0
  9
$PEXTMIN
 10
1.000000000000000E+20
 20
1.000000000000000E+20
 30
1.000000000000000E+20
  9
$PEXTMAX
 10
-1.000000000000000E+20
 20
-1.000000000000000E+20
 30
-1.000000000000000E+20
  9
$PLIMMIN
 10
0.0
 20
0.0
  9
$PLIMMAX
 10
420.0
 20
297.0
  9
$UNITMODE
 70
     0
  9
$VISRETAIN
 70
     1
  9
$PLINEGEN
 70
     0
  9
$PSLTSCALE
 70
     1
  9
$TREEDEPTH
 70
  3020
  9
$CMLSTYLE
  2
Standard
  9
$CMLJUST
 70
     0
  9
$CMLSCALE
 40
20.0
  9
$PROXYGRAPHICS
 70
     1
  9
$MEASUREMENT
 70
     1
  9
$CELWEIGHT
370
    -1
  9
$ENDCAPS
280
     0
  9
$JOINSTYLE
280
     0
  9
$LWDISPLAY
290
     0
  9
$INSUNITS
 70
     4
  9
$HYPERLINKBASE
  1

  9
$STYLESHEET
  1

  9
$XEDIT
290
     1
  9
$CEPSNTYPE
380
     0
  9
$PSTYLEMODE
290
     1
  9
$FINGERPRINTGUID
  2
{AE41E0E5-9EB5-444F-99A7-812686DD09D8}
  9
$VERSIONGUID
  2
{FAEB1C32-E019-11D5-929B-00C0DF256EC4}
  9
$EXTNAMES
290
     1
  9
$PSVPSCALE
 40
0.0
  9
$OLESTARTUP
290
     0
  9
$SORTENTS
280
   127
  9
$INDEXCTL
280
     0
  9
$HIDETEXT
280
     1
  9
$XCLIPFRAME
280
     2
  9
$HALOGAP
280
     0
  9
$OBSCOLOR
 70
   257
  9
$OBSLTYPE
280
     0
  9
$INTERSECTIONDISPLAY
280
     0
  9
$INTERSECTIONCOLOR
 70
   257
  9
$DIMASSOC
280
     2
  9
$PROJECTNAME
  1

  9
$CAMERADISPLAY
290
     0
  9
$LENSLENGTH
 40
50.0
  9
$CAMERAHEIGHT
 40
0.0
  9
$STEPSPERSEC
 40
2.0
  9
$STEPSIZE
 40
6.0
  9
$3DDWFPREC
 40
2.0
  9
$PSOLWIDTH
 40
5.0
  9
$PSOLHEIGHT
 40
80.0
  9
$LOFTANG1
 40
1.570796326794897
  9
$LOFTANG2
 40
1.570796326794897
  9
$LOFTMAG1
 40
0.0
  9
$LOFTMAG2
 40
0.0
  9
$LOFTPARAM
 70
     7
  9
$LOFTNORMALS
280
     1
  9
$LATITUDE
 40
37.795
  9
$LONGITUDE
 40
-122.394
  9
$NORTHDIRECTION
 40
0.0
  9
$TIMEZONE
 70
 -8000
  9
$LIGHTGLYPHDISPLAY
280
     1
  9
$TILEMODELIGHTSYNCH
280
     1
  9
$CMATERIAL
347
44
  9
$SOLIDHIST
280
     0
  9
$SHOWHIST
280
     1
  9
$DWFFRAME
280
     2
  9
$DGNFRAME
280
     2
  9
$REALWORLDSCALE
290
     1
  9
$INTERFERECOLOR
 62
   256
  9
$CSHADOW
280
     0
  9
$SHADOWPLANELOCATION
 40
0.0
  0
ENDSEC
  0
SECTION
  2
CLASSES
  0
CLASS
  1
ACDBDICTIONARYWDFLT
  2
AcDbDictionaryWithDefault
  3
ObjectDBX Classes
 90
        0
 91
        4
280
     0
281
     0
  0
CLASS
  1
VISUALSTYLE
  2
AcDbVisualStyle
  3
ObjectDBX Classes
 90
     4095
 91
        4
280
     0
281
     0
  0
CLASS
  1
MATERIAL
  2
AcDbMaterial
  3
ObjectDBX Classes
 90
     1153
 91
        4
280
     0
281
     0
  0
CLASS
  1
SCALE
  2
AcDbScale
  3
ObjectDBX Classes
 90
     1153
 91
        4
280
     0
281
     0
  0
CLASS
  1
TABLESTYLE
  2
AcDbTableStyle
  3
ObjectDBX Classes
 90
     4095
 91
        4
280
     0
281
     0
  0
CLASS
  1
MLEADERSTYLE
  2
AcDbMLeaderStyle
  3
ACDB_MLEADERSTYLE_CLASS
 90
     4095
 91
        4
280
     0
281
     0
  0
CLASS
  1
SUN
  2
AcDbSun
  3
SCENEOE
 90
     1153
 91
        4
280
     0
281
     0
  0
CLASS
  1
DICTIONARYVAR
  2
AcDbDictionaryVar
  3
ObjectDBX Classes
 90
        0
 91
        4
280
     0
281
     0
  0
CLASS
  1
CELLSTYLEMAP
  2
AcDbCellStyleMap
  3
ObjectDBX Classes
 90
     1152
 91
        4
280
     0
281
     0
  0
ENDSEC
  0
SECTION
  2
TABLES
  0
TABLE
  2
VPORT
  5
8
330
0
100
AcDbSymbolTable
 70
     1
  0
VPORT
  5
29
330
8
100
AcDbSymbolTableRecord
100
AcDbViewportTableRecord
  2
*Active
 70
     0
 10
0.0
 20
0.0
 11
1.0
 21
1.0
 12
344.1869158878504
 22
148.5
 13
0.0
 23
0.0
 14
10.0
 24
10.0
 15
10.0
 25
10.0
 16
0.0
 26
0.0
 36
1.0
 17
0.0
 27
0.0
 37
0.0
 40
297.0
 41
1.972972972850329
 42
50.0
 43
0.0
 44
0.0
 50
0.0
 51
0.0
 71
     0
 72
   100
 73
     1
 74
     3
 75
     0
 76
     0
 77
     0
 78
     0
281
     0
 65
     1
110
0.0
120
0.0
130
0.0
111
1.0
121
0.0
131
0.0
112
0.0
122
1.0
132
0.0
 79
     0
146
0.0
 60
     3
 61
     5
292
     1
282
     1
141
0.0
142
0.0
 63
   250
361
6D
  0
ENDTAB
  0
TABLE
  2
LTYPE
  5
5
330
0
100
AcDbSymbolTable
 70
     1
  0
LTYPE
  5
14
330
5
100
AcDbSymbolTableRecord
100
AcDbLinetypeTableRecord
  2
ByBlock
 70
     0
  3

 72
    65
 73
     0
 40
0.0
  0
LTYPE
  5
15
330
5
100
AcDbSymbolTableRecord
100
AcDbLinetypeTableRecord
  2
ByLayer
 70
     0
  3

 72
    65
 73
     0
 40
0.0
  0
LTYPE
  5
16
330
5
100
AcDbSymbolTableRecord
100
AcDbLinetypeTableRecord
  2
Continuous
 70
     0
  3
Solid line
 72
    65
 73
     0
 40
0.0
  0
ENDTAB
  0
TABLE
  2
LAYER
  5
2
330
0
100
AcDbSymbolTable
 70
     2
  0
LAYER
  5
10
330
2
100
AcDbSymbolTableRecord
100
AcDbLayerTableRecord
  2
0
 70
     0
 62
     7
  6
Continuous
370
    -3
390
F
347
46
348
0
  0
LAYER
  5
6E
330
2
100
AcDbSymbolTableRecord
100
AcDbLayerTableRecord
  2
TopPaste
 70
     0
 62
     8
  6
Continuous
370
    -3
390
F
347
46
348
0
  0
ENDTAB
  0
TABLE
  2
STYLE
  5
3
330
0
100
AcDbSymbolTable
 70
     1
  0
STYLE
  5
11
330
3
100
AcDbSymbolTableRecord
100
AcDbTextStyleTableRecord
  2
Standard
 70
     0
 40
0.0
 41
1.0
 50
0.0
 71
     0
 42
2.5
  3
txt
  4

  0
ENDTAB
  0
TABLE
  2
VIEW
  5
6
330
0
100
AcDbSymbolTable
 70
     0
  0
ENDTAB
  0
TABLE
  2
UCS
  5
7
330
0
100
AcDbSymbolTable
 70
     0
  0
ENDTAB
  0
TABLE
  2
APPID
  5
9
330
0
100
AcDbSymbolTable
 70
     1
  0
APPID
  5
12
330
9
100
AcDbSymbolTableRecord
100
AcDbRegAppTableRecord
  2
ACAD
 70
     0
  0
ENDTAB
  0
TABLE
  2
DIMSTYLE
  5
A
330
0
100
AcDbSymbolTable
 70
     1
100
AcDbDimStyleTable
  0
DIMSTYLE
105
27
330
A
100
AcDbSymbolTableRecord
100
AcDbDimStyleTableRecord
  2
ISO-25
 70
     0
 41
2.5
 42
0.625
 43
3.75
 44
1.25
 73
     0
 74
     0
 77
     1
 78
     8
140
2.5
141
2.5
143
0.03937007874016
147
0.625
171
     3
172
     1
178
     0
271
     2
272
     2
274
     3
278
    44
283
     0
284
     8
340
11
  0
ENDTAB
  0
TABLE
  2
BLOCK_RECORD
  5
1
330
0
100
AcDbSymbolTable
 70
     1
  0
BLOCK_RECORD
  5
1F
330
1
100
AcDbSymbolTableRecord
100
AcDbBlockTableRecord
  2
*Model_Space
340
22
 70
     0
280
     1
281
     0
  0
BLOCK_RECORD
  5
1B
330
1
100
AcDbSymbolTableRecord
100
AcDbBlockTableRecord
  2
*Paper_Space
340
1E
 70
     0
280
     1
281
     0
  0
BLOCK_RECORD
  5
23
330
1
100
AcDbSymbolTableRecord
100
AcDbBlockTableRecord
  2
*Paper_Space0
340
26
 70
     0
280
     1
281
     0
  0
ENDTAB
  0
ENDSEC
  0
SECTION
  2
BLOCKS
  0
BLOCK
  5
20
330
1F
100
AcDbEntity
  8
0
100
AcDbBlockBegin
  2
*Model_Space
 70
     0
 10
0.0
 20
0.0
 30
0.0
  3
*Model_Space
  1

  0
ENDBLK
  5
21
330
1F
100
AcDbEntity
  8
0
100
AcDbBlockEnd
  0
BLOCK
  5
1C
330
1B
100
AcDbEntity
 67
     1
  8
0
100
AcDbBlockBegin
  2
*Paper_Space
 70
     0
 10
0.0
 20
0.0
 30
0.0
  3
*Paper_Space
  1

  0
ENDBLK
  5
1D
330
1B
100
AcDbEntity
 67
     1
  8
0
100
AcDbBlockEnd
  0
BLOCK
  5
24
330
23
100
AcDbEntity
  8
0
100
AcDbBlockBegin
  2
*Paper_Space0
 70
     0
 10
0.0
 20
0.0
 30
0.0
  3
*Paper_Space0
  1

  0
ENDBLK
  5
25
330
23
100
AcDbEntity
  8
0
100
AcDbBlockEnd
  0
ENDSEC
  0
SECTION
  2
ENTITIES
  0
LINE
  5
6F
330
1F
100
AcDbEntity
  8
TopPaste
100
AcDbLine
 10
-9.369402139999998
 20
8.34529954
 30
0.0
 11
-10.08060214
 21
8.34529954
 31
0.0
  0
LINE
  5
70
330
1F
100
AcDbEntity
  8
TopPaste
100
AcDbLine
 10
-10.08060214
 20
8.34529954
 30
0.0
 11
-10.08060214
 21
7.354699539999999
 31
0.0
  0
LINE
  5
71
330
1F
100
AcDbEntity
  8
TopPaste
100
AcDbLine
 10
-10.08060214
 20
7.354699539999999
 30
0.0
 11
-9.369402139999998
 21
7.354699539999999
 31
0.0
  0
LINE
  5
72
330
1F
100
AcDbEntity
  8
TopPaste
100
AcDbLine
 10
-9.369402139999998
 20
7.354699539999999
 30
0.0
 11
-9.369402139999998
 21
8.34529954
 31
0.0
  0
CIRCLE
  5
73
330
1F
100
AcDbEntity
  8
TopPaste
100
AcDbCircle
 10
-9.725002139999999
 20
7.849999540000001
 30
0.0
 40
0.0
  0
LINE
  5
74
330
1F
100
AcDbEntity
  8
TopPaste
100
AcDbLine
 10
-9.369402139999998
 20
3.84529838
 30
0.0
 11
-10.08060214
 21
3.84529838
 31
0.0
  0
LINE
  5
75
330
1F
100
AcDbEntity
  8
TopPaste
100
AcDbLine
 10
-10.08060214
 20
3.84529838
 30
0.0
 11
-10.08060214
 21
2.85469838
 31
0.0
  0
LINE
  5
76
330
1F
100
AcDbEntity
  8
TopPaste
100
AcDbLine
 10
-10.08060214
 20
2.85469838
 30
0.0
 11
-9.369402139999998
 21
2.85469838
 31
0.0
  0
LINE
  5
77
330
1F
100
AcDbEntity
  8
TopPaste
100
AcDbLine
 10
-9.369402139999998
 20
2.85469838
 30
0.0
 11
-9.369402139999998
 21
3.84529838
 31
0.0
  0
CIRCLE
  5
78
330
1F
100
AcDbEntity
  8
TopPaste
100
AcDbCircle
 10
-9.725002139999999
 20
3.34999838
 30
0.0
 40
0.0
  0
LINE
  5
79
330
1F
100
AcDbEntity
  8
TopPaste
100
AcDbLine
 10
-11.51940038
 20
8.34529954
 30
0.0
 11
-12.23060038
 21
8.34529954
 31
0.0
  0
LINE
  5
7A
330
1F
100
AcDbEntity
  8
TopPaste
100
AcDbLine
 10
-12.23060038
 20
8.34529954
 30
0.0
 11
-12.23060038
 21
7.354699539999999
 31
0.0
  0
LINE
  5
7B
330
1F
100
AcDbEntity
  8
TopPaste
100
AcDbLine
 10
-12.23060038
 20
7.354699539999999
 30
0.0
 11
-11.51940038
 21
7.354699539999999
 31
0.0
  0
LINE
  5
7C
330
1F
100
AcDbEntity
  8
TopPaste
100
AcDbLine
 10
-11.51940038
 20
7.354699539999999
 30
0.0
 11
-11.51940038
 21
8.34529954
 31
0.0
  0
CIRCLE
  5
7D
330
1F
100
AcDbEntity
  8
TopPaste
100
AcDbCircle
 10
-11.87500038
 20
7.849999540000001
 30
0.0
 40
0.0
  0
LINE
  5
7E
330
1F
100
AcDbEntity
  8
TopPaste
100
AcDbLine
 10
-11.51940038
 20
3.84529838
 30
0.0
 11
-12.23060038
 21
3.84529838
 31
0.0
  0
LINE
  5
7F
330
1F
100
AcDbEntity
  8
TopPaste
100
AcDbLine
 10
-12.23060038
 20
3.84529838
 30
0.0
 11
-12.23060038
 21
2.85469838
 31
0.0
  0
LINE
  5
80
330
1F
100
AcDbEntity
  8
TopPaste
100
AcDbLine
 10
-12.23060038
 20
2.85469838
 30
0.0
 11
-11.51940038
 21
2.85469838
 31
0.0
  0
LINE
  5
81
330
1F
100
AcDbEntity
  8
TopPaste
100
AcDbLine
 10
-11.51940038
 20
2.85469838
 30
0.0
 11
-11.51940038
 21
3.84529838
 31
0.0
  0
CIRCLE
  5
82
330
1F
100
AcDbEntity
  8
TopPaste
100
AcDbCircle
 10
-11.87500038
 20
3.34999838
 30
0.0
 40
0.0
  0
LINE
  5
83
330
1F
100
AcDbEntity
  8
TopPaste
100
AcDbLine
 10
-13.96659894
 20
-2.3091013
 30
0.0
 11
-13.96659894
 21
-2.7409013
 31
0.0
  0
LINE
  5
84
330
1F
100
AcDbEntity
  8
TopPaste
100
AcDbLine
 10
-13.96659894
 20
-2.7409013
 30
0.0
 11
-12.64579894
 21
-2.7409013
 31
0.0
  0
LINE
  5
85
330
1F
100
AcDbEntity
  8
TopPaste
100
AcDbLine
 10
-12.64579894
 20
-2.7409013
 30
0.0
 11
-12.64579894
 21
-2.3091013
 31
0.0
  0
LINE
  5
86
330
1F
100
AcDbEntity
  8
TopPaste
100
AcDbLine
 10
-12.64579894
 20
-2.3091013
 30
0.0
 11
-13.96659894
 21
-2.3091013
 31
0.0
  0
CIRCLE
  5
87
330
1F
100
AcDbEntity
  8
TopPaste
100
AcDbCircle
 10
-13.30619894
 20
-2.5250013
 30
0.0
 40
0.0
  0
LINE
  5
88
330
1F
100
AcDbEntity
  8
TopPaste
100
AcDbLine
 10
-13.96659894
 20
-2.9591
 30
0.0
 11
-13.96659894
 21
-3.3909
 31
0.0
  0
LINE
  5
89
330
1F
100
AcDbEntity
  8
TopPaste
100
AcDbLine
 10
-13.96659894
 20
-3.3909
 30
0.0
 11
-12.64579894
 21
-3.3909
 31
0.0
  0
LINE
  5
8A
330
1F
100
AcDbEntity
  8
TopPaste
100
AcDbLine
 10
-12.64579894
 20
-3.3909
 30
0.0
 11
-12.64579894
 21
-2.9591
 31
0.0
  0
LINE
  5
8B
330
1F
100
AcDbEntity
  8
TopPaste
100
AcDbLine
 10
-12.64579894
 20
-2.9591
 30
0.0
 11
-13.96659894
 21
-2.9591
 31
0.0
  0
CIRCLE
  5
8C
330
1F
100
AcDbEntity
  8
TopPaste
100
AcDbCircle
 10
-13.30619894
 20
-3.175
 30
0.0
 40
0.0
  0
LINE
  5
8D
330
1F
100
AcDbEntity
  8
TopPaste
100
AcDbLine
 10
-13.96659894
 20
-3.60910124
 30
0.0
 11
-13.96659894
 21
-4.04090124
 31
0.0
  0
LINE
  5
8E
330
1F
100
AcDbEntity
  8
TopPaste
100
AcDbLine
 10
-13.96659894
 20
-4.04090124
 30
0.0
 11
-12.64579894
 21
-4.04090124
 31
0.0
  0
LINE
  5
8F
330
1F
100
AcDbEntity
  8
TopPaste
100
AcDbLine
 10
-12.64579894
 20
-4.04090124
 30
0.0
 11
-12.64579894
 21
-3.60910124
 31
0.0
  0
LINE
  5
90
330
1F
100
AcDbEntity
  8
TopPaste
100
AcDbLine
 10
-12.64579894
 20
-3.60910124
 30
0.0
 11
-13.96659894
 21
-3.60910124
 31
0.0
  0
CIRCLE
  5
91
330
1F
100
AcDbEntity
  8
TopPaste
100
AcDbCircle
 10
-13.30619894
 20
-3.82500124
 30
0.0
 40
0.0
  0
LINE
  5
92
330
1F
100
AcDbEntity
  8
TopPaste
100
AcDbLine
 10
-13.96659894
 20
-4.25909994
 30
0.0
 11
-13.96659894
 21
-4.69089994
 31
0.0
  0
LINE
  5
93
330
1F
100
AcDbEntity
  8
TopPaste
100
AcDbLine
 10
-13.96659894
 20
-4.69089994
 30
0.0
 11
-12.64579894
 21
-4.69089994
 31
0.0
  0
LINE
  5
94
330
1F
100
AcDbEntity
  8
TopPaste
100
AcDbLine
 10
-12.64579894
 20
-4.69089994
 30
0.0
 11
-12.64579894
 21
-4.25909994
 31
0.0
  0
LINE
  5
95
330
1F
100
AcDbEntity
  8
TopPaste
100
AcDbLine
 10
-12.64579894
 20
-4.25909994
 30
0.0
 11
-13.96659894
 21
-4.25909994
 31
0.0
  0
CIRCLE
  5
96
330
1F
100
AcDbEntity
  8
TopPaste
100
AcDbCircle
 10
-13.30619894
 20
-4.47499994
 30
0.0
 40
0.0
  0
LINE
  5
97
330
1F
100
AcDbEntity
  8
TopPaste
100
AcDbLine
 10
-16.35419894
 20
-4.25909994
 30
0.0
 11
-16.35419894
 21
-4.69089994
 31
0.0
  0
LINE
  5
98
330
1F
100
AcDbEntity
  8
TopPaste
100
AcDbLine
 10
-16.35419894
 20
-4.69089994
 30
0.0
 11
-15.03339894
 21
-4.69089994
 31
0.0
  0
LINE
  5
99
330
1F
100
AcDbEntity
  8
TopPaste
100
AcDbLine
 10
-15.03339894
 20
-4.69089994
 30
0.0
 11
-15.03339894
 21
-4.25909994
 31
0.0
  0
LINE
  5
9A
330
1F
100
AcDbEntity
  8
TopPaste
100
AcDbLine
 10
-15.03339894
 20
-4.25909994
 30
0.0
 11
-16.35419894
 21
-4.25909994
 31
0.0
  0
CIRCLE
  5
9B
330
1F
100
AcDbEntity
  8
TopPaste
100
AcDbCircle
 10
-15.69379894
 20
-4.47499994
 30
0.0
 40
0.0
  0
LINE
  5
9C
330
1F
100
AcDbEntity
  8
TopPaste
100
AcDbLine
 10
-16.35419894
 20
-3.60910124
 30
0.0
 11
-16.35419894
 21
-4.04090124
 31
0.0
  0
LINE
  5
9D
330
1F
100
AcDbEntity
  8
TopPaste
100
AcDbLine
 10
-16.35419894
 20
-4.04090124
 30
0.0
 11
-15.03339894
 21
-4.04090124
 31
0.0
  0
LINE
  5
9E
330
1F
100
AcDbEntity
  8
TopPaste
100
AcDbLine
 10
-15.03339894
 20
-4.04090124
 30
0.0
 11
-15.03339894
 21
-3.60910124
 31
0.0
  0
LINE
  5
9F
330
1F
100
AcDbEntity
  8
TopPaste
100
AcDbLine
 10
-15.03339894
 20
-3.60910124
 30
0.0
 11
-16.35419894
 21
-3.60910124
 31
0.0
  0
CIRCLE
  5
A0
330
1F
100
AcDbEntity
  8
TopPaste
100
AcDbCircle
 10
-15.69379894
 20
-3.82500124
 30
0.0
 40
0.0
  0
LINE
  5
A1
330
1F
100
AcDbEntity
  8
TopPaste
100
AcDbLine
 10
-16.35419894
 20
-2.9591
 30
0.0
 11
-16.35419894
 21
-3.3909
 31
0.0
  0
LINE
  5
A2
330
1F
100
AcDbEntity
  8
TopPaste
100
AcDbLine
 10
-16.35419894
 20
-3.3909
 30
0.0
 11
-15.03339894
 21
-3.3909
 31
0.0
  0
LINE
  5
A3
330
1F
100
AcDbEntity
  8
TopPaste
100
AcDbLine
 10
-15.03339894
 20
-3.3909
 30
0.0
 11
-15.03339894
 21
-2.9591
 31
0.0
  0
LINE
  5
A4
330
1F
100
AcDbEntity
  8
TopPaste
100
AcDbLine
 10
-15.03339894
 20
-2.9591
 30
0.0
 11
-16.35419894
 21
-2.9591
 31
0.0
  0
CIRCLE
  5
A5
330
1F
100
AcDbEntity
  8
TopPaste
100
AcDbCircle
 10
-15.69379894
 20
-3.175
 30
0.0
 40
0.0
  0
LINE
  5
A6
330
1F
100
AcDbEntity
  8
TopPaste
100
AcDbLine
 10
-16.35419894
 20
-2.3091013
 30
0.0
 11
-16.35419894
 21
-2.7409013
 31
0.0
  0
LINE
  5
A7
330
1F
100
AcDbEntity
  8
TopPaste
100
AcDbLine
 10
-16.35419894
 20
-2.7409013
 30
0.0
 11
-15.03339894
 21
-2.7409013
 31
0.0
  0
LINE
  5
A8
330
1F
100
AcDbEntity
  8
TopPaste
100
AcDbLine
 10
-15.03339894
 20
-2.7409013
 30
0.0
 11
-15.03339894
 21
-2.3091013
 31
0.0
  0
LINE
  5
A9
330
1F
100
AcDbEntity
  8
TopPaste
100
AcDbLine
 10
-15.03339894
 20
-2.3091013
 30
0.0
 11
-16.35419894
 21
-2.3091013
 31
0.0
  0
CIRCLE
  5
AA
330
1F
100
AcDbEntity
  8
TopPaste
100
AcDbCircle
 10
-15.69379894
 20
-2.5250013
 30
0.0
 40
0.0
  0
LINE
  5
AB
330
1F
100
AcDbEntity
  8
TopPaste
100
AcDbLine
 10
8.94999988
 20
7.312499979999999
 30
0.0
 11
8.94999988
 21
5.68749942
 31
0.0
  0
LINE
  5
AC
330
1F
100
AcDbEntity
  8
TopPaste
100
AcDbLine
 10
9.13750014
 20
5.49999916
 30
0.0
 11
10.26249662
 21
5.49999916
 31
0.0
  0
LINE
  5
AD
330
1F
100
AcDbEntity
  8
TopPaste
100
AcDbLine
 10
10.44999688
 20
5.68749942
 30
0.0
 11
10.44999688
 21
7.312499979999999
 31
0.0
  0
LINE
  5
AE
330
1F
100
AcDbEntity
  8
TopPaste
100
AcDbLine
 10
10.26249662
 20
7.50000024
 30
0.0
 11
9.13750014
 21
7.50000024
 31
0.0
  0
ARC
  5
AF
330
1F
100
AcDbEntity
  8
TopPaste
100
AcDbCircle
 10
9.13750014
 20
7.312499979999999
 30
0.0
 40
0.18750026
100
AcDbArc
 50
90.0
 51
180.0
  0
ARC
  5
B0
330
1F
100
AcDbEntity
  8
TopPaste
100
AcDbCircle
 10
9.13750014
 20
5.68749942
 30
0.0
 40
0.18750026
100
AcDbArc
 50
180.0
 51
270.0
  0
ARC
  5
B1
330
1F
100
AcDbEntity
  8
TopPaste
100
AcDbCircle
 10
10.26249662
 20
5.68749942
 30
0.0
 40
0.18750026
100
AcDbArc
 50
270.0
 51
0.0
  0
ARC
  5
B2
330
1F
100
AcDbEntity
  8
TopPaste
100
AcDbCircle
 10
10.26249662
 20
7.312499979999999
 30
0.0
 40
0.18750026
100
AcDbArc
 50
0.0
 51
90.0
  0
CIRCLE
  5
B3
330
1F
100
AcDbEntity
  8
TopPaste
100
AcDbCircle
 10
9.69999838
 20
6.4999997
 30
0.0
 40
0.0
  0
LINE
  5
B4
330
1F
100
AcDbEntity
  8
TopPaste
100
AcDbLine
 10
13.55000084
 20
7.312499979999999
 30
0.0
 11
13.55000084
 21
5.68749942
 31
0.0
  0
LINE
  5
B5
330
1F
100
AcDbEntity
  8
TopPaste
100
AcDbLine
 10
13.7375011
 20
5.49999916
 30
0.0
 11
14.86249758
 21
5.49999916
 31
0.0
  0
LINE
  5
B6
330
1F
100
AcDbEntity
  8
TopPaste
100
AcDbLine
 10
15.04999784
 20
5.68749942
 30
0.0
 11
15.04999784
 21
7.312499979999999
 31
0.0
  0
LINE
  5
B7
330
1F
100
AcDbEntity
  8
TopPaste
100
AcDbLine
 10
14.86249758
 20
7.50000024
 30
0.0
 11
13.7375011
 21
7.50000024
 31
0.0
  0
ARC
  5
B8
330
1F
100
AcDbEntity
  8
TopPaste
100
AcDbCircle
 10
13.7375011
 20
7.312499979999999
 30
0.0
 40
0.18750026
100
AcDbArc
 50
90.0
 51
180.0
  0
ARC
  5
B9
330
1F
100
AcDbEntity
  8
TopPaste
100
AcDbCircle
 10
13.7375011
 20
5.68749942
 30
0.0
 40
0.18750026
100
AcDbArc
 50
180.0
 51
270.0
  0
ARC
  5
BA
330
1F
100
AcDbEntity
  8
TopPaste
100
AcDbCircle
 10
14.86249758
 20
5.68749942
 30
0.0
 40
0.18750026
100
AcDbArc
 50
270.0
 51
0.0
  0
ARC
  5
BB
330
1F
100
AcDbEntity
  8
TopPaste
100
AcDbCircle
 10
14.86249758
 20
7.312499979999999
 30
0.0
 40
0.18750026
100
AcDbArc
 50
0.0
 51
90.0
  0
CIRCLE
  5
BC
330
1F
100
AcDbEntity
  8
TopPaste
100
AcDbCircle
 10
14.29999934
 20
6.4999997
 30
0.0
 40
0.0
  0
LINE
  5
BD
330
1F
100
AcDbEntity
  8
TopPaste
100
AcDbLine
 10
10.10000012
 20
1.25000004
 30
0.0
 11
10.10000012
 21
-0.65000124
 31
0.0
  0
LINE
  5
BE
330
1F
100
AcDbEntity
  8
TopPaste
100
AcDbLine
 10
10.15000002
 20
-0.7000011399999999
 30
0.0
 11
13.8499977
 21
-0.7000011399999999
 31
0.0
  0
LINE
  5
BF
330
1F
100
AcDbEntity
  8
TopPaste
100
AcDbLine
 10
13.8999976
 20
-0.65000124
 30
0.0
 11
13.8999976
 21
1.25000004
 31
0.0
  0
LINE
  5
C0
330
1F
100
AcDbEntity
  8
TopPaste
100
AcDbLine
 10
13.8499977
 20
1.29999994
 30
0.0
 11
10.15000002
 21
1.29999994
 31
0.0
  0
ARC
  5
C1
330
1F
100
AcDbEntity
  8
TopPaste
100
AcDbCircle
 10
10.15000002
 20
1.25000004
 30
0.0
 40
0.0499999
100
AcDbArc
 50
90.0
 51
180.0
  0
ARC
  5
C2
330
1F
100
AcDbEntity
  8
TopPaste
100
AcDbCircle
 10
10.15000002
 20
-0.65000124
 30
0.0
 40
0.0499999
100
AcDbArc
 50
180.0
 51
270.0
  0
ARC
  5
C3
330
1F
100
AcDbEntity
  8
TopPaste
100
AcDbCircle
 10
13.8499977
 20
-0.65000124
 30
0.0
 40
0.0499999
100
AcDbArc
 50
270.0
 51
0.0
  0
ARC
  5
C4
330
1F
100
AcDbEntity
  8
TopPaste
100
AcDbCircle
 10
13.8499977
 20
1.25000004
 30
0.0
 40
0.0499999
100
AcDbArc
 50
0.0
 51
90.0
  0
CIRCLE
  5
C5
330
1F
100
AcDbEntity
  8
TopPaste
100
AcDbCircle
 10
11.99999886
 20
0.2999994
 30
0.0
 40
0.0
  0
LINE
  5
C6
330
1F
100
AcDbEntity
  8
TopPaste
100
AcDbLine
 10
11.25000036
 20
7.312499979999999
 30
0.0
 11
11.25000036
 21
5.68749942
 31
0.0
  0
LINE
  5
C7
330
1F
100
AcDbEntity
  8
TopPaste
100
AcDbLine
 10
11.43750062
 20
5.49999916
 30
0.0
 11
12.5624971
 21
5.49999916
 31
0.0
  0
LINE
  5
C8
330
1F
100
AcDbEntity
  8
TopPaste
100
AcDbLine
 10
12.74999736
 20
5.68749942
 30
0.0
 11
12.74999736
 21
7.312499979999999
 31
0.0
  0
LINE
  5
C9
330
1F
100
AcDbEntity
  8
TopPaste
100
AcDbLine
 10
12.5624971
 20
7.50000024
 30
0.0
 11
11.43750062
 21
7.50000024
 31
0.0
  0
ARC
  5
CA
330
1F
100
AcDbEntity
  8
TopPaste
100
AcDbCircle
 10
11.43750062
 20
7.312499979999999
 30
0.0
 40
0.18750026
100
AcDbArc
 50
90.0
 51
180.0
  0
ARC
  5
CB
330
1F
100
AcDbEntity
  8
TopPaste
100
AcDbCircle
 10
11.43750062
 20
5.68749942
 30
0.0
 40
0.18750026
100
AcDbArc
 50
180.0
 51
270.0
  0
ARC
  5
CC
330
1F
100
AcDbEntity
  8
TopPaste
100
AcDbCircle
 10
12.5624971
 20
5.68749942
 30
0.0
 40
0.18750026
100
AcDbArc
 50
270.0
 51
0.0
  0
ARC
  5
CD
330
1F
100
AcDbEntity
  8
TopPaste
100
AcDbCircle
 10
12.5624971
 20
7.312499979999999
 30
0.0
 40
0.18750026
100
AcDbArc
 50
0.0
 51
90.0
  0
CIRCLE
  5
CE
330
1F
100
AcDbEntity
  8
TopPaste
100
AcDbCircle
 10
11.99999886
 20
6.4999997
 30
0.0
 40
0.0
  0
LINE
  5
CF
330
1F
100
AcDbEntity
  8
TopPaste
100
AcDbLine
 10
0.7239
 20
12.69890018
 30
0.0
 11
-0.7239
 21
12.69890018
 31
0.0
  0
LINE
  5
D0
330
1F
100
AcDbEntity
  8
TopPaste
100
AcDbLine
 10
-0.7239
 20
12.69890018
 30
0.0
 11
-0.7239
 21
11.25110018
 31
0.0
  0
LINE
  5
D1
330
1F
100
AcDbEntity
  8
TopPaste
100
AcDbLine
 10
-0.7239
 20
11.25110018
 30
0.0
 11
0.7239
 21
11.25110018
 31
0.0
  0
LINE
  5
D2
330
1F
100
AcDbEntity
  8
TopPaste
100
AcDbLine
 10
0.7239
 20
11.25110018
 30
0.0
 11
0.7239
 21
12.69890018
 31
0.0
  0
CIRCLE
  5
D3
330
1F
100
AcDbEntity
  8
TopPaste
100
AcDbCircle
 10
0.0
 20
11.97500018
 30
0.0
 40
0.0
  0
LINE
  5
D4
330
1F
100
AcDbEntity
  8
TopPaste
100
AcDbLine
 10
-1.25109986
 20
12.69890018
 30
0.0
 11
-2.69889986
 21
12.69890018
 31
0.0
  0
LINE
  5
D5
330
1F
100
AcDbEntity
  8
TopPaste
100
AcDbLine
 10
-2.69889986
 20
12.69890018
 30
0.0
 11
-2.69889986
 21
11.25110018
 31
0.0
  0
LINE
  5
D6
330
1F
100
AcDbEntity
  8
TopPaste
100
AcDbLine
 10
-2.69889986
 20
11.25110018
 30
0.0
 11
-1.25109986
 21
11.25110018
 31
0.0
  0
LINE
  5
D7
330
1F
100
AcDbEntity
  8
TopPaste
100
AcDbLine
 10
-1.25109986
 20
11.25110018
 30
0.0
 11
-1.25109986
 21
12.69890018
 31
0.0
  0
CIRCLE
  5
D8
330
1F
100
AcDbEntity
  8
TopPaste
100
AcDbCircle
 10
-1.97499986
 20
11.97500018
 30
0.0
 40
0.0
  0
LINE
  5
D9
330
1F
100
AcDbEntity
  8
TopPaste
100
AcDbLine
 10
-1.25109986
 20
10.72390032
 30
0.0
 11
-2.69889986
 21
10.72390032
 31
0.0
  0
LINE
  5
DA
330
1F
100
AcDbEntity
  8
TopPaste
100
AcDbLine
 10
-2.69889986
 20
10.72390032
 30
0.0
 11
-2.69889986
 21
9.27610032
 31
0.0
  0
LINE
  5
DB
330
1F
100
AcDbEntity
  8
TopPaste
100
AcDbLine
 10
-2.69889986
 20
9.27610032
 30
0.0
 11
-1.25109986
 21
9.27610032
 31
0.0
  0
LINE
  5
DC
330
1F
100
AcDbEntity
  8
TopPaste
100
AcDbLine
 10
-1.25109986
 20
9.27610032
 30
0.0
 11
-1.25109986
 21
10.72390032
 31
0.0
  0
CIRCLE
  5
DD
330
1F
100
AcDbEntity
  8
TopPaste
100
AcDbCircle
 10
-1.97499986
 20
10.00000032
 30
0.0
 40
0.0
  0
LINE
  5
DE
330
1F
100
AcDbEntity
  8
TopPaste
100
AcDbLine
 10
-1.25109986
 20
8.74890046
 30
0.0
 11
-2.69889986
 21
8.74890046
 31
0.0
  0
LINE
  5
DF
330
1F
100
AcDbEntity
  8
TopPaste
100
AcDbLine
 10
-2.69889986
 20
8.74890046
 30
0.0
 11
-2.69889986
 21
7.30110046
 31
0.0
  0
LINE
  5
E0
330
1F
100
AcDbEntity
  8
TopPaste
100
AcDbLine
 10
-2.69889986
 20
7.30110046
 30
0.0
 11
-1.25109986
 21
7.30110046
 31
0.0
  0
LINE
  5
E1
330
1F
100
AcDbEntity
  8
TopPaste
100
AcDbLine
 10
-1.25109986
 20
7.30110046
 30
0.0
 11
-1.25109986
 21
8.74890046
 31
0.0
  0
CIRCLE
  5
E2
330
1F
100
AcDbEntity
  8
TopPaste
100
AcDbCircle
 10
-1.97499986
 20
8.02500046
 30
0.0
 40
0.0
  0
LINE
  5
E3
330
1F
100
AcDbEntity
  8
TopPaste
100
AcDbLine
 10
0.7239
 20
8.74890046
 30
0.0
 11
-0.7239
 21
8.74890046
 31
0.0
  0
LINE
  5
E4
330
1F
100
AcDbEntity
  8
TopPaste
100
AcDbLine
 10
-0.7239
 20
8.74890046
 30
0.0
 11
-0.7239
 21
7.30110046
 31
0.0
  0
LINE
  5
E5
330
1F
100
AcDbEntity
  8
TopPaste
100
AcDbLine
 10
-0.7239
 20
7.30110046
 30
0.0
 11
0.7239
 21
7.30110046
 31
0.0
  0
LINE
  5
E6
330
1F
100
AcDbEntity
  8
TopPaste
100
AcDbLine
 10
0.7239
 20
7.30110046
 30
0.0
 11
0.7239
 21
8.74890046
 31
0.0
  0
CIRCLE
  5
E7
330
1F
100
AcDbEntity
  8
TopPaste
100
AcDbCircle
 10
0.0
 20
8.02500046
 30
0.0
 40
0.0
  0
LINE
  5
E8
330
1F
100
AcDbEntity
  8
TopPaste
100
AcDbLine
 10
2.69889986
 20
8.74890046
 30
0.0
 11
1.25109986
 21
8.74890046
 31
0.0
  0
LINE
  5
E9
330
1F
100
AcDbEntity
  8
TopPaste
100
AcDbLine
 10
1.25109986
 20
8.74890046
 30
0.0
 11
1.25109986
 21
7.30110046
 31
0.0
  0
LINE
  5
EA
330
1F
100
AcDbEntity
  8
TopPaste
100
AcDbLine
 10
1.25109986
 20
7.30110046
 30
0.0
 11
2.69889986
 21
7.30110046
 31
0.0
  0
LINE
  5
EB
330
1F
100
AcDbEntity
  8
TopPaste
100
AcDbLine
 10
2.69889986
 20
7.30110046
 30
0.0
 11
2.69889986
 21
8.74890046
 31
0.0
  0
CIRCLE
  5
EC
330
1F
100
AcDbEntity
  8
TopPaste
100
AcDbCircle
 10
1.97499986
 20
8.02500046
 30
0.0
 40
0.0
  0
LINE
  5
ED
330
1F
100
AcDbEntity
  8
TopPaste
100
AcDbLine
 10
2.69889986
 20
10.72390032
 30
0.0
 11
1.25109986
 21
10.72390032
 31
0.0
  0
LINE
  5
EE
330
1F
100
AcDbEntity
  8
TopPaste
100
AcDbLine
 10
1.25109986
 20
10.72390032
 30
0.0
 11
1.25109986
 21
9.27610032
 31
0.0
  0
LINE
  5
EF
330
1F
100
AcDbEntity
  8
TopPaste
100
AcDbLine
 10
1.25109986
 20
9.27610032
 30
0.0
 11
2.69889986
 21
9.27610032
 31
0.0
  0
LINE
  5
F0
330
1F
100
AcDbEntity
  8
TopPaste
100
AcDbLine
 10
2.69889986
 20
9.27610032
 30
0.0
 11
2.69889986
 21
10.72390032
 31
0.0
  0
CIRCLE
  5
F1
330
1F
100
AcDbEntity
  8
TopPaste
100
AcDbCircle
 10
1.97499986
 20
10.00000032
 30
0.0
 40
0.0
  0
LINE
  5
F2
330
1F
100
AcDbEntity
  8
TopPaste
100
AcDbLine
 10
2.69889986
 20
12.69890018
 30
0.0
 11
1.25109986
 21
12.69890018
 31
0.0
  0
LINE
  5
F3
330
1F
100
AcDbEntity
  8
TopPaste
100
AcDbLine
 10
1.25109986
 20
12.69890018
 30
0.0
 11
1.25109986
 21
11.25110018
 31
0.0
  0
LINE
  5
F4
330
1F
100
AcDbEntity
  8
TopPaste
100
AcDbLine
 10
1.25109986
 20
11.25110018
 30
0.0
 11
2.69889986
 21
11.25110018
 31
0.0
  0
LINE
  5
F5
330
1F
100
AcDbEntity
  8
TopPaste
100
AcDbLine
 10
2.69889986
 20
11.25110018
 30
0.0
 11
2.69889986
 21
12.69890018
 31
0.0
  0
CIRCLE
  5
F6
330
1F
100
AcDbEntity
  8
TopPaste
100
AcDbCircle
 10
1.97499986
 20
11.97500018
 30
0.0
 40
0.0
  0
LINE
  5
F7
330
1F
100
AcDbEntity
  8
TopPaste
100
AcDbLine
 10
-5.5944008
 20
15.30560058
 30
0.0
 11
-6.3056008
 21
15.30560058
 31
0.0
  0
LINE
  5
F8
330
1F
100
AcDbEntity
  8
TopPaste
100
AcDbLine
 10
-6.3056008
 20
15.30560058
 30
0.0
 11
-6.3056008
 21
14.59440058
 31
0.0
  0
LINE
  5
F9
330
1F
100
AcDbEntity
  8
TopPaste
100
AcDbLine
 10
-6.3056008
 20
14.59440058
 30
0.0
 11
-5.5944008
 21
14.59440058
 31
0.0
  0
LINE
  5
FA
330
1F
100
AcDbEntity
  8
TopPaste
100
AcDbLine
 10
-5.5944008
 20
14.59440058
 30
0.0
 11
-5.5944008
 21
15.30560058
 31
0.0
  0
CIRCLE
  5
FB
330
1F
100
AcDbEntity
  8
TopPaste
100
AcDbCircle
 10
-5.9500008
 20
14.95000058
 30
0.0
 40
0.0
  0
LINE
  5
FC
330
1F
100
AcDbEntity
  8
TopPaste
100
AcDbLine
 10
-5.5944008
 20
5.40560006
 30
0.0
 11
-6.3056008
 21
5.40560006
 31
0.0
  0
LINE
  5
FD
330
1F
100
AcDbEntity
  8
TopPaste
100
AcDbLine
 10
-6.3056008
 20
5.40560006
 30
0.0
 11
-6.3056008
 21
4.69440006
 31
0.0
  0
LINE
  5
FE
330
1F
100
AcDbEntity
  8
TopPaste
100
AcDbLine
 10
-6.3056008
 20
4.69440006
 30
0.0
 11
-5.5944008
 21
4.69440006
 31
0.0
  0
LINE
  5
FF
330
1F
100
AcDbEntity
  8
TopPaste
100
AcDbLine
 10
-5.5944008
 20
4.69440006
 30
0.0
 11
-5.5944008
 21
5.40560006
 31
0.0
  0
CIRCLE
  5
100
330
1F
100
AcDbEntity
  8
TopPaste
100
AcDbCircle
 10
-5.9500008
 20
5.050000059999999
 30
0.0
 40
0.0
  0
LINE
  5
101
330
1F
100
AcDbEntity
  8
TopPaste
100
AcDbLine
 10
6.3056008
 20
5.40560006
 30
0.0
 11
5.5944008
 21
5.40560006
 31
0.0
  0
LINE
  5
102
330
1F
100
AcDbEntity
  8
TopPaste
100
AcDbLine
 10
5.5944008
 20
5.40560006
 30
0.0
 11
5.5944008
 21
4.69440006
 31
0.0
  0
LINE
  5
103
330
1F
100
AcDbEntity
  8
TopPaste
100
AcDbLine
 10
5.5944008
 20
4.69440006
 30
0.0
 11
6.3056008
 21
4.69440006
 31
0.0
  0
LINE
  5
104
330
1F
100
AcDbEntity
  8
TopPaste
100
AcDbLine
 10
6.3056008
 20
4.69440006
 30
0.0
 11
6.3056008
 21
5.40560006
 31
0.0
  0
CIRCLE
  5
105
330
1F
100
AcDbEntity
  8
TopPaste
100
AcDbCircle
 10
5.9500008
 20
5.050000059999999
 30
0.0
 40
0.0
  0
LINE
  5
106
330
1F
100
AcDbEntity
  8
TopPaste
100
AcDbLine
 10
6.3056008
 20
15.30560058
 30
0.0
 11
5.5944008
 21
15.30560058
 31
0.0
  0
LINE
  5
107
330
1F
100
AcDbEntity
  8
TopPaste
100
AcDbLine
 10
5.5944008
 20
15.30560058
 30
0.0
 11
5.5944008
 21
14.59440058
 31
0.0
  0
LINE
  5
108
330
1F
100
AcDbEntity
  8
TopPaste
100
AcDbLine
 10
5.5944008
 20
14.59440058
 30
0.0
 11
6.3056008
 21
14.59440058
 31
0.0
  0
LINE
  5
109
330
1F
100
AcDbEntity
  8
TopPaste
100
AcDbLine
 10
6.3056008
 20
14.59440058
 30
0.0
 11
6.3056008
 21
15.30560058
 31
0.0
  0
CIRCLE
  5
10A
330
1F
100
AcDbEntity
  8
TopPaste
100
AcDbCircle
 10
5.9500008
 20
14.95000058
 30
0.0
 40
0.0
  0
LINE
  5
10B
330
1F
100
AcDbEntity
  8
TopPaste
100
AcDbLine
 10
0.7239
 20
10.72390032
 30
0.0
 11
-0.7239
 21
10.72390032
 31
0.0
  0
LINE
  5
10C
330
1F
100
AcDbEntity
  8
TopPaste
100
AcDbLine
 10
-0.7239
 20
10.72390032
 30
0.0
 11
-0.7239
 21
9.27610032
 31
0.0
  0
LINE
  5
10D
330
1F
100
AcDbEntity
  8
TopPaste
100
AcDbLine
 10
-0.7239
 20
9.27610032
 30
0.0
 11
0.7239
 21
9.27610032
 31
0.0
  0
LINE
  5
10E
330
1F
100
AcDbEntity
  8
TopPaste
100
AcDbLine
 10
0.7239
 20
9.27610032
 30
0.0
 11
0.7239
 21
10.72390032
 31
0.0
  0
CIRCLE
  5
10F
330
1F
100
AcDbEntity
  8
TopPaste
100
AcDbCircle
 10
0.0
 20
10.00000032
 30
0.0
 40
0.0
  0
LINE
  5
110
330
1F
100
AcDbEntity
  8
TopPaste
100
AcDbLine
 10
-4.59679802
 20
14.49360068
 30
0.0
 11
-4.59679802
 21
15.30640068
 31
0.0
  0
LINE
  5
111
330
1F
100
AcDbEntity
  8
TopPaste
100
AcDbLine
 10
-4.59679802
 20
15.30640068
 30
0.0
 11
-5.003198019999999
 21
15.30640068
 31
0.0
  0
LINE
  5
112
330
1F
100
AcDbEntity
  8
TopPaste
100
AcDbLine
 10
-5.003198019999999
 20
15.30640068
 30
0.0
 11
-5.003198019999999
 21
14.49360068
 31
0.0
  0
LINE
  5
113
330
1F
100
AcDbEntity
  8
TopPaste
100
AcDbLine
 10
-5.003198019999999
 20
14.49360068
 30
0.0
 11
-4.59679802
 21
14.49360068
 31
0.0
  0
CIRCLE
  5
114
330
1F
100
AcDbEntity
  8
TopPaste
100
AcDbCircle
 10
-4.79999802
 20
14.90000068
 30
0.0
 40
0.0
  0
LINE
  5
115
330
1F
100
AcDbEntity
  8
TopPaste
100
AcDbLine
 10
-3.79679962
 20
14.49360068
 30
0.0
 11
-3.79679962
 21
15.30640068
 31
0.0
  0
LINE
  5
116
330
1F
100
AcDbEntity
  8
TopPaste
100
AcDbLine
 10
-3.79679962
 20
15.30640068
 30
0.0
 11
-4.203199619999999
 21
15.30640068
 31
0.0
  0
LINE
  5
117
330
1F
100
AcDbEntity
  8
TopPaste
100
AcDbLine
 10
-4.203199619999999
 20
15.30640068
 30
0.0
 11
-4.203199619999999
 21
14.49360068
 31
0.0
  0
LINE
  5
118
330
1F
100
AcDbEntity
  8
TopPaste
100
AcDbLine
 10
-4.203199619999999
 20
14.49360068
 30
0.0
 11
-3.79679962
 21
14.49360068
 31
0.0
  0
CIRCLE
  5
119
330
1F
100
AcDbEntity
  8
TopPaste
100
AcDbCircle
 10
-3.99999962
 20
14.90000068
 30
0.0
 40
0.0
  0
LINE
  5
11A
330
1F
100
AcDbEntity
  8
TopPaste
100
AcDbLine
 10
-2.99679868
 20
14.49360068
 30
0.0
 11
-2.99679868
 21
15.30640068
 31
0.0
  0
LINE
  5
11B
330
1F
100
AcDbEntity
  8
TopPaste
100
AcDbLine
 10
-2.99679868
 20
15.30640068
 30
0.0
 11
-3.40319868
 21
15.30640068
 31
0.0
  0
LINE
  5
11C
330
1F
100
AcDbEntity
  8
TopPaste
100
AcDbLine
 10
-3.40319868
 20
15.30640068
 30
0.0
 11
-3.40319868
 21
14.49360068
 31
0.0
  0
LINE
  5
11D
330
1F
100
AcDbEntity
  8
TopPaste
100
AcDbLine
 10
-3.40319868
 20
14.49360068
 30
0.0
 11
-2.99679868
 21
14.49360068
 31
0.0
  0
CIRCLE
  5
11E
330
1F
100
AcDbEntity
  8
TopPaste
100
AcDbCircle
 10
-3.19999868
 20
14.90000068
 30
0.0
 40
0.0
  0
LINE
  5
11F
330
1F
100
AcDbEntity
  8
TopPaste
100
AcDbLine
 10
-2.19680028
 20
14.49360068
 30
0.0
 11
-2.19680028
 21
15.30640068
 31
0.0
  0
LINE
  5
120
330
1F
100
AcDbEntity
  8
TopPaste
100
AcDbLine
 10
-2.19680028
 20
15.30640068
 30
0.0
 11
-2.60320028
 21
15.30640068
 31
0.0
  0
LINE
  5
121
330
1F
100
AcDbEntity
  8
TopPaste
100
AcDbLine
 10
-2.60320028
 20
15.30640068
 30
0.0
 11
-2.60320028
 21
14.49360068
 31
0.0
  0
LINE
  5
122
330
1F
100
AcDbEntity
  8
TopPaste
100
AcDbLine
 10
-2.60320028
 20
14.49360068
 30
0.0
 11
-2.19680028
 21
14.49360068
 31
0.0
  0
CIRCLE
  5
123
330
1F
100
AcDbEntity
  8
TopPaste
100
AcDbCircle
 10
-2.40000028
 20
14.90000068
 30
0.0
 40
0.0
  0
LINE
  5
124
330
1F
100
AcDbEntity
  8
TopPaste
100
AcDbLine
 10
-1.39679934
 20
14.49360068
 30
0.0
 11
-1.39679934
 21
15.30640068
 31
0.0
  0
LINE
  5
125
330
1F
100
AcDbEntity
  8
TopPaste
100
AcDbLine
 10
-1.39679934
 20
15.30640068
 30
0.0
 11
-1.80319934
 21
15.30640068
 31
0.0
  0
LINE
  5
126
330
1F
100
AcDbEntity
  8
TopPaste
100
AcDbLine
 10
-1.80319934
 20
15.30640068
 30
0.0
 11
-1.80319934
 21
14.49360068
 31
0.0
  0
LINE
  5
127
330
1F
100
AcDbEntity
  8
TopPaste
100
AcDbLine
 10
-1.80319934
 20
14.49360068
 30
0.0
 11
-1.39679934
 21
14.49360068
 31
0.0
  0
CIRCLE
  5
128
330
1F
100
AcDbEntity
  8
TopPaste
100
AcDbCircle
 10
-1.59999934
 20
14.90000068
 30
0.0
 40
0.0
  0
LINE
  5
129
330
1F
100
AcDbEntity
  8
TopPaste
100
AcDbLine
 10
-0.59680094
 20
14.49360068
 30
0.0
 11
-0.59680094
 21
15.30640068
 31
0.0
  0
LINE
  5
12A
330
1F
100
AcDbEntity
  8
TopPaste
100
AcDbLine
 10
-0.59680094
 20
15.30640068
 30
0.0
 11
-1.00320094
 21
15.30640068
 31
0.0
  0
LINE
  5
12B
330
1F
100
AcDbEntity
  8
TopPaste
100
AcDbLine
 10
-1.00320094
 20
15.30640068
 30
0.0
 11
-1.00320094
 21
14.49360068
 31
0.0
  0
LINE
  5
12C
330
1F
100
AcDbEntity
  8
TopPaste
100
AcDbLine
 10
-1.00320094
 20
14.49360068
 30
0.0
 11
-0.59680094
 21
14.49360068
 31
0.0
  0
CIRCLE
  5
12D
330
1F
100
AcDbEntity
  8
TopPaste
100
AcDbCircle
 10
-0.8000009399999999
 20
14.90000068
 30
0.0
 40
0.0
  0
LINE
  5
12E
330
1F
100
AcDbEntity
  8
TopPaste
100
AcDbLine
 10
0.2032
 20
14.49360068
 30
0.0
 11
0.2032
 21
15.30640068
 31
0.0
  0
LINE
  5
12F
330
1F
100
AcDbEntity
  8
TopPaste
100
AcDbLine
 10
0.2032
 20
15.30640068
 30
0.0
 11
-0.2032
 21
15.30640068
 31
0.0
  0
LINE
  5
130
330
1F
100
AcDbEntity
  8
TopPaste
100
AcDbLine
 10
-0.2032
 20
15.30640068
 30
0.0
 11
-0.2032
 21
14.49360068
 31
0.0
  0
LINE
  5
131
330
1F
100
AcDbEntity
  8
TopPaste
100
AcDbLine
 10
-0.2032
 20
14.49360068
 30
0.0
 11
0.2032
 21
14.49360068
 31
0.0
  0
CIRCLE
  5
132
330
1F
100
AcDbEntity
  8
TopPaste
100
AcDbCircle
 10
0.0
 20
14.90000068
 30
0.0
 40
0.0
  0
LINE
  5
133
330
1F
100
AcDbEntity
  8
TopPaste
100
AcDbLine
 10
1.00320094
 20
14.49360068
 30
0.0
 11
1.00320094
 21
15.30640068
 31
0.0
  0
LINE
  5
134
330
1F
100
AcDbEntity
  8
TopPaste
100
AcDbLine
 10
1.00320094
 20
15.30640068
 30
0.0
 11
0.59680094
 21
15.30640068
 31
0.0
  0
LINE
  5
135
330
1F
100
AcDbEntity
  8
TopPaste
100
AcDbLine
 10
0.59680094
 20
15.30640068
 30
0.0
 11
0.59680094
 21
14.49360068
 31
0.0
  0
LINE
  5
136
330
1F
100
AcDbEntity
  8
TopPaste
100
AcDbLine
 10
0.59680094
 20
14.49360068
 30
0.0
 11
1.00320094
 21
14.49360068
 31
0.0
  0
CIRCLE
  5
137
330
1F
100
AcDbEntity
  8
TopPaste
100
AcDbCircle
 10
0.8000009399999999
 20
14.90000068
 30
0.0
 40
0.0
  0
LINE
  5
138
330
1F
100
AcDbEntity
  8
TopPaste
100
AcDbLine
 10
1.80319934
 20
14.49360068
 30
0.0
 11
1.80319934
 21
15.30640068
 31
0.0
  0
LINE
  5
139
330
1F
100
AcDbEntity
  8
TopPaste
100
AcDbLine
 10
1.80319934
 20
15.30640068
 30
0.0
 11
1.39679934
 21
15.30640068
 31
0.0
  0
LINE
  5
13A
330
1F
100
AcDbEntity
  8
TopPaste
100
AcDbLine
 10
1.39679934
 20
15.30640068
 30
0.0
 11
1.39679934
 21
14.49360068
 31
0.0
  0
LINE
  5
13B
330
1F
100
AcDbEntity
  8
TopPaste
100
AcDbLine
 10
1.39679934
 20
14.49360068
 30
0.0
 11
1.80319934
 21
14.49360068
 31
0.0
  0
CIRCLE
  5
13C
330
1F
100
AcDbEntity
  8
TopPaste
100
AcDbCircle
 10
1.59999934
 20
14.90000068
 30
0.0
 40
0.0
  0
LINE
  5
13D
330
1F
100
AcDbEntity
  8
TopPaste
100
AcDbLine
 10
2.60320028
 20
14.49360068
 30
0.0
 11
2.60320028
 21
15.30640068
 31
0.0
  0
LINE
  5
13E
330
1F
100
AcDbEntity
  8
TopPaste
100
AcDbLine
 10
2.60320028
 20
15.30640068
 30
0.0
 11
2.19680028
 21
15.30640068
 31
0.0
  0
LINE
  5
13F
330
1F
100
AcDbEntity
  8
TopPaste
100
AcDbLine
 10
2.19680028
 20
15.30640068
 30
0.0
 11
2.19680028
 21
14.49360068
 31
0.0
  0
LINE
  5
140
330
1F
100
AcDbEntity
  8
TopPaste
100
AcDbLine
 10
2.19680028
 20
14.49360068
 30
0.0
 11
2.60320028
 21
14.49360068
 31
0.0
  0
CIRCLE
  5
141
330
1F
100
AcDbEntity
  8
TopPaste
100
AcDbCircle
 10
2.40000028
 20
14.90000068
 30
0.0
 40
0.0
  0
LINE
  5
142
330
1F
100
AcDbEntity
  8
TopPaste
100
AcDbLine
 10
3.40319868
 20
14.49360068
 30
0.0
 11
3.40319868
 21
15.30640068
 31
0.0
  0
LINE
  5
143
330
1F
100
AcDbEntity
  8
TopPaste
100
AcDbLine
 10
3.40319868
 20
15.30640068
 30
0.0
 11
2.99679868
 21
15.30640068
 31
0.0
  0
LINE
  5
144
330
1F
100
AcDbEntity
  8
TopPaste
100
AcDbLine
 10
2.99679868
 20
15.30640068
 30
0.0
 11
2.99679868
 21
14.49360068
 31
0.0
  0
LINE
  5
145
330
1F
100
AcDbEntity
  8
TopPaste
100
AcDbLine
 10
2.99679868
 20
14.49360068
 30
0.0
 11
3.40319868
 21
14.49360068
 31
0.0
  0
CIRCLE
  5
146
330
1F
100
AcDbEntity
  8
TopPaste
100
AcDbCircle
 10
3.19999868
 20
14.90000068
 30
0.0
 40
0.0
  0
LINE
  5
147
330
1F
100
AcDbEntity
  8
TopPaste
100
AcDbLine
 10
4.203199619999999
 20
14.49360068
 30
0.0
 11
4.203199619999999
 21
15.30640068
 31
0.0
  0
LINE
  5
148
330
1F
100
AcDbEntity
  8
TopPaste
100
AcDbLine
 10
4.203199619999999
 20
15.30640068
 30
0.0
 11
3.79679962
 21
15.30640068
 31
0.0
  0
LINE
  5
149
330
1F
100
AcDbEntity
  8
TopPaste
100
AcDbLine
 10
3.79679962
 20
15.30640068
 30
0.0
 11
3.79679962
 21
14.49360068
 31
0.0
  0
LINE
  5
14A
330
1F
100
AcDbEntity
  8
TopPaste
100
AcDbLine
 10
3.79679962
 20
14.49360068
 30
0.0
 11
4.203199619999999
 21
14.49360068
 31
0.0
  0
CIRCLE
  5
14B
330
1F
100
AcDbEntity
  8
TopPaste
100
AcDbCircle
 10
3.99999962
 20
14.90000068
 30
0.0
 40
0.0
  0
LINE
  5
14C
330
1F
100
AcDbEntity
  8
TopPaste
100
AcDbLine
 10
5.00320056
 20
14.49360068
 30
0.0
 11
5.00320056
 21
15.30640068
 31
0.0
  0
LINE
  5
14D
330
1F
100
AcDbEntity
  8
TopPaste
100
AcDbLine
 10
5.00320056
 20
15.30640068
 30
0.0
 11
4.59680056
 21
15.30640068
 31
0.0
  0
LINE
  5
14E
330
1F
100
AcDbEntity
  8
TopPaste
100
AcDbLine
 10
4.59680056
 20
15.30640068
 30
0.0
 11
4.59680056
 21
14.49360068
 31
0.0
  0
LINE
  5
14F
330
1F
100
AcDbEntity
  8
TopPaste
100
AcDbLine
 10
4.59680056
 20
14.49360068
 30
0.0
 11
5.00320056
 21
14.49360068
 31
0.0
  0
CIRCLE
  5
150
330
1F
100
AcDbEntity
  8
TopPaste
100
AcDbCircle
 10
4.800000559999999
 20
14.90000068
 30
0.0
 40
0.0
  0
LINE
  5
151
330
1F
100
AcDbEntity
  8
TopPaste
100
AcDbLine
 10
6.306398359999999
 20
14.20319994
 30
0.0
 11
5.493598359999999
 21
14.20319994
 31
0.0
  0
LINE
  5
152
330
1F
100
AcDbEntity
  8
TopPaste
100
AcDbLine
 10
5.493598359999999
 20
14.20319994
 30
0.0
 11
5.493598359999999
 21
13.79679994
 31
0.0
  0
LINE
  5
153
330
1F
100
AcDbEntity
  8
TopPaste
100
AcDbLine
 10
5.493598359999999
 20
13.79679994
 30
0.0
 11
6.306398359999999
 21
13.79679994
 31
0.0
  0
LINE
  5
154
330
1F
100
AcDbEntity
  8
TopPaste
100
AcDbLine
 10
6.306398359999999
 20
13.79679994
 30
0.0
 11
6.306398359999999
 21
14.20319994
 31
0.0
  0
CIRCLE
  5
155
330
1F
100
AcDbEntity
  8
TopPaste
100
AcDbCircle
 10
5.89999836
 20
13.99999994
 30
0.0
 40
0.0
  0
LINE
  5
156
330
1F
100
AcDbEntity
  8
TopPaste
100
AcDbLine
 10
6.306398359999999
 20
13.403199
 30
0.0
 11
5.493598359999999
 21
13.403199
 31
0.0
  0
LINE
  5
157
330
1F
100
AcDbEntity
  8
TopPaste
100
AcDbLine
 10
5.493598359999999
 20
13.403199
 30
0.0
 11
5.493598359999999
 21
12.996799
 31
0.0
  0
LINE
  5
158
330
1F
100
AcDbEntity
  8
TopPaste
100
AcDbLine
 10
5.493598359999999
 20
12.996799
 30
0.0
 11
6.306398359999999
 21
12.996799
 31
0.0
  0
LINE
  5
159
330
1F
100
AcDbEntity
  8
TopPaste
100
AcDbLine
 10
6.306398359999999
 20
12.996799
 30
0.0
 11
6.306398359999999
 21
13.403199
 31
0.0
  0
CIRCLE
  5
15A
330
1F
100
AcDbEntity
  8
TopPaste
100
AcDbCircle
 10
5.89999836
 20
13.199999
 30
0.0
 40
0.0
  0
LINE
  5
15B
330
1F
100
AcDbEntity
  8
TopPaste
100
AcDbLine
 10
6.306398359999999
 20
12.6032006
 30
0.0
 11
5.493598359999999
 21
12.6032006
 31
0.0
  0
LINE
  5
15C
330
1F
100
AcDbEntity
  8
TopPaste
100
AcDbLine
 10
5.493598359999999
 20
12.6032006
 30
0.0
 11
5.493598359999999
 21
12.1968006
 31
0.0
  0
LINE
  5
15D
330
1F
100
AcDbEntity
  8
TopPaste
100
AcDbLine
 10
5.493598359999999
 20
12.1968006
 30
0.0
 11
6.306398359999999
 21
12.1968006
 31
0.0
  0
LINE
  5
15E
330
1F
100
AcDbEntity
  8
TopPaste
100
AcDbLine
 10
6.306398359999999
 20
12.1968006
 30
0.0
 11
6.306398359999999
 21
12.6032006
 31
0.0
  0
CIRCLE
  5
15F
330
1F
100
AcDbEntity
  8
TopPaste
100
AcDbCircle
 10
5.89999836
 20
12.4000006
 30
0.0
 40
0.0
  0
LINE
  5
160
330
1F
100
AcDbEntity
  8
TopPaste
100
AcDbLine
 10
6.306398359999999
 20
11.80319966
 30
0.0
 11
5.493598359999999
 21
11.80319966
 31
0.0
  0
LINE
  5
161
330
1F
100
AcDbEntity
  8
TopPaste
100
AcDbLine
 10
5.493598359999999
 20
11.80319966
 30
0.0
 11
5.493598359999999
 21
11.39679966
 31
0.0
  0
LINE
  5
162
330
1F
100
AcDbEntity
  8
TopPaste
100
AcDbLine
 10
5.493598359999999
 20
11.39679966
 30
0.0
 11
6.306398359999999
 21
11.39679966
 31
0.0
  0
LINE
  5
163
330
1F
100
AcDbEntity
  8
TopPaste
100
AcDbLine
 10
6.306398359999999
 20
11.39679966
 30
0.0
 11
6.306398359999999
 21
11.80319966
 31
0.0
  0
CIRCLE
  5
164
330
1F
100
AcDbEntity
  8
TopPaste
100
AcDbCircle
 10
5.89999836
 20
11.59999966
 30
0.0
 40
0.0
  0
LINE
  5
165
330
1F
100
AcDbEntity
  8
TopPaste
100
AcDbLine
 10
6.306398359999999
 20
11.00320126
 30
0.0
 11
5.493598359999999
 21
11.00320126
 31
0.0
  0
LINE
  5
166
330
1F
100
AcDbEntity
  8
TopPaste
100
AcDbLine
 10
5.493598359999999
 20
11.00320126
 30
0.0
 11
5.493598359999999
 21
10.59680126
 31
0.0
  0
LINE
  5
167
330
1F
100
AcDbEntity
  8
TopPaste
100
AcDbLine
 10
5.493598359999999
 20
10.59680126
 30
0.0
 11
6.306398359999999
 21
10.59680126
 31
0.0
  0
LINE
  5
168
330
1F
100
AcDbEntity
  8
TopPaste
100
AcDbLine
 10
6.306398359999999
 20
10.59680126
 30
0.0
 11
6.306398359999999
 21
11.00320126
 31
0.0
  0
CIRCLE
  5
169
330
1F
100
AcDbEntity
  8
TopPaste
100
AcDbCircle
 10
5.89999836
 20
10.80000126
 30
0.0
 40
0.0
  0
LINE
  5
16A
330
1F
100
AcDbEntity
  8
TopPaste
100
AcDbLine
 10
6.306398359999999
 20
10.20320032
 30
0.0
 11
5.493598359999999
 21
10.20320032
 31
0.0
  0
LINE
  5
16B
330
1F
100
AcDbEntity
  8
TopPaste
100
AcDbLine
 10
5.493598359999999
 20
10.20320032
 30
0.0
 11
5.493598359999999
 21
9.79680032
 31
0.0
  0
LINE
  5
16C
330
1F
100
AcDbEntity
  8
TopPaste
100
AcDbLine
 10
5.493598359999999
 20
9.79680032
 30
0.0
 11
6.306398359999999
 21
9.79680032
 31
0.0
  0
LINE
  5
16D
330
1F
100
AcDbEntity
  8
TopPaste
100
AcDbLine
 10
6.306398359999999
 20
9.79680032
 30
0.0
 11
6.306398359999999
 21
10.20320032
 31
0.0
  0
CIRCLE
  5
16E
330
1F
100
AcDbEntity
  8
TopPaste
100
AcDbCircle
 10
5.89999836
 20
10.00000032
 30
0.0
 40
0.0
  0
LINE
  5
16F
330
1F
100
AcDbEntity
  8
TopPaste
100
AcDbLine
 10
6.306398359999999
 20
9.40319938
 30
0.0
 11
5.493598359999999
 21
9.40319938
 31
0.0
  0
LINE
  5
170
330
1F
100
AcDbEntity
  8
TopPaste
100
AcDbLine
 10
5.493598359999999
 20
9.40319938
 30
0.0
 11
5.493598359999999
 21
8.996799379999999
 31
0.0
  0
LINE
  5
171
330
1F
100
AcDbEntity
  8
TopPaste
100
AcDbLine
 10
5.493598359999999
 20
8.996799379999999
 30
0.0
 11
6.306398359999999
 21
8.996799379999999
 31
0.0
  0
LINE
  5
172
330
1F
100
AcDbEntity
  8
TopPaste
100
AcDbLine
 10
6.306398359999999
 20
8.996799379999999
 30
0.0
 11
6.306398359999999
 21
9.40319938
 31
0.0
  0
CIRCLE
  5
173
330
1F
100
AcDbEntity
  8
TopPaste
100
AcDbCircle
 10
5.89999836
 20
9.19999938
 30
0.0
 40
0.0
  0
LINE
  5
174
330
1F
100
AcDbEntity
  8
TopPaste
100
AcDbLine
 10
6.306398359999999
 20
8.603200979999999
 30
0.0
 11
5.493598359999999
 21
8.603200979999999
 31
0.0
  0
LINE
  5
175
330
1F
100
AcDbEntity
  8
TopPaste
100
AcDbLine
 10
5.493598359999999
 20
8.603200979999999
 30
0.0
 11
5.493598359999999
 21
8.19680098
 31
0.0
  0
LINE
  5
176
330
1F
100
AcDbEntity
  8
TopPaste
100
AcDbLine
 10
5.493598359999999
 20
8.19680098
 30
0.0
 11
6.306398359999999
 21
8.19680098
 31
0.0
  0
LINE
  5
177
330
1F
100
AcDbEntity
  8
TopPaste
100
AcDbLine
 10
6.306398359999999
 20
8.19680098
 30
0.0
 11
6.306398359999999
 21
8.603200979999999
 31
0.0
  0
CIRCLE
  5
178
330
1F
100
AcDbEntity
  8
TopPaste
100
AcDbCircle
 10
5.89999836
 20
8.40000098
 30
0.0
 40
0.0
  0
LINE
  5
179
330
1F
100
AcDbEntity
  8
TopPaste
100
AcDbLine
 10
6.306398359999999
 20
7.803200039999999
 30
0.0
 11
5.493598359999999
 21
7.803200039999999
 31
0.0
  0
LINE
  5
17A
330
1F
100
AcDbEntity
  8
TopPaste
100
AcDbLine
 10
5.493598359999999
 20
7.803200039999999
 30
0.0
 11
5.493598359999999
 21
7.39680004
 31
0.0
  0
LINE
  5
17B
330
1F
100
AcDbEntity
  8
TopPaste
100
AcDbLine
 10
5.493598359999999
 20
7.39680004
 30
0.0
 11
6.306398359999999
 21
7.39680004
 31
0.0
  0
LINE
  5
17C
330
1F
100
AcDbEntity
  8
TopPaste
100
AcDbLine
 10
6.306398359999999
 20
7.39680004
 30
0.0
 11
6.306398359999999
 21
7.803200039999999
 31
0.0
  0
CIRCLE
  5
17D
330
1F
100
AcDbEntity
  8
TopPaste
100
AcDbCircle
 10
5.89999836
 20
7.600000039999999
 30
0.0
 40
0.0
  0
LINE
  5
17E
330
1F
100
AcDbEntity
  8
TopPaste
100
AcDbLine
 10
6.306398359999999
 20
7.003201639999999
 30
0.0
 11
5.493598359999999
 21
7.003201639999999
 31
0.0
  0
LINE
  5
17F
330
1F
100
AcDbEntity
  8
TopPaste
100
AcDbLine
 10
5.493598359999999
 20
7.003201639999999
 30
0.0
 11
5.493598359999999
 21
6.59680164
 31
0.0
  0
LINE
  5
180
330
1F
100
AcDbEntity
  8
TopPaste
100
AcDbLine
 10
5.493598359999999
 20
6.59680164
 30
0.0
 11
6.306398359999999
 21
6.59680164
 31
0.0
  0
LINE
  5
181
330
1F
100
AcDbEntity
  8
TopPaste
100
AcDbLine
 10
6.306398359999999
 20
6.59680164
 30
0.0
 11
6.306398359999999
 21
7.003201639999999
 31
0.0
  0
CIRCLE
  5
182
330
1F
100
AcDbEntity
  8
TopPaste
100
AcDbCircle
 10
5.89999836
 20
6.800001640000001
 30
0.0
 40
0.0
  0
LINE
  5
183
330
1F
100
AcDbEntity
  8
TopPaste
100
AcDbLine
 10
6.306398359999999
 20
6.2032007
 30
0.0
 11
5.493598359999999
 21
6.2032007
 31
0.0
  0
LINE
  5
184
330
1F
100
AcDbEntity
  8
TopPaste
100
AcDbLine
 10
5.493598359999999
 20
6.2032007
 30
0.0
 11
5.493598359999999
 21
5.796800699999999
 31
0.0
  0
LINE
  5
185
330
1F
100
AcDbEntity
  8
TopPaste
100
AcDbLine
 10
5.493598359999999
 20
5.796800699999999
 30
0.0
 11
6.306398359999999
 21
5.796800699999999
 31
0.0
  0
LINE
  5
186
330
1F
100
AcDbEntity
  8
TopPaste
100
AcDbLine
 10
6.306398359999999
 20
5.796800699999999
 30
0.0
 11
6.306398359999999
 21
6.2032007
 31
0.0
  0
CIRCLE
  5
187
330
1F
100
AcDbEntity
  8
TopPaste
100
AcDbCircle
 10
5.89999836
 20
6.000000699999999
 30
0.0
 40
0.0
  0
LINE
  5
188
330
1F
100
AcDbEntity
  8
TopPaste
100
AcDbLine
 10
5.003198019999999
 20
4.693599959999999
 30
0.0
 11
5.003198019999999
 21
5.50639996
 31
0.0
  0
LINE
  5
189
330
1F
100
AcDbEntity
  8
TopPaste
100
AcDbLine
 10
5.003198019999999
 20
5.50639996
 30
0.0
 11
4.59679802
 21
5.50639996
 31
0.0
  0
LINE
  5
18A
330
1F
100
AcDbEntity
  8
TopPaste
100
AcDbLine
 10
4.59679802
 20
5.50639996
 30
0.0
 11
4.59679802
 21
4.693599959999999
 31
0.0
  0
LINE
  5
18B
330
1F
100
AcDbEntity
  8
TopPaste
100
AcDbLine
 10
4.59679802
 20
4.693599959999999
 30
0.0
 11
5.003198019999999
 21
4.693599959999999
 31
0.0
  0
CIRCLE
  5
18C
330
1F
100
AcDbEntity
  8
TopPaste
100
AcDbCircle
 10
4.79999802
 20
5.09999996
 30
0.0
 40
0.0
  0
LINE
  5
18D
330
1F
100
AcDbEntity
  8
TopPaste
100
AcDbLine
 10
4.203199619999999
 20
4.693599959999999
 30
0.0
 11
4.203199619999999
 21
5.50639996
 31
0.0
  0
LINE
  5
18E
330
1F
100
AcDbEntity
  8
TopPaste
100
AcDbLine
 10
4.203199619999999
 20
5.50639996
 30
0.0
 11
3.79679962
 21
5.50639996
 31
0.0
  0
LINE
  5
18F
330
1F
100
AcDbEntity
  8
TopPaste
100
AcDbLine
 10
3.79679962
 20
5.50639996
 30
0.0
 11
3.79679962
 21
4.693599959999999
 31
0.0
  0
LINE
  5
190
330
1F
100
AcDbEntity
  8
TopPaste
100
AcDbLine
 10
3.79679962
 20
4.693599959999999
 30
0.0
 11
4.203199619999999
 21
4.693599959999999
 31
0.0
  0
CIRCLE
  5
191
330
1F
100
AcDbEntity
  8
TopPaste
100
AcDbCircle
 10
3.99999962
 20
5.09999996
 30
0.0
 40
0.0
  0
LINE
  5
192
330
1F
100
AcDbEntity
  8
TopPaste
100
AcDbLine
 10
3.40319868
 20
4.693599959999999
 30
0.0
 11
3.40319868
 21
5.50639996
 31
0.0
  0
LINE
  5
193
330
1F
100
AcDbEntity
  8
TopPaste
100
AcDbLine
 10
3.40319868
 20
5.50639996
 30
0.0
 11
2.99679868
 21
5.50639996
 31
0.0
  0
LINE
  5
194
330
1F
100
AcDbEntity
  8
TopPaste
100
AcDbLine
 10
2.99679868
 20
5.50639996
 30
0.0
 11
2.99679868
 21
4.693599959999999
 31
0.0
  0
LINE
  5
195
330
1F
100
AcDbEntity
  8
TopPaste
100
AcDbLine
 10
2.99679868
 20
4.693599959999999
 30
0.0
 11
3.40319868
 21
4.693599959999999
 31
0.0
  0
CIRCLE
  5
196
330
1F
100
AcDbEntity
  8
TopPaste
100
AcDbCircle
 10
3.19999868
 20
5.09999996
 30
0.0
 40
0.0
  0
LINE
  5
197
330
1F
100
AcDbEntity
  8
TopPaste
100
AcDbLine
 10
2.60320028
 20
4.693599959999999
 30
0.0
 11
2.60320028
 21
5.50639996
 31
0.0
  0
LINE
  5
198
330
1F
100
AcDbEntity
  8
TopPaste
100
AcDbLine
 10
2.60320028
 20
5.50639996
 30
0.0
 11
2.19680028
 21
5.50639996
 31
0.0
  0
LINE
  5
199
330
1F
100
AcDbEntity
  8
TopPaste
100
AcDbLine
 10
2.19680028
 20
5.50639996
 30
0.0
 11
2.19680028
 21
4.693599959999999
 31
0.0
  0
LINE
  5
19A
330
1F
100
AcDbEntity
  8
TopPaste
100
AcDbLine
 10
2.19680028
 20
4.693599959999999
 30
0.0
 11
2.60320028
 21
4.693599959999999
 31
0.0
  0
CIRCLE
  5
19B
330
1F
100
AcDbEntity
  8
TopPaste
100
AcDbCircle
 10
2.40000028
 20
5.09999996
 30
0.0
 40
0.0
  0
LINE
  5
19C
330
1F
100
AcDbEntity
  8
TopPaste
100
AcDbLine
 10
1.80319934
 20
4.693599959999999
 30
0.0
 11
1.80319934
 21
5.50639996
 31
0.0
  0
LINE
  5
19D
330
1F
100
AcDbEntity
  8
TopPaste
100
AcDbLine
 10
1.80319934
 20
5.50639996
 30
0.0
 11
1.39679934
 21
5.50639996
 31
0.0
  0
LINE
  5
19E
330
1F
100
AcDbEntity
  8
TopPaste
100
AcDbLine
 10
1.39679934
 20
5.50639996
 30
0.0
 11
1.39679934
 21
4.693599959999999
 31
0.0
  0
LINE
  5
19F
330
1F
100
AcDbEntity
  8
TopPaste
100
AcDbLine
 10
1.39679934
 20
4.693599959999999
 30
0.0
 11
1.80319934
 21
4.693599959999999
 31
0.0
  0
CIRCLE
  5
1A0
330
1F
100
AcDbEntity
  8
TopPaste
100
AcDbCircle
 10
1.59999934
 20
5.09999996
 30
0.0
 40
0.0
  0
LINE
  5
1A1
330
1F
100
AcDbEntity
  8
TopPaste
100
AcDbLine
 10
1.00320094
 20
4.693599959999999
 30
0.0
 11
1.00320094
 21
5.50639996
 31
0.0
  0
LINE
  5
1A2
330
1F
100
AcDbEntity
  8
TopPaste
100
AcDbLine
 10
1.00320094
 20
5.50639996
 30
0.0
 11
0.59680094
 21
5.50639996
 31
0.0
  0
LINE
  5
1A3
330
1F
100
AcDbEntity
  8
TopPaste
100
AcDbLine
 10
0.59680094
 20
5.50639996
 30
0.0
 11
0.59680094
 21
4.693599959999999
 31
0.0
  0
LINE
  5
1A4
330
1F
100
AcDbEntity
  8
TopPaste
100
AcDbLine
 10
0.59680094
 20
4.693599959999999
 30
0.0
 11
1.00320094
 21
4.693599959999999
 31
0.0
  0
CIRCLE
  5
1A5
330
1F
100
AcDbEntity
  8
TopPaste
100
AcDbCircle
 10
0.8000009399999999
 20
5.09999996
 30
0.0
 40
0.0
  0
LINE
  5
1A6
330
1F
100
AcDbEntity
  8
TopPaste
100
AcDbLine
 10
0.2032
 20
4.693599959999999
 30
0.0
 11
0.2032
 21
5.50639996
 31
0.0
  0
LINE
  5
1A7
330
1F
100
AcDbEntity
  8
TopPaste
100
AcDbLine
 10
0.2032
 20
5.50639996
 30
0.0
 11
-0.2032
 21
5.50639996
 31
0.0
  0
LINE
  5
1A8
330
1F
100
AcDbEntity
  8
TopPaste
100
AcDbLine
 10
-0.2032
 20
5.50639996
 30
0.0
 11
-0.2032
 21
4.693599959999999
 31
0.0
  0
LINE
  5
1A9
330
1F
100
AcDbEntity
  8
TopPaste
100
AcDbLine
 10
-0.2032
 20
4.693599959999999
 30
0.0
 11
0.2032
 21
4.693599959999999
 31
0.0
  0
CIRCLE
  5
1AA
330
1F
100
AcDbEntity
  8
TopPaste
100
AcDbCircle
 10
0.0
 20
5.09999996
 30
0.0
 40
0.0
  0
LINE
  5
1AB
330
1F
100
AcDbEntity
  8
TopPaste
100
AcDbLine
 10
-0.59680094
 20
4.693599959999999
 30
0.0
 11
-0.59680094
 21
5.50639996
 31
0.0
  0
LINE
  5
1AC
330
1F
100
AcDbEntity
  8
TopPaste
100
AcDbLine
 10
-0.59680094
 20
5.50639996
 30
0.0
 11
-1.00320094
 21
5.50639996
 31
0.0
  0
LINE
  5
1AD
330
1F
100
AcDbEntity
  8
TopPaste
100
AcDbLine
 10
-1.00320094
 20
5.50639996
 30
0.0
 11
-1.00320094
 21
4.693599959999999
 31
0.0
  0
LINE
  5
1AE
330
1F
100
AcDbEntity
  8
TopPaste
100
AcDbLine
 10
-1.00320094
 20
4.693599959999999
 30
0.0
 11
-0.59680094
 21
4.693599959999999
 31
0.0
  0
CIRCLE
  5
1AF
330
1F
100
AcDbEntity
  8
TopPaste
100
AcDbCircle
 10
-0.8000009399999999
 20
5.09999996
 30
0.0
 40
0.0
  0
LINE
  5
1B0
330
1F
100
AcDbEntity
  8
TopPaste
100
AcDbLine
 10
-1.39679934
 20
4.693599959999999
 30
0.0
 11
-1.39679934
 21
5.50639996
 31
0.0
  0
LINE
  5
1B1
330
1F
100
AcDbEntity
  8
TopPaste
100
AcDbLine
 10
-1.39679934
 20
5.50639996
 30
0.0
 11
-1.80319934
 21
5.50639996
 31
0.0
  0
LINE
  5
1B2
330
1F
100
AcDbEntity
  8
TopPaste
100
AcDbLine
 10
-1.80319934
 20
5.50639996
 30
0.0
 11
-1.80319934
 21
4.693599959999999
 31
0.0
  0
LINE
  5
1B3
330
1F
100
AcDbEntity
  8
TopPaste
100
AcDbLine
 10
-1.80319934
 20
4.693599959999999
 30
0.0
 11
-1.39679934
 21
4.693599959999999
 31
0.0
  0
CIRCLE
  5
1B4
330
1F
100
AcDbEntity
  8
TopPaste
100
AcDbCircle
 10
-1.59999934
 20
5.09999996
 30
0.0
 40
0.0
  0
LINE
  5
1B5
330
1F
100
AcDbEntity
  8
TopPaste
100
AcDbLine
 10
-2.19680028
 20
4.693599959999999
 30
0.0
 11
-2.19680028
 21
5.50639996
 31
0.0
  0
LINE
  5
1B6
330
1F
100
AcDbEntity
  8
TopPaste
100
AcDbLine
 10
-2.19680028
 20
5.50639996
 30
0.0
 11
-2.60320028
 21
5.50639996
 31
0.0
  0
LINE
  5
1B7
330
1F
100
AcDbEntity
  8
TopPaste
100
AcDbLine
 10
-2.60320028
 20
5.50639996
 30
0.0
 11
-2.60320028
 21
4.693599959999999
 31
0.0
  0
LINE
  5
1B8
330
1F
100
AcDbEntity
  8
TopPaste
100
AcDbLine
 10
-2.60320028
 20
4.693599959999999
 30
0.0
 11
-2.19680028
 21
4.693599959999999
 31
0.0
  0
CIRCLE
  5
1B9
330
1F
100
AcDbEntity
  8
TopPaste
100
AcDbCircle
 10
-2.40000028
 20
5.09999996
 30
0.0
 40
0.0
  0
LINE
  5
1BA
330
1F
100
AcDbEntity
  8
TopPaste
100
AcDbLine
 10
-2.99679868
 20
4.693599959999999
 30
0.0
 11
-2.99679868
 21
5.50639996
 31
0.0
  0
LINE
  5
1BB
330
1F
100
AcDbEntity
  8
TopPaste
100
AcDbLine
 10
-2.99679868
 20
5.50639996
 30
0.0
 11
-3.40319868
 21
5.50639996
 31
0.0
  0
LINE
  5
1BC
330
1F
100
AcDbEntity
  8
TopPaste
100
AcDbLine
 10
-3.40319868
 20
5.50639996
 30
0.0
 11
-3.40319868
 21
4.693599959999999
 31
0.0
  0
LINE
  5
1BD
330
1F
100
AcDbEntity
  8
TopPaste
100
AcDbLine
 10
-3.40319868
 20
4.693599959999999
 30
0.0
 11
-2.99679868
 21
4.693599959999999
 31
0.0
  0
CIRCLE
  5
1BE
330
1F
100
AcDbEntity
  8
TopPaste
100
AcDbCircle
 10
-3.19999868
 20
5.09999996
 30
0.0
 40
0.0
  0
LINE
  5
1BF
330
1F
100
AcDbEntity
  8
TopPaste
100
AcDbLine
 10
-3.79679962
 20
4.693599959999999
 30
0.0
 11
-3.79679962
 21
5.50639996
 31
0.0
  0
LINE
  5
1C0
330
1F
100
AcDbEntity
  8
TopPaste
100
AcDbLine
 10
-3.79679962
 20
5.50639996
 30
0.0
 11
-4.203199619999999
 21
5.50639996
 31
0.0
  0
LINE
  5
1C1
330
1F
100
AcDbEntity
  8
TopPaste
100
AcDbLine
 10
-4.203199619999999
 20
5.50639996
 30
0.0
 11
-4.203199619999999
 21
4.693599959999999
 31
0.0
  0
LINE
  5
1C2
330
1F
100
AcDbEntity
  8
TopPaste
100
AcDbLine
 10
-4.203199619999999
 20
4.693599959999999
 30
0.0
 11
-3.79679962
 21
4.693599959999999
 31
0.0
  0
CIRCLE
  5
1C3
330
1F
100
AcDbEntity
  8
TopPaste
100
AcDbCircle
 10
-3.99999962
 20
5.09999996
 30
0.0
 40
0.0
  0
LINE
  5
1C4
330
1F
100
AcDbEntity
  8
TopPaste
100
AcDbLine
 10
-4.59680056
 20
4.693599959999999
 30
0.0
 11
-4.59680056
 21
5.50639996
 31
0.0
  0
LINE
  5
1C5
330
1F
100
AcDbEntity
  8
TopPaste
100
AcDbLine
 10
-4.59680056
 20
5.50639996
 30
0.0
 11
-5.00320056
 21
5.50639996
 31
0.0
  0
LINE
  5
1C6
330
1F
100
AcDbEntity
  8
TopPaste
100
AcDbLine
 10
-5.00320056
 20
5.50639996
 30
0.0
 11
-5.00320056
 21
4.693599959999999
 31
0.0
  0
LINE
  5
1C7
330
1F
100
AcDbEntity
  8
TopPaste
100
AcDbLine
 10
-5.00320056
 20
4.693599959999999
 30
0.0
 11
-4.59680056
 21
4.693599959999999
 31
0.0
  0
CIRCLE
  5
1C8
330
1F
100
AcDbEntity
  8
TopPaste
100
AcDbCircle
 10
-4.800000559999999
 20
5.09999996
 30
0.0
 40
0.0
  0
LINE
  5
1C9
330
1F
100
AcDbEntity
  8
TopPaste
100
AcDbLine
 10
-5.493598359999999
 20
6.2032007
 30
0.0
 11
-6.306398359999999
 21
6.2032007
 31
0.0
  0
LINE
  5
1CA
330
1F
100
AcDbEntity
  8
TopPaste
100
AcDbLine
 10
-6.306398359999999
 20
6.2032007
 30
0.0
 11
-6.306398359999999
 21
5.796800699999999
 31
0.0
  0
LINE
  5
1CB
330
1F
100
AcDbEntity
  8
TopPaste
100
AcDbLine
 10
-6.306398359999999
 20
5.796800699999999
 30
0.0
 11
-5.493598359999999
 21
5.796800699999999
 31
0.0
  0
LINE
  5
1CC
330
1F
100
AcDbEntity
  8
TopPaste
100
AcDbLine
 10
-5.493598359999999
 20
5.796800699999999
 30
0.0
 11
-5.493598359999999
 21
6.2032007
 31
0.0
  0
CIRCLE
  5
1CD
330
1F
100
AcDbEntity
  8
TopPaste
100
AcDbCircle
 10
-5.89999836
 20
6.000000699999999
 30
0.0
 40
0.0
  0
LINE
  5
1CE
330
1F
100
AcDbEntity
  8
TopPaste
100
AcDbLine
 10
-5.493598359999999
 20
7.003201639999999
 30
0.0
 11
-6.306398359999999
 21
7.003201639999999
 31
0.0
  0
LINE
  5
1CF
330
1F
100
AcDbEntity
  8
TopPaste
100
AcDbLine
 10
-6.306398359999999
 20
7.003201639999999
 30
0.0
 11
-6.306398359999999
 21
6.59680164
 31
0.0
  0
LINE
  5
1D0
330
1F
100
AcDbEntity
  8
TopPaste
100
AcDbLine
 10
-6.306398359999999
 20
6.59680164
 30
0.0
 11
-5.493598359999999
 21
6.59680164
 31
0.0
  0
LINE
  5
1D1
330
1F
100
AcDbEntity
  8
TopPaste
100
AcDbLine
 10
-5.493598359999999
 20
6.59680164
 30
0.0
 11
-5.493598359999999
 21
7.003201639999999
 31
0.0
  0
CIRCLE
  5
1D2
330
1F
100
AcDbEntity
  8
TopPaste
100
AcDbCircle
 10
-5.89999836
 20
6.800001640000001
 30
0.0
 40
0.0
  0
LINE
  5
1D3
330
1F
100
AcDbEntity
  8
TopPaste
100
AcDbLine
 10
-5.493598359999999
 20
7.803200039999999
 30
0.0
 11
-6.306398359999999
 21
7.803200039999999
 31
0.0
  0
LINE
  5
1D4
330
1F
100
AcDbEntity
  8
TopPaste
100
AcDbLine
 10
-6.306398359999999
 20
7.803200039999999
 30
0.0
 11
-6.306398359999999
 21
7.39680004
 31
0.0
  0
LINE
  5
1D5
330
1F
100
AcDbEntity
  8
TopPaste
100
AcDbLine
 10
-6.306398359999999
 20
7.39680004
 30
0.0
 11
-5.493598359999999
 21
7.39680004
 31
0.0
  0
LINE
  5
1D6
330
1F
100
AcDbEntity
  8
TopPaste
100
AcDbLine
 10
-5.493598359999999
 20
7.39680004
 30
0.0
 11
-5.493598359999999
 21
7.803200039999999
 31
0.0
  0
CIRCLE
  5
1D7
330
1F
100
AcDbEntity
  8
TopPaste
100
AcDbCircle
 10
-5.89999836
 20
7.600000039999999
 30
0.0
 40
0.0
  0
LINE
  5
1D8
330
1F
100
AcDbEntity
  8
TopPaste
100
AcDbLine
 10
-5.493598359999999
 20
8.603200979999999
 30
0.0
 11
-6.306398359999999
 21
8.603200979999999
 31
0.0
  0
LINE
  5
1D9
330
1F
100
AcDbEntity
  8
TopPaste
100
AcDbLine
 10
-6.306398359999999
 20
8.603200979999999
 30
0.0
 11
-6.306398359999999
 21
8.19680098
 31
0.0
  0
LINE
  5
1DA
330
1F
100
AcDbEntity
  8
TopPaste
100
AcDbLine
 10
-6.306398359999999
 20
8.19680098
 30
0.0
 11
-5.493598359999999
 21
8.19680098
 31
0.0
  0
LINE
  5
1DB
330
1F
100
AcDbEntity
  8
TopPaste
100
AcDbLine
 10
-5.493598359999999
 20
8.19680098
 30
0.0
 11
-5.493598359999999
 21
8.603200979999999
 31
0.0
  0
CIRCLE
  5
1DC
330
1F
100
AcDbEntity
  8
TopPaste
100
AcDbCircle
 10
-5.89999836
 20
8.40000098
 30
0.0
 40
0.0
  0
LINE
  5
1DD
330
1F
100
AcDbEntity
  8
TopPaste
100
AcDbLine
 10
-5.493598359999999
 20
9.40319938
 30
0.0
 11
-6.306398359999999
 21
9.40319938
 31
0.0
  0
LINE
  5
1DE
330
1F
100
AcDbEntity
  8
TopPaste
100
AcDbLine
 10
-6.306398359999999
 20
9.40319938
 30
0.0
 11
-6.306398359999999
 21
8.996799379999999
 31
0.0
  0
LINE
  5
1DF
330
1F
100
AcDbEntity
  8
TopPaste
100
AcDbLine
 10
-6.306398359999999
 20
8.996799379999999
 30
0.0
 11
-5.493598359999999
 21
8.996799379999999
 31
0.0
  0
LINE
  5
1E0
330
1F
100
AcDbEntity
  8
TopPaste
100
AcDbLine
 10
-5.493598359999999
 20
8.996799379999999
 30
0.0
 11
-5.493598359999999
 21
9.40319938
 31
0.0
  0
CIRCLE
  5
1E1
330
1F
100
AcDbEntity
  8
TopPaste
100
AcDbCircle
 10
-5.89999836
 20
9.19999938
 30
0.0
 40
0.0
  0
LINE
  5
1E2
330
1F
100
AcDbEntity
  8
TopPaste
100
AcDbLine
 10
-5.493598359999999
 20
10.20320032
 30
0.0
 11
-6.306398359999999
 21
10.20320032
 31
0.0
  0
LINE
  5
1E3
330
1F
100
AcDbEntity
  8
TopPaste
100
AcDbLine
 10
-6.306398359999999
 20
10.20320032
 30
0.0
 11
-6.306398359999999
 21
9.79680032
 31
0.0
  0
LINE
  5
1E4
330
1F
100
AcDbEntity
  8
TopPaste
100
AcDbLine
 10
-6.306398359999999
 20
9.79680032
 30
0.0
 11
-5.493598359999999
 21
9.79680032
 31
0.0
  0
LINE
  5
1E5
330
1F
100
AcDbEntity
  8
TopPaste
100
AcDbLine
 10
-5.493598359999999
 20
9.79680032
 30
0.0
 11
-5.493598359999999
 21
10.20320032
 31
0.0
  0
CIRCLE
  5
1E6
330
1F
100
AcDbEntity
  8
TopPaste
100
AcDbCircle
 10
-5.89999836
 20
10.00000032
 30
0.0
 40
0.0
  0
LINE
  5
1E7
330
1F
100
AcDbEntity
  8
TopPaste
100
AcDbLine
 10
-5.493598359999999
 20
11.00320126
 30
0.0
 11
-6.306398359999999
 21
11.00320126
 31
0.0
  0
LINE
  5
1E8
330
1F
100
AcDbEntity
  8
TopPaste
100
AcDbLine
 10
-6.306398359999999
 20
11.00320126
 30
0.0
 11
-6.306398359999999
 21
10.59680126
 31
0.0
  0
LINE
  5
1E9
330
1F
100
AcDbEntity
  8
TopPaste
100
AcDbLine
 10
-6.306398359999999
 20
10.59680126
 30
0.0
 11
-5.493598359999999
 21
10.59680126
 31
0.0
  0
LINE
  5
1EA
330
1F
100
AcDbEntity
  8
TopPaste
100
AcDbLine
 10
-5.493598359999999
 20
10.59680126
 30
0.0
 11
-5.493598359999999
 21
11.00320126
 31
0.0
  0
CIRCLE
  5
1EB
330
1F
100
AcDbEntity
  8
TopPaste
100
AcDbCircle
 10
-5.89999836
 20
10.80000126
 30
0.0
 40
0.0
  0
LINE
  5
1EC
330
1F
100
AcDbEntity
  8
TopPaste
100
AcDbLine
 10
-5.493598359999999
 20
11.80319966
 30
0.0
 11
-6.306398359999999
 21
11.80319966
 31
0.0
  0
LINE
  5
1ED
330
1F
100
AcDbEntity
  8
TopPaste
100
AcDbLine
 10
-6.306398359999999
 20
11.80319966
 30
0.0
 11
-6.306398359999999
 21
11.39679966
 31
0.0
  0
LINE
  5
1EE
330
1F
100
AcDbEntity
  8
TopPaste
100
AcDbLine
 10
-6.306398359999999
 20
11.39679966
 30
0.0
 11
-5.493598359999999
 21
11.39679966
 31
0.0
  0
LINE
  5
1EF
330
1F
100
AcDbEntity
  8
TopPaste
100
AcDbLine
 10
-5.493598359999999
 20
11.39679966
 30
0.0
 11
-5.493598359999999
 21
11.80319966
 31
0.0
  0
CIRCLE
  5
1F0
330
1F
100
AcDbEntity
  8
TopPaste
100
AcDbCircle
 10
-5.89999836
 20
11.59999966
 30
0.0
 40
0.0
  0
LINE
  5
1F1
330
1F
100
AcDbEntity
  8
TopPaste
100
AcDbLine
 10
-5.493598359999999
 20
12.6032006
 30
0.0
 11
-6.306398359999999
 21
12.6032006
 31
0.0
  0
LINE
  5
1F2
330
1F
100
AcDbEntity
  8
TopPaste
100
AcDbLine
 10
-6.306398359999999
 20
12.6032006
 30
0.0
 11
-6.306398359999999
 21
12.1968006
 31
0.0
  0
LINE
  5
1F3
330
1F
100
AcDbEntity
  8
TopPaste
100
AcDbLine
 10
-6.306398359999999
 20
12.1968006
 30
0.0
 11
-5.493598359999999
 21
12.1968006
 31
0.0
  0
LINE
  5
1F4
330
1F
100
AcDbEntity
  8
TopPaste
100
AcDbLine
 10
-5.493598359999999
 20
12.1968006
 30
0.0
 11
-5.493598359999999
 21
12.6032006
 31
0.0
  0
CIRCLE
  5
1F5
330
1F
100
AcDbEntity
  8
TopPaste
100
AcDbCircle
 10
-5.89999836
 20
12.4000006
 30
0.0
 40
0.0
  0
LINE
  5
1F6
330
1F
100
AcDbEntity
  8
TopPaste
100
AcDbLine
 10
-5.493598359999999
 20
13.403199
 30
0.0
 11
-6.306398359999999
 21
13.403199
 31
0.0
  0
LINE
  5
1F7
330
1F
100
AcDbEntity
  8
TopPaste
100
AcDbLine
 10
-6.306398359999999
 20
13.403199
 30
0.0
 11
-6.306398359999999
 21
12.996799
 31
0.0
  0
LINE
  5
1F8
330
1F
100
AcDbEntity
  8
TopPaste
100
AcDbLine
 10
-6.306398359999999
 20
12.996799
 30
0.0
 11
-5.493598359999999
 21
12.996799
 31
0.0
  0
LINE
  5
1F9
330
1F
100
AcDbEntity
  8
TopPaste
100
AcDbLine
 10
-5.493598359999999
 20
12.996799
 30
0.0
 11
-5.493598359999999
 21
13.403199
 31
0.0
  0
CIRCLE
  5
1FA
330
1F
100
AcDbEntity
  8
TopPaste
100
AcDbCircle
 10
-5.89999836
 20
13.199999
 30
0.0
 40
0.0
  0
LINE
  5
1FB
330
1F
100
AcDbEntity
  8
TopPaste
100
AcDbLine
 10
-5.493598359999999
 20
14.20319994
 30
0.0
 11
-6.306398359999999
 21
14.20319994
 31
0.0
  0
LINE
  5
1FC
330
1F
100
AcDbEntity
  8
TopPaste
100
AcDbLine
 10
-6.306398359999999
 20
14.20319994
 30
0.0
 11
-6.306398359999999
 21
13.79679994
 31
0.0
  0
LINE
  5
1FD
330
1F
100
AcDbEntity
  8
TopPaste
100
AcDbLine
 10
-6.306398359999999
 20
13.79679994
 30
0.0
 11
-5.493598359999999
 21
13.79679994
 31
0.0
  0
LINE
  5
1FE
330
1F
100
AcDbEntity
  8
TopPaste
100
AcDbLine
 10
-5.493598359999999
 20
13.79679994
 30
0.0
 11
-5.493598359999999
 21
14.20319994
 31
0.0
  0
CIRCLE
  5
1FF
330
1F
100
AcDbEntity
  8
TopPaste
100
AcDbCircle
 10
-5.89999836
 20
13.99999994
 30
0.0
 40
0.0
  0
LINE
  5
200
330
1F
100
AcDbEntity
  8
TopPaste
100
AcDbLine
 10
-19.19999716
 20
-6.09999796
 30
0.0
 11
-17.79999996
 21
-6.09999796
 31
0.0
  0
LINE
  5
201
330
1F
100
AcDbEntity
  8
TopPaste
100
AcDbLine
 10
-17.75000006
 20
-6.04999806
 30
0.0
 11
-17.75000006
 21
-5.149999859999999
 31
0.0
  0
LINE
  5
202
330
1F
100
AcDbEntity
  8
TopPaste
100
AcDbLine
 10
-17.79999996
 20
-5.09999996
 30
0.0
 11
-19.19999716
 21
-5.09999996
 31
0.0
  0
LINE
  5
203
330
1F
100
AcDbEntity
  8
TopPaste
100
AcDbLine
 10
-19.24999706
 20
-5.149999859999999
 30
0.0
 11
-19.24999706
 21
-6.04999806
 31
0.0
  0
ARC
  5
204
330
1F
100
AcDbEntity
  8
TopPaste
100
AcDbCircle
 10
-19.19999716
 20
-6.04999806
 30
0.0
 40
0.0499999
100
AcDbArc
 50
180.0
 51
270.0
  0
ARC
  5
205
330
1F
100
AcDbEntity
  8
TopPaste
100
AcDbCircle
 10
-17.79999996
 20
-6.04999806
 30
0.0
 40
0.0499999
100
AcDbArc
 50
270.0
 51
0.0
  0
ARC
  5
206
330
1F
100
AcDbEntity
  8
TopPaste
100
AcDbCircle
 10
-17.79999996
 20
-5.149999859999999
 30
0.0
 40
0.0499999
100
AcDbArc
 50
0.0
 51
90.0
  0
ARC
  5
207
330
1F
100
AcDbEntity
  8
TopPaste
100
AcDbCircle
 10
-19.19999716
 20
-5.149999859999999
 30
0.0
 40
0.0499999
100
AcDbArc
 50
90.0
 51
180.0
  0
CIRCLE
  5
208
330
1F
100
AcDbEntity
  8
TopPaste
100
AcDbCircle
 10
-18.49999856
 20
-5.59999896
 30
0.0
 40
0.0
  0
LINE
  5
209
330
1F
100
AcDbEntity
  8
TopPaste
100
AcDbLine
 10
-19.19999716
 20
-2.89999928
 30
0.0
 11
-17.79999996
 21
-2.89999928
 31
0.0
  0
LINE
  5
20A
330
1F
100
AcDbEntity
  8
TopPaste
100
AcDbLine
 10
-17.75000006
 20
-2.84999938
 30
0.0
 11
-17.75000006
 21
-1.95000118
 31
0.0
  0
LINE
  5
20B
330
1F
100
AcDbEntity
  8
TopPaste
100
AcDbLine
 10
-17.79999996
 20
-1.90000128
 30
0.0
 11
-19.19999716
 21
-1.90000128
 31
0.0
  0
LINE
  5
20C
330
1F
100
AcDbEntity
  8
TopPaste
100
AcDbLine
 10
-19.24999706
 20
-1.95000118
 30
0.0
 11
-19.24999706
 21
-2.84999938
 31
0.0
  0
ARC
  5
20D
330
1F
100
AcDbEntity
  8
TopPaste
100
AcDbCircle
 10
-19.19999716
 20
-2.84999938
 30
0.0
 40
0.0499999
100
AcDbArc
 50
180.0
 51
270.0
  0
ARC
  5
20E
330
1F
100
AcDbEntity
  8
TopPaste
100
AcDbCircle
 10
-17.79999996
 20
-2.84999938
 30
0.0
 40
0.0499999
100
AcDbArc
 50
270.0
 51
0.0
  0
ARC
  5
20F
330
1F
100
AcDbEntity
  8
TopPaste
100
AcDbCircle
 10
-17.79999996
 20
-1.95000118
 30
0.0
 40
0.0499999
100
AcDbArc
 50
0.0
 51
90.0
  0
ARC
  5
210
330
1F
100
AcDbEntity
  8
TopPaste
100
AcDbCircle
 10
-19.19999716
 20
-1.95000118
 30
0.0
 40
0.0499999
100
AcDbArc
 50
90.0
 51
180.0
  0
CIRCLE
  5
211
330
1F
100
AcDbEntity
  8
TopPaste
100
AcDbCircle
 10
-18.49999856
 20
-2.40000028
 30
0.0
 40
0.0
  0
LINE
  5
212
330
1F
100
AcDbEntity
  8
TopPaste
100
AcDbLine
 10
-9.660001
 20
-7.69999984
 30
0.0
 11
-10.33999964
 21
-7.69999984
 31
0.0
  0
LINE
  5
213
330
1F
100
AcDbEntity
  8
TopPaste
100
AcDbLine
 10
-10.39999952
 20
-7.75999972
 30
0.0
 11
-10.39999952
 21
-8.53999816
 31
0.0
  0
LINE
  5
214
330
1F
100
AcDbEntity
  8
TopPaste
100
AcDbLine
 10
-10.33999964
 20
-8.59999804
 30
0.0
 11
-9.660001
 21
-8.59999804
 31
0.0
  0
LINE
  5
215
330
1F
100
AcDbEntity
  8
TopPaste
100
AcDbLine
 10
-9.600001119999998
 20
-8.53999816
 30
0.0
 11
-9.600001119999998
 21
-7.75999972
 31
0.0
  0
ARC
  5
216
330
1F
100
AcDbEntity
  8
TopPaste
100
AcDbCircle
 10
-9.660001
 20
-7.75999972
 30
0.0
 40
0.05999988
100
AcDbArc
 50
0.0
 51
90.0
  0
ARC
  5
217
330
1F
100
AcDbEntity
  8
TopPaste
100
AcDbCircle
 10
-10.33999964
 20
-7.75999972
 30
0.0
 40
0.05999988
100
AcDbArc
 50
90.0
 51
180.0
  0
ARC
  5
218
330
1F
100
AcDbEntity
  8
TopPaste
100
AcDbCircle
 10
-10.33999964
 20
-8.53999816
 30
0.0
 40
0.05999988
100
AcDbArc
 50
180.0
 51
270.0
  0
ARC
  5
219
330
1F
100
AcDbEntity
  8
TopPaste
100
AcDbCircle
 10
-9.660001
 20
-8.53999816
 30
0.0
 40
0.05999988
100
AcDbArc
 50
270.0
 51
0.0
  0
CIRCLE
  5
21A
330
1F
100
AcDbEntity
  8
TopPaste
100
AcDbCircle
 10
-10.00000032
 20
-8.14999894
 30
0.0
 40
0.0
  0
LINE
  5
21B
330
1F
100
AcDbEntity
  8
TopPaste
100
AcDbLine
 10
-9.660001
 20
-9.39999898
 30
0.0
 11
-10.33999964
 21
-9.39999898
 31
0.0
  0
LINE
  5
21C
330
1F
100
AcDbEntity
  8
TopPaste
100
AcDbLine
 10
-10.39999952
 20
-9.45999886
 30
0.0
 11
-10.39999952
 21
-10.2399973
 31
0.0
  0
LINE
  5
21D
330
1F
100
AcDbEntity
  8
TopPaste
100
AcDbLine
 10
-10.33999964
 20
-10.29999718
 30
0.0
 11
-9.660001
 21
-10.29999718
 31
0.0
  0
LINE
  5
21E
330
1F
100
AcDbEntity
  8
TopPaste
100
AcDbLine
 10
-9.600001119999998
 20
-10.2399973
 30
0.0
 11
-9.600001119999998
 21
-9.45999886
 31
0.0
  0
ARC
  5
21F
330
1F
100
AcDbEntity
  8
TopPaste
100
AcDbCircle
 10
-9.660001
 20
-9.45999886
 30
0.0
 40
0.05999988
100
AcDbArc
 50
0.0
 51
90.0
  0
ARC
  5
220
330
1F
100
AcDbEntity
  8
TopPaste
100
AcDbCircle
 10
-10.33999964
 20
-9.45999886
 30
0.0
 40
0.05999988
100
AcDbArc
 50
90.0
 51
180.0
  0
ARC
  5
221
330
1F
100
AcDbEntity
  8
TopPaste
100
AcDbCircle
 10
-10.33999964
 20
-10.2399973
 30
0.0
 40
0.05999988
100
AcDbArc
 50
180.0
 51
270.0
  0
ARC
  5
222
330
1F
100
AcDbEntity
  8
TopPaste
100
AcDbCircle
 10
-9.660001
 20
-10.2399973
 30
0.0
 40
0.05999988
100
AcDbArc
 50
270.0
 51
0.0
  0
CIRCLE
  5
223
330
1F
100
AcDbEntity
  8
TopPaste
100
AcDbCircle
 10
-10.00000032
 20
-9.849998079999999
 30
0.0
 40
0.0
  0
LINE
  5
224
330
1F
100
AcDbEntity
  8
TopPaste
100
AcDbLine
 10
-14.19999954
 20
-5.56000158
 30
0.0
 11
-14.19999954
 21
-6.24000022
 31
0.0
  0
LINE
  5
225
330
1F
100
AcDbEntity
  8
TopPaste
100
AcDbLine
 10
-14.13999966
 20
-6.300000099999999
 30
0.0
 11
-13.36000122
 21
-6.300000099999999
 31
0.0
  0
LINE
  5
226
330
1F
100
AcDbEntity
  8
TopPaste
100
AcDbLine
 10
-13.30000134
 20
-6.24000022
 30
0.0
 11
-13.30000134
 21
-5.56000158
 31
0.0
  0
LINE
  5
227
330
1F
100
AcDbEntity
  8
TopPaste
100
AcDbLine
 10
-13.36000122
 20
-5.500001699999999
 30
0.0
 11
-14.13999966
 21
-5.500001699999999
 31
0.0
  0
ARC
  5
228
330
1F
100
AcDbEntity
  8
TopPaste
100
AcDbCircle
 10
-14.13999966
 20
-5.56000158
 30
0.0
 40
0.05999988
100
AcDbArc
 50
90.0
 51
180.0
  0
ARC
  5
229
330
1F
100
AcDbEntity
  8
TopPaste
100
AcDbCircle
 10
-14.13999966
 20
-6.24000022
 30
0.0
 40
0.05999988
100
AcDbArc
 50
180.0
 51
270.0
  0
ARC
  5
22A
330
1F
100
AcDbEntity
  8
TopPaste
100
AcDbCircle
 10
-13.36000122
 20
-6.24000022
 30
0.0
 40
0.05999988
100
AcDbArc
 50
270.0
 51
0.0
  0
ARC
  5
22B
330
1F
100
AcDbEntity
  8
TopPaste
100
AcDbCircle
 10
-13.36000122
 20
-5.56000158
 30
0.0
 40
0.05999988
100
AcDbArc
 50
0.0
 51
90.0
  0
CIRCLE
  5
22C
330
1F
100
AcDbEntity
  8
TopPaste
100
AcDbCircle
 10
-13.75000044
 20
-5.900000899999999
 30
0.0
 40
0.0
  0
LINE
  5
22D
330
1F
100
AcDbEntity
  8
TopPaste
100
AcDbLine
 10
-15.89999868
 20
-5.56000158
 30
0.0
 11
-15.89999868
 21
-6.24000022
 31
0.0
  0
LINE
  5
22E
330
1F
100
AcDbEntity
  8
TopPaste
100
AcDbLine
 10
-15.8399988
 20
-6.300000099999999
 30
0.0
 11
-15.06000036
 21
-6.300000099999999
 31
0.0
  0
LINE
  5
22F
330
1F
100
AcDbEntity
  8
TopPaste
100
AcDbLine
 10
-15.00000048
 20
-6.24000022
 30
0.0
 11
-15.00000048
 21
-5.56000158
 31
0.0
  0
LINE
  5
230
330
1F
100
AcDbEntity
  8
TopPaste
100
AcDbLine
 10
-15.06000036
 20
-5.500001699999999
 30
0.0
 11
-15.8399988
 21
-5.500001699999999
 31
0.0
  0
ARC
  5
231
330
1F
100
AcDbEntity
  8
TopPaste
100
AcDbCircle
 10
-15.8399988
 20
-5.56000158
 30
0.0
 40
0.05999988
100
AcDbArc
 50
90.0
 51
180.0
  0
ARC
  5
232
330
1F
100
AcDbEntity
  8
TopPaste
100
AcDbCircle
 10
-15.8399988
 20
-6.24000022
 30
0.0
 40
0.05999988
100
AcDbArc
 50
180.0
 51
270.0
  0
ARC
  5
233
330
1F
100
AcDbEntity
  8
TopPaste
100
AcDbCircle
 10
-15.06000036
 20
-6.24000022
 30
0.0
 40
0.05999988
100
AcDbArc
 50
270.0
 51
0.0
  0
ARC
  5
234
330
1F
100
AcDbEntity
  8
TopPaste
100
AcDbCircle
 10
-15.06000036
 20
-5.56000158
 30
0.0
 40
0.05999988
100
AcDbArc
 50
0.0
 51
90.0
  0
CIRCLE
  5
235
330
1F
100
AcDbEntity
  8
TopPaste
100
AcDbCircle
 10
-15.44999958
 20
-5.900000899999999
 30
0.0
 40
0.0
  0
LINE
  5
236
330
1F
100
AcDbEntity
  8
TopPaste
100
AcDbLine
 10
-13.2999988
 20
10.16
 30
0.0
 11
-13.2999988
 21
10.83999864
 31
0.0
  0
LINE
  5
237
330
1F
100
AcDbEntity
  8
TopPaste
100
AcDbLine
 10
-13.35999868
 20
10.89999852
 30
0.0
 11
-14.13999712
 21
10.89999852
 31
0.0
  0
LINE
  5
238
330
1F
100
AcDbEntity
  8
TopPaste
100
AcDbLine
 10
-14.199997
 20
10.83999864
 30
0.0
 11
-14.199997
 21
10.16
 31
0.0
  0
LINE
  5
239
330
1F
100
AcDbEntity
  8
TopPaste
100
AcDbLine
 10
-14.13999712
 20
10.10000012
 30
0.0
 11
-13.35999868
 21
10.10000012
 31
0.0
  0
ARC
  5
23A
330
1F
100
AcDbEntity
  8
TopPaste
100
AcDbCircle
 10
-13.35999868
 20
10.16
 30
0.0
 40
0.05999988
100
AcDbArc
 50
270.0
 51
0.0
  0
ARC
  5
23B
330
1F
100
AcDbEntity
  8
TopPaste
100
AcDbCircle
 10
-13.35999868
 20
10.83999864
 30
0.0
 40
0.05999988
100
AcDbArc
 50
0.0
 51
90.0
  0
ARC
  5
23C
330
1F
100
AcDbEntity
  8
TopPaste
100
AcDbCircle
 10
-14.13999712
 20
10.83999864
 30
0.0
 40
0.05999988
100
AcDbArc
 50
90.0
 51
180.0
  0
ARC
  5
23D
330
1F
100
AcDbEntity
  8
TopPaste
100
AcDbCircle
 10
-14.13999712
 20
10.16
 30
0.0
 40
0.05999988
100
AcDbArc
 50
180.0
 51
270.0
  0
CIRCLE
  5
23E
330
1F
100
AcDbEntity
  8
TopPaste
100
AcDbCircle
 10
-13.7499979
 20
10.49999932
 30
0.0
 40
0.0
  0
LINE
  5
23F
330
1F
100
AcDbEntity
  8
TopPaste
100
AcDbLine
 10
-14.99999794
 20
10.16
 30
0.0
 11
-14.99999794
 21
10.83999864
 31
0.0
  0
LINE
  5
240
330
1F
100
AcDbEntity
  8
TopPaste
100
AcDbLine
 10
-15.05999782
 20
10.89999852
 30
0.0
 11
-15.83999626
 21
10.89999852
 31
0.0
  0
LINE
  5
241
330
1F
100
AcDbEntity
  8
TopPaste
100
AcDbLine
 10
-15.89999614
 20
10.83999864
 30
0.0
 11
-15.89999614
 21
10.16
 31
0.0
  0
LINE
  5
242
330
1F
100
AcDbEntity
  8
TopPaste
100
AcDbLine
 10
-15.83999626
 20
10.10000012
 30
0.0
 11
-15.05999782
 21
10.10000012
 31
0.0
  0
ARC
  5
243
330
1F
100
AcDbEntity
  8
TopPaste
100
AcDbCircle
 10
-15.05999782
 20
10.16
 30
0.0
 40
0.05999988
100
AcDbArc
 50
270.0
 51
0.0
  0
ARC
  5
244
330
1F
100
AcDbEntity
  8
TopPaste
100
AcDbCircle
 10
-15.05999782
 20
10.83999864
 30
0.0
 40
0.05999988
100
AcDbArc
 50
0.0
 51
90.0
  0
ARC
  5
245
330
1F
100
AcDbEntity
  8
TopPaste
100
AcDbCircle
 10
-15.83999626
 20
10.83999864
 30
0.0
 40
0.05999988
100
AcDbArc
 50
90.0
 51
180.0
  0
ARC
  5
246
330
1F
100
AcDbEntity
  8
TopPaste
100
AcDbCircle
 10
-15.83999626
 20
10.16
 30
0.0
 40
0.05999988
100
AcDbArc
 50
180.0
 51
270.0
  0
CIRCLE
  5
247
330
1F
100
AcDbEntity
  8
TopPaste
100
AcDbCircle
 10
-15.44999704
 20
10.49999932
 30
0.0
 40
0.0
  0
LINE
  5
248
330
1F
100
AcDbEntity
  8
TopPaste
100
AcDbLine
 10
-10.83999864
 20
-2.79999948
 30
0.0
 11
-10.16
 21
-2.79999948
 31
0.0
  0
LINE
  5
249
330
1F
100
AcDbEntity
  8
TopPaste
100
AcDbLine
 10
-10.10000012
 20
-2.7399996
 30
0.0
 11
-10.10000012
 21
-1.96000116
 31
0.0
  0
LINE
  5
24A
330
1F
100
AcDbEntity
  8
TopPaste
100
AcDbLine
 10
-10.16
 20
-1.90000128
 30
0.0
 11
-10.83999864
 21
-1.90000128
 31
0.0
  0
LINE
  5
24B
330
1F
100
AcDbEntity
  8
TopPaste
100
AcDbLine
 10
-10.89999852
 20
-1.96000116
 30
0.0
 11
-10.89999852
 21
-2.7399996
 31
0.0
  0
ARC
  5
24C
330
1F
100
AcDbEntity
  8
TopPaste
100
AcDbCircle
 10
-10.83999864
 20
-2.7399996
 30
0.0
 40
0.05999988
100
AcDbArc
 50
180.0
 51
270.0
  0
ARC
  5
24D
330
1F
100
AcDbEntity
  8
TopPaste
100
AcDbCircle
 10
-10.16
 20
-2.7399996
 30
0.0
 40
0.05999988
100
AcDbArc
 50
270.0
 51
0.0
  0
ARC
  5
24E
330
1F
100
AcDbEntity
  8
TopPaste
100
AcDbCircle
 10
-10.16
 20
-1.96000116
 30
0.0
 40
0.05999988
100
AcDbArc
 50
0.0
 51
90.0
  0
ARC
  5
24F
330
1F
100
AcDbEntity
  8
TopPaste
100
AcDbCircle
 10
-10.83999864
 20
-1.96000116
 30
0.0
 40
0.05999988
100
AcDbArc
 50
90.0
 51
180.0
  0
CIRCLE
  5
250
330
1F
100
AcDbEntity
  8
TopPaste
100
AcDbCircle
 10
-10.49999932
 20
-2.35000038
 30
0.0
 40
0.0
  0
LINE
  5
251
330
1F
100
AcDbEntity
  8
TopPaste
100
AcDbLine
 10
-10.83999864
 20
-1.10000034
 30
0.0
 11
-10.16
 21
-1.10000034
 31
0.0
  0
LINE
  5
252
330
1F
100
AcDbEntity
  8
TopPaste
100
AcDbLine
 10
-10.10000012
 20
-1.04000046
 30
0.0
 11
-10.10000012
 21
-0.26000202
 31
0.0
  0
LINE
  5
253
330
1F
100
AcDbEntity
  8
TopPaste
100
AcDbLine
 10
-10.16
 20
-0.20000214
 30
0.0
 11
-10.83999864
 21
-0.20000214
 31
0.0
  0
LINE
  5
254
330
1F
100
AcDbEntity
  8
TopPaste
100
AcDbLine
 10
-10.89999852
 20
-0.26000202
 30
0.0
 11
-10.89999852
 21
-1.04000046
 31
0.0
  0
ARC
  5
255
330
1F
100
AcDbEntity
  8
TopPaste
100
AcDbCircle
 10
-10.83999864
 20
-1.04000046
 30
0.0
 40
0.05999988
100
AcDbArc
 50
180.0
 51
270.0
  0
ARC
  5
256
330
1F
100
AcDbEntity
  8
TopPaste
100
AcDbCircle
 10
-10.16
 20
-1.04000046
 30
0.0
 40
0.05999988
100
AcDbArc
 50
270.0
 51
0.0
  0
ARC
  5
257
330
1F
100
AcDbEntity
  8
TopPaste
100
AcDbCircle
 10
-10.16
 20
-0.26000202
 30
0.0
 40
0.05999988
100
AcDbArc
 50
0.0
 51
90.0
  0
ARC
  5
258
330
1F
100
AcDbEntity
  8
TopPaste
100
AcDbCircle
 10
-10.83999864
 20
-0.26000202
 30
0.0
 40
0.05999988
100
AcDbArc
 50
90.0
 51
180.0
  0
CIRCLE
  5
259
330
1F
100
AcDbEntity
  8
TopPaste
100
AcDbCircle
 10
-10.49999932
 20
-0.65000124
 30
0.0
 40
0.0
  0
LINE
  5
25A
330
1F
100
AcDbEntity
  8
TopPaste
100
AcDbLine
 10
16.44000014
 20
10.79999872
 30
0.0
 11
15.7600015
 21
10.79999872
 31
0.0
  0
LINE
  5
25B
330
1F
100
AcDbEntity
  8
TopPaste
100
AcDbLine
 10
15.70000162
 20
10.73999884
 30
0.0
 11
15.70000162
 21
9.960000399999998
 31
0.0
  0
LINE
  5
25C
330
1F
100
AcDbEntity
  8
TopPaste
100
AcDbLine
 10
15.7600015
 20
9.900000519999999
 30
0.0
 11
16.44000014
 21
9.900000519999999
 31
0.0
  0
LINE
  5
25D
330
1F
100
AcDbEntity
  8
TopPaste
100
AcDbLine
 10
16.50000002
 20
9.960000399999998
 30
0.0
 11
16.50000002
 21
10.73999884
 31
0.0
  0
ARC
  5
25E
330
1F
100
AcDbEntity
  8
TopPaste
100
AcDbCircle
 10
16.44000014
 20
10.73999884
 30
0.0
 40
0.05999988
100
AcDbArc
 50
0.0
 51
90.0
  0
ARC
  5
25F
330
1F
100
AcDbEntity
  8
TopPaste
100
AcDbCircle
 10
15.7600015
 20
10.73999884
 30
0.0
 40
0.05999988
100
AcDbArc
 50
90.0
 51
180.0
  0
ARC
  5
260
330
1F
100
AcDbEntity
  8
TopPaste
100
AcDbCircle
 10
15.7600015
 20
9.960000399999998
 30
0.0
 40
0.05999988
100
AcDbArc
 50
180.0
 51
270.0
  0
ARC
  5
261
330
1F
100
AcDbEntity
  8
TopPaste
100
AcDbCircle
 10
16.44000014
 20
9.960000399999998
 30
0.0
 40
0.05999988
100
AcDbArc
 50
270.0
 51
0.0
  0
CIRCLE
  5
262
330
1F
100
AcDbEntity
  8
TopPaste
100
AcDbCircle
 10
16.10000082
 20
10.34999962
 30
0.0
 40
0.0
  0
LINE
  5
263
330
1F
100
AcDbEntity
  8
TopPaste
100
AcDbLine
 10
16.44000014
 20
9.09999958
 30
0.0
 11
15.7600015
 21
9.09999958
 31
0.0
  0
LINE
  5
264
330
1F
100
AcDbEntity
  8
TopPaste
100
AcDbLine
 10
15.70000162
 20
9.0399997
 30
0.0
 11
15.70000162
 21
8.26000126
 31
0.0
  0
LINE
  5
265
330
1F
100
AcDbEntity
  8
TopPaste
100
AcDbLine
 10
15.7600015
 20
8.200001379999998
 30
0.0
 11
16.44000014
 21
8.200001379999998
 31
0.0
  0
LINE
  5
266
330
1F
100
AcDbEntity
  8
TopPaste
100
AcDbLine
 10
16.50000002
 20
8.26000126
 30
0.0
 11
16.50000002
 21
9.0399997
 31
0.0
  0
ARC
  5
267
330
1F
100
AcDbEntity
  8
TopPaste
100
AcDbCircle
 10
16.44000014
 20
9.0399997
 30
0.0
 40
0.05999988
100
AcDbArc
 50
0.0
 51
90.0
  0
ARC
  5
268
330
1F
100
AcDbEntity
  8
TopPaste
100
AcDbCircle
 10
15.7600015
 20
9.0399997
 30
0.0
 40
0.05999988
100
AcDbArc
 50
90.0
 51
180.0
  0
ARC
  5
269
330
1F
100
AcDbEntity
  8
TopPaste
100
AcDbCircle
 10
15.7600015
 20
8.26000126
 30
0.0
 40
0.05999988
100
AcDbArc
 50
180.0
 51
270.0
  0
ARC
  5
26A
330
1F
100
AcDbEntity
  8
TopPaste
100
AcDbCircle
 10
16.44000014
 20
8.26000126
 30
0.0
 40
0.05999988
100
AcDbArc
 50
270.0
 51
0.0
  0
CIRCLE
  5
26B
330
1F
100
AcDbEntity
  8
TopPaste
100
AcDbCircle
 10
16.10000082
 20
8.65000048
 30
0.0
 40
0.0
  0
LINE
  5
26C
330
1F
100
AcDbEntity
  8
TopPaste
100
AcDbLine
 10
-7.659999919999999
 20
7.799999639999999
 30
0.0
 11
-8.33999856
 21
7.799999639999999
 31
0.0
  0
LINE
  5
26D
330
1F
100
AcDbEntity
  8
TopPaste
100
AcDbLine
 10
-8.39999844
 20
7.73999976
 30
0.0
 11
-8.39999844
 21
6.960001319999999
 31
0.0
  0
LINE
  5
26E
330
1F
100
AcDbEntity
  8
TopPaste
100
AcDbLine
 10
-8.33999856
 20
6.90000144
 30
0.0
 11
-7.659999919999999
 21
6.90000144
 31
0.0
  0
LINE
  5
26F
330
1F
100
AcDbEntity
  8
TopPaste
100
AcDbLine
 10
-7.600000039999999
 20
6.960001319999999
 30
0.0
 11
-7.600000039999999
 21
7.73999976
 31
0.0
  0
ARC
  5
270
330
1F
100
AcDbEntity
  8
TopPaste
100
AcDbCircle
 10
-7.659999919999999
 20
7.73999976
 30
0.0
 40
0.05999988
100
AcDbArc
 50
0.0
 51
90.0
  0
ARC
  5
271
330
1F
100
AcDbEntity
  8
TopPaste
100
AcDbCircle
 10
-8.33999856
 20
7.73999976
 30
0.0
 40
0.05999988
100
AcDbArc
 50
90.0
 51
180.0
  0
ARC
  5
272
330
1F
100
AcDbEntity
  8
TopPaste
100
AcDbCircle
 10
-8.33999856
 20
6.960001319999999
 30
0.0
 40
0.05999988
100
AcDbArc
 50
180.0
 51
270.0
  0
ARC
  5
273
330
1F
100
AcDbEntity
  8
TopPaste
100
AcDbCircle
 10
-7.659999919999999
 20
6.960001319999999
 30
0.0
 40
0.05999988
100
AcDbArc
 50
270.0
 51
0.0
  0
CIRCLE
  5
274
330
1F
100
AcDbEntity
  8
TopPaste
100
AcDbCircle
 10
-7.999999239999999
 20
7.35000054
 30
0.0
 40
0.0
  0
LINE
  5
275
330
1F
100
AcDbEntity
  8
TopPaste
100
AcDbLine
 10
-7.659999919999999
 20
6.100000499999999
 30
0.0
 11
-8.33999856
 21
6.100000499999999
 31
0.0
  0
LINE
  5
276
330
1F
100
AcDbEntity
  8
TopPaste
100
AcDbLine
 10
-8.39999844
 20
6.040000619999999
 30
0.0
 11
-8.39999844
 21
5.26000218
 31
0.0
  0
LINE
  5
277
330
1F
100
AcDbEntity
  8
TopPaste
100
AcDbLine
 10
-8.33999856
 20
5.2000023
 30
0.0
 11
-7.659999919999999
 21
5.2000023
 31
0.0
  0
LINE
  5
278
330
1F
100
AcDbEntity
  8
TopPaste
100
AcDbLine
 10
-7.600000039999999
 20
5.26000218
 30
0.0
 11
-7.600000039999999
 21
6.040000619999999
 31
0.0
  0
ARC
  5
279
330
1F
100
AcDbEntity
  8
TopPaste
100
AcDbCircle
 10
-7.659999919999999
 20
6.040000619999999
 30
0.0
 40
0.05999988
100
AcDbArc
 50
0.0
 51
90.0
  0
ARC
  5
27A
330
1F
100
AcDbEntity
  8
TopPaste
100
AcDbCircle
 10
-8.33999856
 20
6.040000619999999
 30
0.0
 40
0.05999988
100
AcDbArc
 50
90.0
 51
180.0
  0
ARC
  5
27B
330
1F
100
AcDbEntity
  8
TopPaste
100
AcDbCircle
 10
-8.33999856
 20
5.26000218
 30
0.0
 40
0.05999988
100
AcDbArc
 50
180.0
 51
270.0
  0
ARC
  5
27C
330
1F
100
AcDbEntity
  8
TopPaste
100
AcDbCircle
 10
-7.659999919999999
 20
5.26000218
 30
0.0
 40
0.05999988
100
AcDbArc
 50
270.0
 51
0.0
  0
CIRCLE
  5
27D
330
1F
100
AcDbEntity
  8
TopPaste
100
AcDbCircle
 10
-7.999999239999999
 20
5.6500014
 30
0.0
 40
0.0
  0
LINE
  5
27E
330
1F
100
AcDbEntity
  8
TopPaste
100
AcDbLine
 10
10.33999964
 20
15.54999938
 30
0.0
 11
9.660001
 21
15.54999938
 31
0.0
  0
LINE
  5
27F
330
1F
100
AcDbEntity
  8
TopPaste
100
AcDbLine
 10
9.600001119999998
 20
15.4899995
 30
0.0
 11
9.600001119999998
 21
14.71000106
 31
0.0
  0
LINE
  5
280
330
1F
100
AcDbEntity
  8
TopPaste
100
AcDbLine
 10
9.660001
 20
14.65000118
 30
0.0
 11
10.33999964
 21
14.65000118
 31
0.0
  0
LINE
  5
281
330
1F
100
AcDbEntity
  8
TopPaste
100
AcDbLine
 10
10.39999952
 20
14.71000106
 30
0.0
 11
10.39999952
 21
15.4899995
 31
0.0
  0
ARC
  5
282
330
1F
100
AcDbEntity
  8
TopPaste
100
AcDbCircle
 10
10.33999964
 20
15.4899995
 30
0.0
 40
0.05999988
100
AcDbArc
 50
0.0
 51
90.0
  0
ARC
  5
283
330
1F
100
AcDbEntity
  8
TopPaste
100
AcDbCircle
 10
9.660001
 20
15.4899995
 30
0.0
 40
0.05999988
100
AcDbArc
 50
90.0
 51
180.0
  0
ARC
  5
284
330
1F
100
AcDbEntity
  8
TopPaste
100
AcDbCircle
 10
9.660001
 20
14.71000106
 30
0.0
 40
0.05999988
100
AcDbArc
 50
180.0
 51
270.0
  0
ARC
  5
285
330
1F
100
AcDbEntity
  8
TopPaste
100
AcDbCircle
 10
10.33999964
 20
14.71000106
 30
0.0
 40
0.05999988
100
AcDbArc
 50
270.0
 51
0.0
  0
CIRCLE
  5
286
330
1F
100
AcDbEntity
  8
TopPaste
100
AcDbCircle
 10
10.00000032
 20
15.10000028
 30
0.0
 40
0.0
  0
LINE
  5
287
330
1F
100
AcDbEntity
  8
TopPaste
100
AcDbLine
 10
10.33999964
 20
13.85000024
 30
0.0
 11
9.660001
 21
13.85000024
 31
0.0
  0
LINE
  5
288
330
1F
100
AcDbEntity
  8
TopPaste
100
AcDbLine
 10
9.600001119999998
 20
13.79000036
 30
0.0
 11
9.600001119999998
 21
13.01000192
 31
0.0
  0
LINE
  5
289
330
1F
100
AcDbEntity
  8
TopPaste
100
AcDbLine
 10
9.660001
 20
12.95000204
 30
0.0
 11
10.33999964
 21
12.95000204
 31
0.0
  0
LINE
  5
28A
330
1F
100
AcDbEntity
  8
TopPaste
100
AcDbLine
 10
10.39999952
 20
13.01000192
 30
0.0
 11
10.39999952
 21
13.79000036
 31
0.0
  0
ARC
  5
28B
330
1F
100
AcDbEntity
  8
TopPaste
100
AcDbCircle
 10
10.33999964
 20
13.79000036
 30
0.0
 40
0.05999988
100
AcDbArc
 50
0.0
 51
90.0
  0
ARC
  5
28C
330
1F
100
AcDbEntity
  8
TopPaste
100
AcDbCircle
 10
9.660001
 20
13.79000036
 30
0.0
 40
0.05999988
100
AcDbArc
 50
90.0
 51
180.0
  0
ARC
  5
28D
330
1F
100
AcDbEntity
  8
TopPaste
100
AcDbCircle
 10
9.660001
 20
13.01000192
 30
0.0
 40
0.05999988
100
AcDbArc
 50
180.0
 51
270.0
  0
ARC
  5
28E
330
1F
100
AcDbEntity
  8
TopPaste
100
AcDbCircle
 10
10.33999964
 20
13.01000192
 30
0.0
 40
0.05999988
100
AcDbArc
 50
270.0
 51
0.0
  0
CIRCLE
  5
28F
330
1F
100
AcDbEntity
  8
TopPaste
100
AcDbCircle
 10
10.00000032
 20
13.40000114
 30
0.0
 40
0.0
  0
LINE
  5
290
330
1F
100
AcDbEntity
  8
TopPaste
100
AcDbLine
 10
8.33999856
 20
13.85000024
 30
0.0
 11
7.659999919999999
 21
13.85000024
 31
0.0
  0
LINE
  5
291
330
1F
100
AcDbEntity
  8
TopPaste
100
AcDbLine
 10
7.600000039999999
 20
13.79000036
 30
0.0
 11
7.600000039999999
 21
13.01000192
 31
0.0
  0
LINE
  5
292
330
1F
100
AcDbEntity
  8
TopPaste
100
AcDbLine
 10
7.659999919999999
 20
12.95000204
 30
0.0
 11
8.33999856
 21
12.95000204
 31
0.0
  0
LINE
  5
293
330
1F
100
AcDbEntity
  8
TopPaste
100
AcDbLine
 10
8.39999844
 20
13.01000192
 30
0.0
 11
8.39999844
 21
13.79000036
 31
0.0
  0
ARC
  5
294
330
1F
100
AcDbEntity
  8
TopPaste
100
AcDbCircle
 10
8.33999856
 20
13.79000036
 30
0.0
 40
0.05999988
100
AcDbArc
 50
0.0
 51
90.0
  0
ARC
  5
295
330
1F
100
AcDbEntity
  8
TopPaste
100
AcDbCircle
 10
7.659999919999999
 20
13.79000036
 30
0.0
 40
0.05999988
100
AcDbArc
 50
90.0
 51
180.0
  0
ARC
  5
296
330
1F
100
AcDbEntity
  8
TopPaste
100
AcDbCircle
 10
7.659999919999999
 20
13.01000192
 30
0.0
 40
0.05999988
100
AcDbArc
 50
180.0
 51
270.0
  0
ARC
  5
297
330
1F
100
AcDbEntity
  8
TopPaste
100
AcDbCircle
 10
8.33999856
 20
13.01000192
 30
0.0
 40
0.05999988
100
AcDbArc
 50
270.0
 51
0.0
  0
CIRCLE
  5
298
330
1F
100
AcDbEntity
  8
TopPaste
100
AcDbCircle
 10
7.999999239999999
 20
13.40000114
 30
0.0
 40
0.0
  0
LINE
  5
299
330
1F
100
AcDbEntity
  8
TopPaste
100
AcDbLine
 10
8.33999856
 20
15.54999938
 30
0.0
 11
7.659999919999999
 21
15.54999938
 31
0.0
  0
LINE
  5
29A
330
1F
100
AcDbEntity
  8
TopPaste
100
AcDbLine
 10
7.600000039999999
 20
15.4899995
 30
0.0
 11
7.600000039999999
 21
14.71000106
 31
0.0
  0
LINE
  5
29B
330
1F
100
AcDbEntity
  8
TopPaste
100
AcDbLine
 10
7.659999919999999
 20
14.65000118
 30
0.0
 11
8.33999856
 21
14.65000118
 31
0.0
  0
LINE
  5
29C
330
1F
100
AcDbEntity
  8
TopPaste
100
AcDbLine
 10
8.39999844
 20
14.71000106
 30
0.0
 11
8.39999844
 21
15.4899995
 31
0.0
  0
ARC
  5
29D
330
1F
100
AcDbEntity
  8
TopPaste
100
AcDbCircle
 10
8.33999856
 20
15.4899995
 30
0.0
 40
0.05999988
100
AcDbArc
 50
0.0
 51
90.0
  0
ARC
  5
29E
330
1F
100
AcDbEntity
  8
TopPaste
100
AcDbCircle
 10
7.659999919999999
 20
15.4899995
 30
0.0
 40
0.05999988
100
AcDbArc
 50
90.0
 51
180.0
  0
ARC
  5
29F
330
1F
100
AcDbEntity
  8
TopPaste
100
AcDbCircle
 10
7.659999919999999
 20
14.71000106
 30
0.0
 40
0.05999988
100
AcDbArc
 50
180.0
 51
270.0
  0
ARC
  5
2A0
330
1F
100
AcDbEntity
  8
TopPaste
100
AcDbCircle
 10
8.33999856
 20
14.71000106
 30
0.0
 40
0.05999988
100
AcDbArc
 50
270.0
 51
0.0
  0
CIRCLE
  5
2A1
330
1F
100
AcDbEntity
  8
TopPaste
100
AcDbCircle
 10
7.999999239999999
 20
15.10000028
 30
0.0
 40
0.0
  0
LINE
  5
2A2
330
1F
100
AcDbEntity
  8
TopPaste
100
AcDbLine
 10
-7.659999919999999
 20
11.30000026
 30
0.0
 11
-8.33999856
 21
11.30000026
 31
0.0
  0
LINE
  5
2A3
330
1F
100
AcDbEntity
  8
TopPaste
100
AcDbLine
 10
-8.39999844
 20
11.24000038
 30
0.0
 11
-8.39999844
 21
10.46000194
 31
0.0
  0
LINE
  5
2A4
330
1F
100
AcDbEntity
  8
TopPaste
100
AcDbLine
 10
-8.33999856
 20
10.40000206
 30
0.0
 11
-7.659999919999999
 21
10.40000206
 31
0.0
  0
LINE
  5
2A5
330
1F
100
AcDbEntity
  8
TopPaste
100
AcDbLine
 10
-7.600000039999999
 20
10.46000194
 30
0.0
 11
-7.600000039999999
 21
11.24000038
 31
0.0
  0
ARC
  5
2A6
330
1F
100
AcDbEntity
  8
TopPaste
100
AcDbCircle
 10
-7.659999919999999
 20
11.24000038
 30
0.0
 40
0.05999988
100
AcDbArc
 50
0.0
 51
90.0
  0
ARC
  5
2A7
330
1F
100
AcDbEntity
  8
TopPaste
100
AcDbCircle
 10
-8.33999856
 20
11.24000038
 30
0.0
 40
0.05999988
100
AcDbArc
 50
90.0
 51
180.0
  0
ARC
  5
2A8
330
1F
100
AcDbEntity
  8
TopPaste
100
AcDbCircle
 10
-8.33999856
 20
10.46000194
 30
0.0
 40
0.05999988
100
AcDbArc
 50
180.0
 51
270.0
  0
ARC
  5
2A9
330
1F
100
AcDbEntity
  8
TopPaste
100
AcDbCircle
 10
-7.659999919999999
 20
10.46000194
 30
0.0
 40
0.05999988
100
AcDbArc
 50
270.0
 51
0.0
  0
CIRCLE
  5
2AA
330
1F
100
AcDbEntity
  8
TopPaste
100
AcDbCircle
 10
-7.999999239999999
 20
10.85000116
 30
0.0
 40
0.0
  0
LINE
  5
2AB
330
1F
100
AcDbEntity
  8
TopPaste
100
AcDbLine
 10
-7.659999919999999
 20
9.600001119999998
 30
0.0
 11
-8.33999856
 21
9.600001119999998
 31
0.0
  0
LINE
  5
2AC
330
1F
100
AcDbEntity
  8
TopPaste
100
AcDbLine
 10
-8.39999844
 20
9.540001239999999
 30
0.0
 11
-8.39999844
 21
8.7600028
 31
0.0
  0
LINE
  5
2AD
330
1F
100
AcDbEntity
  8
TopPaste
100
AcDbLine
 10
-8.33999856
 20
8.70000292
 30
0.0
 11
-7.659999919999999
 21
8.70000292
 31
0.0
  0
LINE
  5
2AE
330
1F
100
AcDbEntity
  8
TopPaste
100
AcDbLine
 10
-7.600000039999999
 20
8.7600028
 30
0.0
 11
-7.600000039999999
 21
9.540001239999999
 31
0.0
  0
ARC
  5
2AF
330
1F
100
AcDbEntity
  8
TopPaste
100
AcDbCircle
 10
-7.659999919999999
 20
9.540001239999999
 30
0.0
 40
0.05999988
100
AcDbArc
 50
0.0
 51
90.0
  0
ARC
  5
2B0
330
1F
100
AcDbEntity
  8
TopPaste
100
AcDbCircle
 10
-8.33999856
 20
9.540001239999999
 30
0.0
 40
0.05999988
100
AcDbArc
 50
90.0
 51
180.0
  0
ARC
  5
2B1
330
1F
100
AcDbEntity
  8
TopPaste
100
AcDbCircle
 10
-8.33999856
 20
8.7600028
 30
0.0
 40
0.05999988
100
AcDbArc
 50
180.0
 51
270.0
  0
ARC
  5
2B2
330
1F
100
AcDbEntity
  8
TopPaste
100
AcDbCircle
 10
-7.659999919999999
 20
8.7600028
 30
0.0
 40
0.05999988
100
AcDbArc
 50
270.0
 51
0.0
  0
CIRCLE
  5
2B3
330
1F
100
AcDbEntity
  8
TopPaste
100
AcDbCircle
 10
-7.999999239999999
 20
9.15000202
 30
0.0
 40
0.0
  0
LINE
  5
2B4
330
1F
100
AcDbEntity
  8
TopPaste
100
AcDbLine
 10
-9.19999938
 20
-7.16499964
 30
0.0
 11
-9.19999938
 21
-6.204996479999999
 31
0.0
  0
LINE
  5
2B5
330
1F
100
AcDbEntity
  8
TopPaste
100
AcDbLine
 10
-9.244998019999999
 20
-6.15999784
 30
0.0
 11
-9.754999539999998
 21
-6.15999784
 31
0.0
  0
LINE
  5
2B6
330
1F
100
AcDbEntity
  8
TopPaste
100
AcDbLine
 10
-9.79999818
 20
-6.204996479999999
 30
0.0
 11
-9.79999818
 21
-7.16499964
 31
0.0
  0
LINE
  5
2B7
330
1F
100
AcDbEntity
  8
TopPaste
100
AcDbLine
 10
-9.754999539999998
 20
-7.20999828
 30
0.0
 11
-9.244998019999999
 21
-7.20999828
 31
0.0
  0
ARC
  5
2B8
330
1F
100
AcDbEntity
  8
TopPaste
100
AcDbCircle
 10
-9.244998019999999
 20
-7.16499964
 30
0.0
 40
0.04499864
100
AcDbArc
 50
270.0
 51
0.0
  0
ARC
  5
2B9
330
1F
100
AcDbEntity
  8
TopPaste
100
AcDbCircle
 10
-9.244998019999999
 20
-6.204996479999999
 30
0.0
 40
0.04499864
100
AcDbArc
 50
0.0
 51
90.0
  0
ARC
  5
2BA
330
1F
100
AcDbEntity
  8
TopPaste
100
AcDbCircle
 10
-9.754999539999998
 20
-6.204996479999999
 30
0.0
 40
0.04499864
100
AcDbArc
 50
90.0
 51
180.0
  0
ARC
  5
2BB
330
1F
100
AcDbEntity
  8
TopPaste
100
AcDbCircle
 10
-9.754999539999998
 20
-7.16499964
 30
0.0
 40
0.04499864
100
AcDbArc
 50
180.0
 51
270.0
  0
CIRCLE
  5
2BC
330
1F
100
AcDbEntity
  8
TopPaste
100
AcDbCircle
 10
-9.49999878
 20
-6.68499806
 30
0.0
 40
0.0
  0
LINE
  5
2BD
330
1F
100
AcDbEntity
  8
TopPaste
100
AcDbLine
 10
-10.15000002
 20
-4.795001839999999
 30
0.0
 11
-10.15000002
 21
-3.83499868
 31
0.0
  0
LINE
  5
2BE
330
1F
100
AcDbEntity
  8
TopPaste
100
AcDbLine
 10
-10.19499866
 20
-3.79000004
 30
0.0
 11
-10.70500018
 21
-3.79000004
 31
0.0
  0
LINE
  5
2BF
330
1F
100
AcDbEntity
  8
TopPaste
100
AcDbLine
 10
-10.74999882
 20
-3.83499868
 30
0.0
 11
-10.74999882
 21
-4.795001839999999
 31
0.0
  0
LINE
  5
2C0
330
1F
100
AcDbEntity
  8
TopPaste
100
AcDbLine
 10
-10.70500018
 20
-4.84000048
 30
0.0
 11
-10.19499866
 21
-4.84000048
 31
0.0
  0
ARC
  5
2C1
330
1F
100
AcDbEntity
  8
TopPaste
100
AcDbCircle
 10
-10.19499866
 20
-4.795001839999999
 30
0.0
 40
0.04499864
100
AcDbArc
 50
270.0
 51
0.0
  0
ARC
  5
2C2
330
1F
100
AcDbEntity
  8
TopPaste
100
AcDbCircle
 10
-10.19499866
 20
-3.83499868
 30
0.0
 40
0.04499864
100
AcDbArc
 50
0.0
 51
90.0
  0
ARC
  5
2C3
330
1F
100
AcDbEntity
  8
TopPaste
100
AcDbCircle
 10
-10.70500018
 20
-3.83499868
 30
0.0
 40
0.04499864
100
AcDbArc
 50
90.0
 51
180.0
  0
ARC
  5
2C4
330
1F
100
AcDbEntity
  8
TopPaste
100
AcDbCircle
 10
-10.70500018
 20
-4.795001839999999
 30
0.0
 40
0.04499864
100
AcDbArc
 50
180.0
 51
270.0
  0
CIRCLE
  5
2C5
330
1F
100
AcDbEntity
  8
TopPaste
100
AcDbCircle
 10
-10.44999942
 20
-4.31500026
 30
0.0
 40
0.0
  0
LINE
  5
2C6
330
1F
100
AcDbEntity
  8
TopPaste
100
AcDbLine
 10
-8.24999874
 20
-4.795001839999999
 30
0.0
 11
-8.24999874
 21
-3.83499868
 31
0.0
  0
LINE
  5
2C7
330
1F
100
AcDbEntity
  8
TopPaste
100
AcDbLine
 10
-8.29499738
 20
-3.79000004
 30
0.0
 11
-8.8049989
 21
-3.79000004
 31
0.0
  0
LINE
  5
2C8
330
1F
100
AcDbEntity
  8
TopPaste
100
AcDbLine
 10
-8.849997539999999
 20
-3.83499868
 30
0.0
 11
-8.849997539999999
 21
-4.795001839999999
 31
0.0
  0
LINE
  5
2C9
330
1F
100
AcDbEntity
  8
TopPaste
100
AcDbLine
 10
-8.8049989
 20
-4.84000048
 30
0.0
 11
-8.29499738
 21
-4.84000048
 31
0.0
  0
ARC
  5
2CA
330
1F
100
AcDbEntity
  8
TopPaste
100
AcDbCircle
 10
-8.29499738
 20
-4.795001839999999
 30
0.0
 40
0.04499864
100
AcDbArc
 50
270.0
 51
0.0
  0
ARC
  5
2CB
330
1F
100
AcDbEntity
  8
TopPaste
100
AcDbCircle
 10
-8.29499738
 20
-3.83499868
 30
0.0
 40
0.04499864
100
AcDbArc
 50
0.0
 51
90.0
  0
ARC
  5
2CC
330
1F
100
AcDbEntity
  8
TopPaste
100
AcDbCircle
 10
-8.8049989
 20
-3.83499868
 30
0.0
 40
0.04499864
100
AcDbArc
 50
90.0
 51
180.0
  0
ARC
  5
2CD
330
1F
100
AcDbEntity
  8
TopPaste
100
AcDbCircle
 10
-8.8049989
 20
-4.795001839999999
 30
0.0
 40
0.04499864
100
AcDbArc
 50
180.0
 51
270.0
  0
CIRCLE
  5
2CE
330
1F
100
AcDbEntity
  8
TopPaste
100
AcDbCircle
 10
-8.54999814
 20
-4.31500026
 30
0.0
 40
0.0
  0
LINE
  5
2CF
330
1F
100
AcDbEntity
  8
TopPaste
100
AcDbLine
 10
-12.200001
 20
-10.66500026
 30
0.0
 11
-12.200001
 21
-9.7049971
 31
0.0
  0
LINE
  5
2D0
330
1F
100
AcDbEntity
  8
TopPaste
100
AcDbLine
 10
-12.24499964
 20
-9.65999846
 30
0.0
 11
-12.75500116
 21
-9.65999846
 31
0.0
  0
LINE
  5
2D1
330
1F
100
AcDbEntity
  8
TopPaste
100
AcDbLine
 10
-12.7999998
 20
-9.7049971
 30
0.0
 11
-12.7999998
 21
-10.66500026
 31
0.0
  0
LINE
  5
2D2
330
1F
100
AcDbEntity
  8
TopPaste
100
AcDbLine
 10
-12.75500116
 20
-10.7099989
 30
0.0
 11
-12.24499964
 21
-10.7099989
 31
0.0
  0
ARC
  5
2D3
330
1F
100
AcDbEntity
  8
TopPaste
100
AcDbCircle
 10
-12.24499964
 20
-10.66500026
 30
0.0
 40
0.04499864
100
AcDbArc
 50
270.0
 51
0.0
  0
ARC
  5
2D4
330
1F
100
AcDbEntity
  8
TopPaste
100
AcDbCircle
 10
-12.24499964
 20
-9.7049971
 30
0.0
 40
0.04499864
100
AcDbArc
 50
0.0
 51
90.0
  0
ARC
  5
2D5
330
1F
100
AcDbEntity
  8
TopPaste
100
AcDbCircle
 10
-12.75500116
 20
-9.7049971
 30
0.0
 40
0.04499864
100
AcDbArc
 50
90.0
 51
180.0
  0
ARC
  5
2D6
330
1F
100
AcDbEntity
  8
TopPaste
100
AcDbCircle
 10
-12.75500116
 20
-10.66500026
 30
0.0
 40
0.04499864
100
AcDbArc
 50
180.0
 51
270.0
  0
CIRCLE
  5
2D7
330
1F
100
AcDbEntity
  8
TopPaste
100
AcDbCircle
 10
-12.5000004
 20
-10.18499868
 30
0.0
 40
0.0
  0
LINE
  5
2D8
330
1F
100
AcDbEntity
  8
TopPaste
100
AcDbLine
 10
-13.15000164
 20
-8.29500246
 30
0.0
 11
-13.15000164
 21
-7.3349993
 31
0.0
  0
LINE
  5
2D9
330
1F
100
AcDbEntity
  8
TopPaste
100
AcDbLine
 10
-13.19500028
 20
-7.29000066
 30
0.0
 11
-13.7050018
 21
-7.29000066
 31
0.0
  0
LINE
  5
2DA
330
1F
100
AcDbEntity
  8
TopPaste
100
AcDbLine
 10
-13.75000044
 20
-7.3349993
 30
0.0
 11
-13.75000044
 21
-8.29500246
 31
0.0
  0
LINE
  5
2DB
330
1F
100
AcDbEntity
  8
TopPaste
100
AcDbLine
 10
-13.7050018
 20
-8.340001099999999
 30
0.0
 11
-13.19500028
 21
-8.340001099999999
 31
0.0
  0
ARC
  5
2DC
330
1F
100
AcDbEntity
  8
TopPaste
100
AcDbCircle
 10
-13.19500028
 20
-8.29500246
 30
0.0
 40
0.04499864
100
AcDbArc
 50
270.0
 51
0.0
  0
ARC
  5
2DD
330
1F
100
AcDbEntity
  8
TopPaste
100
AcDbCircle
 10
-13.19500028
 20
-7.3349993
 30
0.0
 40
0.04499864
100
AcDbArc
 50
0.0
 51
90.0
  0
ARC
  5
2DE
330
1F
100
AcDbEntity
  8
TopPaste
100
AcDbCircle
 10
-13.7050018
 20
-7.3349993
 30
0.0
 40
0.04499864
100
AcDbArc
 50
90.0
 51
180.0
  0
ARC
  5
2DF
330
1F
100
AcDbEntity
  8
TopPaste
100
AcDbCircle
 10
-13.7050018
 20
-8.29500246
 30
0.0
 40
0.04499864
100
AcDbArc
 50
180.0
 51
270.0
  0
CIRCLE
  5
2E0
330
1F
100
AcDbEntity
  8
TopPaste
100
AcDbCircle
 10
-13.45000104
 20
-7.815000879999999
 30
0.0
 40
0.0
  0
LINE
  5
2E1
330
1F
100
AcDbEntity
  8
TopPaste
100
AcDbLine
 10
-11.25000036
 20
-8.29500246
 30
0.0
 11
-11.25000036
 21
-7.3349993
 31
0.0
  0
LINE
  5
2E2
330
1F
100
AcDbEntity
  8
TopPaste
100
AcDbLine
 10
-11.294999
 20
-7.29000066
 30
0.0
 11
-11.80500052
 21
-7.29000066
 31
0.0
  0
LINE
  5
2E3
330
1F
100
AcDbEntity
  8
TopPaste
100
AcDbLine
 10
-11.84999916
 20
-7.3349993
 30
0.0
 11
-11.84999916
 21
-8.29500246
 31
0.0
  0
LINE
  5
2E4
330
1F
100
AcDbEntity
  8
TopPaste
100
AcDbLine
 10
-11.80500052
 20
-8.340001099999999
 30
0.0
 11
-11.294999
 21
-8.340001099999999
 31
0.0
  0
ARC
  5
2E5
330
1F
100
AcDbEntity
  8
TopPaste
100
AcDbCircle
 10
-11.294999
 20
-8.29500246
 30
0.0
 40
0.04499864
100
AcDbArc
 50
270.0
 51
0.0
  0
ARC
  5
2E6
330
1F
100
AcDbEntity
  8
TopPaste
100
AcDbCircle
 10
-11.294999
 20
-7.3349993
 30
0.0
 40
0.04499864
100
AcDbArc
 50
0.0
 51
90.0
  0
ARC
  5
2E7
330
1F
100
AcDbEntity
  8
TopPaste
100
AcDbCircle
 10
-11.80500052
 20
-7.3349993
 30
0.0
 40
0.04499864
100
AcDbArc
 50
90.0
 51
180.0
  0
ARC
  5
2E8
330
1F
100
AcDbEntity
  8
TopPaste
100
AcDbCircle
 10
-11.80500052
 20
-8.29500246
 30
0.0
 40
0.04499864
100
AcDbArc
 50
180.0
 51
270.0
  0
CIRCLE
  5
2E9
330
1F
100
AcDbEntity
  8
TopPaste
100
AcDbCircle
 10
-11.54999976
 20
-7.815000879999999
 30
0.0
 40
0.0
  0
LINE
  5
2EA
330
1F
100
AcDbEntity
  8
TopPaste
100
AcDbLine
 10
-18.2000017
 20
-10.66500026
 30
0.0
 11
-18.2000017
 21
-9.7049971
 31
0.0
  0
LINE
  5
2EB
330
1F
100
AcDbEntity
  8
TopPaste
100
AcDbLine
 10
-18.24500034
 20
-9.65999846
 30
0.0
 11
-18.75500186
 21
-9.65999846
 31
0.0
  0
LINE
  5
2EC
330
1F
100
AcDbEntity
  8
TopPaste
100
AcDbLine
 10
-18.8000005
 20
-9.7049971
 30
0.0
 11
-18.8000005
 21
-10.66500026
 31
0.0
  0
LINE
  5
2ED
330
1F
100
AcDbEntity
  8
TopPaste
100
AcDbLine
 10
-18.75500186
 20
-10.7099989
 30
0.0
 11
-18.24500034
 21
-10.7099989
 31
0.0
  0
ARC
  5
2EE
330
1F
100
AcDbEntity
  8
TopPaste
100
AcDbCircle
 10
-18.24500034
 20
-10.66500026
 30
0.0
 40
0.04499864
100
AcDbArc
 50
270.0
 51
0.0
  0
ARC
  5
2EF
330
1F
100
AcDbEntity
  8
TopPaste
100
AcDbCircle
 10
-18.24500034
 20
-9.7049971
 30
0.0
 40
0.04499864
100
AcDbArc
 50
0.0
 51
90.0
  0
ARC
  5
2F0
330
1F
100
AcDbEntity
  8
TopPaste
100
AcDbCircle
 10
-18.75500186
 20
-9.7049971
 30
0.0
 40
0.04499864
100
AcDbArc
 50
90.0
 51
180.0
  0
ARC
  5
2F1
330
1F
100
AcDbEntity
  8
TopPaste
100
AcDbCircle
 10
-18.75500186
 20
-10.66500026
 30
0.0
 40
0.04499864
100
AcDbArc
 50
180.0
 51
270.0
  0
CIRCLE
  5
2F2
330
1F
100
AcDbEntity
  8
TopPaste
100
AcDbCircle
 10
-18.5000011
 20
-10.18499868
 30
0.0
 40
0.0
  0
LINE
  5
2F3
330
1F
100
AcDbEntity
  8
TopPaste
100
AcDbLine
 10
-19.15000234
 20
-8.29500246
 30
0.0
 11
-19.15000234
 21
-7.3349993
 31
0.0
  0
LINE
  5
2F4
330
1F
100
AcDbEntity
  8
TopPaste
100
AcDbLine
 10
-19.19500098
 20
-7.29000066
 30
0.0
 11
-19.7050025
 21
-7.29000066
 31
0.0
  0
LINE
  5
2F5
330
1F
100
AcDbEntity
  8
TopPaste
100
AcDbLine
 10
-19.75000114
 20
-7.3349993
 30
0.0
 11
-19.75000114
 21
-8.29500246
 31
0.0
  0
LINE
  5
2F6
330
1F
100
AcDbEntity
  8
TopPaste
100
AcDbLine
 10
-19.7050025
 20
-8.340001099999999
 30
0.0
 11
-19.19500098
 21
-8.340001099999999
 31
0.0
  0
ARC
  5
2F7
330
1F
100
AcDbEntity
  8
TopPaste
100
AcDbCircle
 10
-19.19500098
 20
-8.29500246
 30
0.0
 40
0.04499864
100
AcDbArc
 50
270.0
 51
0.0
  0
ARC
  5
2F8
330
1F
100
AcDbEntity
  8
TopPaste
100
AcDbCircle
 10
-19.19500098
 20
-7.3349993
 30
0.0
 40
0.04499864
100
AcDbArc
 50
0.0
 51
90.0
  0
ARC
  5
2F9
330
1F
100
AcDbEntity
  8
TopPaste
100
AcDbCircle
 10
-19.7050025
 20
-7.3349993
 30
0.0
 40
0.04499864
100
AcDbArc
 50
90.0
 51
180.0
  0
ARC
  5
2FA
330
1F
100
AcDbEntity
  8
TopPaste
100
AcDbCircle
 10
-19.7050025
 20
-8.29500246
 30
0.0
 40
0.04499864
100
AcDbArc
 50
180.0
 51
270.0
  0
CIRCLE
  5
2FB
330
1F
100
AcDbEntity
  8
TopPaste
100
AcDbCircle
 10
-19.45000174
 20
-7.815000879999999
 30
0.0
 40
0.0
  0
LINE
  5
2FC
330
1F
100
AcDbEntity
  8
TopPaste
100
AcDbLine
 10
-17.25000106
 20
-8.29500246
 30
0.0
 11
-17.25000106
 21
-7.3349993
 31
0.0
  0
LINE
  5
2FD
330
1F
100
AcDbEntity
  8
TopPaste
100
AcDbLine
 10
-17.2949997
 20
-7.29000066
 30
0.0
 11
-17.80500122
 21
-7.29000066
 31
0.0
  0
LINE
  5
2FE
330
1F
100
AcDbEntity
  8
TopPaste
100
AcDbLine
 10
-17.84999986
 20
-7.3349993
 30
0.0
 11
-17.84999986
 21
-8.29500246
 31
0.0
  0
LINE
  5
2FF
330
1F
100
AcDbEntity
  8
TopPaste
100
AcDbLine
 10
-17.80500122
 20
-8.340001099999999
 30
0.0
 11
-17.2949997
 21
-8.340001099999999
 31
0.0
  0
ARC
  5
300
330
1F
100
AcDbEntity
  8
TopPaste
100
AcDbCircle
 10
-17.2949997
 20
-8.29500246
 30
0.0
 40
0.04499864
100
AcDbArc
 50
270.0
 51
0.0
  0
ARC
  5
301
330
1F
100
AcDbEntity
  8
TopPaste
100
AcDbCircle
 10
-17.2949997
 20
-7.3349993
 30
0.0
 40
0.04499864
100
AcDbArc
 50
0.0
 51
90.0
  0
ARC
  5
302
330
1F
100
AcDbEntity
  8
TopPaste
100
AcDbCircle
 10
-17.80500122
 20
-7.3349993
 30
0.0
 40
0.04499864
100
AcDbArc
 50
90.0
 51
180.0
  0
ARC
  5
303
330
1F
100
AcDbEntity
  8
TopPaste
100
AcDbCircle
 10
-17.80500122
 20
-8.29500246
 30
0.0
 40
0.04499864
100
AcDbArc
 50
180.0
 51
270.0
  0
CIRCLE
  5
304
330
1F
100
AcDbEntity
  8
TopPaste
100
AcDbCircle
 10
-17.55000046
 20
-7.815000879999999
 30
0.0
 40
0.0
  0
LINE
  5
305
330
1F
100
AcDbEntity
  8
TopPaste
100
AcDbLine
 10
-18.2500016
 20
10.1100001
 30
0.0
 11
-18.2500016
 21
10.88999854
 31
0.0
  0
LINE
  5
306
330
1F
100
AcDbEntity
  8
TopPaste
100
AcDbLine
 10
-18.31000148
 20
10.94999842
 30
0.0
 11
-18.99000012
 21
10.94999842
 31
0.0
  0
LINE
  5
307
330
1F
100
AcDbEntity
  8
TopPaste
100
AcDbLine
 10
-19.05
 20
10.88999854
 30
0.0
 11
-19.05
 21
10.1100001
 31
0.0
  0
LINE
  5
308
330
1F
100
AcDbEntity
  8
TopPaste
100
AcDbLine
 10
-18.99000012
 20
10.05000022
 30
0.0
 11
-18.31000148
 21
10.05000022
 31
0.0
  0
ARC
  5
309
330
1F
100
AcDbEntity
  8
TopPaste
100
AcDbCircle
 10
-18.31000148
 20
10.1100001
 30
0.0
 40
0.05999988
100
AcDbArc
 50
270.0
 51
0.0
  0
ARC
  5
30A
330
1F
100
AcDbEntity
  8
TopPaste
100
AcDbCircle
 10
-18.31000148
 20
10.88999854
 30
0.0
 40
0.05999988
100
AcDbArc
 50
0.0
 51
90.0
  0
ARC
  5
30B
330
1F
100
AcDbEntity
  8
TopPaste
100
AcDbCircle
 10
-18.99000012
 20
10.88999854
 30
0.0
 40
0.05999988
100
AcDbArc
 50
90.0
 51
180.0
  0
ARC
  5
30C
330
1F
100
AcDbEntity
  8
TopPaste
100
AcDbCircle
 10
-18.99000012
 20
10.1100001
 30
0.0
 40
0.05999988
100
AcDbArc
 50
180.0
 51
270.0
  0
CIRCLE
  5
30D
330
1F
100
AcDbEntity
  8
TopPaste
100
AcDbCircle
 10
-18.6500008
 20
10.49999932
 30
0.0
 40
0.0
  0
LINE
  5
30E
330
1F
100
AcDbEntity
  8
TopPaste
100
AcDbLine
 10
-16.74999952
 20
10.1100001
 30
0.0
 11
-16.74999952
 21
10.88999854
 31
0.0
  0
LINE
  5
30F
330
1F
100
AcDbEntity
  8
TopPaste
100
AcDbLine
 10
-16.8099994
 20
10.94999842
 30
0.0
 11
-17.48999804
 21
10.94999842
 31
0.0
  0
LINE
  5
310
330
1F
100
AcDbEntity
  8
TopPaste
100
AcDbLine
 10
-17.54999792
 20
10.88999854
 30
0.0
 11
-17.54999792
 21
10.1100001
 31
0.0
  0
LINE
  5
311
330
1F
100
AcDbEntity
  8
TopPaste
100
AcDbLine
 10
-17.48999804
 20
10.05000022
 30
0.0
 11
-16.8099994
 21
10.05000022
 31
0.0
  0
ARC
  5
312
330
1F
100
AcDbEntity
  8
TopPaste
100
AcDbCircle
 10
-16.8099994
 20
10.1100001
 30
0.0
 40
0.05999988
100
AcDbArc
 50
270.0
 51
0.0
  0
ARC
  5
313
330
1F
100
AcDbEntity
  8
TopPaste
100
AcDbCircle
 10
-16.8099994
 20
10.88999854
 30
0.0
 40
0.05999988
100
AcDbArc
 50
0.0
 51
90.0
  0
ARC
  5
314
330
1F
100
AcDbEntity
  8
TopPaste
100
AcDbCircle
 10
-17.48999804
 20
10.88999854
 30
0.0
 40
0.05999988
100
AcDbArc
 50
90.0
 51
180.0
  0
ARC
  5
315
330
1F
100
AcDbEntity
  8
TopPaste
100
AcDbCircle
 10
-17.48999804
 20
10.1100001
 30
0.0
 40
0.05999988
100
AcDbArc
 50
180.0
 51
270.0
  0
CIRCLE
  5
316
330
1F
100
AcDbEntity
  8
TopPaste
100
AcDbCircle
 10
-17.14999872
 20
10.49999932
 30
0.0
 40
0.0
  0
LINE
  5
317
330
1F
100
AcDbEntity
  8
TopPaste
100
AcDbLine
 10
13.91000012
 20
9.85000062
 30
0.0
 11
14.68999856
 21
9.85000062
 31
0.0
  0
LINE
  5
318
330
1F
100
AcDbEntity
  8
TopPaste
100
AcDbLine
 10
14.74999844
 20
9.910000499999999
 30
0.0
 11
14.74999844
 21
10.58999914
 31
0.0
  0
LINE
  5
319
330
1F
100
AcDbEntity
  8
TopPaste
100
AcDbLine
 10
14.68999856
 20
10.64999902
 30
0.0
 11
13.91000012
 21
10.64999902
 31
0.0
  0
LINE
  5
31A
330
1F
100
AcDbEntity
  8
TopPaste
100
AcDbLine
 10
13.85000024
 20
10.58999914
 30
0.0
 11
13.85000024
 21
9.910000499999999
 31
0.0
  0
ARC
  5
31B
330
1F
100
AcDbEntity
  8
TopPaste
100
AcDbCircle
 10
13.91000012
 20
9.910000499999999
 30
0.0
 40
0.05999988
100
AcDbArc
 50
180.0
 51
270.0
  0
ARC
  5
31C
330
1F
100
AcDbEntity
  8
TopPaste
100
AcDbCircle
 10
14.68999856
 20
9.910000499999999
 30
0.0
 40
0.05999988
100
AcDbArc
 50
270.0
 51
0.0
  0
ARC
  5
31D
330
1F
100
AcDbEntity
  8
TopPaste
100
AcDbCircle
 10
14.68999856
 20
10.58999914
 30
0.0
 40
0.05999988
100
AcDbArc
 50
0.0
 51
90.0
  0
ARC
  5
31E
330
1F
100
AcDbEntity
  8
TopPaste
100
AcDbCircle
 10
13.91000012
 20
10.58999914
 30
0.0
 40
0.05999988
100
AcDbArc
 50
90.0
 51
180.0
  0
CIRCLE
  5
31F
330
1F
100
AcDbEntity
  8
TopPaste
100
AcDbCircle
 10
14.29999934
 20
10.24999982
 30
0.0
 40
0.0
  0
LINE
  5
320
330
1F
100
AcDbEntity
  8
TopPaste
100
AcDbLine
 10
13.91000012
 20
8.34999854
 30
0.0
 11
14.68999856
 21
8.34999854
 31
0.0
  0
LINE
  5
321
330
1F
100
AcDbEntity
  8
TopPaste
100
AcDbLine
 10
14.74999844
 20
8.409998419999999
 30
0.0
 11
14.74999844
 21
9.08999706
 31
0.0
  0
LINE
  5
322
330
1F
100
AcDbEntity
  8
TopPaste
100
AcDbLine
 10
14.68999856
 20
9.14999694
 30
0.0
 11
13.91000012
 21
9.14999694
 31
0.0
  0
LINE
  5
323
330
1F
100
AcDbEntity
  8
TopPaste
100
AcDbLine
 10
13.85000024
 20
9.08999706
 30
0.0
 11
13.85000024
 21
8.409998419999999
 31
0.0
  0
ARC
  5
324
330
1F
100
AcDbEntity
  8
TopPaste
100
AcDbCircle
 10
13.91000012
 20
8.409998419999999
 30
0.0
 40
0.05999988
100
AcDbArc
 50
180.0
 51
270.0
  0
ARC
  5
325
330
1F
100
AcDbEntity
  8
TopPaste
100
AcDbCircle
 10
14.68999856
 20
8.409998419999999
 30
0.0
 40
0.05999988
100
AcDbArc
 50
270.0
 51
0.0
  0
ARC
  5
326
330
1F
100
AcDbEntity
  8
TopPaste
100
AcDbCircle
 10
14.68999856
 20
9.08999706
 30
0.0
 40
0.05999988
100
AcDbArc
 50
0.0
 51
90.0
  0
ARC
  5
327
330
1F
100
AcDbEntity
  8
TopPaste
100
AcDbCircle
 10
13.91000012
 20
9.08999706
 30
0.0
 40
0.05999988
100
AcDbArc
 50
90.0
 51
180.0
  0
CIRCLE
  5
328
330
1F
100
AcDbEntity
  8
TopPaste
100
AcDbCircle
 10
14.29999934
 20
8.74999774
 30
0.0
 40
0.0
  0
LINE
  5
329
330
1F
100
AcDbEntity
  8
TopPaste
100
AcDbLine
 10
10.38999954
 20
17.14999872
 30
0.0
 11
9.610001099999998
 21
17.14999872
 31
0.0
  0
LINE
  5
32A
330
1F
100
AcDbEntity
  8
TopPaste
100
AcDbLine
 10
9.550001219999999
 20
17.08999884
 30
0.0
 11
9.550001219999999
 21
16.4100002
 31
0.0
  0
LINE
  5
32B
330
1F
100
AcDbEntity
  8
TopPaste
100
AcDbLine
 10
9.610001099999998
 20
16.35000032
 30
0.0
 11
10.38999954
 21
16.35000032
 31
0.0
  0
LINE
  5
32C
330
1F
100
AcDbEntity
  8
TopPaste
100
AcDbLine
 10
10.44999942
 20
16.4100002
 30
0.0
 11
10.44999942
 21
17.08999884
 31
0.0
  0
ARC
  5
32D
330
1F
100
AcDbEntity
  8
TopPaste
100
AcDbCircle
 10
10.38999954
 20
17.08999884
 30
0.0
 40
0.05999988
100
AcDbArc
 50
0.0
 51
90.0
  0
ARC
  5
32E
330
1F
100
AcDbEntity
  8
TopPaste
100
AcDbCircle
 10
9.610001099999998
 20
17.08999884
 30
0.0
 40
0.05999988
100
AcDbArc
 50
90.0
 51
180.0
  0
ARC
  5
32F
330
1F
100
AcDbEntity
  8
TopPaste
100
AcDbCircle
 10
9.610001099999998
 20
16.4100002
 30
0.0
 40
0.05999988
100
AcDbArc
 50
180.0
 51
270.0
  0
ARC
  5
330
330
1F
100
AcDbEntity
  8
TopPaste
100
AcDbCircle
 10
10.38999954
 20
16.4100002
 30
0.0
 40
0.05999988
100
AcDbArc
 50
270.0
 51
0.0
  0
CIRCLE
  5
331
330
1F
100
AcDbEntity
  8
TopPaste
100
AcDbCircle
 10
10.00000032
 20
16.74999952
 30
0.0
 40
0.0
  0
LINE
  5
332
330
1F
100
AcDbEntity
  8
TopPaste
100
AcDbLine
 10
10.38999954
 20
18.6500008
 30
0.0
 11
9.610001099999998
 21
18.6500008
 31
0.0
  0
LINE
  5
333
330
1F
100
AcDbEntity
  8
TopPaste
100
AcDbLine
 10
9.550001219999999
 20
18.59000092
 30
0.0
 11
9.550001219999999
 21
17.91000228
 31
0.0
  0
LINE
  5
334
330
1F
100
AcDbEntity
  8
TopPaste
100
AcDbLine
 10
9.610001099999998
 20
17.8500024
 30
0.0
 11
10.38999954
 21
17.8500024
 31
0.0
  0
LINE
  5
335
330
1F
100
AcDbEntity
  8
TopPaste
100
AcDbLine
 10
10.44999942
 20
17.91000228
 30
0.0
 11
10.44999942
 21
18.59000092
 31
0.0
  0
ARC
  5
336
330
1F
100
AcDbEntity
  8
TopPaste
100
AcDbCircle
 10
10.38999954
 20
18.59000092
 30
0.0
 40
0.05999988
100
AcDbArc
 50
0.0
 51
90.0
  0
ARC
  5
337
330
1F
100
AcDbEntity
  8
TopPaste
100
AcDbCircle
 10
9.610001099999998
 20
18.59000092
 30
0.0
 40
0.05999988
100
AcDbArc
 50
90.0
 51
180.0
  0
ARC
  5
338
330
1F
100
AcDbEntity
  8
TopPaste
100
AcDbCircle
 10
9.610001099999998
 20
17.91000228
 30
0.0
 40
0.05999988
100
AcDbArc
 50
180.0
 51
270.0
  0
ARC
  5
339
330
1F
100
AcDbEntity
  8
TopPaste
100
AcDbCircle
 10
10.38999954
 20
17.91000228
 30
0.0
 40
0.05999988
100
AcDbArc
 50
270.0
 51
0.0
  0
CIRCLE
  5
33A
330
1F
100
AcDbEntity
  8
TopPaste
100
AcDbCircle
 10
10.00000032
 20
18.2500016
 30
0.0
 40
0.0
  0
LINE
  5
33B
330
1F
100
AcDbEntity
  8
TopPaste
100
AcDbLine
 10
8.38999846
 20
17.14999872
 30
0.0
 11
7.610000019999999
 21
17.14999872
 31
0.0
  0
LINE
  5
33C
330
1F
100
AcDbEntity
  8
TopPaste
100
AcDbLine
 10
7.55000014
 20
17.08999884
 30
0.0
 11
7.55000014
 21
16.4100002
 31
0.0
  0
LINE
  5
33D
330
1F
100
AcDbEntity
  8
TopPaste
100
AcDbLine
 10
7.610000019999999
 20
16.35000032
 30
0.0
 11
8.38999846
 21
16.35000032
 31
0.0
  0
LINE
  5
33E
330
1F
100
AcDbEntity
  8
TopPaste
100
AcDbLine
 10
8.44999834
 20
16.4100002
 30
0.0
 11
8.44999834
 21
17.08999884
 31
0.0
  0
ARC
  5
33F
330
1F
100
AcDbEntity
  8
TopPaste
100
AcDbCircle
 10
8.38999846
 20
17.08999884
 30
0.0
 40
0.05999988
100
AcDbArc
 50
0.0
 51
90.0
  0
ARC
  5
340
330
1F
100
AcDbEntity
  8
TopPaste
100
AcDbCircle
 10
7.610000019999999
 20
17.08999884
 30
0.0
 40
0.05999988
100
AcDbArc
 50
90.0
 51
180.0
  0
ARC
  5
341
330
1F
100
AcDbEntity
  8
TopPaste
100
AcDbCircle
 10
7.610000019999999
 20
16.4100002
 30
0.0
 40
0.05999988
100
AcDbArc
 50
180.0
 51
270.0
  0
ARC
  5
342
330
1F
100
AcDbEntity
  8
TopPaste
100
AcDbCircle
 10
8.38999846
 20
16.4100002
 30
0.0
 40
0.05999988
100
AcDbArc
 50
270.0
 51
0.0
  0
CIRCLE
  5
343
330
1F
100
AcDbEntity
  8
TopPaste
100
AcDbCircle
 10
7.999999239999999
 20
16.74999952
 30
0.0
 40
0.0
  0
LINE
  5
344
330
1F
100
AcDbEntity
  8
TopPaste
100
AcDbLine
 10
8.38999846
 20
18.6500008
 30
0.0
 11
7.610000019999999
 21
18.6500008
 31
0.0
  0
LINE
  5
345
330
1F
100
AcDbEntity
  8
TopPaste
100
AcDbLine
 10
7.55000014
 20
18.59000092
 30
0.0
 11
7.55000014
 21
17.91000228
 31
0.0
  0
LINE
  5
346
330
1F
100
AcDbEntity
  8
TopPaste
100
AcDbLine
 10
7.610000019999999
 20
17.8500024
 30
0.0
 11
8.38999846
 21
17.8500024
 31
0.0
  0
LINE
  5
347
330
1F
100
AcDbEntity
  8
TopPaste
100
AcDbLine
 10
8.44999834
 20
17.91000228
 30
0.0
 11
8.44999834
 21
18.59000092
 31
0.0
  0
ARC
  5
348
330
1F
100
AcDbEntity
  8
TopPaste
100
AcDbCircle
 10
8.38999846
 20
18.59000092
 30
0.0
 40
0.05999988
100
AcDbArc
 50
0.0
 51
90.0
  0
ARC
  5
349
330
1F
100
AcDbEntity
  8
TopPaste
100
AcDbCircle
 10
7.610000019999999
 20
18.59000092
 30
0.0
 40
0.05999988
100
AcDbArc
 50
90.0
 51
180.0
  0
ARC
  5
34A
330
1F
100
AcDbEntity
  8
TopPaste
100
AcDbCircle
 10
7.610000019999999
 20
17.91000228
 30
0.0
 40
0.05999988
100
AcDbArc
 50
180.0
 51
270.0
  0
ARC
  5
34B
330
1F
100
AcDbEntity
  8
TopPaste
100
AcDbCircle
 10
8.38999846
 20
17.91000228
 30
0.0
 40
0.05999988
100
AcDbArc
 50
270.0
 51
0.0
  0
CIRCLE
  5
34C
330
1F
100
AcDbEntity
  8
TopPaste
100
AcDbCircle
 10
7.999999239999999
 20
18.2500016
 30
0.0
 40
0.0
  0
LINE
  5
34D
330
1F
100
AcDbEntity
  8
TopPaste
100
AcDbLine
 10
-9.475000099999999
 20
-3.0250003
 30
0.0
 11
-8.524999459999998
 21
-3.0250003
 31
0.0
  0
LINE
  5
34E
330
1F
100
AcDbEntity
  8
TopPaste
100
AcDbLine
 10
-8.524999459999998
 20
-3.0250003
 30
0.0
 11
-8.524999459999998
 21
-2.1250021
 31
0.0
  0
LINE
  5
34F
330
1F
100
AcDbEntity
  8
TopPaste
100
AcDbLine
 10
-8.524999459999998
 20
-2.1250021
 30
0.0
 11
-9.475000099999999
 21
-2.1250021
 31
0.0
  0
LINE
  5
350
330
1F
100
AcDbEntity
  8
TopPaste
100
AcDbLine
 10
-9.475000099999999
 20
-2.1250021
 30
0.0
 11
-9.475000099999999
 21
-3.0250003
 31
0.0
  0
CIRCLE
  5
351
330
1F
100
AcDbEntity
  8
TopPaste
100
AcDbCircle
 10
-8.99999978
 20
-2.5750012
 30
0.0
 40
0.0
  0
LINE
  5
352
330
1F
100
AcDbEntity
  8
TopPaste
100
AcDbLine
 10
-9.475000099999999
 20
0.12500102
 30
0.0
 11
-8.524999459999998
 21
0.12500102
 31
0.0
  0
LINE
  5
353
330
1F
100
AcDbEntity
  8
TopPaste
100
AcDbLine
 10
-8.524999459999998
 20
0.12500102
 30
0.0
 11
-8.524999459999998
 21
1.02499922
 31
0.0
  0
LINE
  5
354
330
1F
100
AcDbEntity
  8
TopPaste
100
AcDbLine
 10
-8.524999459999998
 20
1.02499922
 30
0.0
 11
-9.475000099999999
 21
1.02499922
 31
0.0
  0
LINE
  5
355
330
1F
100
AcDbEntity
  8
TopPaste
100
AcDbLine
 10
-9.475000099999999
 20
1.02499922
 30
0.0
 11
-9.475000099999999
 21
0.12500102
 31
0.0
  0
CIRCLE
  5
356
330
1F
100
AcDbEntity
  8
TopPaste
100
AcDbCircle
 10
-8.99999978
 20
0.57500012
 30
0.0
 40
0.0
  0
LINE
  5
357
330
1F
100
AcDbEntity
  8
TopPaste
100
AcDbLine
 10
-15.9749998
 20
-10.72500014
 30
0.0
 11
-15.02499916
 21
-10.72500014
 31
0.0
  0
LINE
  5
358
330
1F
100
AcDbEntity
  8
TopPaste
100
AcDbLine
 10
-15.02499916
 20
-10.72500014
 30
0.0
 11
-15.02499916
 21
-9.82500194
 31
0.0
  0
LINE
  5
359
330
1F
100
AcDbEntity
  8
TopPaste
100
AcDbLine
 10
-15.02499916
 20
-9.82500194
 30
0.0
 11
-15.9749998
 21
-9.82500194
 31
0.0
  0
LINE
  5
35A
330
1F
100
AcDbEntity
  8
TopPaste
100
AcDbLine
 10
-15.9749998
 20
-9.82500194
 30
0.0
 11
-15.9749998
 21
-10.72500014
 31
0.0
  0
CIRCLE
  5
35B
330
1F
100
AcDbEntity
  8
TopPaste
100
AcDbCircle
 10
-15.49999948
 20
-10.27500104
 30
0.0
 40
0.0
  0
LINE
  5
35C
330
1F
100
AcDbEntity
  8
TopPaste
100
AcDbLine
 10
-15.9749998
 20
-7.574998819999999
 30
0.0
 11
-15.02499916
 21
-7.574998819999999
 31
0.0
  0
LINE
  5
35D
330
1F
100
AcDbEntity
  8
TopPaste
100
AcDbLine
 10
-15.02499916
 20
-7.574998819999999
 30
0.0
 11
-15.02499916
 21
-6.67500062
 31
0.0
  0
LINE
  5
35E
330
1F
100
AcDbEntity
  8
TopPaste
100
AcDbLine
 10
-15.02499916
 20
-6.67500062
 30
0.0
 11
-15.9749998
 21
-6.67500062
 31
0.0
  0
LINE
  5
35F
330
1F
100
AcDbEntity
  8
TopPaste
100
AcDbLine
 10
-15.9749998
 20
-6.67500062
 30
0.0
 11
-15.9749998
 21
-7.574998819999999
 31
0.0
  0
CIRCLE
  5
360
330
1F
100
AcDbEntity
  8
TopPaste
100
AcDbCircle
 10
-15.49999948
 20
-7.124999719999999
 30
0.0
 40
0.0
  0
LINE
  5
361
330
1F
100
AcDbEntity
  8
TopPaste
100
AcDbLine
 10
11.37125234
 20
9.949997879999998
 30
0.0
 11
12.62875046
 21
9.949997879999998
 31
0.0
  0
LINE
  5
362
330
1F
100
AcDbEntity
  8
TopPaste
100
AcDbLine
 10
12.7
 20
10.02124742
 30
0.0
 11
12.7
 21
10.82874898
 31
0.0
  0
LINE
  5
363
330
1F
100
AcDbEntity
  8
TopPaste
100
AcDbLine
 10
12.62875046
 20
10.89999852
 30
0.0
 11
11.37125234
 21
10.89999852
 31
0.0
  0
LINE
  5
364
330
1F
100
AcDbEntity
  8
TopPaste
100
AcDbLine
 10
11.3000028
 20
10.82874898
 30
0.0
 11
11.3000028
 21
10.02124742
 31
0.0
  0
ARC
  5
365
330
1F
100
AcDbEntity
  8
TopPaste
100
AcDbCircle
 10
11.37125234
 20
10.02124742
 30
0.0
 40
0.07124954
100
AcDbArc
 50
180.0
 51
270.0
  0
ARC
  5
366
330
1F
100
AcDbEntity
  8
TopPaste
100
AcDbCircle
 10
12.62875046
 20
10.02124742
 30
0.0
 40
0.07124954
100
AcDbArc
 50
270.0
 51
0.0
  0
ARC
  5
367
330
1F
100
AcDbEntity
  8
TopPaste
100
AcDbCircle
 10
12.62875046
 20
10.82874898
 30
0.0
 40
0.07124954
100
AcDbArc
 50
0.0
 51
90.0
  0
ARC
  5
368
330
1F
100
AcDbEntity
  8
TopPaste
100
AcDbCircle
 10
11.37125234
 20
10.82874898
 30
0.0
 40
0.07124954
100
AcDbArc
 50
90.0
 51
180.0
  0
CIRCLE
  5
369
330
1F
100
AcDbEntity
  8
TopPaste
100
AcDbCircle
 10
12.0000014
 20
10.4249982
 30
0.0
 40
0.0
  0
LINE
  5
36A
330
1F
100
AcDbEntity
  8
TopPaste
100
AcDbLine
 10
11.37125234
 20
8.09999904
 30
0.0
 11
12.62875046
 21
8.09999904
 31
0.0
  0
LINE
  5
36B
330
1F
100
AcDbEntity
  8
TopPaste
100
AcDbLine
 10
12.7
 20
8.17124858
 30
0.0
 11
12.7
 21
8.978750139999999
 31
0.0
  0
LINE
  5
36C
330
1F
100
AcDbEntity
  8
TopPaste
100
AcDbLine
 10
12.62875046
 20
9.049999679999999
 30
0.0
 11
11.37125234
 21
9.049999679999999
 31
0.0
  0
LINE
  5
36D
330
1F
100
AcDbEntity
  8
TopPaste
100
AcDbLine
 10
11.3000028
 20
8.978750139999999
 30
0.0
 11
11.3000028
 21
8.17124858
 31
0.0
  0
ARC
  5
36E
330
1F
100
AcDbEntity
  8
TopPaste
100
AcDbCircle
 10
11.37125234
 20
8.17124858
 30
0.0
 40
0.07124954
100
AcDbArc
 50
180.0
 51
270.0
  0
ARC
  5
36F
330
1F
100
AcDbEntity
  8
TopPaste
100
AcDbCircle
 10
12.62875046
 20
8.17124858
 30
0.0
 40
0.07124954
100
AcDbArc
 50
270.0
 51
0.0
  0
ARC
  5
370
330
1F
100
AcDbEntity
  8
TopPaste
100
AcDbCircle
 10
12.62875046
 20
8.978750139999999
 30
0.0
 40
0.07124954
100
AcDbArc
 50
0.0
 51
90.0
  0
ARC
  5
371
330
1F
100
AcDbEntity
  8
TopPaste
100
AcDbCircle
 10
11.37125234
 20
8.978750139999999
 30
0.0
 40
0.07124954
100
AcDbArc
 50
90.0
 51
180.0
  0
CIRCLE
  5
372
330
1F
100
AcDbEntity
  8
TopPaste
100
AcDbCircle
 10
12.0000014
 20
8.57499936
 30
0.0
 40
0.0
  0
LINE
  5
373
330
1F
100
AcDbEntity
  8
TopPaste
100
AcDbLine
 10
9.071254399999999
 20
9.949997879999998
 30
0.0
 11
10.32875252
 21
9.949997879999998
 31
0.0
  0
LINE
  5
374
330
1F
100
AcDbEntity
  8
TopPaste
100
AcDbLine
 10
10.40000206
 20
10.02124742
 30
0.0
 11
10.40000206
 21
10.82874898
 31
0.0
  0
LINE
  5
375
330
1F
100
AcDbEntity
  8
TopPaste
100
AcDbLine
 10
10.32875252
 20
10.89999852
 30
0.0
 11
9.071254399999999
 21
10.89999852
 31
0.0
  0
LINE
  5
376
330
1F
100
AcDbEntity
  8
TopPaste
100
AcDbLine
 10
9.000004859999999
 20
10.82874898
 30
0.0
 11
9.000004859999999
 21
10.02124742
 31
0.0
  0
ARC
  5
377
330
1F
100
AcDbEntity
  8
TopPaste
100
AcDbCircle
 10
9.071254399999999
 20
10.02124742
 30
0.0
 40
0.07124954
100
AcDbArc
 50
180.0
 51
270.0
  0
ARC
  5
378
330
1F
100
AcDbEntity
  8
TopPaste
100
AcDbCircle
 10
10.32875252
 20
10.02124742
 30
0.0
 40
0.07124954
100
AcDbArc
 50
270.0
 51
0.0
  0
ARC
  5
379
330
1F
100
AcDbEntity
  8
TopPaste
100
AcDbCircle
 10
10.32875252
 20
10.82874898
 30
0.0
 40
0.07124954
100
AcDbArc
 50
0.0
 51
90.0
  0
ARC
  5
37A
330
1F
100
AcDbEntity
  8
TopPaste
100
AcDbCircle
 10
9.071254399999999
 20
10.82874898
 30
0.0
 40
0.07124954
100
AcDbArc
 50
90.0
 51
180.0
  0
CIRCLE
  5
37B
330
1F
100
AcDbEntity
  8
TopPaste
100
AcDbCircle
 10
9.70000346
 20
10.4249982
 30
0.0
 40
0.0
  0
LINE
  5
37C
330
1F
100
AcDbEntity
  8
TopPaste
100
AcDbLine
 10
9.071254399999999
 20
8.09999904
 30
0.0
 11
10.32875252
 21
8.09999904
 31
0.0
  0
LINE
  5
37D
330
1F
100
AcDbEntity
  8
TopPaste
100
AcDbLine
 10
10.40000206
 20
8.17124858
 30
0.0
 11
10.40000206
 21
8.978750139999999
 31
0.0
  0
LINE
  5
37E
330
1F
100
AcDbEntity
  8
TopPaste
100
AcDbLine
 10
10.32875252
 20
9.049999679999999
 30
0.0
 11
9.071254399999999
 21
9.049999679999999
 31
0.0
  0
LINE
  5
37F
330
1F
100
AcDbEntity
  8
TopPaste
100
AcDbLine
 10
9.000004859999999
 20
8.978750139999999
 30
0.0
 11
9.000004859999999
 21
8.17124858
 31
0.0
  0
ARC
  5
380
330
1F
100
AcDbEntity
  8
TopPaste
100
AcDbCircle
 10
9.071254399999999
 20
8.17124858
 30
0.0
 40
0.07124954
100
AcDbArc
 50
180.0
 51
270.0
  0
ARC
  5
381
330
1F
100
AcDbEntity
  8
TopPaste
100
AcDbCircle
 10
10.32875252
 20
8.17124858
 30
0.0
 40
0.07124954
100
AcDbArc
 50
270.0
 51
0.0
  0
ARC
  5
382
330
1F
100
AcDbEntity
  8
TopPaste
100
AcDbCircle
 10
10.32875252
 20
8.978750139999999
 30
0.0
 40
0.07124954
100
AcDbArc
 50
0.0
 51
90.0
  0
ARC
  5
383
330
1F
100
AcDbEntity
  8
TopPaste
100
AcDbCircle
 10
9.071254399999999
 20
8.978750139999999
 30
0.0
 40
0.07124954
100
AcDbArc
 50
90.0
 51
180.0
  0
CIRCLE
  5
384
330
1F
100
AcDbEntity
  8
TopPaste
100
AcDbCircle
 10
9.70000346
 20
8.57499936
 30
0.0
 40
0.0
  0
LINE
  5
385
330
1F
100
AcDbEntity
  8
TopPaste
100
AcDbLine
 10
-10.62874684
 20
13.95000004
 30
0.0
 11
-9.37124872
 21
13.95000004
 31
0.0
  0
LINE
  5
386
330
1F
100
AcDbEntity
  8
TopPaste
100
AcDbLine
 10
-9.29999918
 20
14.02124958
 30
0.0
 11
-9.29999918
 21
14.82875114
 31
0.0
  0
LINE
  5
387
330
1F
100
AcDbEntity
  8
TopPaste
100
AcDbLine
 10
-9.37124872
 20
14.90000068
 30
0.0
 11
-10.62874684
 21
14.90000068
 31
0.0
  0
LINE
  5
388
330
1F
100
AcDbEntity
  8
TopPaste
100
AcDbLine
 10
-10.69999638
 20
14.82875114
 30
0.0
 11
-10.69999638
 21
14.02124958
 31
0.0
  0
ARC
  5
389
330
1F
100
AcDbEntity
  8
TopPaste
100
AcDbCircle
 10
-10.62874684
 20
14.02124958
 30
0.0
 40
0.07124954
100
AcDbArc
 50
180.0
 51
270.0
  0
ARC
  5
38A
330
1F
100
AcDbEntity
  8
TopPaste
100
AcDbCircle
 10
-9.37124872
 20
14.02124958
 30
0.0
 40
0.07124954
100
AcDbArc
 50
270.0
 51
0.0
  0
ARC
  5
38B
330
1F
100
AcDbEntity
  8
TopPaste
100
AcDbCircle
 10
-9.37124872
 20
14.82875114
 30
0.0
 40
0.07124954
100
AcDbArc
 50
0.0
 51
90.0
  0
ARC
  5
38C
330
1F
100
AcDbEntity
  8
TopPaste
100
AcDbCircle
 10
-10.62874684
 20
14.82875114
 30
0.0
 40
0.07124954
100
AcDbArc
 50
90.0
 51
180.0
  0
CIRCLE
  5
38D
330
1F
100
AcDbEntity
  8
TopPaste
100
AcDbCircle
 10
-9.99999778
 20
14.42500036
 30
0.0
 40
0.0
  0
LINE
  5
38E
330
1F
100
AcDbEntity
  8
TopPaste
100
AcDbLine
 10
-10.62874684
 20
12.1000012
 30
0.0
 11
-9.37124872
 21
12.1000012
 31
0.0
  0
LINE
  5
38F
330
1F
100
AcDbEntity
  8
TopPaste
100
AcDbLine
 10
-9.29999918
 20
12.17125074
 30
0.0
 11
-9.29999918
 21
12.9787523
 31
0.0
  0
LINE
  5
390
330
1F
100
AcDbEntity
  8
TopPaste
100
AcDbLine
 10
-9.37124872
 20
13.05000184
 30
0.0
 11
-10.62874684
 21
13.05000184
 31
0.0
  0
LINE
  5
391
330
1F
100
AcDbEntity
  8
TopPaste
100
AcDbLine
 10
-10.69999638
 20
12.9787523
 30
0.0
 11
-10.69999638
 21
12.17125074
 31
0.0
  0
ARC
  5
392
330
1F
100
AcDbEntity
  8
TopPaste
100
AcDbCircle
 10
-10.62874684
 20
12.17125074
 30
0.0
 40
0.07124954
100
AcDbArc
 50
180.0
 51
270.0
  0
ARC
  5
393
330
1F
100
AcDbEntity
  8
TopPaste
100
AcDbCircle
 10
-9.37124872
 20
12.17125074
 30
0.0
 40
0.07124954
100
AcDbArc
 50
270.0
 51
0.0
  0
ARC
  5
394
330
1F
100
AcDbEntity
  8
TopPaste
100
AcDbCircle
 10
-9.37124872
 20
12.9787523
 30
0.0
 40
0.07124954
100
AcDbArc
 50
0.0
 51
90.0
  0
ARC
  5
395
330
1F
100
AcDbEntity
  8
TopPaste
100
AcDbCircle
 10
-10.62874684
 20
12.9787523
 30
0.0
 40
0.07124954
100
AcDbArc
 50
90.0
 51
180.0
  0
CIRCLE
  5
396
330
1F
100
AcDbEntity
  8
TopPaste
100
AcDbCircle
 10
-9.99999778
 20
12.57500152
 30
0.0
 40
0.0
  0
LINE
  5
397
330
1F
100
AcDbEntity
  8
TopPaste
100
AcDbLine
 10
-9.3712538
 20
9.550001219999999
 30
0.0
 11
-10.62875192
 21
9.550001219999999
 31
0.0
  0
LINE
  5
398
330
1F
100
AcDbEntity
  8
TopPaste
100
AcDbLine
 10
-10.70000146
 20
9.478751679999998
 30
0.0
 11
-10.70000146
 21
8.67125012
 31
0.0
  0
LINE
  5
399
330
1F
100
AcDbEntity
  8
TopPaste
100
AcDbLine
 10
-10.62875192
 20
8.60000058
 30
0.0
 11
-9.3712538
 21
8.60000058
 31
0.0
  0
LINE
  5
39A
330
1F
100
AcDbEntity
  8
TopPaste
100
AcDbLine
 10
-9.30000426
 20
8.67125012
 30
0.0
 11
-9.30000426
 21
9.478751679999998
 31
0.0
  0
ARC
  5
39B
330
1F
100
AcDbEntity
  8
TopPaste
100
AcDbCircle
 10
-9.3712538
 20
9.478751679999998
 30
0.0
 40
0.07124954
100
AcDbArc
 50
0.0
 51
90.0
  0
ARC
  5
39C
330
1F
100
AcDbEntity
  8
TopPaste
100
AcDbCircle
 10
-10.62875192
 20
9.478751679999998
 30
0.0
 40
0.07124954
100
AcDbArc
 50
90.0
 51
180.0
  0
ARC
  5
39D
330
1F
100
AcDbEntity
  8
TopPaste
100
AcDbCircle
 10
-10.62875192
 20
8.67125012
 30
0.0
 40
0.07124954
100
AcDbArc
 50
180.0
 51
270.0
  0
ARC
  5
39E
330
1F
100
AcDbEntity
  8
TopPaste
100
AcDbCircle
 10
-9.3712538
 20
8.67125012
 30
0.0
 40
0.07124954
100
AcDbArc
 50
270.0
 51
0.0
  0
CIRCLE
  5
39F
330
1F
100
AcDbEntity
  8
TopPaste
100
AcDbCircle
 10
-10.00000286
 20
9.0750009
 30
0.0
 40
0.0
  0
LINE
  5
3A0
330
1F
100
AcDbEntity
  8
TopPaste
100
AcDbLine
 10
-9.3712538
 20
11.40000006
 30
0.0
 11
-10.62875192
 21
11.40000006
 31
0.0
  0
LINE
  5
3A1
330
1F
100
AcDbEntity
  8
TopPaste
100
AcDbLine
 10
-10.70000146
 20
11.32875052
 30
0.0
 11
-10.70000146
 21
10.52124896
 31
0.0
  0
LINE
  5
3A2
330
1F
100
AcDbEntity
  8
TopPaste
100
AcDbLine
 10
-10.62875192
 20
10.44999942
 30
0.0
 11
-9.3712538
 21
10.44999942
 31
0.0
  0
LINE
  5
3A3
330
1F
100
AcDbEntity
  8
TopPaste
100
AcDbLine
 10
-9.30000426
 20
10.52124896
 30
0.0
 11
-9.30000426
 21
11.32875052
 31
0.0
  0
ARC
  5
3A4
330
1F
100
AcDbEntity
  8
TopPaste
100
AcDbCircle
 10
-9.3712538
 20
11.32875052
 30
0.0
 40
0.07124954
100
AcDbArc
 50
0.0
 51
90.0
  0
ARC
  5
3A5
330
1F
100
AcDbEntity
  8
TopPaste
100
AcDbCircle
 10
-10.62875192
 20
11.32875052
 30
0.0
 40
0.07124954
100
AcDbArc
 50
90.0
 51
180.0
  0
ARC
  5
3A6
330
1F
100
AcDbEntity
  8
TopPaste
100
AcDbCircle
 10
-10.62875192
 20
10.52124896
 30
0.0
 40
0.07124954
100
AcDbArc
 50
180.0
 51
270.0
  0
ARC
  5
3A7
330
1F
100
AcDbEntity
  8
TopPaste
100
AcDbCircle
 10
-9.3712538
 20
10.52124896
 30
0.0
 40
0.07124954
100
AcDbArc
 50
270.0
 51
0.0
  0
CIRCLE
  5
3A8
330
1F
100
AcDbEntity
  8
TopPaste
100
AcDbCircle
 10
-10.00000286
 20
10.92499974
 30
0.0
 40
0.0
  0
LINE
  5
3A9
330
1F
100
AcDbEntity
  8
TopPaste
100
AcDbLine
 10
-8.628745760000001
 20
13.95000004
 30
0.0
 11
-7.371247639999999
 21
13.95000004
 31
0.0
  0
LINE
  5
3AA
330
1F
100
AcDbEntity
  8
TopPaste
100
AcDbLine
 10
-7.299998099999999
 20
14.02124958
 30
0.0
 11
-7.299998099999999
 21
14.82875114
 31
0.0
  0
LINE
  5
3AB
330
1F
100
AcDbEntity
  8
TopPaste
100
AcDbLine
 10
-7.371247639999999
 20
14.90000068
 30
0.0
 11
-8.628745760000001
 21
14.90000068
 31
0.0
  0
LINE
  5
3AC
330
1F
100
AcDbEntity
  8
TopPaste
100
AcDbLine
 10
-8.6999953
 20
14.82875114
 30
0.0
 11
-8.6999953
 21
14.02124958
 31
0.0
  0
ARC
  5
3AD
330
1F
100
AcDbEntity
  8
TopPaste
100
AcDbCircle
 10
-8.628745760000001
 20
14.02124958
 30
0.0
 40
0.07124954
100
AcDbArc
 50
180.0
 51
270.0
  0
ARC
  5
3AE
330
1F
100
AcDbEntity
  8
TopPaste
100
AcDbCircle
 10
-7.371247639999999
 20
14.02124958
 30
0.0
 40
0.07124954
100
AcDbArc
 50
270.0
 51
0.0
  0
ARC
  5
3AF
330
1F
100
AcDbEntity
  8
TopPaste
100
AcDbCircle
 10
-7.371247639999999
 20
14.82875114
 30
0.0
 40
0.07124954
100
AcDbArc
 50
0.0
 51
90.0
  0
ARC
  5
3B0
330
1F
100
AcDbEntity
  8
TopPaste
100
AcDbCircle
 10
-8.628745760000001
 20
14.82875114
 30
0.0
 40
0.07124954
100
AcDbArc
 50
90.0
 51
180.0
  0
CIRCLE
  5
3B1
330
1F
100
AcDbEntity
  8
TopPaste
100
AcDbCircle
 10
-7.999996699999999
 20
14.42500036
 30
0.0
 40
0.0
  0
LINE
  5
3B2
330
1F
100
AcDbEntity
  8
TopPaste
100
AcDbLine
 10
-8.628745760000001
 20
12.1000012
 30
0.0
 11
-7.371247639999999
 21
12.1000012
 31
0.0
  0
LINE
  5
3B3
330
1F
100
AcDbEntity
  8
TopPaste
100
AcDbLine
 10
-7.299998099999999
 20
12.17125074
 30
0.0
 11
-7.299998099999999
 21
12.9787523
 31
0.0
  0
LINE
  5
3B4
330
1F
100
AcDbEntity
  8
TopPaste
100
AcDbLine
 10
-7.371247639999999
 20
13.05000184
 30
0.0
 11
-8.628745760000001
 21
13.05000184
 31
0.0
  0
LINE
  5
3B5
330
1F
100
AcDbEntity
  8
TopPaste
100
AcDbLine
 10
-8.6999953
 20
12.9787523
 30
0.0
 11
-8.6999953
 21
12.17125074
 31
0.0
  0
ARC
  5
3B6
330
1F
100
AcDbEntity
  8
TopPaste
100
AcDbCircle
 10
-8.628745760000001
 20
12.17125074
 30
0.0
 40
0.07124954
100
AcDbArc
 50
180.0
 51
270.0
  0
ARC
  5
3B7
330
1F
100
AcDbEntity
  8
TopPaste
100
AcDbCircle
 10
-7.371247639999999
 20
12.17125074
 30
0.0
 40
0.07124954
100
AcDbArc
 50
270.0
 51
0.0
  0
ARC
  5
3B8
330
1F
100
AcDbEntity
  8
TopPaste
100
AcDbCircle
 10
-7.371247639999999
 20
12.9787523
 30
0.0
 40
0.07124954
100
AcDbArc
 50
0.0
 51
90.0
  0
ARC
  5
3B9
330
1F
100
AcDbEntity
  8
TopPaste
100
AcDbCircle
 10
-8.628745760000001
 20
12.9787523
 30
0.0
 40
0.07124954
100
AcDbArc
 50
90.0
 51
180.0
  0
CIRCLE
  5
3BA
330
1F
100
AcDbEntity
  8
TopPaste
100
AcDbCircle
 10
-7.999996699999999
 20
12.57500152
 30
0.0
 40
0.0
  0
ENDSEC
  0
SECTION
  2
OBJECTS
  0
DICTIONARY
  5
C
330
0
100
AcDbDictionary
281
     1
  3
ACAD_DETAILVIEWSTYLE
350
3C2
  3
ACAD_GROUP
350
D
  3
ACAD_LAYOUT
350
1A
  3
ACAD_MATERIAL
350
43
  3
ACAD_MLEADERSTYLE
350
6B
  3
ACAD_MLINESTYLE
350
17
  3
ACAD_PLOTSETTINGS
350
19
  3
ACAD_PLOTSTYLENAME
350
E
  3
ACAD_SCALELIST
350
47
  3
ACAD_SECTIONVIEWSTYLE
350
3C3
  3
ACAD_TABLESTYLE
350
69
  3
ACAD_VISUALSTYLE
350
2A
  3
ACDB_RECOMPOSE_DATA
350
3BF
  3
AcDbVariableDictionary
350
3BB
  0
SUN
  5
6D
330
29
100
AcDbSun
 90
        1
290
     0
 63
     7
421
 16777215
 40
1.0
291
     1
 91
  2455826
 92
 54000000
292
     0
 70
     2
 71
   256
280
     1
  0
DICTIONARY
  5
3C2
102
{ACAD_REACTORS
330
C
102
}
330
C
100
AcDbDictionary
281
     1
  0
DICTIONARY
  5
D
102
{ACAD_REACTORS
330
C
102
}
330
C
100
AcDbDictionary
281
     1
  0
DICTIONARY
  5
1A
102
{ACAD_REACTORS
330
C
102
}
330
C
100
AcDbDictionary
281
     1
  3
Layout1
350
1E
  3
Layout2
350
26
  3
Model
350
22
  0
DICTIONARY
  5
43
102
{ACAD_REACTORS
330
C
102
}
330
C
100
AcDbDictionary
281
     1
  3
ByBlock
350
45
  3
ByLayer
350
44
  3
Global
350
46
  0
DICTIONARY
  5
6B
102
{ACAD_REACTORS
330
C
102
}
330
C
100
AcDbDictionary
281
     1
  3
Standard
350
6C
  0
DICTIONARY
  5
17
102
{ACAD_REACTORS
330
C
102
}
330
C
100
AcDbDictionary
281
     1
  3
Standard
350
18
  0
DICTIONARY
  5
19
102
{ACAD_REACTORS
330
C
102
}
330
C
100
AcDbDictionary
281
     1
  0
ACDBDICTIONARYWDFLT
  5
E
102
{ACAD_REACTORS
330
C
102
}
330
C
100
AcDbDictionary
281
     1
  3
Normal
350
F
100
AcDbDictionaryWithDefault
340
F
  0
DICTIONARY
  5
47
102
{ACAD_REACTORS
330
C
102
}
330
C
100
AcDbDictionary
281
     1
  3
A0
350
48
  3
A1
350
49
  3
A2
350
4A
  3
A3
350
4B
  3
A4
350
4C
  3
A5
350
4D
  3
A6
350
4E
  3
A7
350
4F
  3
A8
350
50
  3
A9
350
51
  3
B0
350
52
  3
B1
350
53
  3
B2
350
54
  3
B3
350
55
  3
B4
350
56
  3
B5
350
57
  3
B6
350
58
  3
B7
350
59
  3
B8
350
5A
  3
B9
350
5B
  3
C0
350
5C
  3
C1
350
5D
  3
C2
350
5E
  3
C3
350
5F
  3
C4
350
60
  3
C5
350
61
  3
C6
350
62
  3
C7
350
63
  3
C8
350
64
  3
C9
350
65
  3
D0
350
66
  3
D1
350
67
  3
D2
350
68
  0
DICTIONARY
  5
3C3
102
{ACAD_REACTORS
330
C
102
}
330
C
100
AcDbDictionary
281
     1
  0
DICTIONARY
  5
69
102
{ACAD_REACTORS
330
C
102
}
330
C
100
AcDbDictionary
281
     1
  3
Standard
350
6A
  0
DICTIONARY
  5
2A
102
{ACAD_REACTORS
330
C
102
}
330
C
100
AcDbDictionary
281
     1
  3
2dWireframe
350
2F
  3
Basic
350
32
  3
Brighten
350
36
  3
ColorChange
350
3A
  3
Conceptual
350
34
  3
Dim
350
35
  3
EdgeColorOff
350
3D
  3
Facepattern
350
39
  3
Flat
350
2B
  3
FlatWithEdges
350
2C
  3
Gouraud
350
2D
  3
GouraudWithEdges
350
2E
  3
Hidden
350
31
  3
JitterOff
350
3B
  3
Linepattern
350
38
  3
OverhangOff
350
3C
  3
Realistic
350
33
  3
Shaded
350
42
  3
Shaded with edges
350
41
  3
Shades of Gray
350
3E
  3
Sketchy
350
3F
  3
Thicken
350
37
  3
Wireframe
350
30
  3
X-Ray
350
40
  0
XRECORD
  5
3BF
102
{ACAD_REACTORS
330
C
102
}
330
C
100
AcDbXrecord
280
     1
 90
        1
330
6A
  0
DICTIONARY
  5
3BB
102
{ACAD_REACTORS
330
C
102
}
330
C
100
AcDbDictionary
281
     1
  3
CANNOSCALE
350
3BC
  3
CMLEADERSTYLE
350
3C1
  3
CTABLESTYLE
350
3C0
  0
LAYOUT
  5
1E
102
{ACAD_REACTORS
330
1A
102
}
330
1A
100
AcDbPlotSettings
  1

  2
none_device
  4

  6

 40
0.0
 41
0.0
 42
0.0
 43
0.0
 44
0.0
 45
0.0
 46
0.0
 47
0.0
 48
0.0
 49
0.0
140
0.0
141
0.0
142
1.0
143
1.0
 70
   688
 72
     1
 73
     0
 74
     5
  7

 75
    16
 76
     0
 77
     2
 78
   300
147
1.0
148
0.0
149
0.0
100
AcDbLayout
  1
Layout1
 70
     1
 71
     1
 10
0.0
 20
0.0
 11
420.0
 21
297.0
 12
0.0
 22
0.0
 32
0.0
 14
1.000000000000000E+20
 24
1.000000000000000E+20
 34
1.000000000000000E+20
 15
-1.000000000000000E+20
 25
-1.000000000000000E+20
 35
-1.000000000000000E+20
146
0.0
 13
0.0
 23
0.0
 33
0.0
 16
1.0
 26
0.0
 36
0.0
 17
0.0
 27
1.0
 37
0.0
 76
     0
330
1B
  0
LAYOUT
  5
26
102
{ACAD_REACTORS
330
1A
102
}
330
1A
100
AcDbPlotSettings
  1

  2
none_device
  4

  6

 40
0.0
 41
0.0
 42
0.0
 43
0.0
 44
0.0
 45
0.0
 46
0.0
 47
0.0
 48
0.0
 49
0.0
140
0.0
141
0.0
142
1.0
143
1.0
 70
   688
 72
     1
 73
     0
 74
     5
  7

 75
    16
 76
     0
 77
     2
 78
   300
147
1.0
148
0.0
149
0.0
100
AcDbLayout
  1
Layout2
 70
     1
 71
     2
 10
0.0
 20
0.0
 11
0.0
 21
0.0
 12
0.0
 22
0.0
 32
0.0
 14
0.0
 24
0.0
 34
0.0
 15
0.0
 25
0.0
 35
0.0
146
0.0
 13
0.0
 23
0.0
 33
0.0
 16
1.0
 26
0.0
 36
0.0
 17
0.0
 27
1.0
 37
0.0
 76
     0
330
23
  0
LAYOUT
  5
22
102
{ACAD_REACTORS
330
1A
102
}
330
1A
100
AcDbPlotSettings
  1

  2
none_device
  4
Letter_(8.50_x_11.00_Inches)
  6

 40
6.35
 41
6.35
 42
6.35000508
 43
6.35000508
 44
215.9
 45
279.4
 46
0.0
 47
0.0
 48
0.0
 49
0.0
140
0.0
141
0.0
142
1.0
143
1.0
 70
  1712
 72
     1
 73
     0
 74
     0
  7

 75
     0
 76
     0
 77
     2
 78
   300
147
1.0
148
0.0
149
0.0
100
AcDbLayout
  1
Model
 70
     1
 71
     0
 10
-55.69229653999999
 20
-27.2088991
 11
53.1720552
 21
22.68273848
 12
0.0
 22
0.0
 32
0.0
 14
1.000000000000000E+20
 24
1.000000000000000E+20
 34
1.000000000000000E+20
 15
-1.000000000000000E+20
 25
-1.000000000000000E+20
 35
-1.000000000000000E+20
146
0.0
 13
0.0
 23
0.0
 33
0.0
 16
1.0
 26
0.0
 36
0.0
 17
0.0
 27
1.0
 37
0.0
 76
     0
330
1F
331
29
  0
MATERIAL
  5
45
102
{ACAD_REACTORS
330
43
102
}
330
43
100
AcDbMaterial
  1
ByBlock
 72
     1
 94
      127
  0
MATERIAL
  5
44
102
{ACAD_REACTORS
330
43
102
}
330
43
100
AcDbMaterial
  1
ByLayer
 72
     1
 94
      127
  0
MATERIAL
  5
46
102
{ACAD_REACTORS
330
43
102
}
330
43
100
AcDbMaterial
  1
Global
 72
     1
 94
      127
  0
MLEADERSTYLE
  5
6C
102
{ACAD_REACTORS
330
6B
102
}
330
6B
100
AcDbMLeaderStyle
179
     2
170
     2
171
     1
172
     0
 90
        2
 40
0.0
 41
0.0
173
     1
 91
-1056964608
340
14
 92
       -2
290
     1
 42
2.0
291
     1
 43
8.0
  3
Standard
341
0
 44
4.0
300

342
11
174
     1
178
     6
175
     1
176
     0
 93
-1056964608
 45
4.0
292
     0
297
     0
 46
4.0
343
0
 94
-1056964608
 47
1.0
 49
1.0
140
1.0
293
     1
141
0.0
294
     1
177
     0
142
1.0
295
     0
296
     0
143
3.75
271
     0
272
     9
273
     9
298
     0
  0
MLINESTYLE
  5
18
102
{ACAD_REACTORS
330
17
102
}
330
17
100
AcDbMlineStyle
  2
Standard
 70
     0
  3

 62
   256
 51
90.0
 52
90.0
 71
     2
 49
0.5
 62
   256
  6
BYLAYER
 49
-0.5
 62
   256
  6
BYLAYER
  0
ACDBPLACEHOLDER
  5
F
102
{ACAD_REACTORS
330
E
102
}
330
E
  0
SCALE
  5
48
102
{ACAD_REACTORS
330
47
102
}
330
47
100
AcDbScale
 70
     0
300
1:1
140
1.0
141
1.0
290
     1
  0
SCALE
  5
49
102
{ACAD_REACTORS
330
47
102
}
330
47
100
AcDbScale
 70
     0
300
1:2
140
1.0
141
2.0
290
     0
  0
SCALE
  5
4A
102
{ACAD_REACTORS
330
47
102
}
330
47
100
AcDbScale
 70
     0
300
1:4
140
1.0
141
4.0
290
     0
  0
SCALE
  5
4B
102
{ACAD_REACTORS
330
47
102
}
330
47
100
AcDbScale
 70
     0
300
1:5
140
1.0
141
5.0
290
     0
  0
SCALE
  5
4C
102
{ACAD_REACTORS
330
47
102
}
330
47
100
AcDbScale
 70
     0
300
1:8
140
1.0
141
8.0
290
     0
  0
SCALE
  5
4D
102
{ACAD_REACTORS
330
47
102
}
330
47
100
AcDbScale
 70
     0
300
1:10
140
1.0
141
10.0
290
     0
  0
SCALE
  5
4E
102
{ACAD_REACTORS
330
47
102
}
330
47
100
AcDbScale
 70
     0
300
1:16
140
1.0
141
16.0
290
     0
  0
SCALE
  5
4F
102
{ACAD_REACTORS
330
47
102
}
330
47
100
AcDbScale
 70
     0
300
1:20
140
1.0
141
20.0
290
     0
  0
SCALE
  5
50
102
{ACAD_REACTORS
330
47
102
}
330
47
100
AcDbScale
 70
     0
300
1:30
140
1.0
141
30.0
290
     0
  0
SCALE
  5
51
102
{ACAD_REACTORS
330
47
102
}
330
47
100
AcDbScale
 70
     0
300
1:40
140
1.0
141
40.0
290
     0
  0
SCALE
  5
52
102
{ACAD_REACTORS
330
47
102
}
330
47
100
AcDbScale
 70
     0
300
1:50
140
1.0
141
50.0
290
     0
  0
SCALE
  5
53
102
{ACAD_REACTORS
330
47
102
}
330
47
100
AcDbScale
 70
     0
300
1:100
140
1.0
141
100.0
290
     0
  0
SCALE
  5
54
102
{ACAD_REACTORS
330
47
102
}
330
47
100
AcDbScale
 70
     0
300
2:1
140
2.0
141
1.0
290
     0
  0
SCALE
  5
55
102
{ACAD_REACTORS
330
47
102
}
330
47
100
AcDbScale
 70
     0
300
4:1
140
4.0
141
1.0
290
     0
  0
SCALE
  5
56
102
{ACAD_REACTORS
330
47
102
}
330
47
100
AcDbScale
 70
     0
300
8:1
140
8.0
141
1.0
290
     0
  0
SCALE
  5
57
102
{ACAD_REACTORS
330
47
102
}
330
47
100
AcDbScale
 70
     0
300
10:1
140
10.0
141
1.0
290
     0
  0
SCALE
  5
58
102
{ACAD_REACTORS
330
47
102
}
330
47
100
AcDbScale
 70
     0
300
100:1
140
100.0
141
1.0
290
     0
  0
SCALE
  5
59
102
{ACAD_REACTORS
330
47
102
}
330
47
100
AcDbScale
 70
     0
300
1/128" = 1'-0"
140
0.0078125
141
12.0
290
     0
  0
SCALE
  5
5A
102
{ACAD_REACTORS
330
47
102
}
330
47
100
AcDbScale
 70
     0
300
1/64" = 1'-0"
140
0.015625
141
12.0
290
     0
  0
SCALE
  5
5B
102
{ACAD_REACTORS
330
47
102
}
330
47
100
AcDbScale
 70
     0
300
1/32" = 1'-0"
140
0.03125
141
12.0
290
     0
  0
SCALE
  5
5C
102
{ACAD_REACTORS
330
47
102
}
330
47
100
AcDbScale
 70
     0
300
1/16" = 1'-0"
140
0.0625
141
12.0
290
     0
  0
SCALE
  5
5D
102
{ACAD_REACTORS
330
47
102
}
330
47
100
AcDbScale
 70
     0
300
3/32" = 1'-0"
140
0.09375
141
12.0
290
     0
  0
SCALE
  5
5E
102
{ACAD_REACTORS
330
47
102
}
330
47
100
AcDbScale
 70
     0
300
1/8" = 1'-0"
140
0.125
141
12.0
290
     0
  0
SCALE
  5
5F
102
{ACAD_REACTORS
330
47
102
}
330
47
100
AcDbScale
 70
     0
300
3/16" = 1'-0"
140
0.1875
141
12.0
290
     0
  0
SCALE
  5
60
102
{ACAD_REACTORS
330
47
102
}
330
47
100
AcDbScale
 70
     0
300
1/4" = 1'-0"
140
0.25
141
12.0
290
     0
  0
SCALE
  5
61
102
{ACAD_REACTORS
330
47
102
}
330
47
100
AcDbScale
 70
     0
300
3/8" = 1'-0"
140
0.375
141
12.0
290
     0
  0
SCALE
  5
62
102
{ACAD_REACTORS
330
47
102
}
330
47
100
AcDbScale
 70
     0
300
1/2" = 1'-0"
140
0.5
141
12.0
290
     0
  0
SCALE
  5
63
102
{ACAD_REACTORS
330
47
102
}
330
47
100
AcDbScale
 70
     0
300
3/4" = 1'-0"
140
0.75
141
12.0
290
     0
  0
SCALE
  5
64
102
{ACAD_REACTORS
330
47
102
}
330
47
100
AcDbScale
 70
     0
300
1" = 1'-0"
140
1.0
141
12.0
290
     0
  0
SCALE
  5
65
102
{ACAD_REACTORS
330
47
102
}
330
47
100
AcDbScale
 70
     0
300
1-1/2" = 1'-0"
140
1.5
141
12.0
290
     0
  0
SCALE
  5
66
102
{ACAD_REACTORS
330
47
102
}
330
47
100
AcDbScale
 70
     0
300
3" = 1'-0"
140
3.0
141
12.0
290
     0
  0
SCALE
  5
67
102
{ACAD_REACTORS
330
47
102
}
330
47
100
AcDbScale
 70
     0
300
6" = 1'-0"
140
6.0
141
12.0
290
     0
  0
SCALE
  5
68
102
{ACAD_REACTORS
330
47
102
}
330
47
100
AcDbScale
 70
     0
300
1'-0" = 1'-0"
140
12.0
141
12.0
290
     0
  0
TABLESTYLE
  5
6A
102
{ACAD_REACTORS
330
69
102
}
102
{ACAD_XDICTIONARY
360
3BD
102
}
330
69
100
AcDbTableStyle
  3
Standard
 70
     0
 71
     0
 40
0.06
 41
0.06
280
     0
281
     0
  7
Standard
140
4.5
170
     2
 62
     0
 63
   257
283
     0
 90
        4
 91
        0
  1

274
    -2
284
     1
 64
     0
275
    -2
285
     1
 65
     0
276
    -2
286
     1
 66
     0
277
    -2
287
     1
 67
     0
278
    -2
288
     1
 68
     0
279
    -2
289
     1
 69
     0
  7
Standard
140
6.0
170
     5
 62
     0
 63
   257
283
     0
 90
        4
 91
        0
  1

274
    -2
284
     1
 64
     0
275
    -2
285
     1
 65
     0
276
    -2
286
     1
 66
     0
277
    -2
287
     1
 67
     0
278
    -2
288
     1
 68
     0
279
    -2
289
     1
 69
     0
  7
Standard
140
4.5
170
     5
 62
     0
 63
   257
283
     0
 90
        4
 91
        0
  1

274
    -2
284
     1
 64
     0
275
    -2
285
     1
 65
     0
276
    -2
286
     1
 66
     0
277
    -2
287
     1
 67
     0
278
    -2
288
     1
 68
     0
279
    -2
289
     1
 69
     0
  0
VISUALSTYLE
  5
2F
102
{ACAD_REACTORS
330
2A
102
}
330
2A
100
AcDbVisualStyle
  2
2dWireframe
 70
     4
177
     3
291
     0
 70
    58
 90
        0
176
     1
 90
        2
176
     1
 90
        0
176
     1
 90
        0
176
     1
 40
0.6
176
     1
 40
30.0
176
     1
 62
     7
420
 16777215
176
     1
 90
        1
176
     1
 90
        4
176
     1
 62
     7
176
     1
 62
   257
176
     1
 90
        1
176
     1
 90
        1
176
     1
 40
1.0
176
     1
 90
        0
176
     1
 62
   257
176
     1
 40
1.0
176
     1
 90
        1
176
     1
 90
        6
176
     1
 90
        2
176
     1
 62
     7
176
     1
 90
        5
176
     1
 90
        0
176
     1
 90
        0
176
     1
290
     0
176
     1
 90
        1
176
     1
 40
0.0
176
     1
 90
        0
176
     1
290
     1
176
     1
290
     1
176
     1
290
     0
176
     1
290
     0
176
     1
290
     0
176
     1
290
     0
176
     1
290
     0
176
     1
290
     0
176
     1
290
     0
176
     1
 90
       50
176
     1
 40
0.0
176
     1
 40
1.0
176
     1
 90
        0
176
     1
 62
    18
420
        0
176
     1
 90
       50
176
     1
 90
        3
176
     1
 62
     5
420
      255
176
     1
290
     0
176
     1
 90
       50
176
     1
 90
       50
176
     1
 90
       50
176
     1
290
     0
176
     1
 90
       50
176
     1
 62
   256
176
     0
 40
1.0
176
     0
 90
        2
176
     1
  1
strokes_ogs.tif
176
     1
290
     0
176
     1
 40
1.0
176
     1
 40
1.0
176
     1
  0
VISUALSTYLE
  5
32
102
{ACAD_REACTORS
330
2A
102
}
330
2A
100
AcDbVisualStyle
  2
Basic
 70
     7
177
     3
291
     1
 70
    58
 90
        1
176
     1
 90
        0
176
     1
 90
        1
176
     1
 90
        0
176
     1
 40
0.6
176
     1
 40
30.0
176
     1
 62
     7
420
 16777215
176
     1
 90
        0
176
     1
 90
        4
176
     1
 62
     7
176
     1
 62
   257
176
     1
 90
        1
176
     1
 90
        1
176
     1
 40
1.0
176
     1
 90
        8
176
     1
 62
     7
176
     1
 40
1.0
176
     1
 90
        1
176
     1
 90
        6
176
     1
 90
        2
176
     1
 62
     7
176
     1
 90
        5
176
     1
 90
        0
176
     1
 90
        0
176
     1
290
     0
176
     1
 90
        1
176
     1
 40
0.0
176
     1
 90
        0
176
     1
290
     0
176
     1
290
     1
176
     1
290
     1
176
     1
290
     0
176
     1
290
     0
176
     1
290
     0
176
     1
290
     0
176
     1
290
     0
176
     1
290
     0
176
     1
 90
       50
176
     1
 40
0.0
176
     1
 40
1.0
176
     1
 90
        0
176
     1
 62
    18
420
        0
176
     1
 90
       50
176
     1
 90
        3
176
     1
 62
     5
420
      255
176
     1
290
     0
176
     1
 90
       50
176
     1
 90
       50
176
     1
 90
       50
176
     1
290
     0
176
     1
 90
       50
176
     1
 62
   256
176
     0
 40
1.0
176
     0
 90
        2
176
     1
  1
strokes_ogs.tif
176
     1
290
     0
176
     1
 40
1.0
176
     1
 40
1.0
176
     1
  0
VISUALSTYLE
  5
36
102
{ACAD_REACTORS
330
2A
102
}
330
2A
100
AcDbVisualStyle
  2
Brighten
 70
    12
177
     3
291
     1
 70
    58
 90
        2
176
     1
 90
        2
176
     1
 90
        0
176
     1
 90
        0
176
     1
 40
0.6
176
     1
 40
30.0
176
     1
 62
     7
420
 16777215
176
     1
 90
        1
176
     1
 90
        4
176
     1
 62
     7
176
     1
 62
   257
176
     1
 90
        1
176
     1
 90
        1
176
     1
 40
1.0
176
     1
 90
        8
176
     1
 62
     7
176
     1
 40
1.0
176
     1
 90
        1
176
     1
 90
        6
176
     1
 90
        2
176
     1
 62
     7
176
     1
 90
        5
176
     1
 90
        0
176
     1
 90
        0
176
     1
290
     0
176
     1
 90
        1
176
     1
 40
50.0
176
     1
 90
        0
176
     1
290
     0
176
     1
290
     1
176
     1
290
     1
176
     1
290
     0
176
     1
290
     0
176
     1
290
     0
176
     1
290
     0
176
     1
290
     0
176
     1
290
     0
176
     1
 90
       50
176
     1
 40
0.0
176
     1
 40
1.0
176
     1
 90
        0
176
     1
 62
    18
420
        0
176
     1
 90
       50
176
     1
 90
        3
176
     1
 62
     5
420
      255
176
     1
290
     0
176
     1
 90
       50
176
     1
 90
       50
176
     1
 90
       50
176
     1
290
     0
176
     1
 90
       50
176
     1
 62
   256
176
     0
 40
1.0
176
     0
 90
        2
176
     1
  1
strokes_ogs.tif
176
     1
290
     0
176
     1
 40
1.0
176
     1
 40
1.0
176
     1
  0
VISUALSTYLE
  5
3A
102
{ACAD_REACTORS
330
2A
102
}
330
2A
100
AcDbVisualStyle
  2
ColorChange
 70
    16
177
     3
291
     1
 70
    58
 90
        2
176
     1
 90
        2
176
     1
 90
        3
176
     1
 90
        0
176
     1
 40
0.6
176
     1
 40
30.0
176
     1
 62
     8
420
  8421504
176
     1
 90
        1
176
     1
 90
        4
176
     1
 62
     7
176
     1
 62
   257
176
     1
 90
        1
176
     1
 90
        1
176
     1
 40
1.0
176
     1
 90
        8
176
     1
 62
     8
420
  8421504
176
     1
 40
1.0
176
     1
 90
        1
176
     1
 90
        6
176
     1
 90
        2
176
     1
 62
     7
176
     1
 90
        5
176
     1
 90
        0
176
     1
 90
        0
176
     1
290
     0
176
     1
 90
        1
176
     1
 40
0.0
176
     1
 90
        0
176
     1
290
     0
176
     1
290
     1
176
     1
290
     1
176
     1
290
     0
176
     1
290
     0
176
     1
290
     0
176
     1
290
     0
176
     1
290
     0
176
     1
290
     0
176
     1
 90
       50
176
     1
 40
0.0
176
     1
 40
1.0
176
     1
 90
        0
176
     1
 62
    18
420
        0
176
     1
 90
       50
176
     1
 90
        3
176
     1
 62
     5
420
      255
176
     1
290
     0
176
     1
 90
       50
176
     1
 90
       50
176
     1
 90
       50
176
     1
290
     0
176
     1
 90
       50
176
     1
 62
   256
176
     0
 40
1.0
176
     0
 90
        2
176
     1
  1
strokes_ogs.tif
176
     1
290
     0
176
     1
 40
1.0
176
     1
 40
1.0
176
     1
  0
VISUALSTYLE
  5
34
102
{ACAD_REACTORS
330
2A
102
}
330
2A
100
AcDbVisualStyle
  2
Conceptual
 70
     9
177
     3
291
     0
 70
    58
 90
        3
176
     1
 90
        2
176
     1
 90
        0
176
     1
 90
        0
176
     1
 40
0.6
176
     1
 40
30.0
176
     1
 62
     7
420
 16777215
176
     1
 90
        2
176
     1
 90
        2
176
     1
 62
     7
176
     1
 62
   257
176
     1
 90
        1
176
     1
 90
        1
176
     1
 40
179.0
176
     1
 90
        8
176
     1
 62
     7
176
     1
 40
1.0
176
     1
 90
        1
176
     1
 90
        6
176
     1
 90
        2
176
     1
 62
     7
176
     1
 90
        3
176
     1
 90
        0
176
     1
 90
        0
176
     1
290
     0
176
     1
 90
        1
176
     1
 40
0.0
176
     1
 90
        0
176
     1
290
     0
176
     1
290
     1
176
     1
290
     1
176
     1
290
     0
176
     1
290
     0
176
     1
290
     0
176
     1
290
     0
176
     1
290
     0
176
     1
290
     0
176
     1
 90
       50
176
     1
 40
0.0
176
     1
 40
1.0
176
     1
 90
        0
176
     1
 62
    18
420
        0
176
     1
 90
       50
176
     1
 90
        3
176
     1
 62
     5
420
      255
176
     1
290
     0
176
     1
 90
       50
176
     1
 90
       50
176
     1
 90
       50
176
     1
290
     0
176
     1
 90
       50
176
     1
 62
   256
176
     0
 40
1.0
176
     0
 90
        2
176
     1
  1
strokes_ogs.tif
176
     1
290
     0
176
     1
 40
1.0
176
     1
 40
1.0
176
     1
  0
VISUALSTYLE
  5
35
102
{ACAD_REACTORS
330
2A
102
}
330
2A
100
AcDbVisualStyle
  2
Dim
 70
    11
177
     3
291
     1
 70
    58
 90
        2
176
     1
 90
        2
176
     1
 90
        0
176
     1
 90
        0
176
     1
 40
0.6
176
     1
 40
30.0
176
     1
 62
     7
420
 16777215
176
     1
 90
        1
176
     1
 90
        4
176
     1
 62
     7
176
     1
 62
   257
176
     1
 90
        1
176
     1
 90
        1
176
     1
 40
1.0
176
     1
 90
        8
176
     1
 62
     7
176
     1
 40
1.0
176
     1
 90
        1
176
     1
 90
        6
176
     1
 90
        2
176
     1
 62
     7
176
     1
 90
        5
176
     1
 90
        0
176
     1
 90
        0
176
     1
290
     0
176
     1
 90
        1
176
     1
 40
-50.0
176
     1
 90
        0
176
     1
290
     0
176
     1
290
     1
176
     1
290
     1
176
     1
290
     0
176
     1
290
     0
176
     1
290
     0
176
     1
290
     0
176
     1
290
     0
176
     1
290
     0
176
     1
 90
       50
176
     1
 40
0.0
176
     1
 40
1.0
176
     1
 90
        0
176
     1
 62
    18
420
        0
176
     1
 90
       50
176
     1
 90
        3
176
     1
 62
     5
420
      255
176
     1
290
     0
176
     1
 90
       50
176
     1
 90
       50
176
     1
 90
       50
176
     1
290
     0
176
     1
 90
       50
176
     1
 62
   256
176
     0
 40
1.0
176
     0
 90
        2
176
     1
  1
strokes_ogs.tif
176
     1
290
     0
176
     1
 40
1.0
176
     1
 40
1.0
176
     1
  0
VISUALSTYLE
  5
3D
102
{ACAD_REACTORS
330
2A
102
}
330
2A
100
AcDbVisualStyle
  2
EdgeColorOff
 70
    22
177
     3
291
     1
 70
    58
 90
        2
176
     0
 90
        2
176
     0
 90
        0
176
     0
 90
        0
176
     0
 40
0.6
176
     0
 40
30.0
176
     0
 62
     7
420
 16777215
176
     0
 90
        1
176
     0
 90
        4
176
     0
 62
     7
176
     0
 62
   257
176
     0
 90
        1
176
     0
 90
        1
176
     0
 40
1.0
176
     0
 90
        8
176
     2
 62
     7
176
     0
 40
1.0
176
     0
 90
        1
176
     0
 90
        6
176
     0
 90
        2
176
     0
 62
     7
176
     0
 90
        5
176
     0
 90
        0
176
     0
 90
        0
176
     0
290
     0
176
     0
 90
        1
176
     0
 40
0.0
176
     0
 90
        0
176
     0
290
     0
176
     0
290
     1
176
     0
290
     1
176
     0
290
     0
176
     0
290
     0
176
     0
290
     0
176
     0
290
     0
176
     0
290
     0
176
     0
290
     0
176
     0
 90
       50
176
     0
 40
0.0
176
     0
 40
1.0
176
     0
 90
        0
176
     0
 62
    18
420
        0
176
     0
 90
       50
176
     0
 90
        3
176
     0
 62
     5
420
      255
176
     0
290
     0
176
     0
 90
       50
176
     0
 90
       50
176
     0
 90
       50
176
     0
290
     0
176
     0
 90
       50
176
     0
 62
   256
176
     0
 40
1.0
176
     0
 90
        2
176
     0
  1
strokes_ogs.tif
176
     0
290
     0
176
     0
 40
1.0
176
     0
 40
1.0
176
     0
  0
VISUALSTYLE
  5
39
102
{ACAD_REACTORS
330
2A
102
}
330
2A
100
AcDbVisualStyle
  2
Facepattern
 70
    15
177
     3
291
     1
 70
    58
 90
        2
176
     1
 90
        2
176
     1
 90
        0
176
     1
 90
        0
176
     1
 40
0.6
176
     1
 40
30.0
176
     1
 62
     7
420
 16777215
176
     1
 90
        1
176
     1
 90
        4
176
     1
 62
     7
176
     1
 62
   257
176
     1
 90
        1
176
     1
 90
        1
176
     1
 40
1.0
176
     1
 90
        8
176
     1
 62
     7
176
     1
 40
1.0
176
     1
 90
        1
176
     1
 90
        6
176
     1
 90
        2
176
     1
 62
     7
176
     1
 90
        5
176
     1
 90
        0
176
     1
 90
        0
176
     1
290
     0
176
     1
 90
        1
176
     1
 40
0.0
176
     1
 90
        0
176
     1
290
     0
176
     1
290
     1
176
     1
290
     1
176
     1
290
     0
176
     1
290
     0
176
     1
290
     0
176
     1
290
     0
176
     1
290
     0
176
     1
290
     0
176
     1
 90
       50
176
     1
 40
0.0
176
     1
 40
1.0
176
     1
 90
        0
176
     1
 62
    18
420
        0
176
     1
 90
       50
176
     1
 90
        3
176
     1
 62
     5
420
      255
176
     1
290
     0
176
     1
 90
       50
176
     1
 90
       50
176
     1
 90
       50
176
     1
290
     0
176
     1
 90
       50
176
     1
 62
   256
176
     0
 40
1.0
176
     0
 90
        2
176
     1
  1
strokes_ogs.tif
176
     1
290
     0
176
     1
 40
1.0
176
     1
 40
1.0
176
     1
  0
VISUALSTYLE
  5
2B
102
{ACAD_REACTORS
330
2A
102
}
330
2A
100
AcDbVisualStyle
  2
Flat
 70
     0
177
     3
291
     1
 70
    58
 90
        2
176
     1
 90
        1
176
     1
 90
        1
176
     1
 90
        2
176
     1
 40
0.6
176
     1
 40
30.0
176
     1
 62
     7
420
 16777215
176
     1
 90
        0
176
     1
 90
        0
176
     1
 62
     7
176
     1
 62
   257
176
     1
 90
        1
176
     1
 90
        1
176
     1
 40
1.0
176
     1
 90
        8
176
     1
 62
     7
176
     1
 40
1.0
176
     1
 90
        1
176
     1
 90
        6
176
     1
 90
        2
176
     1
 62
     7
176
     1
 90
        5
176
     1
 90
        0
176
     1
 90
        0
176
     1
290
     0
176
     1
 90
       13
176
     1
 40
0.0
176
     1
 90
        0
176
     1
290
     0
176
     1
290
     1
176
     1
290
     1
176
     1
290
     0
176
     1
290
     0
176
     1
290
     0
176
     1
290
     0
176
     1
290
     0
176
     1
290
     0
176
     1
 90
       50
176
     1
 40
0.0
176
     1
 40
1.0
176
     1
 90
        0
176
     1
 62
    18
420
        0
176
     1
 90
       50
176
     1
 90
        3
176
     1
 62
     5
420
      255
176
     1
290
     0
176
     1
 90
       50
176
     1
 90
       50
176
     1
 90
       50
176
     1
290
     0
176
     1
 90
       50
176
     1
 62
   256
176
     0
 40
1.0
176
     0
 90
        2
176
     1
  1
strokes_ogs.tif
176
     1
290
     0
176
     1
 40
1.0
176
     1
 40
1.0
176
     1
  0
VISUALSTYLE
  5
2C
102
{ACAD_REACTORS
330
2A
102
}
330
2A
100
AcDbVisualStyle
  2
FlatWithEdges
 70
     1
177
     3
291
     1
 70
    58
 90
        2
176
     1
 90
        1
176
     1
 90
        1
176
     1
 90
        2
176
     1
 40
0.6
176
     1
 40
30.0
176
     1
 62
     7
420
 16777215
176
     1
 90
        1
176
     1
 90
        0
176
     1
 62
     7
176
     1
 62
   257
176
     1
 90
        1
176
     1
 90
        1
176
     1
 40
1.0
176
     1
 90
        0
176
     1
 62
   257
176
     1
 40
1.0
176
     1
 90
        1
176
     1
 90
        6
176
     1
 90
        2
176
     1
 62
     7
176
     1
 90
        5
176
     1
 90
        0
176
     1
 90
        0
176
     1
290
     0
176
     1
 90
       13
176
     1
 40
0.0
176
     1
 90
        0
176
     1
290
     0
176
     1
290
     1
176
     1
290
     1
176
     1
290
     0
176
     1
290
     0
176
     1
290
     0
176
     1
290
     0
176
     1
290
     0
176
     1
290
     0
176
     1
 90
       50
176
     1
 40
0.0
176
     1
 40
1.0
176
     1
 90
        0
176
     1
 62
    18
420
        0
176
     1
 90
       50
176
     1
 90
        3
176
     1
 62
     5
420
      255
176
     1
290
     0
176
     1
 90
       50
176
     1
 90
       50
176
     1
 90
       50
176
     1
290
     0
176
     1
 90
       50
176
     1
 62
   256
176
     0
 40
1.0
176
     0
 90
        2
176
     1
  1
strokes_ogs.tif
176
     1
290
     0
176
     1
 40
1.0
176
     1
 40
1.0
176
     1
  0
VISUALSTYLE
  5
2D
102
{ACAD_REACTORS
330
2A
102
}
330
2A
100
AcDbVisualStyle
  2
Gouraud
 70
     2
177
     3
291
     1
 70
    58
 90
        2
176
     1
 90
        2
176
     1
 90
        1
176
     1
 90
        2
176
     1
 40
0.6
176
     1
 40
30.0
176
     1
 62
     7
420
 16777215
176
     1
 90
        0
176
     1
 90
        0
176
     1
 62
     7
176
     1
 62
   257
176
     1
 90
        1
176
     1
 90
        1
176
     1
 40
1.0
176
     1
 90
        0
176
     1
 62
     7
176
     1
 40
1.0
176
     1
 90
        1
176
     1
 90
        6
176
     1
 90
        2
176
     1
 62
     7
176
     1
 90
        5
176
     1
 90
        0
176
     1
 90
        0
176
     1
290
     0
176
     1
 90
       13
176
     1
 40
0.0
176
     1
 90
        0
176
     1
290
     0
176
     1
290
     1
176
     1
290
     1
176
     1
290
     0
176
     1
290
     0
176
     1
290
     0
176
     1
290
     0
176
     1
290
     0
176
     1
290
     0
176
     1
 90
       50
176
     1
 40
0.0
176
     1
 40
1.0
176
     1
 90
        0
176
     1
 62
    18
420
        0
176
     1
 90
       50
176
     1
 90
        3
176
     1
 62
     5
420
      255
176
     1
290
     0
176
     1
 90
       50
176
     1
 90
       50
176
     1
 90
       50
176
     1
290
     0
176
     1
 90
       50
176
     1
 62
   256
176
     0
 40
1.0
176
     0
 90
        2
176
     1
  1
strokes_ogs.tif
176
     1
290
     0
176
     1
 40
1.0
176
     1
 40
1.0
176
     1
  0
VISUALSTYLE
  5
2E
102
{ACAD_REACTORS
330
2A
102
}
330
2A
100
AcDbVisualStyle
  2
GouraudWithEdges
 70
     3
177
     3
291
     1
 70
    58
 90
        2
176
     1
 90
        2
176
     1
 90
        1
176
     1
 90
        2
176
     1
 40
0.6
176
     1
 40
30.0
176
     1
 62
     7
420
 16777215
176
     1
 90
        1
176
     1
 90
        0
176
     1
 62
     7
176
     1
 62
   257
176
     1
 90
        1
176
     1
 90
        1
176
     1
 40
1.0
176
     1
 90
        0
176
     1
 62
   257
176
     1
 40
1.0
176
     1
 90
        1
176
     1
 90
        6
176
     1
 90
        2
176
     1
 62
     7
176
     1
 90
        5
176
     1
 90
        0
176
     1
 90
        0
176
     1
290
     0
176
     1
 90
       13
176
     1
 40
0.0
176
     1
 90
        0
176
     1
290
     0
176
     1
290
     1
176
     1
290
     1
176
     1
290
     0
176
     1
290
     0
176
     1
290
     0
176
     1
290
     0
176
     1
290
     0
176
     1
290
     0
176
     1
 90
       50
176
     1
 40
0.0
176
     1
 40
1.0
176
     1
 90
        0
176
     1
 62
    18
420
        0
176
     1
 90
       50
176
     1
 90
        3
176
     1
 62
     5
420
      255
176
     1
290
     0
176
     1
 90
       50
176
     1
 90
       50
176
     1
 90
       50
176
     1
290
     0
176
     1
 90
       50
176
     1
 62
   256
176
     0
 40
1.0
176
     0
 90
        2
176
     1
  1
strokes_ogs.tif
176
     1
290
     0
176
     1
 40
1.0
176
     1
 40
1.0
176
     1
  0
VISUALSTYLE
  5
31
102
{ACAD_REACTORS
330
2A
102
}
330
2A
100
AcDbVisualStyle
  2
Hidden
 70
     6
177
     3
291
     0
 70
    58
 90
        1
176
     1
 90
        2
176
     1
 90
        2
176
     1
 90
        0
176
     1
 40
0.6
176
     1
 40
30.0
176
     1
 62
     7
420
 16777215
176
     1
 90
        2
176
     1
 90
        2
176
     1
 62
     7
176
     1
 62
   257
176
     1
 90
        2
176
     1
 90
        1
176
     1
 40
40.0
176
     1
 90
        0
176
     1
 62
   257
176
     1
 40
1.0
176
     1
 90
        1
176
     1
 90
        6
176
     1
 90
        2
176
     1
 62
     7
176
     1
 90
        3
176
     1
 90
        0
176
     1
 90
        0
176
     1
290
     0
176
     1
 90
        1
176
     1
 40
0.0
176
     1
 90
        0
176
     1
290
     0
176
     1
290
     1
176
     1
290
     1
176
     1
290
     0
176
     1
290
     0
176
     1
290
     0
176
     1
290
     0
176
     1
290
     0
176
     1
290
     0
176
     1
 90
       50
176
     1
 40
0.0
176
     1
 40
1.0
176
     1
 90
        0
176
     1
 62
    18
420
        0
176
     1
 90
       50
176
     1
 90
        3
176
     1
 62
     5
420
      255
176
     1
290
     0
176
     1
 90
       50
176
     1
 90
       50
176
     1
 90
       50
176
     1
290
     0
176
     1
 90
       50
176
     1
 62
   256
176
     0
 40
1.0
176
     0
 90
        2
176
     1
  1
strokes_ogs.tif
176
     1
290
     0
176
     1
 40
1.0
176
     1
 40
1.0
176
     1
  0
VISUALSTYLE
  5
3B
102
{ACAD_REACTORS
330
2A
102
}
330
2A
100
AcDbVisualStyle
  2
JitterOff
 70
    20
177
     3
291
     1
 70
    58
 90
        2
176
     0
 90
        2
176
     0
 90
        0
176
     0
 90
        0
176
     0
 40
0.6
176
     0
 40
30.0
176
     0
 62
     7
420
 16777215
176
     0
 90
        1
176
     0
 90
        4
176
     0
 62
     7
176
     0
 62
   257
176
     0
 90
        1
176
     0
 90
        1
176
     0
 40
1.0
176
     0
 90
       10
176
     2
 62
     7
176
     0
 40
1.0
176
     0
 90
        1
176
     0
 90
        6
176
     0
 90
        2
176
     0
 62
     7
176
     0
 90
        5
176
     0
 90
        0
176
     0
 90
        0
176
     0
290
     0
176
     0
 90
        1
176
     0
 40
0.0
176
     0
 90
        0
176
     0
290
     0
176
     0
290
     1
176
     0
290
     1
176
     0
290
     0
176
     0
290
     0
176
     0
290
     0
176
     0
290
     0
176
     0
290
     0
176
     0
290
     0
176
     0
 90
       50
176
     0
 40
0.0
176
     0
 40
1.0
176
     0
 90
        0
176
     0
 62
    18
420
        0
176
     0
 90
       50
176
     0
 90
        3
176
     0
 62
     5
420
      255
176
     0
290
     0
176
     0
 90
       50
176
     0
 90
       50
176
     0
 90
       50
176
     0
290
     0
176
     0
 90
       50
176
     0
 62
   256
176
     0
 40
1.0
176
     0
 90
        2
176
     0
  1
strokes_ogs.tif
176
     0
290
     0
176
     0
 40
1.0
176
     0
 40
1.0
176
     0
  0
VISUALSTYLE
  5
38
102
{ACAD_REACTORS
330
2A
102
}
330
2A
100
AcDbVisualStyle
  2
Linepattern
 70
    14
177
     3
291
     1
 70
    58
 90
        2
176
     1
 90
        2
176
     1
 90
        0
176
     1
 90
        0
176
     1
 40
0.6
176
     1
 40
30.0
176
     1
 62
     7
420
 16777215
176
     1
 90
        1
176
     1
 90
        4
176
     1
 62
     7
176
     1
 62
   257
176
     1
 90
        7
176
     1
 90
        7
176
     1
 40
1.0
176
     1
 90
        8
176
     1
 62
     7
176
     1
 40
1.0
176
     1
 90
        1
176
     1
 90
        6
176
     1
 90
        2
176
     1
 62
     7
176
     1
 90
        5
176
     1
 90
        0
176
     1
 90
        0
176
     1
290
     0
176
     1
 90
        1
176
     1
 40
0.0
176
     1
 90
        0
176
     1
290
     0
176
     1
290
     1
176
     1
290
     1
176
     1
290
     0
176
     1
290
     0
176
     1
290
     0
176
     1
290
     0
176
     1
290
     0
176
     1
290
     0
176
     1
 90
       50
176
     1
 40
0.0
176
     1
 40
1.0
176
     1
 90
        0
176
     1
 62
    18
420
        0
176
     1
 90
       50
176
     1
 90
        3
176
     1
 62
     5
420
      255
176
     1
290
     0
176
     1
 90
       50
176
     1
 90
       50
176
     1
 90
       50
176
     1
290
     0
176
     1
 90
       50
176
     1
 62
   256
176
     0
 40
1.0
176
     0
 90
        2
176
     1
  1
strokes_ogs.tif
176
     1
290
     0
176
     1
 40
1.0
176
     1
 40
1.0
176
     1
  0
VISUALSTYLE
  5
3C
102
{ACAD_REACTORS
330
2A
102
}
330
2A
100
AcDbVisualStyle
  2
OverhangOff
 70
    21
177
     3
291
     1
 70
    58
 90
        2
176
     0
 90
        2
176
     0
 90
        0
176
     0
 90
        0
176
     0
 40
0.6
176
     0
 40
30.0
176
     0
 62
     7
420
 16777215
176
     0
 90
        1
176
     0
 90
        4
176
     0
 62
     7
176
     0
 62
   257
176
     0
 90
        1
176
     0
 90
        1
176
     0
 40
1.0
176
     0
 90
        9
176
     2
 62
     7
176
     0
 40
1.0
176
     0
 90
        1
176
     0
 90
        6
176
     0
 90
        2
176
     0
 62
     7
176
     0
 90
        5
176
     0
 90
        0
176
     0
 90
        0
176
     0
290
     0
176
     0
 90
        1
176
     0
 40
0.0
176
     0
 90
        0
176
     0
290
     0
176
     0
290
     1
176
     0
290
     1
176
     0
290
     0
176
     0
290
     0
176
     0
290
     0
176
     0
290
     0
176
     0
290
     0
176
     0
290
     0
176
     0
 90
       50
176
     0
 40
0.0
176
     0
 40
1.0
176
     0
 90
        0
176
     0
 62
    18
420
        0
176
     0
 90
       50
176
     0
 90
        3
176
     0
 62
     5
420
      255
176
     0
290
     0
176
     0
 90
       50
176
     0
 90
       50
176
     0
 90
       50
176
     0
290
     0
176
     0
 90
       50
176
     0
 62
   256
176
     0
 40
1.0
176
     0
 90
        2
176
     0
  1
strokes_ogs.tif
176
     0
290
     0
176
     0
 40
1.0
176
     0
 40
1.0
176
     0
  0
VISUALSTYLE
  5
33
102
{ACAD_REACTORS
330
2A
102
}
330
2A
100
AcDbVisualStyle
  2
Realistic
 70
     8
177
     3
291
     0
 70
    58
 90
        2
176
     1
 90
        3
176
     1
 90
        0
176
     1
 90
        2
176
     1
 40
0.6
176
     1
 40
30.0
176
     1
 62
     7
420
 16777215
176
     1
 90
        0
176
     1
 90
        0
176
     1
 62
     7
176
     1
 62
   257
176
     1
 90
        1
176
     1
 90
        1
176
     1
 40
1.0
176
     1
 90
        8
176
     1
 62
   257
176
     1
 40
1.0
176
     1
 90
        1
176
     1
 90
        6
176
     1
 90
        2
176
     1
 62
     7
176
     1
 90
        3
176
     1
 90
        0
176
     1
 90
        0
176
     1
290
     0
176
     1
 90
       13
176
     1
 40
0.0
176
     1
 90
        0
176
     1
290
     0
176
     1
290
     1
176
     1
290
     1
176
     1
290
     0
176
     1
290
     0
176
     1
290
     0
176
     1
290
     0
176
     1
290
     0
176
     1
290
     0
176
     1
 90
       50
176
     1
 40
0.0
176
     1
 40
1.0
176
     1
 90
        0
176
     1
 62
    18
420
        0
176
     1
 90
       50
176
     1
 90
        3
176
     1
 62
     5
420
      255
176
     1
290
     0
176
     1
 90
       50
176
     1
 90
       50
176
     1
 90
       50
176
     1
290
     0
176
     1
 90
       50
176
     1
 62
   256
176
     0
 40
1.0
176
     0
 90
        2
176
     1
  1
strokes_ogs.tif
176
     1
290
     0
176
     1
 40
1.0
176
     1
 40
1.0
176
     1
  0
VISUALSTYLE
  5
42
102
{ACAD_REACTORS
330
2A
102
}
330
2A
100
AcDbVisualStyle
  2
Shaded
 70
    27
177
     3
291
     0
 70
    58
 90
        2
176
     1
 90
        2
176
     1
 90
        1
176
     1
 90
        2
176
     1
 40
0.6
176
     1
 40
30.0
176
     1
 62
     7
420
 16777215
176
     1
 90
        0
176
     1
 90
        4
176
     1
 62
     7
176
     1
 62
   257
176
     1
 90
        1
176
     1
 90
        1
176
     1
 40
1.0
176
     1
 90
        8
176
     1
 62
   257
176
     1
 40
1.0
176
     1
 90
        1
176
     1
 90
        6
176
     1
 90
        2
176
     1
 62
     8
420
  7895160
176
     1
 90
        3
176
     1
 90
        0
176
     1
 90
        0
176
     1
290
     0
176
     1
 90
        5
176
     1
 40
0.0
176
     1
 90
        0
176
     1
290
     0
176
     1
290
     1
176
     1
290
     1
176
     1
290
     0
176
     1
290
     0
176
     1
290
     0
176
     1
290
     0
176
     1
290
     0
176
     1
290
     0
176
     1
 90
       50
176
     1
 40
0.0
176
     1
 40
1.0
176
     1
 90
        0
176
     1
 62
    18
420
        0
176
     1
 90
       50
176
     1
 90
        3
176
     1
 62
     5
420
      255
176
     1
290
     0
176
     1
 90
       50
176
     1
 90
       50
176
     1
 90
       50
176
     1
290
     0
176
     1
 90
       50
176
     1
 62
   256
176
     0
 40
1.0
176
     0
 90
        2
176
     1
  1
strokes_ogs.tif
176
     1
290
     0
176
     1
 40
1.0
176
     1
 40
1.0
176
     1
  0
VISUALSTYLE
  5
41
102
{ACAD_REACTORS
330
2A
102
}
330
2A
100
AcDbVisualStyle
  2
Shaded with edges
 70
    26
177
     3
291
     0
 70
    58
 90
        2
176
     1
 90
        2
176
     1
 90
        1
176
     1
 90
        2
176
     1
 40
0.6
176
     1
 40
30.0
176
     1
 62
     7
420
 16777215
176
     1
 90
        1
176
     1
 90
       10
176
     1
 62
     7
176
     1
 62
   257
176
     1
 90
        2
176
     1
 90
        1
176
     1
 40
1.0
176
     1
 90
        8
176
     1
 62
   257
176
     1
 40
1.0
176
     1
 90
        1
176
     1
 90
        6
176
     1
 90
        2
176
     1
 62
     7
176
     1
 90
        3
176
     1
 90
        0
176
     1
 90
        0
176
     1
290
     0
176
     1
 90
        5
176
     1
 40
0.0
176
     1
 90
        0
176
     1
290
     0
176
     1
290
     1
176
     1
290
     1
176
     1
290
     0
176
     1
290
     0
176
     1
290
     0
176
     1
290
     0
176
     1
290
     0
176
     1
290
     0
176
     1
 90
       50
176
     1
 40
0.0
176
     1
 40
1.0
176
     1
 90
        0
176
     1
 62
    18
420
        0
176
     1
 90
       50
176
     1
 90
        3
176
     1
 62
     5
420
      255
176
     1
290
     0
176
     1
 90
       50
176
     1
 90
       50
176
     1
 90
       50
176
     1
290
     0
176
     1
 90
       50
176
     1
 62
   256
176
     0
 40
1.0
176
     0
 90
        2
176
     1
  1
strokes_ogs.tif
176
     1
290
     0
176
     1
 40
1.0
176
     1
 40
1.0
176
     1
  0
VISUALSTYLE
  5
3E
102
{ACAD_REACTORS
330
2A
102
}
330
2A
100
AcDbVisualStyle
  2
Shades of Gray
 70
    23
177
     3
291
     0
 70
    58
 90
        2
176
     1
 90
        2
176
     1
 90
        3
176
     1
 90
        0
176
     1
 40
0.6
176
     1
 40
30.0
176
     1
 62
     7
420
 16777215
176
     1
 90
        2
176
     1
 90
        2
176
     1
 62
     7
176
     1
 62
     7
176
     1
 90
        1
176
     1
 90
        1
176
     1
 40
40.0
176
     1
 90
        8
176
     1
 62
     7
176
     1
 40
1.0
176
     1
 90
        1
176
     1
 90
        6
176
     1
 90
        2
176
     1
 62
     7
176
     1
 90
        3
176
     1
 90
        0
176
     1
 90
        0
176
     1
290
     0
176
     1
 90
        1
176
     1
 40
0.0
176
     1
 90
        0
176
     1
290
     0
176
     1
290
     1
176
     1
290
     1
176
     1
290
     0
176
     1
290
     0
176
     1
290
     0
176
     1
290
     0
176
     1
290
     0
176
     1
290
     0
176
     1
 90
       50
176
     1
 40
0.0
176
     1
 40
1.0
176
     1
 90
        0
176
     1
 62
    18
420
        0
176
     1
 90
       50
176
     1
 90
        3
176
     1
 62
     5
420
      255
176
     1
290
     0
176
     1
 90
       50
176
     1
 90
       50
176
     1
 90
       50
176
     1
290
     0
176
     1
 90
       50
176
     1
 62
   256
176
     0
 40
1.0
176
     0
 90
        2
176
     1
  1
strokes_ogs.tif
176
     1
290
     0
176
     1
 40
1.0
176
     1
 40
1.0
176
     1
  0
VISUALSTYLE
  5
3F
102
{ACAD_REACTORS
330
2A
102
}
330
2A
100
AcDbVisualStyle
  2
Sketchy
 70
    24
177
     3
291
     0
 70
    58
 90
        1
176
     1
 90
        2
176
     1
 90
        2
176
     1
 90
        0
176
     1
 40
0.6
176
     1
 40
30.0
176
     1
 62
     7
420
 16777215
176
     1
 90
        2
176
     1
 90
        2
176
     1
 62
     7
176
     1
 62
     7
176
     1
 90
        1
176
     1
 90
        1
176
     1
 40
40.0
176
     1
 90
       11
176
     1
 62
     7
176
     1
 40
1.0
176
     1
 90
        1
176
     1
 90
        6
176
     1
 90
        2
176
     1
 62
     7
176
     1
 90
        6
176
     1
 90
        0
176
     1
 90
        0
176
     1
290
     0
176
     1
 90
        1
176
     1
 40
0.0
176
     1
 90
        0
176
     1
290
     0
176
     1
290
     1
176
     1
290
     1
176
     1
290
     0
176
     1
290
     0
176
     1
290
     0
176
     1
290
     0
176
     1
290
     0
176
     1
290
     0
176
     1
 90
       50
176
     1
 40
0.0
176
     1
 40
1.0
176
     1
 90
        0
176
     1
 62
    18
420
        0
176
     1
 90
       50
176
     1
 90
        3
176
     1
 62
     5
420
      255
176
     1
290
     0
176
     1
 90
       50
176
     1
 90
       50
176
     1
 90
       50
176
     1
290
     0
176
     1
 90
       50
176
     1
 62
   256
176
     0
 40
1.0
176
     0
 90
        2
176
     1
  1
strokes_ogs.tif
176
     1
290
     0
176
     1
 40
1.0
176
     1
 40
1.0
176
     1
  0
VISUALSTYLE
  5
37
102
{ACAD_REACTORS
330
2A
102
}
330
2A
100
AcDbVisualStyle
  2
Thicken
 70
    13
177
     3
291
     1
 70
    58
 90
        2
176
     1
 90
        2
176
     1
 90
        0
176
     1
 90
        0
176
     1
 40
0.6
176
     1
 40
30.0
176
     1
 62
     7
420
 16777215
176
     1
 90
        1
176
     1
 90
        4
176
     1
 62
     7
176
     1
 62
   257
176
     1
 90
        1
176
     1
 90
        1
176
     1
 40
1.0
176
     1
 90
       12
176
     1
 62
     7
176
     1
 40
1.0
176
     1
 90
        1
176
     1
 90
        6
176
     1
 90
        2
176
     1
 62
     7
176
     1
 90
        5
176
     1
 90
        0
176
     1
 90
        0
176
     1
290
     0
176
     1
 90
        1
176
     1
 40
0.0
176
     1
 90
        0
176
     1
290
     0
176
     1
290
     1
176
     1
290
     1
176
     1
290
     0
176
     1
290
     0
176
     1
290
     0
176
     1
290
     0
176
     1
290
     0
176
     1
290
     0
176
     1
 90
       50
176
     1
 40
0.0
176
     1
 40
1.0
176
     1
 90
        0
176
     1
 62
    18
420
        0
176
     1
 90
       50
176
     1
 90
        3
176
     1
 62
     5
420
      255
176
     1
290
     0
176
     1
 90
       50
176
     1
 90
       50
176
     1
 90
       50
176
     1
290
     0
176
     1
 90
       50
176
     1
 62
   256
176
     0
 40
1.0
176
     0
 90
        2
176
     1
  1
strokes_ogs.tif
176
     1
290
     0
176
     1
 40
1.0
176
     1
 40
1.0
176
     1
  0
VISUALSTYLE
  5
30
102
{ACAD_REACTORS
330
2A
102
}
330
2A
100
AcDbVisualStyle
  2
Wireframe
 70
     5
177
     3
291
     0
 70
    58
 90
        0
176
     1
 90
        2
176
     1
 90
        0
176
     1
 90
        0
176
     1
 40
0.6
176
     1
 40
30.0
176
     1
 62
     7
420
 16777215
176
     1
 90
        1
176
     1
 90
        4
176
     1
 62
     7
176
     1
 62
   257
176
     1
 90
        1
176
     1
 90
        1
176
     1
 40
1.0
176
     1
 90
        0
176
     1
 62
   257
176
     1
 40
1.0
176
     1
 90
        1
176
     1
 90
        6
176
     1
 90
        2
176
     1
 62
     7
176
     1
 90
        3
176
     1
 90
        0
176
     1
 90
        0
176
     1
290
     0
176
     1
 90
        1
176
     1
 40
0.0
176
     1
 90
        0
176
     1
290
     0
176
     1
290
     1
176
     1
290
     1
176
     1
290
     0
176
     1
290
     0
176
     1
290
     0
176
     1
290
     0
176
     1
290
     0
176
     1
290
     0
176
     1
 90
       50
176
     1
 40
0.0
176
     1
 40
1.0
176
     1
 90
        0
176
     1
 62
    18
420
        0
176
     1
 90
       50
176
     1
 90
        3
176
     1
 62
     5
420
      255
176
     1
290
     0
176
     1
 90
       50
176
     1
 90
       50
176
     1
 90
       50
176
     1
290
     0
176
     1
 90
       50
176
     1
 62
   256
176
     0
 40
1.0
176
     0
 90
        2
176
     1
  1
strokes_ogs.tif
176
     1
290
     0
176
     1
 40
1.0
176
     1
 40
1.0
176
     1
  0
VISUALSTYLE
  5
40
102
{ACAD_REACTORS
330
2A
102
}
330
2A
100
AcDbVisualStyle
  2
X-Ray
 70
    25
177
     3
291
     0
 70
    58
 90
        2
176
     1
 90
        2
176
     1
 90
        1
176
     1
 90
        1
176
     1
 40
0.5
176
     1
 40
30.0
176
     1
 62
     7
420
 16777215
176
     1
 90
        1
176
     1
 90
        0
176
     1
 62
     7
176
     1
 62
   257
176
     1
 90
        1
176
     1
 90
        1
176
     1
 40
1.0
176
     1
 90
        8
176
     1
 62
     7
176
     1
 40
1.0
176
     1
 90
        1
176
     1
 90
        6
176
     1
 90
        2
176
     1
 62
     7
176
     1
 90
        3
176
     1
 90
        0
176
     1
 90
        0
176
     1
290
     0
176
     1
 90
       13
176
     1
 40
0.0
176
     1
 90
        0
176
     1
290
     0
176
     1
290
     1
176
     1
290
     1
176
     1
290
     0
176
     1
290
     0
176
     1
290
     0
176
     1
290
     0
176
     1
290
     0
176
     1
290
     0
176
     1
 90
       50
176
     1
 40
0.0
176
     1
 40
1.0
176
     1
 90
        0
176
     1
 62
    18
420
        0
176
     1
 90
       50
176
     1
 90
        3
176
     1
 62
     5
420
      255
176
     1
290
     0
176
     1
 90
       50
176
     1
 90
       50
176
     1
 90
       50
176
     1
290
     0
176
     1
 90
       50
176
     1
 62
   256
176
     0
 40
1.0
176
     0
 90
        2
176
     1
  1
strokes_ogs.tif
176
     1
290
     0
176
     1
 40
1.0
176
     1
 40
1.0
176
     1
  0
DICTIONARYVAR
  5
3BC
102
{ACAD_REACTORS
330
3BB
102
}
330
3BB
100
DictionaryVariables
280
     0
  1
1:1
  0
DICTIONARYVAR
  5
3C1
102
{ACAD_REACTORS
330
3BB
102
}
330
3BB
100
DictionaryVariables
280
     0
  1
Standard
  0
DICTIONARYVAR
  5
3C0
102
{ACAD_REACTORS
330
3BB
102
}
330
3BB
100
DictionaryVariables
280
     0
  1
Standard
  0
DICTIONARY
  5
3BD
330
6A
100
AcDbDictionary
280
     1
281
     1
  3
ACAD_ROUNDTRIP_2008_TABLESTYLE_CELLSTYLEMAP
360
3BE
  0
CELLSTYLEMAP
  5
3BE
102
{ACAD_REACTORS
330
3BD
102
}
330
3BD
100
AcDbCellStyleMap
 90
        3
300
CELLSTYLE
  1
TABLEFORMAT_BEGIN
 90
        5
170
     1
 91
        0
 92
    32768
 62
   257
 93
        1
300
CONTENTFORMAT
  1
CONTENTFORMAT_BEGIN
 90
        0
 91
        0
 92
        4
 93
        0
300

 40
0.0
140
1.0
 94
        5
 62
     0
340
11
144
6.0
309
CONTENTFORMAT_END
171
     1
301
MARGIN
  1
CELLMARGIN_BEGIN
 40
1.5
 40
1.5
 40
1.5
 40
1.5
 40
1.5
 40
1.5
309
CELLMARGIN_END
 94
        6
 95
        1
302
GRIDFORMAT
  1
GRIDFORMAT_BEGIN
 90
        0
 91
        1
 62
     0
 92
       -2
340
14
 93
        0
 40
0.045
309
GRIDFORMAT_END
 95
        2
302
GRIDFORMAT
  1
GRIDFORMAT_BEGIN
 90
        0
 91
        1
 62
     0
 92
       -2
340
14
 93
        0
 40
0.045
309
GRIDFORMAT_END
 95
        4
302
GRIDFORMAT
  1
GRIDFORMAT_BEGIN
 90
        0
 91
        1
 62
     0
 92
       -2
340
14
 93
        0
 40
0.045
309
GRIDFORMAT_END
 95
        8
302
GRIDFORMAT
  1
GRIDFORMAT_BEGIN
 90
        0
 91
        1
 62
     0
 92
       -2
340
14
 93
        0
 40
0.045
309
GRIDFORMAT_END
 95
       16
302
GRIDFORMAT
  1
GRIDFORMAT_BEGIN
 90
        0
 91
        1
 62
     0
 92
       -2
340
14
 93
        0
 40
0.045
309
GRIDFORMAT_END
 95
       32
302
GRIDFORMAT
  1
GRIDFORMAT_BEGIN
 90
        0
 91
        1
 62
     0
 92
       -2
340
14
 93
        0
 40
0.045
309
GRIDFORMAT_END
309
TABLEFORMAT_END
  1
CELLSTYLE_BEGIN
 90
        1
 91
        1
300
_TITLE
309
CELLSTYLE_END
300
CELLSTYLE
  1
TABLEFORMAT_BEGIN
 90
        5
170
     1
 91
        0
 92
        0
 62
   257
 93
        1
300
CONTENTFORMAT
  1
CONTENTFORMAT_BEGIN
 90
        0
 91
        0
 92
        4
 93
        0
300

 40
0.0
140
1.0
 94
        5
 62
     0
340
11
144
4.5
309
CONTENTFORMAT_END
171
     1
301
MARGIN
  1
CELLMARGIN_BEGIN
 40
1.5
 40
1.5
 40
1.5
 40
1.5
 40
1.5
 40
1.5
309
CELLMARGIN_END
 94
        6
 95
        1
302
GRIDFORMAT
  1
GRIDFORMAT_BEGIN
 90
        0
 91
        1
 62
     0
 92
       -2
340
14
 93
        0
 40
0.045
309
GRIDFORMAT_END
 95
        2
302
GRIDFORMAT
  1
GRIDFORMAT_BEGIN
 90
        0
 91
        1
 62
     0
 92
       -2
340
14
 93
        0
 40
0.045
309
GRIDFORMAT_END
 95
        4
302
GRIDFORMAT
  1
GRIDFORMAT_BEGIN
 90
        0
 91
        1
 62
     0
 92
       -2
340
14
 93
        0
 40
0.045
309
GRIDFORMAT_END
 95
        8
302
GRIDFORMAT
  1
GRIDFORMAT_BEGIN
 90
        0
 91
        1
 62
     0
 92
       -2
340
14
 93
        0
 40
0.045
309
GRIDFORMAT_END
 95
       16
302
GRIDFORMAT
  1
GRIDFORMAT_BEGIN
 90
        0
 91
        1
 62
     0
 92
       -2
340
14
 93
        0
 40
0.045
309
GRIDFORMAT_END
 95
       32
302
GRIDFORMAT
  1
GRIDFORMAT_BEGIN
 90
        0
 91
        1
 62
     0
 92
       -2
340
14
 93
        0
 40
0.045
309
GRIDFORMAT_END
309
TABLEFORMAT_END
  1
CELLSTYLE_BEGIN
 90
        2
 91
        1
300
_HEADER
309
CELLSTYLE_END
300
CELLSTYLE
  1
TABLEFORMAT_BEGIN
 90
        5
170
     1
 91
        0
 92
        0
 62
   257
 93
        1
300
CONTENTFORMAT
  1
CONTENTFORMAT_BEGIN
 90
        0
 91
        0
 92
        4
 93
        0
300

 40
0.0
140
1.0
 94
        2
 62
     0
340
11
144
4.5
309
CONTENTFORMAT_END
171
     1
301
MARGIN
  1
CELLMARGIN_BEGIN
 40
1.5
 40
1.5
 40
1.5
 40
1.5
 40
1.5
 40
1.5
309
CELLMARGIN_END
 94
        6
 95
        1
302
GRIDFORMAT
  1
GRIDFORMAT_BEGIN
 90
        0
 91
        1
 62
     0
 92
       -2
340
14
 93
        0
 40
0.045
309
GRIDFORMAT_END
 95
        2
302
GRIDFORMAT
  1
GRIDFORMAT_BEGIN
 90
        0
 91
        1
 62
     0
 92
       -2
340
14
 93
        0
 40
0.045
309
GRIDFORMAT_END
 95
        4
302
GRIDFORMAT
  1
GRIDFORMAT_BEGIN
 90
        0
 91
        1
 62
     0
 92
       -2
340
14
 93
        0
 40
0.045
309
GRIDFORMAT_END
 95
        8
302
GRIDFORMAT
  1
GRIDFORMAT_BEGIN
 90
        0
 91
        1
 62
     0
 92
       -2
340
14
 93
        0
 40
0.045
309
GRIDFORMAT_END
 95
       16
302
GRIDFORMAT
  1
GRIDFORMAT_BEGIN
 90
        0
 91
        1
 62
     0
 92
       -2
340
14
 93
        0
 40
0.045
309
GRIDFORMAT_END
 95
       32
302
GRIDFORMAT
  1
GRIDFORMAT_BEGIN
 90
        0
 91
        1
 62
     0
 92
       -2
340
14
 93
        0
 40
0.045
309
GRIDFORMAT_END
309
TABLEFORMAT_END
  1
CELLSTYLE_BEGIN
 90
        3
 91
        2
300
_DATA
309
CELLSTYLE_END
  0
ENDSEC
  0
EOF
