  0
SECTION
  2
HEADER
  9
$ACADVER
  1
AC1014
  9
$ACADMAINTVER
 70
     9
  9
$DWGCODEPAGE
  3
ANSI_1252
  9
$INSBASE
 10
0.0
 20
0.0
 30
0.0
  9
$EXTMIN
 10
1.000000000000000E+20
 20
1.000000000000000E+20
 30
1.000000000000000E+20
  9
$EXTMAX
 10
-1.000000000000000E+20
 20
-1.000000000000000E+20
 30
-1.000000000000000E+20
  9
$LIMMIN
 10
-55.69229653999999
 20
-27.62241618
  9
$LIMMAX
 10
53.1720552
 20
22.29619112
  9
$ORTHOMODE
 70
     0
  9
$REGENMODE
 70
     1
  9
$FILLMODE
 70
     1
  9
$QTEXTMODE
 70
     0
  9
$MIRRTEXT
 70
     1
  9
$DRAGMODE
 70
     2
  9
$LTSCALE
 40
1.0
  9
$OSMODE
 70
    37
  9
$ATTMODE
 70
     1
  9
$TEXTSIZE
 40
0.2
  9
$TRACEWID
 40
0.05
  9
$TEXTSTYLE
  7
STANDARD
  9
$CLAYER
  8
0
  9
$CELTYPE
  6
BYLAYER
  9
$CECOLOR
 62
   256
  9
$CELTSCALE
 40
1.0
  9
$DELOBJ
 70
     1
  9
$DISPSILH
 70
     0
  9
$DIMSCALE
 40
1.0
  9
$DIMASZ
 40
0.18
  9
$DIMEXO
 40
0.0625
  9
$DIMDLI
 40
0.38
  9
$DIMRND
 40
0.0
  9
$DIMDLE
 40
0.0
  9
$DIMEXE
 40
0.18
  9
$DIMTP
 40
0.0
  9
$DIMTM
 40
0.0
  9
$DIMTXT
 40
0.18
  9
$DIMCEN
 40
0.09
  9
$DIMTSZ
 40
0.0
  9
$DIMTOL
 70
     0
  9
$DIMLIM
 70
     0
  9
$DIMTIH
 70
     1
  9
$DIMTOH
 70
     1
  9
$DIMSE1
 70
     0
  9
$DIMSE2
 70
     0
  9
$DIMTAD
 70
     0
  9
$DIMZIN
 70
     0
  9
$DIMBLK
  1

  9
$DIMASO
 70
     1
  9
$DIMSHO
 70
     1
  9
$DIMPOST
  1

  9
$DIMAPOST
  1

  9
$DIMALT
 70
     0
  9
$DIMALTD
 70
     2
  9
$DIMALTF
 40
25.4
  9
$DIMLFAC
 40
1.0
  9
$DIMTOFL
 70
     0
  9
$DIMTVP
 40
0.0
  9
$DIMTIX
 70
     0
  9
$DIMSOXD
 70
     0
  9
$DIMSAH
 70
     0
  9
$DIMBLK1
  1

  9
$DIMBLK2
  1

  9
$DIMSTYLE
  2
STANDARD
  9
$DIMCLRD
 70
     0
  9
$DIMCLRE
 70
     0
  9
$DIMCLRT
 70
     0
  9
$DIMTFAC
 40
1.0
  9
$DIMGAP
 40
0.09
  9
$DIMJUST
 70
     0
  9
$DIMSD1
 70
     0
  9
$DIMSD2
 70
     0
  9
$DIMTOLJ
 70
     1
  9
$DIMTZIN
 70
     0
  9
$DIMALTZ
 70
     0
  9
$DIMALTTZ
 70
     0
  9
$DIMFIT
 70
     3
  9
$DIMUPT
 70
     0
  9
$DIMUNIT
 70
     2
  9
$DIMDEC
 70
     4
  9
$DIMTDEC
 70
     4
  9
$DIMALTU
 70
     2
  9
$DIMALTTD
 70
     2
  9
$DIMTXSTY
  7
STANDARD
  9
$DIMAUNIT
 70
     0
  9
$LUNITS
 70
     2
  9
$LUPREC
 70
     4
  9
$SKETCHINC
 40
0.1
  9
$FILLETRAD
 40
0.0
  9
$AUNITS
 70
     0
  9
$AUPREC
 70
     0
  9
$MENU
  1
.
  9
$ELEVATION
 40
0.0
  9
$PELEVATION
 40
0.0
  9
$THICKNESS
 40
0.0
  9
$LIMCHECK
 70
     0
  9
$CHAMFERA
 40
0.0
  9
$CHAMFERB
 40
0.0
  9
$CHAMFERC
 40
0.0
  9
$CHAMFERD
 40
0.0
  9
$SKPOLY
 70
     0
  9
$TDCREATE
 40
2460085.625380046
  9
$TDUPDATE
 40
2460085.62538103
  9
$TDINDWG
 40
0.0000000116
  9
$TDUSRTIMER
 40
0.0000000116
  9
$USRTIMER
 70
     1
  9
$ANGBASE
 50
0.0
  9
$ANGDIR
 70
     0
  9
$PDMODE
 70
     0
  9
$PDSIZE
 40
0.0
  9
$PLINEWID
 40
0.0
  9
$COORDS
 70
     1
  9
$SPLFRAME
 70
     0
  9
$SPLINETYPE
 70
     6
  9
$SPLINESEGS
 70
     8
  9
$ATTDIA
 70
     0
  9
$ATTREQ
 70
     1
  9
$HANDLING
 70
     1
  9
$HANDSEED
  5
36F
  9
$SURFTAB1
 70
     6
  9
$SURFTAB2
 70
     6
  9
$SURFTYPE
 70
     6
  9
$SURFU
 70
     6
  9
$SURFV
 70
     6
  9
$UCSNAME
  2

  9
$UCSORG
 10
0.0
 20
0.0
 30
0.0
  9
$UCSXDIR
 10
1.0
 20
0.0
 30
0.0
  9
$UCSYDIR
 10
0.0
 20
1.0
 30
0.0
  9
$PUCSNAME
  2

  9
$PUCSORG
 10
0.0
 20
0.0
 30
0.0
  9
$PUCSXDIR
 10
1.0
 20
0.0
 30
0.0
  9
$PUCSYDIR
 10
0.0
 20
1.0
 30
0.0
  9
$USERI1
 70
     0
  9
$USERI2
 70
     0
  9
$USERI3
 70
     0
  9
$USERI4
 70
     0
  9
$USERI5
 70
     0
  9
$USERR1
 40
0.0
  9
$USERR2
 40
0.0
  9
$USERR3
 40
0.0
  9
$USERR4
 40
0.0
  9
$USERR5
 40
0.0
  9
$WORLDVIEW
 70
     1
  9
$SHADEDGE
 70
     3
  9
$SHADEDIF
 70
    70
  9
$TILEMODE
 70
     1
  9
$MAXACTVP
 70
    64
  9
$PINSBASE
 10
0.0
 20
0.0
 30
0.0
  9
$PLIMCHECK
 70
     0
  9
$PEXTMIN
 10
1.000000000000000E+20
 20
1.000000000000000E+20
 30
1.000000000000000E+20
  9
$PEXTMAX
 10
-1.000000000000000E+20
 20
-1.000000000000000E+20
 30
-1.000000000000000E+20
  9
$PLIMMIN
 10
0.0
 20
0.0
  9
$PLIMMAX
 10
12.0
 20
9.0
  9
$UNITMODE
 70
     0
  9
$VISRETAIN
 70
     1
  9
$PLINEGEN
 70
     0
  9
$PSLTSCALE
 70
     1
  9
$TREEDEPTH
 70
  3020
  9
$PICKSTYLE
 70
     1
  9
$CMLSTYLE
  2
STANDARD
  9
$CMLJUST
 70
     0
  9
$CMLSCALE
 40
1.0
  9
$PROXYGRAPHICS
 70
     1
  9
$MEASUREMENT
 70
     1
  0
ENDSEC
  0
SECTION
  2
CLASSES
  0
CLASS
  1
ACDBDICTIONARYWDFLT
  2
AcDbDictionaryWithDefault
  3
ObjectDBX Classes
 90
        0
280
     0
281
     0
  0
CLASS
  1
VISUALSTYLE
  2
AcDbVisualStyle
  3
ObjectDBX Classes
 90
     4095
280
     0
281
     0
  0
CLASS
  1
MATERIAL
  2
AcDbMaterial
  3
ObjectDBX Classes
 90
     1153
280
     0
281
     0
  0
CLASS
  1
SCALE
  2
AcDbScale
  3
ObjectDBX Classes
 90
     1153
280
     0
281
     0
  0
CLASS
  1
TABLESTYLE
  2
AcDbTableStyle
  3
ObjectDBX Classes
 90
     4095
280
     0
281
     0
  0
CLASS
  1
MLEADERSTYLE
  2
AcDbMLeaderStyle
  3
ACDB_MLEADERSTYLE_CLASS
 90
     4095
280
     0
281
     0
  0
CLASS
  1
SUN
  2
AcDbSun
  3
SCENEOE
 90
     1153
280
     0
281
     0
  0
CLASS
  1
DICTIONARYVAR
  2
AcDbDictionaryVar
  3
ObjectDBX Classes
 90
        0
280
     0
281
     0
  0
CLASS
  1
XRECORD
  2
AcDbXrecord
  3
ObjectDBX Classes
 90
        0
280
     0
281
     0
  0
CLASS
  1
LWPOLYLINE
  2
AcDbPolyline
  3
ObjectDBX Classes
 90
        0
280
     0
281
     1
  0
CLASS
  1
HATCH
  2
AcDbHatch
  3
ObjectDBX Classes
 90
        0
280
     0
281
     1
  0
CLASS
  1
ACDBPLACEHOLDER
  2
AcDbPlaceHolder
  3
ObjectDBX Classes
 90
        0
280
     0
281
     0
  0
CLASS
  1
LAYOUT
  2
AcDbLayout
  3
ObjectDBX Classes
 90
        0
280
     0
281
     0
  0
ENDSEC
  0
SECTION
  2
TABLES
  0
TABLE
  2
VPORT
  5
8
102
{ACAD_XDICTIONARY
360
364
102
}
330
0
100
AcDbSymbolTable
 70
     1
  0
VPORT
  5
29
330
8
100
AcDbSymbolTableRecord
100
AcDbViewportTableRecord
  2
*ACTIVE
 70
     0
 10
0.0
 20
0.0
 11
1.0
 21
1.0
 12
10.42990654205607
 22
4.5
 13
0.0
 23
0.0
 14
0.5
 24
0.5
 15
0.5
 25
0.5
 16
0.0
 26
0.0
 36
1.0
 17
0.0
 27
0.0
 37
0.0
 40
9.0
 41
1.972972972850329
 42
50.0
 43
0.0
 44
0.0
 50
0.0
 51
0.0
 71
     0
 72
   100
 73
     1
 74
     3
 75
     0
 76
     0
 77
     0
 78
     0
  0
ENDTAB
  0
TABLE
  2
LTYPE
  5
5
330
0
100
AcDbSymbolTable
 70
     1
  0
LTYPE
  5
14
330
5
100
AcDbSymbolTableRecord
100
AcDbLinetypeTableRecord
  2
BYBLOCK
 70
     0
  3

 72
    65
 73
     0
 40
0.0
  0
LTYPE
  5
15
330
5
100
AcDbSymbolTableRecord
100
AcDbLinetypeTableRecord
  2
BYLAYER
 70
     0
  3

 72
    65
 73
     0
 40
0.0
  0
LTYPE
  5
16
330
5
100
AcDbSymbolTableRecord
100
AcDbLinetypeTableRecord
  2
CONTINUOUS
 70
     0
  3
Solid line
 72
    65
 73
     0
 40
0.0
  0
ENDTAB
  0
TABLE
  2
LAYER
  5
2
330
0
100
AcDbSymbolTable
 70
     2
  0
LAYER
  5
10
330
2
100
AcDbSymbolTableRecord
100
AcDbLayerTableRecord
  2
0
 70
     0
 62
     7
  6
CONTINUOUS
  0
LAYER
  5
5E
330
2
100
AcDbSymbolTableRecord
100
AcDbLayerTableRecord
  2
TOP_PASTE
 70
     0
 62
     8
  6
CONTINUOUS
  0
ENDTAB
  0
TABLE
  2
STYLE
  5
3
330
0
100
AcDbSymbolTable
 70
     1
  0
STYLE
  5
11
330
3
100
AcDbSymbolTableRecord
100
AcDbTextStyleTableRecord
  2
STANDARD
 70
     0
 40
0.0
 41
1.0
 50
0.0
 71
     0
 42
0.2
  3
txt
  4

  0
ENDTAB
  0
TABLE
  2
VIEW
  5
6
330
0
100
AcDbSymbolTable
 70
     0
  0
ENDTAB
  0
TABLE
  2
UCS
  5
7
330
0
100
AcDbSymbolTable
 70
     0
  0
ENDTAB
  0
TABLE
  2
APPID
  5
9
330
0
100
AcDbSymbolTable
 70
     2
  0
APPID
  5
12
330
9
100
AcDbSymbolTableRecord
100
AcDbRegAppTableRecord
  2
ACAD
 70
     0
  0
APPID
  5
36E
330
9
100
AcDbSymbolTableRecord
100
AcDbRegAppTableRecord
  2
ACAD_MLEADERVER
 70
     0
  0
ENDTAB
  0
TABLE
  2
DIMSTYLE
  5
A
330
0
100
AcDbSymbolTable
 70
     1
  0
DIMSTYLE
105
27
330
A
100
AcDbSymbolTableRecord
100
AcDbDimStyleTableRecord
  2
STANDARD
 70
     0
  3

  4

  5

  6

  7

 40
1.0
 41
0.18
 42
0.0625
 43
0.38
 44
0.18
 45
0.0
 46
0.0
 47
0.0
 48
0.0
140
0.18
141
0.09
142
0.0
143
25.4
144
1.0
145
0.0
146
1.0
147
0.09
 71
     0
 72
     0
 73
     1
 74
     1
 75
     0
 76
     0
 77
     0
 78
     0
170
     0
171
     2
172
     0
173
     0
174
     0
175
     0
176
     0
177
     0
178
     0
270
     2
271
     4
272
     4
273
     2
274
     2
340
11
275
     0
280
     0
281
     0
282
     0
283
     1
284
     0
285
     0
286
     0
287
     3
288
     0
  0
ENDTAB
  0
TABLE
  2
BLOCK_RECORD
  5
1
330
0
100
AcDbSymbolTable
 70
     0
  0
BLOCK_RECORD
  5
1F
330
1
100
AcDbSymbolTableRecord
100
AcDbBlockTableRecord
  2
*MODEL_SPACE
  0
BLOCK_RECORD
  5
1B
330
1
100
AcDbSymbolTableRecord
100
AcDbBlockTableRecord
  2
*PAPER_SPACE
  0
ENDTAB
  0
ENDSEC
  0
SECTION
  2
BLOCKS
  0
BLOCK
  5
20
330
1F
100
AcDbEntity
  8
0
100
AcDbBlockBegin
  2
*MODEL_SPACE
 70
     0
 10
0.0
 20
0.0
 30
0.0
  3
*MODEL_SPACE
  1

  0
ENDBLK
  5
21
330
1F
100
AcDbEntity
  8
0
100
AcDbBlockEnd
  0
BLOCK
  5
1C
330
1B
100
AcDbEntity
 67
     1
  8
0
100
AcDbBlockBegin
  2
*PAPER_SPACE
 70
     0
 10
0.0
 20
0.0
 30
0.0
  3
*PAPER_SPACE
  1

  0
ENDBLK
  5
1D
330
1B
100
AcDbEntity
 67
     1
  8
0
100
AcDbBlockEnd
  0
ENDSEC
  0
SECTION
  2
ENTITIES
  0
ARC
  5
5F
330
1F
100
AcDbEntity
  8
TOP_PASTE
100
AcDbCircle
 10
16.93659935
 20
-6.42520051
 30
0.0
 40
0.06700012
100
AcDbArc
 50
0.0
 51
90.0
  0
LINE
  5
60
330
1F
100
AcDbEntity
  8
TOP_PASTE
100
AcDbLine
 10
16.93659935
 20
-6.358200389999999
 30
0.0
 11
15.27060065
 21
-6.358200389999999
 31
0.0
  0
ARC
  5
61
330
1F
100
AcDbEntity
  8
TOP_PASTE
100
AcDbCircle
 10
15.27060065
 20
-6.42520051
 30
0.0
 40
0.06700012
100
AcDbArc
 50
90.0
 51
180.0
  0
LINE
  5
62
330
1F
100
AcDbEntity
  8
TOP_PASTE
100
AcDbLine
 10
15.20360053
 20
-6.42520051
 30
0.0
 11
15.20360053
 21
-7.631200129999999
 31
0.0
  0
ARC
  5
63
330
1F
100
AcDbEntity
  8
TOP_PASTE
100
AcDbCircle
 10
15.27060065
 20
-7.631200129999999
 30
0.0
 40
0.06700012
100
AcDbArc
 50
180.0
 51
270.0
  0
LINE
  5
64
330
1F
100
AcDbEntity
  8
TOP_PASTE
100
AcDbLine
 10
15.27060065
 20
-7.698200249999999
 30
0.0
 11
16.93659935
 21
-7.698200249999999
 31
0.0
  0
ARC
  5
65
330
1F
100
AcDbEntity
  8
TOP_PASTE
100
AcDbCircle
 10
16.93659935
 20
-7.631200129999999
 30
0.0
 40
0.06700012
100
AcDbArc
 50
270.0
 51
0.0
  0
LINE
  5
66
330
1F
100
AcDbEntity
  8
TOP_PASTE
100
AcDbLine
 10
17.00359947
 20
-7.631200129999999
 30
0.0
 11
17.00359947
 21
-6.42520051
 31
0.0
  0
ARC
  5
67
330
1F
100
AcDbEntity
  8
TOP_PASTE
100
AcDbCircle
 10
16.93659935
 20
-9.28519987
 30
0.0
 40
0.06700012
100
AcDbArc
 50
0.0
 51
90.0
  0
LINE
  5
68
330
1F
100
AcDbEntity
  8
TOP_PASTE
100
AcDbLine
 10
16.93659935
 20
-9.21819975
 30
0.0
 11
15.27060065
 21
-9.21819975
 31
0.0
  0
ARC
  5
69
330
1F
100
AcDbEntity
  8
TOP_PASTE
100
AcDbCircle
 10
15.27060065
 20
-9.28519987
 30
0.0
 40
0.06700012
100
AcDbArc
 50
90.0
 51
180.0
  0
LINE
  5
6A
330
1F
100
AcDbEntity
  8
TOP_PASTE
100
AcDbLine
 10
15.20360053
 20
-9.28519987
 30
0.0
 11
15.20360053
 21
-10.49119949
 31
0.0
  0
ARC
  5
6B
330
1F
100
AcDbEntity
  8
TOP_PASTE
100
AcDbCircle
 10
15.27060065
 20
-10.49119949
 30
0.0
 40
0.06700012
100
AcDbArc
 50
180.0
 51
270.0
  0
LINE
  5
6C
330
1F
100
AcDbEntity
  8
TOP_PASTE
100
AcDbLine
 10
15.27060065
 20
-10.55819961
 30
0.0
 11
16.93659935
 21
-10.55819961
 31
0.0
  0
ARC
  5
6D
330
1F
100
AcDbEntity
  8
TOP_PASTE
100
AcDbCircle
 10
16.93659935
 20
-10.49119949
 30
0.0
 40
0.06700012
100
AcDbArc
 50
270.0
 51
0.0
  0
LINE
  5
6E
330
1F
100
AcDbEntity
  8
TOP_PASTE
100
AcDbLine
 10
17.00359947
 20
-10.49119949
 30
0.0
 11
17.00359947
 21
-9.28519987
 31
0.0
  0
LINE
  5
6F
330
1F
100
AcDbEntity
  8
TOP_PASTE
100
AcDbLine
 10
-9.369402139999998
 20
8.34529954
 30
0.0
 11
-9.369402139999998
 21
7.354699539999999
 31
0.0
  0
LINE
  5
70
330
1F
100
AcDbEntity
  8
TOP_PASTE
100
AcDbLine
 10
-9.369402139999998
 20
7.354699539999999
 30
0.0
 11
-10.08060214
 21
7.354699539999999
 31
0.0
  0
LINE
  5
71
330
1F
100
AcDbEntity
  8
TOP_PASTE
100
AcDbLine
 10
-10.08060214
 20
7.354699539999999
 30
0.0
 11
-10.08060214
 21
8.34529954
 31
0.0
  0
LINE
  5
72
330
1F
100
AcDbEntity
  8
TOP_PASTE
100
AcDbLine
 10
-10.08060214
 20
8.34529954
 30
0.0
 11
-9.369402139999998
 21
8.34529954
 31
0.0
  0
LINE
  5
73
330
1F
100
AcDbEntity
  8
TOP_PASTE
100
AcDbLine
 10
-9.369402139999998
 20
3.84529838
 30
0.0
 11
-9.369402139999998
 21
2.85469838
 31
0.0
  0
LINE
  5
74
330
1F
100
AcDbEntity
  8
TOP_PASTE
100
AcDbLine
 10
-9.369402139999998
 20
2.85469838
 30
0.0
 11
-10.08060214
 21
2.85469838
 31
0.0
  0
LINE
  5
75
330
1F
100
AcDbEntity
  8
TOP_PASTE
100
AcDbLine
 10
-10.08060214
 20
2.85469838
 30
0.0
 11
-10.08060214
 21
3.84529838
 31
0.0
  0
LINE
  5
76
330
1F
100
AcDbEntity
  8
TOP_PASTE
100
AcDbLine
 10
-10.08060214
 20
3.84529838
 30
0.0
 11
-9.369402139999998
 21
3.84529838
 31
0.0
  0
LINE
  5
77
330
1F
100
AcDbEntity
  8
TOP_PASTE
100
AcDbLine
 10
-11.51940038
 20
8.34529954
 30
0.0
 11
-11.51940038
 21
7.354699539999999
 31
0.0
  0
LINE
  5
78
330
1F
100
AcDbEntity
  8
TOP_PASTE
100
AcDbLine
 10
-11.51940038
 20
7.354699539999999
 30
0.0
 11
-12.23060038
 21
7.354699539999999
 31
0.0
  0
LINE
  5
79
330
1F
100
AcDbEntity
  8
TOP_PASTE
100
AcDbLine
 10
-12.23060038
 20
7.354699539999999
 30
0.0
 11
-12.23060038
 21
8.34529954
 31
0.0
  0
LINE
  5
7A
330
1F
100
AcDbEntity
  8
TOP_PASTE
100
AcDbLine
 10
-12.23060038
 20
8.34529954
 30
0.0
 11
-11.51940038
 21
8.34529954
 31
0.0
  0
LINE
  5
7B
330
1F
100
AcDbEntity
  8
TOP_PASTE
100
AcDbLine
 10
-11.51940038
 20
3.84529838
 30
0.0
 11
-11.51940038
 21
2.85469838
 31
0.0
  0
LINE
  5
7C
330
1F
100
AcDbEntity
  8
TOP_PASTE
100
AcDbLine
 10
-11.51940038
 20
2.85469838
 30
0.0
 11
-12.23060038
 21
2.85469838
 31
0.0
  0
LINE
  5
7D
330
1F
100
AcDbEntity
  8
TOP_PASTE
100
AcDbLine
 10
-12.23060038
 20
2.85469838
 30
0.0
 11
-12.23060038
 21
3.84529838
 31
0.0
  0
LINE
  5
7E
330
1F
100
AcDbEntity
  8
TOP_PASTE
100
AcDbLine
 10
-12.23060038
 20
3.84529838
 30
0.0
 11
-11.51940038
 21
3.84529838
 31
0.0
  0
LINE
  5
7F
330
1F
100
AcDbEntity
  8
TOP_PASTE
100
AcDbLine
 10
-13.96659894
 20
-2.3091013
 30
0.0
 11
-12.64579894
 21
-2.3091013
 31
0.0
  0
LINE
  5
80
330
1F
100
AcDbEntity
  8
TOP_PASTE
100
AcDbLine
 10
-12.64579894
 20
-2.3091013
 30
0.0
 11
-12.64579894
 21
-2.7409013
 31
0.0
  0
LINE
  5
81
330
1F
100
AcDbEntity
  8
TOP_PASTE
100
AcDbLine
 10
-12.64579894
 20
-2.7409013
 30
0.0
 11
-13.96659894
 21
-2.7409013
 31
0.0
  0
LINE
  5
82
330
1F
100
AcDbEntity
  8
TOP_PASTE
100
AcDbLine
 10
-13.96659894
 20
-2.7409013
 30
0.0
 11
-13.96659894
 21
-2.3091013
 31
0.0
  0
LINE
  5
83
330
1F
100
AcDbEntity
  8
TOP_PASTE
100
AcDbLine
 10
-13.96659894
 20
-2.9591
 30
0.0
 11
-12.64579894
 21
-2.9591
 31
0.0
  0
LINE
  5
84
330
1F
100
AcDbEntity
  8
TOP_PASTE
100
AcDbLine
 10
-12.64579894
 20
-2.9591
 30
0.0
 11
-12.64579894
 21
-3.3909
 31
0.0
  0
LINE
  5
85
330
1F
100
AcDbEntity
  8
TOP_PASTE
100
AcDbLine
 10
-12.64579894
 20
-3.3909
 30
0.0
 11
-13.96659894
 21
-3.3909
 31
0.0
  0
LINE
  5
86
330
1F
100
AcDbEntity
  8
TOP_PASTE
100
AcDbLine
 10
-13.96659894
 20
-3.3909
 30
0.0
 11
-13.96659894
 21
-2.9591
 31
0.0
  0
LINE
  5
87
330
1F
100
AcDbEntity
  8
TOP_PASTE
100
AcDbLine
 10
-13.96659894
 20
-3.60910124
 30
0.0
 11
-12.64579894
 21
-3.60910124
 31
0.0
  0
LINE
  5
88
330
1F
100
AcDbEntity
  8
TOP_PASTE
100
AcDbLine
 10
-12.64579894
 20
-3.60910124
 30
0.0
 11
-12.64579894
 21
-4.04090124
 31
0.0
  0
LINE
  5
89
330
1F
100
AcDbEntity
  8
TOP_PASTE
100
AcDbLine
 10
-12.64579894
 20
-4.04090124
 30
0.0
 11
-13.96659894
 21
-4.04090124
 31
0.0
  0
LINE
  5
8A
330
1F
100
AcDbEntity
  8
TOP_PASTE
100
AcDbLine
 10
-13.96659894
 20
-4.04090124
 30
0.0
 11
-13.96659894
 21
-3.60910124
 31
0.0
  0
LINE
  5
8B
330
1F
100
AcDbEntity
  8
TOP_PASTE
100
AcDbLine
 10
-13.96659894
 20
-4.25909994
 30
0.0
 11
-12.64579894
 21
-4.25909994
 31
0.0
  0
LINE
  5
8C
330
1F
100
AcDbEntity
  8
TOP_PASTE
100
AcDbLine
 10
-12.64579894
 20
-4.25909994
 30
0.0
 11
-12.64579894
 21
-4.69089994
 31
0.0
  0
LINE
  5
8D
330
1F
100
AcDbEntity
  8
TOP_PASTE
100
AcDbLine
 10
-12.64579894
 20
-4.69089994
 30
0.0
 11
-13.96659894
 21
-4.69089994
 31
0.0
  0
LINE
  5
8E
330
1F
100
AcDbEntity
  8
TOP_PASTE
100
AcDbLine
 10
-13.96659894
 20
-4.69089994
 30
0.0
 11
-13.96659894
 21
-4.25909994
 31
0.0
  0
LINE
  5
8F
330
1F
100
AcDbEntity
  8
TOP_PASTE
100
AcDbLine
 10
-16.35419894
 20
-4.25909994
 30
0.0
 11
-15.03339894
 21
-4.25909994
 31
0.0
  0
LINE
  5
90
330
1F
100
AcDbEntity
  8
TOP_PASTE
100
AcDbLine
 10
-15.03339894
 20
-4.25909994
 30
0.0
 11
-15.03339894
 21
-4.69089994
 31
0.0
  0
LINE
  5
91
330
1F
100
AcDbEntity
  8
TOP_PASTE
100
AcDbLine
 10
-15.03339894
 20
-4.69089994
 30
0.0
 11
-16.35419894
 21
-4.69089994
 31
0.0
  0
LINE
  5
92
330
1F
100
AcDbEntity
  8
TOP_PASTE
100
AcDbLine
 10
-16.35419894
 20
-4.69089994
 30
0.0
 11
-16.35419894
 21
-4.25909994
 31
0.0
  0
LINE
  5
93
330
1F
100
AcDbEntity
  8
TOP_PASTE
100
AcDbLine
 10
-16.35419894
 20
-3.60910124
 30
0.0
 11
-15.03339894
 21
-3.60910124
 31
0.0
  0
LINE
  5
94
330
1F
100
AcDbEntity
  8
TOP_PASTE
100
AcDbLine
 10
-15.03339894
 20
-3.60910124
 30
0.0
 11
-15.03339894
 21
-4.04090124
 31
0.0
  0
LINE
  5
95
330
1F
100
AcDbEntity
  8
TOP_PASTE
100
AcDbLine
 10
-15.03339894
 20
-4.04090124
 30
0.0
 11
-16.35419894
 21
-4.04090124
 31
0.0
  0
LINE
  5
96
330
1F
100
AcDbEntity
  8
TOP_PASTE
100
AcDbLine
 10
-16.35419894
 20
-4.04090124
 30
0.0
 11
-16.35419894
 21
-3.60910124
 31
0.0
  0
LINE
  5
97
330
1F
100
AcDbEntity
  8
TOP_PASTE
100
AcDbLine
 10
-16.35419894
 20
-2.9591
 30
0.0
 11
-15.03339894
 21
-2.9591
 31
0.0
  0
LINE
  5
98
330
1F
100
AcDbEntity
  8
TOP_PASTE
100
AcDbLine
 10
-15.03339894
 20
-2.9591
 30
0.0
 11
-15.03339894
 21
-3.3909
 31
0.0
  0
LINE
  5
99
330
1F
100
AcDbEntity
  8
TOP_PASTE
100
AcDbLine
 10
-15.03339894
 20
-3.3909
 30
0.0
 11
-16.35419894
 21
-3.3909
 31
0.0
  0
LINE
  5
9A
330
1F
100
AcDbEntity
  8
TOP_PASTE
100
AcDbLine
 10
-16.35419894
 20
-3.3909
 30
0.0
 11
-16.35419894
 21
-2.9591
 31
0.0
  0
LINE
  5
9B
330
1F
100
AcDbEntity
  8
TOP_PASTE
100
AcDbLine
 10
-16.35419894
 20
-2.3091013
 30
0.0
 11
-15.03339894
 21
-2.3091013
 31
0.0
  0
LINE
  5
9C
330
1F
100
AcDbEntity
  8
TOP_PASTE
100
AcDbLine
 10
-15.03339894
 20
-2.3091013
 30
0.0
 11
-15.03339894
 21
-2.7409013
 31
0.0
  0
LINE
  5
9D
330
1F
100
AcDbEntity
  8
TOP_PASTE
100
AcDbLine
 10
-15.03339894
 20
-2.7409013
 30
0.0
 11
-16.35419894
 21
-2.7409013
 31
0.0
  0
LINE
  5
9E
330
1F
100
AcDbEntity
  8
TOP_PASTE
100
AcDbLine
 10
-16.35419894
 20
-2.7409013
 30
0.0
 11
-16.35419894
 21
-2.3091013
 31
0.0
  0
ARC
  5
9F
330
1F
100
AcDbEntity
  8
TOP_PASTE
100
AcDbCircle
 10
10.26249789
 20
5.68749942
 30
0.0
 40
0.18750026
100
AcDbArc
 50
270.0
 51
0.0
  0
LINE
  5
A0
330
1F
100
AcDbEntity
  8
TOP_PASTE
100
AcDbLine
 10
10.44999815
 20
5.68749942
 30
0.0
 11
10.44999815
 21
7.312499979999999
 31
0.0
  0
ARC
  5
A1
330
1F
100
AcDbEntity
  8
TOP_PASTE
100
AcDbCircle
 10
10.26249789
 20
7.312499979999999
 30
0.0
 40
0.18750026
100
AcDbArc
 50
0.0
 51
90.0
  0
LINE
  5
A2
330
1F
100
AcDbEntity
  8
TOP_PASTE
100
AcDbLine
 10
10.26249789
 20
7.500000239999999
 30
0.0
 11
9.137498869999998
 21
7.500000239999999
 31
0.0
  0
ARC
  5
A3
330
1F
100
AcDbEntity
  8
TOP_PASTE
100
AcDbCircle
 10
9.137498869999998
 20
7.312499979999999
 30
0.0
 40
0.18750026
100
AcDbArc
 50
90.0
 51
180.0
  0
LINE
  5
A4
330
1F
100
AcDbEntity
  8
TOP_PASTE
100
AcDbLine
 10
8.949998609999998
 20
7.312499979999999
 30
0.0
 11
8.949998609999998
 21
5.68749942
 31
0.0
  0
ARC
  5
A5
330
1F
100
AcDbEntity
  8
TOP_PASTE
100
AcDbCircle
 10
9.137498869999998
 20
5.68749942
 30
0.0
 40
0.18750026
100
AcDbArc
 50
180.0
 51
270.0
  0
LINE
  5
A6
330
1F
100
AcDbEntity
  8
TOP_PASTE
100
AcDbLine
 10
9.137498869999998
 20
5.49999916
 30
0.0
 11
10.26249789
 21
5.49999916
 31
0.0
  0
ARC
  5
A7
330
1F
100
AcDbEntity
  8
TOP_PASTE
100
AcDbCircle
 10
14.86249885
 20
5.68749942
 30
0.0
 40
0.18750026
100
AcDbArc
 50
270.0
 51
0.0
  0
LINE
  5
A8
330
1F
100
AcDbEntity
  8
TOP_PASTE
100
AcDbLine
 10
15.04999911
 20
5.68749942
 30
0.0
 11
15.04999911
 21
7.312499979999999
 31
0.0
  0
ARC
  5
A9
330
1F
100
AcDbEntity
  8
TOP_PASTE
100
AcDbCircle
 10
14.86249885
 20
7.312499979999999
 30
0.0
 40
0.18750026
100
AcDbArc
 50
0.0
 51
90.0
  0
LINE
  5
AA
330
1F
100
AcDbEntity
  8
TOP_PASTE
100
AcDbLine
 10
14.86249885
 20
7.500000239999999
 30
0.0
 11
13.73749983
 21
7.500000239999999
 31
0.0
  0
ARC
  5
AB
330
1F
100
AcDbEntity
  8
TOP_PASTE
100
AcDbCircle
 10
13.73749983
 20
7.312499979999999
 30
0.0
 40
0.18750026
100
AcDbArc
 50
90.0
 51
180.0
  0
LINE
  5
AC
330
1F
100
AcDbEntity
  8
TOP_PASTE
100
AcDbLine
 10
13.54999957
 20
7.312499979999999
 30
0.0
 11
13.54999957
 21
5.68749942
 31
0.0
  0
ARC
  5
AD
330
1F
100
AcDbEntity
  8
TOP_PASTE
100
AcDbCircle
 10
13.73749983
 20
5.68749942
 30
0.0
 40
0.18750026
100
AcDbArc
 50
180.0
 51
270.0
  0
LINE
  5
AE
330
1F
100
AcDbEntity
  8
TOP_PASTE
100
AcDbLine
 10
13.73749983
 20
5.49999916
 30
0.0
 11
14.86249885
 21
5.49999916
 31
0.0
  0
ARC
  5
AF
330
1F
100
AcDbEntity
  8
TOP_PASTE
100
AcDbCircle
 10
13.84999897
 20
-0.6500012400000003
 30
0.0
 40
0.0499999
100
AcDbArc
 50
270.0
 51
0.0
  0
LINE
  5
B0
330
1F
100
AcDbEntity
  8
TOP_PASTE
100
AcDbLine
 10
13.89999887
 20
-0.6500012400000003
 30
0.0
 11
13.89999887
 21
1.25000004
 31
0.0
  0
ARC
  5
B1
330
1F
100
AcDbEntity
  8
TOP_PASTE
100
AcDbCircle
 10
13.84999897
 20
1.25000004
 30
0.0
 40
0.0499999
100
AcDbArc
 50
0.0
 51
90.0
  0
LINE
  5
B2
330
1F
100
AcDbEntity
  8
TOP_PASTE
100
AcDbLine
 10
13.84999897
 20
1.29999994
 30
0.0
 11
10.14999875
 21
1.29999994
 31
0.0
  0
ARC
  5
B3
330
1F
100
AcDbEntity
  8
TOP_PASTE
100
AcDbCircle
 10
10.14999875
 20
1.25000004
 30
0.0
 40
0.0499999
100
AcDbArc
 50
90.0
 51
180.0
  0
LINE
  5
B4
330
1F
100
AcDbEntity
  8
TOP_PASTE
100
AcDbLine
 10
10.09999885
 20
1.25000004
 30
0.0
 11
10.09999885
 21
-0.6500012399999997
 31
0.0
  0
ARC
  5
B5
330
1F
100
AcDbEntity
  8
TOP_PASTE
100
AcDbCircle
 10
10.14999875
 20
-0.6500012399999997
 30
0.0
 40
0.0499999
100
AcDbArc
 50
180.0
 51
270.0
  0
LINE
  5
B6
330
1F
100
AcDbEntity
  8
TOP_PASTE
100
AcDbLine
 10
10.14999875
 20
-0.7000011399999997
 30
0.0
 11
13.84999897
 21
-0.7000011400000002
 31
0.0
  0
ARC
  5
B7
330
1F
100
AcDbEntity
  8
TOP_PASTE
100
AcDbCircle
 10
12.56249837
 20
5.68749942
 30
0.0
 40
0.18750026
100
AcDbArc
 50
270.0
 51
0.0
  0
LINE
  5
B8
330
1F
100
AcDbEntity
  8
TOP_PASTE
100
AcDbLine
 10
12.74999863
 20
5.68749942
 30
0.0
 11
12.74999863
 21
7.312499979999999
 31
0.0
  0
ARC
  5
B9
330
1F
100
AcDbEntity
  8
TOP_PASTE
100
AcDbCircle
 10
12.56249837
 20
7.312499979999999
 30
0.0
 40
0.18750026
100
AcDbArc
 50
0.0
 51
90.0
  0
LINE
  5
BA
330
1F
100
AcDbEntity
  8
TOP_PASTE
100
AcDbLine
 10
12.56249837
 20
7.500000239999999
 30
0.0
 11
11.43749935
 21
7.500000239999999
 31
0.0
  0
ARC
  5
BB
330
1F
100
AcDbEntity
  8
TOP_PASTE
100
AcDbCircle
 10
11.43749935
 20
7.312499979999999
 30
0.0
 40
0.18750026
100
AcDbArc
 50
90.0
 51
180.0
  0
LINE
  5
BC
330
1F
100
AcDbEntity
  8
TOP_PASTE
100
AcDbLine
 10
11.24999909
 20
7.312499979999999
 30
0.0
 11
11.24999909
 21
5.68749942
 31
0.0
  0
ARC
  5
BD
330
1F
100
AcDbEntity
  8
TOP_PASTE
100
AcDbCircle
 10
11.43749935
 20
5.68749942
 30
0.0
 40
0.18750026
100
AcDbArc
 50
180.0
 51
270.0
  0
LINE
  5
BE
330
1F
100
AcDbEntity
  8
TOP_PASTE
100
AcDbLine
 10
11.43749935
 20
5.49999916
 30
0.0
 11
12.56249837
 21
5.49999916
 31
0.0
  0
LINE
  5
BF
330
1F
100
AcDbEntity
  8
TOP_PASTE
100
AcDbLine
 10
-5.493598359999999
 20
14.20319994
 30
0.0
 11
-5.493598359999999
 21
13.79679994
 31
0.0
  0
LINE
  5
C0
330
1F
100
AcDbEntity
  8
TOP_PASTE
100
AcDbLine
 10
-5.493598359999999
 20
13.79679994
 30
0.0
 11
-6.306398359999999
 21
13.79679994
 31
0.0
  0
LINE
  5
C1
330
1F
100
AcDbEntity
  8
TOP_PASTE
100
AcDbLine
 10
-6.306398359999999
 20
13.79679994
 30
0.0
 11
-6.306398359999999
 21
14.20319994
 31
0.0
  0
LINE
  5
C2
330
1F
100
AcDbEntity
  8
TOP_PASTE
100
AcDbLine
 10
-6.306398359999999
 20
14.20319994
 30
0.0
 11
-5.493598359999999
 21
14.20319994
 31
0.0
  0
LINE
  5
C3
330
1F
100
AcDbEntity
  8
TOP_PASTE
100
AcDbLine
 10
-5.493598359999999
 20
13.403199
 30
0.0
 11
-5.493598359999999
 21
12.996799
 31
0.0
  0
LINE
  5
C4
330
1F
100
AcDbEntity
  8
TOP_PASTE
100
AcDbLine
 10
-5.493598359999999
 20
12.996799
 30
0.0
 11
-6.306398359999999
 21
12.996799
 31
0.0
  0
LINE
  5
C5
330
1F
100
AcDbEntity
  8
TOP_PASTE
100
AcDbLine
 10
-6.306398359999999
 20
12.996799
 30
0.0
 11
-6.306398359999999
 21
13.403199
 31
0.0
  0
LINE
  5
C6
330
1F
100
AcDbEntity
  8
TOP_PASTE
100
AcDbLine
 10
-6.306398359999999
 20
13.403199
 30
0.0
 11
-5.493598359999999
 21
13.403199
 31
0.0
  0
LINE
  5
C7
330
1F
100
AcDbEntity
  8
TOP_PASTE
100
AcDbLine
 10
-5.493598359999999
 20
12.6032006
 30
0.0
 11
-5.493598359999999
 21
12.1968006
 31
0.0
  0
LINE
  5
C8
330
1F
100
AcDbEntity
  8
TOP_PASTE
100
AcDbLine
 10
-5.493598359999999
 20
12.1968006
 30
0.0
 11
-6.306398359999999
 21
12.1968006
 31
0.0
  0
LINE
  5
C9
330
1F
100
AcDbEntity
  8
TOP_PASTE
100
AcDbLine
 10
-6.306398359999999
 20
12.1968006
 30
0.0
 11
-6.306398359999999
 21
12.6032006
 31
0.0
  0
LINE
  5
CA
330
1F
100
AcDbEntity
  8
TOP_PASTE
100
AcDbLine
 10
-6.306398359999999
 20
12.6032006
 30
0.0
 11
-5.493598359999999
 21
12.6032006
 31
0.0
  0
LINE
  5
CB
330
1F
100
AcDbEntity
  8
TOP_PASTE
100
AcDbLine
 10
-5.493598359999999
 20
11.80319966
 30
0.0
 11
-5.493598359999999
 21
11.39679966
 31
0.0
  0
LINE
  5
CC
330
1F
100
AcDbEntity
  8
TOP_PASTE
100
AcDbLine
 10
-5.493598359999999
 20
11.39679966
 30
0.0
 11
-6.306398359999999
 21
11.39679966
 31
0.0
  0
LINE
  5
CD
330
1F
100
AcDbEntity
  8
TOP_PASTE
100
AcDbLine
 10
-6.306398359999999
 20
11.39679966
 30
0.0
 11
-6.306398359999999
 21
11.80319966
 31
0.0
  0
LINE
  5
CE
330
1F
100
AcDbEntity
  8
TOP_PASTE
100
AcDbLine
 10
-6.306398359999999
 20
11.80319966
 30
0.0
 11
-5.493598359999999
 21
11.80319966
 31
0.0
  0
LINE
  5
CF
330
1F
100
AcDbEntity
  8
TOP_PASTE
100
AcDbLine
 10
-5.493598359999999
 20
11.00320126
 30
0.0
 11
-5.493598359999999
 21
10.59680126
 31
0.0
  0
LINE
  5
D0
330
1F
100
AcDbEntity
  8
TOP_PASTE
100
AcDbLine
 10
-5.493598359999999
 20
10.59680126
 30
0.0
 11
-6.306398359999999
 21
10.59680126
 31
0.0
  0
LINE
  5
D1
330
1F
100
AcDbEntity
  8
TOP_PASTE
100
AcDbLine
 10
-6.306398359999999
 20
10.59680126
 30
0.0
 11
-6.306398359999999
 21
11.00320126
 31
0.0
  0
LINE
  5
D2
330
1F
100
AcDbEntity
  8
TOP_PASTE
100
AcDbLine
 10
-6.306398359999999
 20
11.00320126
 30
0.0
 11
-5.493598359999999
 21
11.00320126
 31
0.0
  0
LINE
  5
D3
330
1F
100
AcDbEntity
  8
TOP_PASTE
100
AcDbLine
 10
-5.493598359999999
 20
10.20320032
 30
0.0
 11
-5.493598359999999
 21
9.79680032
 31
0.0
  0
LINE
  5
D4
330
1F
100
AcDbEntity
  8
TOP_PASTE
100
AcDbLine
 10
-5.493598359999999
 20
9.79680032
 30
0.0
 11
-6.306398359999999
 21
9.79680032
 31
0.0
  0
LINE
  5
D5
330
1F
100
AcDbEntity
  8
TOP_PASTE
100
AcDbLine
 10
-6.306398359999999
 20
9.79680032
 30
0.0
 11
-6.306398359999999
 21
10.20320032
 31
0.0
  0
LINE
  5
D6
330
1F
100
AcDbEntity
  8
TOP_PASTE
100
AcDbLine
 10
-6.306398359999999
 20
10.20320032
 30
0.0
 11
-5.493598359999999
 21
10.20320032
 31
0.0
  0
LINE
  5
D7
330
1F
100
AcDbEntity
  8
TOP_PASTE
100
AcDbLine
 10
-5.493598359999999
 20
9.40319938
 30
0.0
 11
-5.493598359999999
 21
8.996799379999999
 31
0.0
  0
LINE
  5
D8
330
1F
100
AcDbEntity
  8
TOP_PASTE
100
AcDbLine
 10
-5.493598359999999
 20
8.996799379999999
 30
0.0
 11
-6.306398359999999
 21
8.996799379999999
 31
0.0
  0
LINE
  5
D9
330
1F
100
AcDbEntity
  8
TOP_PASTE
100
AcDbLine
 10
-6.306398359999999
 20
8.996799379999999
 30
0.0
 11
-6.306398359999999
 21
9.40319938
 31
0.0
  0
LINE
  5
DA
330
1F
100
AcDbEntity
  8
TOP_PASTE
100
AcDbLine
 10
-6.306398359999999
 20
9.40319938
 30
0.0
 11
-5.493598359999999
 21
9.40319938
 31
0.0
  0
LINE
  5
DB
330
1F
100
AcDbEntity
  8
TOP_PASTE
100
AcDbLine
 10
-5.493598359999999
 20
8.603200979999999
 30
0.0
 11
-5.493598359999999
 21
8.19680098
 31
0.0
  0
LINE
  5
DC
330
1F
100
AcDbEntity
  8
TOP_PASTE
100
AcDbLine
 10
-5.493598359999999
 20
8.19680098
 30
0.0
 11
-6.306398359999999
 21
8.19680098
 31
0.0
  0
LINE
  5
DD
330
1F
100
AcDbEntity
  8
TOP_PASTE
100
AcDbLine
 10
-6.306398359999999
 20
8.19680098
 30
0.0
 11
-6.306398359999999
 21
8.603200979999999
 31
0.0
  0
LINE
  5
DE
330
1F
100
AcDbEntity
  8
TOP_PASTE
100
AcDbLine
 10
-6.306398359999999
 20
8.603200979999999
 30
0.0
 11
-5.493598359999999
 21
8.603200979999999
 31
0.0
  0
LINE
  5
DF
330
1F
100
AcDbEntity
  8
TOP_PASTE
100
AcDbLine
 10
-5.493598359999999
 20
7.803200039999999
 30
0.0
 11
-5.493598359999999
 21
7.39680004
 31
0.0
  0
LINE
  5
E0
330
1F
100
AcDbEntity
  8
TOP_PASTE
100
AcDbLine
 10
-5.493598359999999
 20
7.39680004
 30
0.0
 11
-6.306398359999999
 21
7.39680004
 31
0.0
  0
LINE
  5
E1
330
1F
100
AcDbEntity
  8
TOP_PASTE
100
AcDbLine
 10
-6.306398359999999
 20
7.39680004
 30
0.0
 11
-6.306398359999999
 21
7.803200039999999
 31
0.0
  0
LINE
  5
E2
330
1F
100
AcDbEntity
  8
TOP_PASTE
100
AcDbLine
 10
-6.306398359999999
 20
7.803200039999999
 30
0.0
 11
-5.493598359999999
 21
7.803200039999999
 31
0.0
  0
LINE
  5
E3
330
1F
100
AcDbEntity
  8
TOP_PASTE
100
AcDbLine
 10
-5.493598359999999
 20
7.003201639999999
 30
0.0
 11
-5.493598359999999
 21
6.59680164
 31
0.0
  0
LINE
  5
E4
330
1F
100
AcDbEntity
  8
TOP_PASTE
100
AcDbLine
 10
-5.493598359999999
 20
6.59680164
 30
0.0
 11
-6.306398359999999
 21
6.59680164
 31
0.0
  0
LINE
  5
E5
330
1F
100
AcDbEntity
  8
TOP_PASTE
100
AcDbLine
 10
-6.306398359999999
 20
6.59680164
 30
0.0
 11
-6.306398359999999
 21
7.003201639999999
 31
0.0
  0
LINE
  5
E6
330
1F
100
AcDbEntity
  8
TOP_PASTE
100
AcDbLine
 10
-6.306398359999999
 20
7.003201639999999
 30
0.0
 11
-5.493598359999999
 21
7.003201639999999
 31
0.0
  0
LINE
  5
E7
330
1F
100
AcDbEntity
  8
TOP_PASTE
100
AcDbLine
 10
-5.493598359999999
 20
6.2032007
 30
0.0
 11
-5.493598359999999
 21
5.796800699999999
 31
0.0
  0
LINE
  5
E8
330
1F
100
AcDbEntity
  8
TOP_PASTE
100
AcDbLine
 10
-5.493598359999999
 20
5.796800699999999
 30
0.0
 11
-6.306398359999999
 21
5.796800699999999
 31
0.0
  0
LINE
  5
E9
330
1F
100
AcDbEntity
  8
TOP_PASTE
100
AcDbLine
 10
-6.306398359999999
 20
5.796800699999999
 30
0.0
 11
-6.306398359999999
 21
6.2032007
 31
0.0
  0
LINE
  5
EA
330
1F
100
AcDbEntity
  8
TOP_PASTE
100
AcDbLine
 10
-6.306398359999999
 20
6.2032007
 30
0.0
 11
-5.493598359999999
 21
6.2032007
 31
0.0
  0
LINE
  5
EB
330
1F
100
AcDbEntity
  8
TOP_PASTE
100
AcDbLine
 10
-4.59680056
 20
4.693599959999999
 30
0.0
 11
-5.00320056
 21
4.693599959999999
 31
0.0
  0
LINE
  5
EC
330
1F
100
AcDbEntity
  8
TOP_PASTE
100
AcDbLine
 10
-5.00320056
 20
4.693599959999999
 30
0.0
 11
-5.00320056
 21
5.50639996
 31
0.0
  0
LINE
  5
ED
330
1F
100
AcDbEntity
  8
TOP_PASTE
100
AcDbLine
 10
-5.00320056
 20
5.50639996
 30
0.0
 11
-4.59680056
 21
5.50639996
 31
0.0
  0
LINE
  5
EE
330
1F
100
AcDbEntity
  8
TOP_PASTE
100
AcDbLine
 10
-4.59680056
 20
5.50639996
 30
0.0
 11
-4.59680056
 21
4.693599959999999
 31
0.0
  0
LINE
  5
EF
330
1F
100
AcDbEntity
  8
TOP_PASTE
100
AcDbLine
 10
-3.79679962
 20
4.693599959999999
 30
0.0
 11
-4.203199619999999
 21
4.693599959999999
 31
0.0
  0
LINE
  5
F0
330
1F
100
AcDbEntity
  8
TOP_PASTE
100
AcDbLine
 10
-4.203199619999999
 20
4.693599959999999
 30
0.0
 11
-4.203199619999999
 21
5.50639996
 31
0.0
  0
LINE
  5
F1
330
1F
100
AcDbEntity
  8
TOP_PASTE
100
AcDbLine
 10
-4.203199619999999
 20
5.50639996
 30
0.0
 11
-3.79679962
 21
5.50639996
 31
0.0
  0
LINE
  5
F2
330
1F
100
AcDbEntity
  8
TOP_PASTE
100
AcDbLine
 10
-3.79679962
 20
5.50639996
 30
0.0
 11
-3.79679962
 21
4.693599959999999
 31
0.0
  0
LINE
  5
F3
330
1F
100
AcDbEntity
  8
TOP_PASTE
100
AcDbLine
 10
-2.99679868
 20
4.693599959999999
 30
0.0
 11
-3.40319868
 21
4.693599959999999
 31
0.0
  0
LINE
  5
F4
330
1F
100
AcDbEntity
  8
TOP_PASTE
100
AcDbLine
 10
-3.40319868
 20
4.693599959999999
 30
0.0
 11
-3.40319868
 21
5.50639996
 31
0.0
  0
LINE
  5
F5
330
1F
100
AcDbEntity
  8
TOP_PASTE
100
AcDbLine
 10
-3.40319868
 20
5.50639996
 30
0.0
 11
-2.99679868
 21
5.50639996
 31
0.0
  0
LINE
  5
F6
330
1F
100
AcDbEntity
  8
TOP_PASTE
100
AcDbLine
 10
-2.99679868
 20
5.50639996
 30
0.0
 11
-2.99679868
 21
4.693599959999999
 31
0.0
  0
LINE
  5
F7
330
1F
100
AcDbEntity
  8
TOP_PASTE
100
AcDbLine
 10
-2.19680028
 20
4.693599959999999
 30
0.0
 11
-2.60320028
 21
4.693599959999999
 31
0.0
  0
LINE
  5
F8
330
1F
100
AcDbEntity
  8
TOP_PASTE
100
AcDbLine
 10
-2.60320028
 20
4.693599959999999
 30
0.0
 11
-2.60320028
 21
5.50639996
 31
0.0
  0
LINE
  5
F9
330
1F
100
AcDbEntity
  8
TOP_PASTE
100
AcDbLine
 10
-2.60320028
 20
5.50639996
 30
0.0
 11
-2.19680028
 21
5.50639996
 31
0.0
  0
LINE
  5
FA
330
1F
100
AcDbEntity
  8
TOP_PASTE
100
AcDbLine
 10
-2.19680028
 20
5.50639996
 30
0.0
 11
-2.19680028
 21
4.693599959999999
 31
0.0
  0
LINE
  5
FB
330
1F
100
AcDbEntity
  8
TOP_PASTE
100
AcDbLine
 10
-1.39679934
 20
4.693599959999999
 30
0.0
 11
-1.80319934
 21
4.693599959999999
 31
0.0
  0
LINE
  5
FC
330
1F
100
AcDbEntity
  8
TOP_PASTE
100
AcDbLine
 10
-1.80319934
 20
4.693599959999999
 30
0.0
 11
-1.80319934
 21
5.50639996
 31
0.0
  0
LINE
  5
FD
330
1F
100
AcDbEntity
  8
TOP_PASTE
100
AcDbLine
 10
-1.80319934
 20
5.50639996
 30
0.0
 11
-1.39679934
 21
5.50639996
 31
0.0
  0
LINE
  5
FE
330
1F
100
AcDbEntity
  8
TOP_PASTE
100
AcDbLine
 10
-1.39679934
 20
5.50639996
 30
0.0
 11
-1.39679934
 21
4.693599959999999
 31
0.0
  0
LINE
  5
FF
330
1F
100
AcDbEntity
  8
TOP_PASTE
100
AcDbLine
 10
-0.59680094
 20
4.693599959999999
 30
0.0
 11
-1.00320094
 21
4.693599959999999
 31
0.0
  0
LINE
  5
100
330
1F
100
AcDbEntity
  8
TOP_PASTE
100
AcDbLine
 10
-1.00320094
 20
4.693599959999999
 30
0.0
 11
-1.00320094
 21
5.50639996
 31
0.0
  0
LINE
  5
101
330
1F
100
AcDbEntity
  8
TOP_PASTE
100
AcDbLine
 10
-1.00320094
 20
5.50639996
 30
0.0
 11
-0.59680094
 21
5.50639996
 31
0.0
  0
LINE
  5
102
330
1F
100
AcDbEntity
  8
TOP_PASTE
100
AcDbLine
 10
-0.59680094
 20
5.50639996
 30
0.0
 11
-0.59680094
 21
4.693599959999999
 31
0.0
  0
LINE
  5
103
330
1F
100
AcDbEntity
  8
TOP_PASTE
100
AcDbLine
 10
0.2031999999999999
 20
4.693599959999999
 30
0.0
 11
-0.2032
 21
4.693599959999999
 31
0.0
  0
LINE
  5
104
330
1F
100
AcDbEntity
  8
TOP_PASTE
100
AcDbLine
 10
-0.2032
 20
4.693599959999999
 30
0.0
 11
-0.2031999999999999
 21
5.50639996
 31
0.0
  0
LINE
  5
105
330
1F
100
AcDbEntity
  8
TOP_PASTE
100
AcDbLine
 10
-0.2031999999999999
 20
5.50639996
 30
0.0
 11
0.2032
 21
5.50639996
 31
0.0
  0
LINE
  5
106
330
1F
100
AcDbEntity
  8
TOP_PASTE
100
AcDbLine
 10
0.2032
 20
5.50639996
 30
0.0
 11
0.2031999999999999
 21
4.693599959999999
 31
0.0
  0
LINE
  5
107
330
1F
100
AcDbEntity
  8
TOP_PASTE
100
AcDbLine
 10
1.00320094
 20
4.693599959999999
 30
0.0
 11
0.59680094
 21
4.693599959999999
 31
0.0
  0
LINE
  5
108
330
1F
100
AcDbEntity
  8
TOP_PASTE
100
AcDbLine
 10
0.59680094
 20
4.693599959999999
 30
0.0
 11
0.59680094
 21
5.50639996
 31
0.0
  0
LINE
  5
109
330
1F
100
AcDbEntity
  8
TOP_PASTE
100
AcDbLine
 10
0.59680094
 20
5.50639996
 30
0.0
 11
1.00320094
 21
5.50639996
 31
0.0
  0
LINE
  5
10A
330
1F
100
AcDbEntity
  8
TOP_PASTE
100
AcDbLine
 10
1.00320094
 20
5.50639996
 30
0.0
 11
1.00320094
 21
4.693599959999999
 31
0.0
  0
LINE
  5
10B
330
1F
100
AcDbEntity
  8
TOP_PASTE
100
AcDbLine
 10
1.80319934
 20
4.693599959999999
 30
0.0
 11
1.39679934
 21
4.693599959999999
 31
0.0
  0
LINE
  5
10C
330
1F
100
AcDbEntity
  8
TOP_PASTE
100
AcDbLine
 10
1.39679934
 20
4.693599959999999
 30
0.0
 11
1.39679934
 21
5.50639996
 31
0.0
  0
LINE
  5
10D
330
1F
100
AcDbEntity
  8
TOP_PASTE
100
AcDbLine
 10
1.39679934
 20
5.50639996
 30
0.0
 11
1.80319934
 21
5.50639996
 31
0.0
  0
LINE
  5
10E
330
1F
100
AcDbEntity
  8
TOP_PASTE
100
AcDbLine
 10
1.80319934
 20
5.50639996
 30
0.0
 11
1.80319934
 21
4.693599959999999
 31
0.0
  0
LINE
  5
10F
330
1F
100
AcDbEntity
  8
TOP_PASTE
100
AcDbLine
 10
2.60320028
 20
4.693599959999999
 30
0.0
 11
2.19680028
 21
4.693599959999999
 31
0.0
  0
LINE
  5
110
330
1F
100
AcDbEntity
  8
TOP_PASTE
100
AcDbLine
 10
2.19680028
 20
4.693599959999999
 30
0.0
 11
2.19680028
 21
5.50639996
 31
0.0
  0
LINE
  5
111
330
1F
100
AcDbEntity
  8
TOP_PASTE
100
AcDbLine
 10
2.19680028
 20
5.50639996
 30
0.0
 11
2.60320028
 21
5.50639996
 31
0.0
  0
LINE
  5
112
330
1F
100
AcDbEntity
  8
TOP_PASTE
100
AcDbLine
 10
2.60320028
 20
5.50639996
 30
0.0
 11
2.60320028
 21
4.693599959999999
 31
0.0
  0
LINE
  5
113
330
1F
100
AcDbEntity
  8
TOP_PASTE
100
AcDbLine
 10
3.40319868
 20
4.693599959999999
 30
0.0
 11
2.99679868
 21
4.693599959999999
 31
0.0
  0
LINE
  5
114
330
1F
100
AcDbEntity
  8
TOP_PASTE
100
AcDbLine
 10
2.99679868
 20
4.693599959999999
 30
0.0
 11
2.99679868
 21
5.50639996
 31
0.0
  0
LINE
  5
115
330
1F
100
AcDbEntity
  8
TOP_PASTE
100
AcDbLine
 10
2.99679868
 20
5.50639996
 30
0.0
 11
3.40319868
 21
5.50639996
 31
0.0
  0
LINE
  5
116
330
1F
100
AcDbEntity
  8
TOP_PASTE
100
AcDbLine
 10
3.40319868
 20
5.50639996
 30
0.0
 11
3.40319868
 21
4.693599959999999
 31
0.0
  0
LINE
  5
117
330
1F
100
AcDbEntity
  8
TOP_PASTE
100
AcDbLine
 10
4.203199619999999
 20
4.693599959999999
 30
0.0
 11
3.79679962
 21
4.693599959999999
 31
0.0
  0
LINE
  5
118
330
1F
100
AcDbEntity
  8
TOP_PASTE
100
AcDbLine
 10
3.79679962
 20
4.693599959999999
 30
0.0
 11
3.79679962
 21
5.50639996
 31
0.0
  0
LINE
  5
119
330
1F
100
AcDbEntity
  8
TOP_PASTE
100
AcDbLine
 10
3.79679962
 20
5.50639996
 30
0.0
 11
4.203199619999999
 21
5.50639996
 31
0.0
  0
LINE
  5
11A
330
1F
100
AcDbEntity
  8
TOP_PASTE
100
AcDbLine
 10
4.203199619999999
 20
5.50639996
 30
0.0
 11
4.203199619999999
 21
4.693599959999999
 31
0.0
  0
LINE
  5
11B
330
1F
100
AcDbEntity
  8
TOP_PASTE
100
AcDbLine
 10
5.003198019999999
 20
4.693599959999999
 30
0.0
 11
4.59679802
 21
4.693599959999999
 31
0.0
  0
LINE
  5
11C
330
1F
100
AcDbEntity
  8
TOP_PASTE
100
AcDbLine
 10
4.59679802
 20
4.693599959999999
 30
0.0
 11
4.59679802
 21
5.50639996
 31
0.0
  0
LINE
  5
11D
330
1F
100
AcDbEntity
  8
TOP_PASTE
100
AcDbLine
 10
4.59679802
 20
5.50639996
 30
0.0
 11
5.003198019999999
 21
5.50639996
 31
0.0
  0
LINE
  5
11E
330
1F
100
AcDbEntity
  8
TOP_PASTE
100
AcDbLine
 10
5.003198019999999
 20
5.50639996
 30
0.0
 11
5.003198019999999
 21
4.693599959999999
 31
0.0
  0
LINE
  5
11F
330
1F
100
AcDbEntity
  8
TOP_PASTE
100
AcDbLine
 10
6.306398359999999
 20
6.2032007
 30
0.0
 11
6.306398359999999
 21
5.796800699999999
 31
0.0
  0
LINE
  5
120
330
1F
100
AcDbEntity
  8
TOP_PASTE
100
AcDbLine
 10
6.306398359999999
 20
5.796800699999999
 30
0.0
 11
5.493598359999999
 21
5.796800699999999
 31
0.0
  0
LINE
  5
121
330
1F
100
AcDbEntity
  8
TOP_PASTE
100
AcDbLine
 10
5.493598359999999
 20
5.796800699999999
 30
0.0
 11
5.493598359999999
 21
6.2032007
 31
0.0
  0
LINE
  5
122
330
1F
100
AcDbEntity
  8
TOP_PASTE
100
AcDbLine
 10
5.493598359999999
 20
6.2032007
 30
0.0
 11
6.306398359999999
 21
6.2032007
 31
0.0
  0
LINE
  5
123
330
1F
100
AcDbEntity
  8
TOP_PASTE
100
AcDbLine
 10
6.306398359999999
 20
7.003201639999999
 30
0.0
 11
6.306398359999999
 21
6.59680164
 31
0.0
  0
LINE
  5
124
330
1F
100
AcDbEntity
  8
TOP_PASTE
100
AcDbLine
 10
6.306398359999999
 20
6.59680164
 30
0.0
 11
5.493598359999999
 21
6.59680164
 31
0.0
  0
LINE
  5
125
330
1F
100
AcDbEntity
  8
TOP_PASTE
100
AcDbLine
 10
5.493598359999999
 20
6.59680164
 30
0.0
 11
5.493598359999999
 21
7.003201639999999
 31
0.0
  0
LINE
  5
126
330
1F
100
AcDbEntity
  8
TOP_PASTE
100
AcDbLine
 10
5.493598359999999
 20
7.003201639999999
 30
0.0
 11
6.306398359999999
 21
7.003201639999999
 31
0.0
  0
LINE
  5
127
330
1F
100
AcDbEntity
  8
TOP_PASTE
100
AcDbLine
 10
6.306398359999999
 20
7.803200039999999
 30
0.0
 11
6.306398359999999
 21
7.39680004
 31
0.0
  0
LINE
  5
128
330
1F
100
AcDbEntity
  8
TOP_PASTE
100
AcDbLine
 10
6.306398359999999
 20
7.39680004
 30
0.0
 11
5.493598359999999
 21
7.39680004
 31
0.0
  0
LINE
  5
129
330
1F
100
AcDbEntity
  8
TOP_PASTE
100
AcDbLine
 10
5.493598359999999
 20
7.39680004
 30
0.0
 11
5.493598359999999
 21
7.803200039999999
 31
0.0
  0
LINE
  5
12A
330
1F
100
AcDbEntity
  8
TOP_PASTE
100
AcDbLine
 10
5.493598359999999
 20
7.803200039999999
 30
0.0
 11
6.306398359999999
 21
7.803200039999999
 31
0.0
  0
LINE
  5
12B
330
1F
100
AcDbEntity
  8
TOP_PASTE
100
AcDbLine
 10
6.306398359999999
 20
8.603200979999999
 30
0.0
 11
6.306398359999999
 21
8.19680098
 31
0.0
  0
LINE
  5
12C
330
1F
100
AcDbEntity
  8
TOP_PASTE
100
AcDbLine
 10
6.306398359999999
 20
8.19680098
 30
0.0
 11
5.493598359999999
 21
8.19680098
 31
0.0
  0
LINE
  5
12D
330
1F
100
AcDbEntity
  8
TOP_PASTE
100
AcDbLine
 10
5.493598359999999
 20
8.19680098
 30
0.0
 11
5.493598359999999
 21
8.603200979999999
 31
0.0
  0
LINE
  5
12E
330
1F
100
AcDbEntity
  8
TOP_PASTE
100
AcDbLine
 10
5.493598359999999
 20
8.603200979999999
 30
0.0
 11
6.306398359999999
 21
8.603200979999999
 31
0.0
  0
LINE
  5
12F
330
1F
100
AcDbEntity
  8
TOP_PASTE
100
AcDbLine
 10
6.306398359999999
 20
9.40319938
 30
0.0
 11
6.306398359999999
 21
8.996799379999999
 31
0.0
  0
LINE
  5
130
330
1F
100
AcDbEntity
  8
TOP_PASTE
100
AcDbLine
 10
6.306398359999999
 20
8.996799379999999
 30
0.0
 11
5.493598359999999
 21
8.996799379999999
 31
0.0
  0
LINE
  5
131
330
1F
100
AcDbEntity
  8
TOP_PASTE
100
AcDbLine
 10
5.493598359999999
 20
8.996799379999999
 30
0.0
 11
5.493598359999999
 21
9.40319938
 31
0.0
  0
LINE
  5
132
330
1F
100
AcDbEntity
  8
TOP_PASTE
100
AcDbLine
 10
5.493598359999999
 20
9.40319938
 30
0.0
 11
6.306398359999999
 21
9.40319938
 31
0.0
  0
LINE
  5
133
330
1F
100
AcDbEntity
  8
TOP_PASTE
100
AcDbLine
 10
6.306398359999999
 20
10.20320032
 30
0.0
 11
6.306398359999999
 21
9.79680032
 31
0.0
  0
LINE
  5
134
330
1F
100
AcDbEntity
  8
TOP_PASTE
100
AcDbLine
 10
6.306398359999999
 20
9.79680032
 30
0.0
 11
5.493598359999999
 21
9.79680032
 31
0.0
  0
LINE
  5
135
330
1F
100
AcDbEntity
  8
TOP_PASTE
100
AcDbLine
 10
5.493598359999999
 20
9.79680032
 30
0.0
 11
5.493598359999999
 21
10.20320032
 31
0.0
  0
LINE
  5
136
330
1F
100
AcDbEntity
  8
TOP_PASTE
100
AcDbLine
 10
5.493598359999999
 20
10.20320032
 30
0.0
 11
6.306398359999999
 21
10.20320032
 31
0.0
  0
LINE
  5
137
330
1F
100
AcDbEntity
  8
TOP_PASTE
100
AcDbLine
 10
6.306398359999999
 20
11.00320126
 30
0.0
 11
6.306398359999999
 21
10.59680126
 31
0.0
  0
LINE
  5
138
330
1F
100
AcDbEntity
  8
TOP_PASTE
100
AcDbLine
 10
6.306398359999999
 20
10.59680126
 30
0.0
 11
5.493598359999999
 21
10.59680126
 31
0.0
  0
LINE
  5
139
330
1F
100
AcDbEntity
  8
TOP_PASTE
100
AcDbLine
 10
5.493598359999999
 20
10.59680126
 30
0.0
 11
5.493598359999999
 21
11.00320126
 31
0.0
  0
LINE
  5
13A
330
1F
100
AcDbEntity
  8
TOP_PASTE
100
AcDbLine
 10
5.493598359999999
 20
11.00320126
 30
0.0
 11
6.306398359999999
 21
11.00320126
 31
0.0
  0
LINE
  5
13B
330
1F
100
AcDbEntity
  8
TOP_PASTE
100
AcDbLine
 10
6.306398359999999
 20
11.80319966
 30
0.0
 11
6.306398359999999
 21
11.39679966
 31
0.0
  0
LINE
  5
13C
330
1F
100
AcDbEntity
  8
TOP_PASTE
100
AcDbLine
 10
6.306398359999999
 20
11.39679966
 30
0.0
 11
5.493598359999999
 21
11.39679966
 31
0.0
  0
LINE
  5
13D
330
1F
100
AcDbEntity
  8
TOP_PASTE
100
AcDbLine
 10
5.493598359999999
 20
11.39679966
 30
0.0
 11
5.493598359999999
 21
11.80319966
 31
0.0
  0
LINE
  5
13E
330
1F
100
AcDbEntity
  8
TOP_PASTE
100
AcDbLine
 10
5.493598359999999
 20
11.80319966
 30
0.0
 11
6.306398359999999
 21
11.80319966
 31
0.0
  0
LINE
  5
13F
330
1F
100
AcDbEntity
  8
TOP_PASTE
100
AcDbLine
 10
6.306398359999999
 20
12.6032006
 30
0.0
 11
6.306398359999999
 21
12.1968006
 31
0.0
  0
LINE
  5
140
330
1F
100
AcDbEntity
  8
TOP_PASTE
100
AcDbLine
 10
6.306398359999999
 20
12.1968006
 30
0.0
 11
5.493598359999999
 21
12.1968006
 31
0.0
  0
LINE
  5
141
330
1F
100
AcDbEntity
  8
TOP_PASTE
100
AcDbLine
 10
5.493598359999999
 20
12.1968006
 30
0.0
 11
5.493598359999999
 21
12.6032006
 31
0.0
  0
LINE
  5
142
330
1F
100
AcDbEntity
  8
TOP_PASTE
100
AcDbLine
 10
5.493598359999999
 20
12.6032006
 30
0.0
 11
6.306398359999999
 21
12.6032006
 31
0.0
  0
LINE
  5
143
330
1F
100
AcDbEntity
  8
TOP_PASTE
100
AcDbLine
 10
6.306398359999999
 20
13.403199
 30
0.0
 11
6.306398359999999
 21
12.996799
 31
0.0
  0
LINE
  5
144
330
1F
100
AcDbEntity
  8
TOP_PASTE
100
AcDbLine
 10
6.306398359999999
 20
12.996799
 30
0.0
 11
5.493598359999999
 21
12.996799
 31
0.0
  0
LINE
  5
145
330
1F
100
AcDbEntity
  8
TOP_PASTE
100
AcDbLine
 10
5.493598359999999
 20
12.996799
 30
0.0
 11
5.493598359999999
 21
13.403199
 31
0.0
  0
LINE
  5
146
330
1F
100
AcDbEntity
  8
TOP_PASTE
100
AcDbLine
 10
5.493598359999999
 20
13.403199
 30
0.0
 11
6.306398359999999
 21
13.403199
 31
0.0
  0
LINE
  5
147
330
1F
100
AcDbEntity
  8
TOP_PASTE
100
AcDbLine
 10
6.306398359999999
 20
14.20319994
 30
0.0
 11
6.306398359999999
 21
13.79679994
 31
0.0
  0
LINE
  5
148
330
1F
100
AcDbEntity
  8
TOP_PASTE
100
AcDbLine
 10
6.306398359999999
 20
13.79679994
 30
0.0
 11
5.493598359999999
 21
13.79679994
 31
0.0
  0
LINE
  5
149
330
1F
100
AcDbEntity
  8
TOP_PASTE
100
AcDbLine
 10
5.493598359999999
 20
13.79679994
 30
0.0
 11
5.493598359999999
 21
14.20319994
 31
0.0
  0
LINE
  5
14A
330
1F
100
AcDbEntity
  8
TOP_PASTE
100
AcDbLine
 10
5.493598359999999
 20
14.20319994
 30
0.0
 11
6.306398359999999
 21
14.20319994
 31
0.0
  0
LINE
  5
14B
330
1F
100
AcDbEntity
  8
TOP_PASTE
100
AcDbLine
 10
5.00320056
 20
14.49360068
 30
0.0
 11
4.59680056
 21
14.49360068
 31
0.0
  0
LINE
  5
14C
330
1F
100
AcDbEntity
  8
TOP_PASTE
100
AcDbLine
 10
4.59680056
 20
14.49360068
 30
0.0
 11
4.59680056
 21
15.30640068
 31
0.0
  0
LINE
  5
14D
330
1F
100
AcDbEntity
  8
TOP_PASTE
100
AcDbLine
 10
4.59680056
 20
15.30640068
 30
0.0
 11
5.00320056
 21
15.30640068
 31
0.0
  0
LINE
  5
14E
330
1F
100
AcDbEntity
  8
TOP_PASTE
100
AcDbLine
 10
5.00320056
 20
15.30640068
 30
0.0
 11
5.00320056
 21
14.49360068
 31
0.0
  0
LINE
  5
14F
330
1F
100
AcDbEntity
  8
TOP_PASTE
100
AcDbLine
 10
4.203199619999999
 20
14.49360068
 30
0.0
 11
3.79679962
 21
14.49360068
 31
0.0
  0
LINE
  5
150
330
1F
100
AcDbEntity
  8
TOP_PASTE
100
AcDbLine
 10
3.79679962
 20
14.49360068
 30
0.0
 11
3.79679962
 21
15.30640068
 31
0.0
  0
LINE
  5
151
330
1F
100
AcDbEntity
  8
TOP_PASTE
100
AcDbLine
 10
3.79679962
 20
15.30640068
 30
0.0
 11
4.203199619999999
 21
15.30640068
 31
0.0
  0
LINE
  5
152
330
1F
100
AcDbEntity
  8
TOP_PASTE
100
AcDbLine
 10
4.203199619999999
 20
15.30640068
 30
0.0
 11
4.203199619999999
 21
14.49360068
 31
0.0
  0
LINE
  5
153
330
1F
100
AcDbEntity
  8
TOP_PASTE
100
AcDbLine
 10
3.40319868
 20
14.49360068
 30
0.0
 11
2.99679868
 21
14.49360068
 31
0.0
  0
LINE
  5
154
330
1F
100
AcDbEntity
  8
TOP_PASTE
100
AcDbLine
 10
2.99679868
 20
14.49360068
 30
0.0
 11
2.99679868
 21
15.30640068
 31
0.0
  0
LINE
  5
155
330
1F
100
AcDbEntity
  8
TOP_PASTE
100
AcDbLine
 10
2.99679868
 20
15.30640068
 30
0.0
 11
3.40319868
 21
15.30640068
 31
0.0
  0
LINE
  5
156
330
1F
100
AcDbEntity
  8
TOP_PASTE
100
AcDbLine
 10
3.40319868
 20
15.30640068
 30
0.0
 11
3.40319868
 21
14.49360068
 31
0.0
  0
LINE
  5
157
330
1F
100
AcDbEntity
  8
TOP_PASTE
100
AcDbLine
 10
2.60320028
 20
14.49360068
 30
0.0
 11
2.19680028
 21
14.49360068
 31
0.0
  0
LINE
  5
158
330
1F
100
AcDbEntity
  8
TOP_PASTE
100
AcDbLine
 10
2.19680028
 20
14.49360068
 30
0.0
 11
2.19680028
 21
15.30640068
 31
0.0
  0
LINE
  5
159
330
1F
100
AcDbEntity
  8
TOP_PASTE
100
AcDbLine
 10
2.19680028
 20
15.30640068
 30
0.0
 11
2.60320028
 21
15.30640068
 31
0.0
  0
LINE
  5
15A
330
1F
100
AcDbEntity
  8
TOP_PASTE
100
AcDbLine
 10
2.60320028
 20
15.30640068
 30
0.0
 11
2.60320028
 21
14.49360068
 31
0.0
  0
LINE
  5
15B
330
1F
100
AcDbEntity
  8
TOP_PASTE
100
AcDbLine
 10
1.80319934
 20
14.49360068
 30
0.0
 11
1.39679934
 21
14.49360068
 31
0.0
  0
LINE
  5
15C
330
1F
100
AcDbEntity
  8
TOP_PASTE
100
AcDbLine
 10
1.39679934
 20
14.49360068
 30
0.0
 11
1.39679934
 21
15.30640068
 31
0.0
  0
LINE
  5
15D
330
1F
100
AcDbEntity
  8
TOP_PASTE
100
AcDbLine
 10
1.39679934
 20
15.30640068
 30
0.0
 11
1.80319934
 21
15.30640068
 31
0.0
  0
LINE
  5
15E
330
1F
100
AcDbEntity
  8
TOP_PASTE
100
AcDbLine
 10
1.80319934
 20
15.30640068
 30
0.0
 11
1.80319934
 21
14.49360068
 31
0.0
  0
LINE
  5
15F
330
1F
100
AcDbEntity
  8
TOP_PASTE
100
AcDbLine
 10
1.00320094
 20
14.49360068
 30
0.0
 11
0.59680094
 21
14.49360068
 31
0.0
  0
LINE
  5
160
330
1F
100
AcDbEntity
  8
TOP_PASTE
100
AcDbLine
 10
0.59680094
 20
14.49360068
 30
0.0
 11
0.59680094
 21
15.30640068
 31
0.0
  0
LINE
  5
161
330
1F
100
AcDbEntity
  8
TOP_PASTE
100
AcDbLine
 10
0.59680094
 20
15.30640068
 30
0.0
 11
1.00320094
 21
15.30640068
 31
0.0
  0
LINE
  5
162
330
1F
100
AcDbEntity
  8
TOP_PASTE
100
AcDbLine
 10
1.00320094
 20
15.30640068
 30
0.0
 11
1.00320094
 21
14.49360068
 31
0.0
  0
LINE
  5
163
330
1F
100
AcDbEntity
  8
TOP_PASTE
100
AcDbLine
 10
0.2031999999999999
 20
14.49360068
 30
0.0
 11
-0.2032
 21
14.49360068
 31
0.0
  0
LINE
  5
164
330
1F
100
AcDbEntity
  8
TOP_PASTE
100
AcDbLine
 10
-0.2032
 20
14.49360068
 30
0.0
 11
-0.2031999999999999
 21
15.30640068
 31
0.0
  0
LINE
  5
165
330
1F
100
AcDbEntity
  8
TOP_PASTE
100
AcDbLine
 10
-0.2031999999999999
 20
15.30640068
 30
0.0
 11
0.2032
 21
15.30640068
 31
0.0
  0
LINE
  5
166
330
1F
100
AcDbEntity
  8
TOP_PASTE
100
AcDbLine
 10
0.2032
 20
15.30640068
 30
0.0
 11
0.2031999999999999
 21
14.49360068
 31
0.0
  0
LINE
  5
167
330
1F
100
AcDbEntity
  8
TOP_PASTE
100
AcDbLine
 10
-0.59680094
 20
14.49360068
 30
0.0
 11
-1.00320094
 21
14.49360068
 31
0.0
  0
LINE
  5
168
330
1F
100
AcDbEntity
  8
TOP_PASTE
100
AcDbLine
 10
-1.00320094
 20
14.49360068
 30
0.0
 11
-1.00320094
 21
15.30640068
 31
0.0
  0
LINE
  5
169
330
1F
100
AcDbEntity
  8
TOP_PASTE
100
AcDbLine
 10
-1.00320094
 20
15.30640068
 30
0.0
 11
-0.59680094
 21
15.30640068
 31
0.0
  0
LINE
  5
16A
330
1F
100
AcDbEntity
  8
TOP_PASTE
100
AcDbLine
 10
-0.59680094
 20
15.30640068
 30
0.0
 11
-0.59680094
 21
14.49360068
 31
0.0
  0
LINE
  5
16B
330
1F
100
AcDbEntity
  8
TOP_PASTE
100
AcDbLine
 10
-1.39679934
 20
14.49360068
 30
0.0
 11
-1.80319934
 21
14.49360068
 31
0.0
  0
LINE
  5
16C
330
1F
100
AcDbEntity
  8
TOP_PASTE
100
AcDbLine
 10
-1.80319934
 20
14.49360068
 30
0.0
 11
-1.80319934
 21
15.30640068
 31
0.0
  0
LINE
  5
16D
330
1F
100
AcDbEntity
  8
TOP_PASTE
100
AcDbLine
 10
-1.80319934
 20
15.30640068
 30
0.0
 11
-1.39679934
 21
15.30640068
 31
0.0
  0
LINE
  5
16E
330
1F
100
AcDbEntity
  8
TOP_PASTE
100
AcDbLine
 10
-1.39679934
 20
15.30640068
 30
0.0
 11
-1.39679934
 21
14.49360068
 31
0.0
  0
LINE
  5
16F
330
1F
100
AcDbEntity
  8
TOP_PASTE
100
AcDbLine
 10
-2.19680028
 20
14.49360068
 30
0.0
 11
-2.60320028
 21
14.49360068
 31
0.0
  0
LINE
  5
170
330
1F
100
AcDbEntity
  8
TOP_PASTE
100
AcDbLine
 10
-2.60320028
 20
14.49360068
 30
0.0
 11
-2.60320028
 21
15.30640068
 31
0.0
  0
LINE
  5
171
330
1F
100
AcDbEntity
  8
TOP_PASTE
100
AcDbLine
 10
-2.60320028
 20
15.30640068
 30
0.0
 11
-2.19680028
 21
15.30640068
 31
0.0
  0
LINE
  5
172
330
1F
100
AcDbEntity
  8
TOP_PASTE
100
AcDbLine
 10
-2.19680028
 20
15.30640068
 30
0.0
 11
-2.19680028
 21
14.49360068
 31
0.0
  0
LINE
  5
173
330
1F
100
AcDbEntity
  8
TOP_PASTE
100
AcDbLine
 10
-2.99679868
 20
14.49360068
 30
0.0
 11
-3.40319868
 21
14.49360068
 31
0.0
  0
LINE
  5
174
330
1F
100
AcDbEntity
  8
TOP_PASTE
100
AcDbLine
 10
-3.40319868
 20
14.49360068
 30
0.0
 11
-3.40319868
 21
15.30640068
 31
0.0
  0
LINE
  5
175
330
1F
100
AcDbEntity
  8
TOP_PASTE
100
AcDbLine
 10
-3.40319868
 20
15.30640068
 30
0.0
 11
-2.99679868
 21
15.30640068
 31
0.0
  0
LINE
  5
176
330
1F
100
AcDbEntity
  8
TOP_PASTE
100
AcDbLine
 10
-2.99679868
 20
15.30640068
 30
0.0
 11
-2.99679868
 21
14.49360068
 31
0.0
  0
LINE
  5
177
330
1F
100
AcDbEntity
  8
TOP_PASTE
100
AcDbLine
 10
-3.79679962
 20
14.49360068
 30
0.0
 11
-4.203199619999999
 21
14.49360068
 31
0.0
  0
LINE
  5
178
330
1F
100
AcDbEntity
  8
TOP_PASTE
100
AcDbLine
 10
-4.203199619999999
 20
14.49360068
 30
0.0
 11
-4.203199619999999
 21
15.30640068
 31
0.0
  0
LINE
  5
179
330
1F
100
AcDbEntity
  8
TOP_PASTE
100
AcDbLine
 10
-4.203199619999999
 20
15.30640068
 30
0.0
 11
-3.79679962
 21
15.30640068
 31
0.0
  0
LINE
  5
17A
330
1F
100
AcDbEntity
  8
TOP_PASTE
100
AcDbLine
 10
-3.79679962
 20
15.30640068
 30
0.0
 11
-3.79679962
 21
14.49360068
 31
0.0
  0
LINE
  5
17B
330
1F
100
AcDbEntity
  8
TOP_PASTE
100
AcDbLine
 10
-4.59679802
 20
14.49360068
 30
0.0
 11
-5.003198019999999
 21
14.49360068
 31
0.0
  0
LINE
  5
17C
330
1F
100
AcDbEntity
  8
TOP_PASTE
100
AcDbLine
 10
-5.003198019999999
 20
14.49360068
 30
0.0
 11
-5.003198019999999
 21
15.30640068
 31
0.0
  0
LINE
  5
17D
330
1F
100
AcDbEntity
  8
TOP_PASTE
100
AcDbLine
 10
-5.003198019999999
 20
15.30640068
 30
0.0
 11
-4.59679802
 21
15.30640068
 31
0.0
  0
LINE
  5
17E
330
1F
100
AcDbEntity
  8
TOP_PASTE
100
AcDbLine
 10
-4.59679802
 20
15.30640068
 30
0.0
 11
-4.59679802
 21
14.49360068
 31
0.0
  0
LINE
  5
17F
330
1F
100
AcDbEntity
  8
TOP_PASTE
100
AcDbLine
 10
0.7239000000000001
 20
10.72390032
 30
0.0
 11
0.7238999999999998
 21
9.27610032
 31
0.0
  0
LINE
  5
180
330
1F
100
AcDbEntity
  8
TOP_PASTE
100
AcDbLine
 10
0.7238999999999998
 20
9.27610032
 30
0.0
 11
-0.7239000000000001
 21
9.27610032
 31
0.0
  0
LINE
  5
181
330
1F
100
AcDbEntity
  8
TOP_PASTE
100
AcDbLine
 10
-0.7239000000000001
 20
9.27610032
 30
0.0
 11
-0.7238999999999998
 21
10.72390032
 31
0.0
  0
LINE
  5
182
330
1F
100
AcDbEntity
  8
TOP_PASTE
100
AcDbLine
 10
-0.7238999999999998
 20
10.72390032
 30
0.0
 11
0.7239000000000001
 21
10.72390032
 31
0.0
  0
LINE
  5
183
330
1F
100
AcDbEntity
  8
TOP_PASTE
100
AcDbLine
 10
6.3056008
 20
15.30560058
 30
0.0
 11
6.3056008
 21
14.59440058
 31
0.0
  0
LINE
  5
184
330
1F
100
AcDbEntity
  8
TOP_PASTE
100
AcDbLine
 10
6.3056008
 20
14.59440058
 30
0.0
 11
5.5944008
 21
14.59440058
 31
0.0
  0
LINE
  5
185
330
1F
100
AcDbEntity
  8
TOP_PASTE
100
AcDbLine
 10
5.5944008
 20
14.59440058
 30
0.0
 11
5.5944008
 21
15.30560058
 31
0.0
  0
LINE
  5
186
330
1F
100
AcDbEntity
  8
TOP_PASTE
100
AcDbLine
 10
5.5944008
 20
15.30560058
 30
0.0
 11
6.3056008
 21
15.30560058
 31
0.0
  0
LINE
  5
187
330
1F
100
AcDbEntity
  8
TOP_PASTE
100
AcDbLine
 10
6.3056008
 20
5.40560006
 30
0.0
 11
6.3056008
 21
4.69440006
 31
0.0
  0
LINE
  5
188
330
1F
100
AcDbEntity
  8
TOP_PASTE
100
AcDbLine
 10
6.3056008
 20
4.69440006
 30
0.0
 11
5.5944008
 21
4.69440006
 31
0.0
  0
LINE
  5
189
330
1F
100
AcDbEntity
  8
TOP_PASTE
100
AcDbLine
 10
5.5944008
 20
4.69440006
 30
0.0
 11
5.5944008
 21
5.40560006
 31
0.0
  0
LINE
  5
18A
330
1F
100
AcDbEntity
  8
TOP_PASTE
100
AcDbLine
 10
5.5944008
 20
5.40560006
 30
0.0
 11
6.3056008
 21
5.40560006
 31
0.0
  0
LINE
  5
18B
330
1F
100
AcDbEntity
  8
TOP_PASTE
100
AcDbLine
 10
-5.5944008
 20
5.40560006
 30
0.0
 11
-5.5944008
 21
4.69440006
 31
0.0
  0
LINE
  5
18C
330
1F
100
AcDbEntity
  8
TOP_PASTE
100
AcDbLine
 10
-5.5944008
 20
4.69440006
 30
0.0
 11
-6.3056008
 21
4.69440006
 31
0.0
  0
LINE
  5
18D
330
1F
100
AcDbEntity
  8
TOP_PASTE
100
AcDbLine
 10
-6.3056008
 20
4.69440006
 30
0.0
 11
-6.3056008
 21
5.40560006
 31
0.0
  0
LINE
  5
18E
330
1F
100
AcDbEntity
  8
TOP_PASTE
100
AcDbLine
 10
-6.3056008
 20
5.40560006
 30
0.0
 11
-5.5944008
 21
5.40560006
 31
0.0
  0
LINE
  5
18F
330
1F
100
AcDbEntity
  8
TOP_PASTE
100
AcDbLine
 10
-5.5944008
 20
15.30560058
 30
0.0
 11
-5.5944008
 21
14.59440058
 31
0.0
  0
LINE
  5
190
330
1F
100
AcDbEntity
  8
TOP_PASTE
100
AcDbLine
 10
-5.5944008
 20
14.59440058
 30
0.0
 11
-6.3056008
 21
14.59440058
 31
0.0
  0
LINE
  5
191
330
1F
100
AcDbEntity
  8
TOP_PASTE
100
AcDbLine
 10
-6.3056008
 20
14.59440058
 30
0.0
 11
-6.3056008
 21
15.30560058
 31
0.0
  0
LINE
  5
192
330
1F
100
AcDbEntity
  8
TOP_PASTE
100
AcDbLine
 10
-6.3056008
 20
15.30560058
 30
0.0
 11
-5.5944008
 21
15.30560058
 31
0.0
  0
LINE
  5
193
330
1F
100
AcDbEntity
  8
TOP_PASTE
100
AcDbLine
 10
2.69889986
 20
12.69890018
 30
0.0
 11
2.69889986
 21
11.25110018
 31
0.0
  0
LINE
  5
194
330
1F
100
AcDbEntity
  8
TOP_PASTE
100
AcDbLine
 10
2.69889986
 20
11.25110018
 30
0.0
 11
1.25109986
 21
11.25110018
 31
0.0
  0
LINE
  5
195
330
1F
100
AcDbEntity
  8
TOP_PASTE
100
AcDbLine
 10
1.25109986
 20
11.25110018
 30
0.0
 11
1.25109986
 21
12.69890018
 31
0.0
  0
LINE
  5
196
330
1F
100
AcDbEntity
  8
TOP_PASTE
100
AcDbLine
 10
1.25109986
 20
12.69890018
 30
0.0
 11
2.69889986
 21
12.69890018
 31
0.0
  0
LINE
  5
197
330
1F
100
AcDbEntity
  8
TOP_PASTE
100
AcDbLine
 10
2.69889986
 20
10.72390032
 30
0.0
 11
2.69889986
 21
9.27610032
 31
0.0
  0
LINE
  5
198
330
1F
100
AcDbEntity
  8
TOP_PASTE
100
AcDbLine
 10
2.69889986
 20
9.27610032
 30
0.0
 11
1.25109986
 21
9.27610032
 31
0.0
  0
LINE
  5
199
330
1F
100
AcDbEntity
  8
TOP_PASTE
100
AcDbLine
 10
1.25109986
 20
9.27610032
 30
0.0
 11
1.25109986
 21
10.72390032
 31
0.0
  0
LINE
  5
19A
330
1F
100
AcDbEntity
  8
TOP_PASTE
100
AcDbLine
 10
1.25109986
 20
10.72390032
 30
0.0
 11
2.69889986
 21
10.72390032
 31
0.0
  0
LINE
  5
19B
330
1F
100
AcDbEntity
  8
TOP_PASTE
100
AcDbLine
 10
2.69889986
 20
8.74890046
 30
0.0
 11
2.69889986
 21
7.30110046
 31
0.0
  0
LINE
  5
19C
330
1F
100
AcDbEntity
  8
TOP_PASTE
100
AcDbLine
 10
2.69889986
 20
7.30110046
 30
0.0
 11
1.25109986
 21
7.30110046
 31
0.0
  0
LINE
  5
19D
330
1F
100
AcDbEntity
  8
TOP_PASTE
100
AcDbLine
 10
1.25109986
 20
7.30110046
 30
0.0
 11
1.25109986
 21
8.74890046
 31
0.0
  0
LINE
  5
19E
330
1F
100
AcDbEntity
  8
TOP_PASTE
100
AcDbLine
 10
1.25109986
 20
8.74890046
 30
0.0
 11
2.69889986
 21
8.74890046
 31
0.0
  0
LINE
  5
19F
330
1F
100
AcDbEntity
  8
TOP_PASTE
100
AcDbLine
 10
0.7239000000000001
 20
8.74890046
 30
0.0
 11
0.7238999999999998
 21
7.30110046
 31
0.0
  0
LINE
  5
1A0
330
1F
100
AcDbEntity
  8
TOP_PASTE
100
AcDbLine
 10
0.7238999999999998
 20
7.30110046
 30
0.0
 11
-0.7239000000000001
 21
7.30110046
 31
0.0
  0
LINE
  5
1A1
330
1F
100
AcDbEntity
  8
TOP_PASTE
100
AcDbLine
 10
-0.7239000000000001
 20
7.30110046
 30
0.0
 11
-0.7238999999999998
 21
8.74890046
 31
0.0
  0
LINE
  5
1A2
330
1F
100
AcDbEntity
  8
TOP_PASTE
100
AcDbLine
 10
-0.7238999999999998
 20
8.74890046
 30
0.0
 11
0.7239000000000001
 21
8.74890046
 31
0.0
  0
LINE
  5
1A3
330
1F
100
AcDbEntity
  8
TOP_PASTE
100
AcDbLine
 10
-1.25109986
 20
8.74890046
 30
0.0
 11
-1.25109986
 21
7.30110046
 31
0.0
  0
LINE
  5
1A4
330
1F
100
AcDbEntity
  8
TOP_PASTE
100
AcDbLine
 10
-1.25109986
 20
7.30110046
 30
0.0
 11
-2.69889986
 21
7.30110046
 31
0.0
  0
LINE
  5
1A5
330
1F
100
AcDbEntity
  8
TOP_PASTE
100
AcDbLine
 10
-2.69889986
 20
7.30110046
 30
0.0
 11
-2.69889986
 21
8.74890046
 31
0.0
  0
LINE
  5
1A6
330
1F
100
AcDbEntity
  8
TOP_PASTE
100
AcDbLine
 10
-2.69889986
 20
8.74890046
 30
0.0
 11
-1.25109986
 21
8.74890046
 31
0.0
  0
LINE
  5
1A7
330
1F
100
AcDbEntity
  8
TOP_PASTE
100
AcDbLine
 10
-1.25109986
 20
10.72390032
 30
0.0
 11
-1.25109986
 21
9.27610032
 31
0.0
  0
LINE
  5
1A8
330
1F
100
AcDbEntity
  8
TOP_PASTE
100
AcDbLine
 10
-1.25109986
 20
9.27610032
 30
0.0
 11
-2.69889986
 21
9.27610032
 31
0.0
  0
LINE
  5
1A9
330
1F
100
AcDbEntity
  8
TOP_PASTE
100
AcDbLine
 10
-2.69889986
 20
9.27610032
 30
0.0
 11
-2.69889986
 21
10.72390032
 31
0.0
  0
LINE
  5
1AA
330
1F
100
AcDbEntity
  8
TOP_PASTE
100
AcDbLine
 10
-2.69889986
 20
10.72390032
 30
0.0
 11
-1.25109986
 21
10.72390032
 31
0.0
  0
LINE
  5
1AB
330
1F
100
AcDbEntity
  8
TOP_PASTE
100
AcDbLine
 10
-1.25109986
 20
12.69890018
 30
0.0
 11
-1.25109986
 21
11.25110018
 31
0.0
  0
LINE
  5
1AC
330
1F
100
AcDbEntity
  8
TOP_PASTE
100
AcDbLine
 10
-1.25109986
 20
11.25110018
 30
0.0
 11
-2.69889986
 21
11.25110018
 31
0.0
  0
LINE
  5
1AD
330
1F
100
AcDbEntity
  8
TOP_PASTE
100
AcDbLine
 10
-2.69889986
 20
11.25110018
 30
0.0
 11
-2.69889986
 21
12.69890018
 31
0.0
  0
LINE
  5
1AE
330
1F
100
AcDbEntity
  8
TOP_PASTE
100
AcDbLine
 10
-2.69889986
 20
12.69890018
 30
0.0
 11
-1.25109986
 21
12.69890018
 31
0.0
  0
LINE
  5
1AF
330
1F
100
AcDbEntity
  8
TOP_PASTE
100
AcDbLine
 10
0.7239000000000001
 20
12.69890018
 30
0.0
 11
0.7238999999999998
 21
11.25110018
 31
0.0
  0
LINE
  5
1B0
330
1F
100
AcDbEntity
  8
TOP_PASTE
100
AcDbLine
 10
0.7238999999999998
 20
11.25110018
 30
0.0
 11
-0.7239000000000001
 21
11.25110018
 31
0.0
  0
LINE
  5
1B1
330
1F
100
AcDbEntity
  8
TOP_PASTE
100
AcDbLine
 10
-0.7239000000000001
 20
11.25110018
 30
0.0
 11
-0.7238999999999998
 21
12.69890018
 31
0.0
  0
LINE
  5
1B2
330
1F
100
AcDbEntity
  8
TOP_PASTE
100
AcDbLine
 10
-0.7238999999999998
 20
12.69890018
 30
0.0
 11
0.7239000000000001
 21
12.69890018
 31
0.0
  0
ARC
  5
1B3
330
1F
100
AcDbEntity
  8
TOP_PASTE
100
AcDbCircle
 10
-17.79999869
 20
-5.149998589999999
 30
0.0
 40
0.0499999
100
AcDbArc
 50
0.0
 51
90.0
  0
LINE
  5
1B4
330
1F
100
AcDbEntity
  8
TOP_PASTE
100
AcDbLine
 10
-17.79999869
 20
-5.099998689999999
 30
0.0
 11
-19.19999843
 21
-5.099998689999999
 31
0.0
  0
ARC
  5
1B5
330
1F
100
AcDbEntity
  8
TOP_PASTE
100
AcDbCircle
 10
-19.19999843
 20
-5.149998589999999
 30
0.0
 40
0.0499999
100
AcDbArc
 50
90.0
 51
180.0
  0
LINE
  5
1B6
330
1F
100
AcDbEntity
  8
TOP_PASTE
100
AcDbLine
 10
-19.24999833
 20
-5.149998589999999
 30
0.0
 11
-19.24999833
 21
-6.04999933
 31
0.0
  0
ARC
  5
1B7
330
1F
100
AcDbEntity
  8
TOP_PASTE
100
AcDbCircle
 10
-19.19999843
 20
-6.04999933
 30
0.0
 40
0.0499999
100
AcDbArc
 50
180.0
 51
270.0
  0
LINE
  5
1B8
330
1F
100
AcDbEntity
  8
TOP_PASTE
100
AcDbLine
 10
-19.19999843
 20
-6.099999230000001
 30
0.0
 11
-17.79999869
 21
-6.099999230000001
 31
0.0
  0
ARC
  5
1B9
330
1F
100
AcDbEntity
  8
TOP_PASTE
100
AcDbCircle
 10
-17.79999869
 20
-6.04999933
 30
0.0
 40
0.0499999
100
AcDbArc
 50
270.0
 51
0.0
  0
LINE
  5
1BA
330
1F
100
AcDbEntity
  8
TOP_PASTE
100
AcDbLine
 10
-17.74999879
 20
-6.04999933
 30
0.0
 11
-17.74999879
 21
-5.149998589999999
 31
0.0
  0
ARC
  5
1BB
330
1F
100
AcDbEntity
  8
TOP_PASTE
100
AcDbCircle
 10
-17.79999869
 20
-1.94999991
 30
0.0
 40
0.0499999
100
AcDbArc
 50
0.0
 51
90.0
  0
LINE
  5
1BC
330
1F
100
AcDbEntity
  8
TOP_PASTE
100
AcDbLine
 10
-17.79999869
 20
-1.90000001
 30
0.0
 11
-19.19999843
 21
-1.90000001
 31
0.0
  0
ARC
  5
1BD
330
1F
100
AcDbEntity
  8
TOP_PASTE
100
AcDbCircle
 10
-19.19999843
 20
-1.94999991
 30
0.0
 40
0.0499999
100
AcDbArc
 50
90.0
 51
180.0
  0
LINE
  5
1BE
330
1F
100
AcDbEntity
  8
TOP_PASTE
100
AcDbLine
 10
-19.24999833
 20
-1.94999991
 30
0.0
 11
-19.24999833
 21
-2.85000065
 31
0.0
  0
ARC
  5
1BF
330
1F
100
AcDbEntity
  8
TOP_PASTE
100
AcDbCircle
 10
-19.19999843
 20
-2.85000065
 30
0.0
 40
0.0499999
100
AcDbArc
 50
180.0
 51
270.0
  0
LINE
  5
1C0
330
1F
100
AcDbEntity
  8
TOP_PASTE
100
AcDbLine
 10
-19.19999843
 20
-2.90000055
 30
0.0
 11
-17.79999869
 21
-2.90000055
 31
0.0
  0
ARC
  5
1C1
330
1F
100
AcDbEntity
  8
TOP_PASTE
100
AcDbCircle
 10
-17.79999869
 20
-2.85000065
 30
0.0
 40
0.0499999
100
AcDbArc
 50
270.0
 51
0.0
  0
LINE
  5
1C2
330
1F
100
AcDbEntity
  8
TOP_PASTE
100
AcDbLine
 10
-17.74999879
 20
-2.85000065
 30
0.0
 11
-17.74999879
 21
-1.94999991
 31
0.0
  0
ARC
  5
1C3
330
1F
100
AcDbEntity
  8
TOP_PASTE
100
AcDbCircle
 10
-10.34000091
 20
-8.53999943
 30
0.0
 40
0.05999988
100
AcDbArc
 50
180.0
 51
270.0
  0
LINE
  5
1C4
330
1F
100
AcDbEntity
  8
TOP_PASTE
100
AcDbLine
 10
-10.34000091
 20
-8.59999931
 30
0.0
 11
-9.65999973
 21
-8.59999931
 31
0.0
  0
ARC
  5
1C5
330
1F
100
AcDbEntity
  8
TOP_PASTE
100
AcDbCircle
 10
-9.65999973
 20
-8.53999943
 30
0.0
 40
0.05999988
100
AcDbArc
 50
270.0
 51
0.0
  0
LINE
  5
1C6
330
1F
100
AcDbEntity
  8
TOP_PASTE
100
AcDbLine
 10
-9.59999985
 20
-8.53999943
 30
0.0
 11
-9.59999985
 21
-7.75999845
 31
0.0
  0
ARC
  5
1C7
330
1F
100
AcDbEntity
  8
TOP_PASTE
100
AcDbCircle
 10
-9.65999973
 20
-7.75999845
 30
0.0
 40
0.05999988
100
AcDbArc
 50
0.0
 51
90.0
  0
LINE
  5
1C8
330
1F
100
AcDbEntity
  8
TOP_PASTE
100
AcDbLine
 10
-9.65999973
 20
-7.69999857
 30
0.0
 11
-10.34000091
 21
-7.69999857
 31
0.0
  0
ARC
  5
1C9
330
1F
100
AcDbEntity
  8
TOP_PASTE
100
AcDbCircle
 10
-10.34000091
 20
-7.75999845
 30
0.0
 40
0.05999988
100
AcDbArc
 50
90.0
 51
180.0
  0
LINE
  5
1CA
330
1F
100
AcDbEntity
  8
TOP_PASTE
100
AcDbLine
 10
-10.40000079
 20
-7.75999845
 30
0.0
 11
-10.40000079
 21
-8.53999943
 31
0.0
  0
ARC
  5
1CB
330
1F
100
AcDbEntity
  8
TOP_PASTE
100
AcDbCircle
 10
-10.34000091
 20
-10.23999857
 30
0.0
 40
0.05999988
100
AcDbArc
 50
180.0
 51
270.0
  0
LINE
  5
1CC
330
1F
100
AcDbEntity
  8
TOP_PASTE
100
AcDbLine
 10
-10.34000091
 20
-10.29999845
 30
0.0
 11
-9.65999973
 21
-10.29999845
 31
0.0
  0
ARC
  5
1CD
330
1F
100
AcDbEntity
  8
TOP_PASTE
100
AcDbCircle
 10
-9.65999973
 20
-10.23999857
 30
0.0
 40
0.05999988
100
AcDbArc
 50
270.0
 51
0.0
  0
LINE
  5
1CE
330
1F
100
AcDbEntity
  8
TOP_PASTE
100
AcDbLine
 10
-9.59999985
 20
-10.23999857
 30
0.0
 11
-9.59999985
 21
-9.459997589999999
 31
0.0
  0
ARC
  5
1CF
330
1F
100
AcDbEntity
  8
TOP_PASTE
100
AcDbCircle
 10
-9.65999973
 20
-9.459997589999999
 30
0.0
 40
0.05999988
100
AcDbArc
 50
0.0
 51
90.0
  0
LINE
  5
1D0
330
1F
100
AcDbEntity
  8
TOP_PASTE
100
AcDbLine
 10
-9.65999973
 20
-9.39999771
 30
0.0
 11
-10.34000091
 21
-9.39999771
 31
0.0
  0
ARC
  5
1D1
330
1F
100
AcDbEntity
  8
TOP_PASTE
100
AcDbCircle
 10
-10.34000091
 20
-9.459997589999999
 30
0.0
 40
0.05999988
100
AcDbArc
 50
90.0
 51
180.0
  0
LINE
  5
1D2
330
1F
100
AcDbEntity
  8
TOP_PASTE
100
AcDbLine
 10
-10.40000079
 20
-9.459997589999999
 30
0.0
 11
-10.40000079
 21
-10.23999857
 31
0.0
  0
ARC
  5
1D3
330
1F
100
AcDbEntity
  8
TOP_PASTE
100
AcDbCircle
 10
-13.35999995
 20
-6.24000149
 30
0.0
 40
0.05999988
100
AcDbArc
 50
270.0
 51
0.0
  0
LINE
  5
1D4
330
1F
100
AcDbEntity
  8
TOP_PASTE
100
AcDbLine
 10
-13.30000007
 20
-6.24000149
 30
0.0
 11
-13.30000007
 21
-5.56000031
 31
0.0
  0
ARC
  5
1D5
330
1F
100
AcDbEntity
  8
TOP_PASTE
100
AcDbCircle
 10
-13.35999995
 20
-5.56000031
 30
0.0
 40
0.05999988
100
AcDbArc
 50
0.0
 51
90.0
  0
LINE
  5
1D6
330
1F
100
AcDbEntity
  8
TOP_PASTE
100
AcDbLine
 10
-13.35999995
 20
-5.500000429999999
 30
0.0
 11
-14.14000093
 21
-5.500000429999999
 31
0.0
  0
ARC
  5
1D7
330
1F
100
AcDbEntity
  8
TOP_PASTE
100
AcDbCircle
 10
-14.14000093
 20
-5.56000031
 30
0.0
 40
0.05999988
100
AcDbArc
 50
90.0
 51
180.0
  0
LINE
  5
1D8
330
1F
100
AcDbEntity
  8
TOP_PASTE
100
AcDbLine
 10
-14.20000081
 20
-5.56000031
 30
0.0
 11
-14.20000081
 21
-6.24000149
 31
0.0
  0
ARC
  5
1D9
330
1F
100
AcDbEntity
  8
TOP_PASTE
100
AcDbCircle
 10
-14.14000093
 20
-6.24000149
 30
0.0
 40
0.05999988
100
AcDbArc
 50
180.0
 51
270.0
  0
LINE
  5
1DA
330
1F
100
AcDbEntity
  8
TOP_PASTE
100
AcDbLine
 10
-14.14000093
 20
-6.30000137
 30
0.0
 11
-13.35999995
 21
-6.30000137
 31
0.0
  0
ARC
  5
1DB
330
1F
100
AcDbEntity
  8
TOP_PASTE
100
AcDbCircle
 10
-15.05999909
 20
-6.24000149
 30
0.0
 40
0.05999988
100
AcDbArc
 50
270.0
 51
0.0
  0
LINE
  5
1DC
330
1F
100
AcDbEntity
  8
TOP_PASTE
100
AcDbLine
 10
-14.99999921
 20
-6.24000149
 30
0.0
 11
-14.99999921
 21
-5.56000031
 31
0.0
  0
ARC
  5
1DD
330
1F
100
AcDbEntity
  8
TOP_PASTE
100
AcDbCircle
 10
-15.05999909
 20
-5.56000031
 30
0.0
 40
0.05999988
100
AcDbArc
 50
0.0
 51
90.0
  0
LINE
  5
1DE
330
1F
100
AcDbEntity
  8
TOP_PASTE
100
AcDbLine
 10
-15.05999909
 20
-5.500000429999999
 30
0.0
 11
-15.84000007
 21
-5.500000429999999
 31
0.0
  0
ARC
  5
1DF
330
1F
100
AcDbEntity
  8
TOP_PASTE
100
AcDbCircle
 10
-15.84000007
 20
-5.56000031
 30
0.0
 40
0.05999988
100
AcDbArc
 50
90.0
 51
180.0
  0
LINE
  5
1E0
330
1F
100
AcDbEntity
  8
TOP_PASTE
100
AcDbLine
 10
-15.89999995
 20
-5.56000031
 30
0.0
 11
-15.89999995
 21
-6.24000149
 31
0.0
  0
ARC
  5
1E1
330
1F
100
AcDbEntity
  8
TOP_PASTE
100
AcDbCircle
 10
-15.84000007
 20
-6.24000149
 30
0.0
 40
0.05999988
100
AcDbArc
 50
180.0
 51
270.0
  0
LINE
  5
1E2
330
1F
100
AcDbEntity
  8
TOP_PASTE
100
AcDbLine
 10
-15.84000007
 20
-6.30000137
 30
0.0
 11
-15.05999909
 21
-6.30000137
 31
0.0
  0
ARC
  5
1E3
330
1F
100
AcDbEntity
  8
TOP_PASTE
100
AcDbCircle
 10
-14.13999839
 20
10.83999991
 30
0.0
 40
0.05999988
100
AcDbArc
 50
90.0
 51
180.0
  0
LINE
  5
1E4
330
1F
100
AcDbEntity
  8
TOP_PASTE
100
AcDbLine
 10
-14.19999827
 20
10.83999991
 30
0.0
 11
-14.19999827
 21
10.15999873
 31
0.0
  0
ARC
  5
1E5
330
1F
100
AcDbEntity
  8
TOP_PASTE
100
AcDbCircle
 10
-14.13999839
 20
10.15999873
 30
0.0
 40
0.05999988
100
AcDbArc
 50
180.0
 51
270.0
  0
LINE
  5
1E6
330
1F
100
AcDbEntity
  8
TOP_PASTE
100
AcDbLine
 10
-14.13999839
 20
10.09999885
 30
0.0
 11
-13.35999741
 21
10.09999885
 31
0.0
  0
ARC
  5
1E7
330
1F
100
AcDbEntity
  8
TOP_PASTE
100
AcDbCircle
 10
-13.35999741
 20
10.15999873
 30
0.0
 40
0.05999988
100
AcDbArc
 50
270.0
 51
0.0
  0
LINE
  5
1E8
330
1F
100
AcDbEntity
  8
TOP_PASTE
100
AcDbLine
 10
-13.29999753
 20
10.15999873
 30
0.0
 11
-13.29999753
 21
10.83999991
 31
0.0
  0
ARC
  5
1E9
330
1F
100
AcDbEntity
  8
TOP_PASTE
100
AcDbCircle
 10
-13.35999741
 20
10.83999991
 30
0.0
 40
0.05999988
100
AcDbArc
 50
0.0
 51
90.0
  0
LINE
  5
1EA
330
1F
100
AcDbEntity
  8
TOP_PASTE
100
AcDbLine
 10
-13.35999741
 20
10.89999979
 30
0.0
 11
-14.13999839
 21
10.89999979
 31
0.0
  0
ARC
  5
1EB
330
1F
100
AcDbEntity
  8
TOP_PASTE
100
AcDbCircle
 10
-15.83999753
 20
10.83999991
 30
0.0
 40
0.05999988
100
AcDbArc
 50
90.0
 51
180.0
  0
LINE
  5
1EC
330
1F
100
AcDbEntity
  8
TOP_PASTE
100
AcDbLine
 10
-15.89999741
 20
10.83999991
 30
0.0
 11
-15.89999741
 21
10.15999873
 31
0.0
  0
ARC
  5
1ED
330
1F
100
AcDbEntity
  8
TOP_PASTE
100
AcDbCircle
 10
-15.83999753
 20
10.15999873
 30
0.0
 40
0.05999988
100
AcDbArc
 50
180.0
 51
270.0
  0
LINE
  5
1EE
330
1F
100
AcDbEntity
  8
TOP_PASTE
100
AcDbLine
 10
-15.83999753
 20
10.09999885
 30
0.0
 11
-15.05999655
 21
10.09999885
 31
0.0
  0
ARC
  5
1EF
330
1F
100
AcDbEntity
  8
TOP_PASTE
100
AcDbCircle
 10
-15.05999655
 20
10.15999873
 30
0.0
 40
0.05999988
100
AcDbArc
 50
270.0
 51
0.0
  0
LINE
  5
1F0
330
1F
100
AcDbEntity
  8
TOP_PASTE
100
AcDbLine
 10
-14.99999667
 20
10.15999873
 30
0.0
 11
-14.99999667
 21
10.83999991
 31
0.0
  0
ARC
  5
1F1
330
1F
100
AcDbEntity
  8
TOP_PASTE
100
AcDbCircle
 10
-15.05999655
 20
10.83999991
 30
0.0
 40
0.05999988
100
AcDbArc
 50
0.0
 51
90.0
  0
LINE
  5
1F2
330
1F
100
AcDbEntity
  8
TOP_PASTE
100
AcDbLine
 10
-15.05999655
 20
10.89999979
 30
0.0
 11
-15.83999753
 21
10.89999979
 31
0.0
  0
ARC
  5
1F3
330
1F
100
AcDbEntity
  8
TOP_PASTE
100
AcDbCircle
 10
-10.15999873
 20
-1.95999989
 30
0.0
 40
0.05999988
100
AcDbArc
 50
0.0
 51
90.0
  0
LINE
  5
1F4
330
1F
100
AcDbEntity
  8
TOP_PASTE
100
AcDbLine
 10
-10.15999873
 20
-1.90000001
 30
0.0
 11
-10.83999991
 21
-1.90000001
 31
0.0
  0
ARC
  5
1F5
330
1F
100
AcDbEntity
  8
TOP_PASTE
100
AcDbCircle
 10
-10.83999991
 20
-1.95999989
 30
0.0
 40
0.05999988
100
AcDbArc
 50
90.0
 51
180.0
  0
LINE
  5
1F6
330
1F
100
AcDbEntity
  8
TOP_PASTE
100
AcDbLine
 10
-10.89999979
 20
-1.95999989
 30
0.0
 11
-10.89999979
 21
-2.74000087
 31
0.0
  0
ARC
  5
1F7
330
1F
100
AcDbEntity
  8
TOP_PASTE
100
AcDbCircle
 10
-10.83999991
 20
-2.74000087
 30
0.0
 40
0.05999988
100
AcDbArc
 50
180.0
 51
270.0
  0
LINE
  5
1F8
330
1F
100
AcDbEntity
  8
TOP_PASTE
100
AcDbLine
 10
-10.83999991
 20
-2.80000075
 30
0.0
 11
-10.15999873
 21
-2.80000075
 31
0.0
  0
ARC
  5
1F9
330
1F
100
AcDbEntity
  8
TOP_PASTE
100
AcDbCircle
 10
-10.15999873
 20
-2.74000087
 30
0.0
 40
0.05999988
100
AcDbArc
 50
270.0
 51
0.0
  0
LINE
  5
1FA
330
1F
100
AcDbEntity
  8
TOP_PASTE
100
AcDbLine
 10
-10.09999885
 20
-2.74000087
 30
0.0
 11
-10.09999885
 21
-1.95999989
 31
0.0
  0
ARC
  5
1FB
330
1F
100
AcDbEntity
  8
TOP_PASTE
100
AcDbCircle
 10
-10.15999873
 20
-0.2600007500000001
 30
0.0
 40
0.05999988
100
AcDbArc
 50
0.0
 51
90.0
  0
LINE
  5
1FC
330
1F
100
AcDbEntity
  8
TOP_PASTE
100
AcDbLine
 10
-10.15999873
 20
-0.2000008700000001
 30
0.0
 11
-10.83999991
 21
-0.2000008699999999
 31
0.0
  0
ARC
  5
1FD
330
1F
100
AcDbEntity
  8
TOP_PASTE
100
AcDbCircle
 10
-10.83999991
 20
-0.2600007499999999
 30
0.0
 40
0.05999988
100
AcDbArc
 50
90.0
 51
180.0
  0
LINE
  5
1FE
330
1F
100
AcDbEntity
  8
TOP_PASTE
100
AcDbLine
 10
-10.89999979
 20
-0.2600007499999999
 30
0.0
 11
-10.89999979
 21
-1.04000173
 31
0.0
  0
ARC
  5
1FF
330
1F
100
AcDbEntity
  8
TOP_PASTE
100
AcDbCircle
 10
-10.83999991
 20
-1.04000173
 30
0.0
 40
0.05999988
100
AcDbArc
 50
180.0
 51
270.0
  0
LINE
  5
200
330
1F
100
AcDbEntity
  8
TOP_PASTE
100
AcDbLine
 10
-10.83999991
 20
-1.10000161
 30
0.0
 11
-10.15999873
 21
-1.10000161
 31
0.0
  0
ARC
  5
201
330
1F
100
AcDbEntity
  8
TOP_PASTE
100
AcDbCircle
 10
-10.15999873
 20
-1.04000173
 30
0.0
 40
0.05999988
100
AcDbArc
 50
270.0
 51
0.0
  0
LINE
  5
202
330
1F
100
AcDbEntity
  8
TOP_PASTE
100
AcDbLine
 10
-10.09999885
 20
-1.04000173
 30
0.0
 11
-10.09999885
 21
-0.2600007500000001
 31
0.0
  0
ARC
  5
203
330
1F
100
AcDbEntity
  8
TOP_PASTE
100
AcDbCircle
 10
15.76000023
 20
9.95999913
 30
0.0
 40
0.05999988
100
AcDbArc
 50
180.0
 51
270.0
  0
LINE
  5
204
330
1F
100
AcDbEntity
  8
TOP_PASTE
100
AcDbLine
 10
15.76000023
 20
9.89999925
 30
0.0
 11
16.44000141
 21
9.89999925
 31
0.0
  0
ARC
  5
205
330
1F
100
AcDbEntity
  8
TOP_PASTE
100
AcDbCircle
 10
16.44000141
 20
9.95999913
 30
0.0
 40
0.05999988
100
AcDbArc
 50
270.0
 51
0.0
  0
LINE
  5
206
330
1F
100
AcDbEntity
  8
TOP_PASTE
100
AcDbLine
 10
16.50000129
 20
9.95999913
 30
0.0
 11
16.50000129
 21
10.74000011
 31
0.0
  0
ARC
  5
207
330
1F
100
AcDbEntity
  8
TOP_PASTE
100
AcDbCircle
 10
16.44000141
 20
10.74000011
 30
0.0
 40
0.05999988
100
AcDbArc
 50
0.0
 51
90.0
  0
LINE
  5
208
330
1F
100
AcDbEntity
  8
TOP_PASTE
100
AcDbLine
 10
16.44000141
 20
10.79999999
 30
0.0
 11
15.76000023
 21
10.79999999
 31
0.0
  0
ARC
  5
209
330
1F
100
AcDbEntity
  8
TOP_PASTE
100
AcDbCircle
 10
15.76000023
 20
10.74000011
 30
0.0
 40
0.05999988
100
AcDbArc
 50
90.0
 51
180.0
  0
LINE
  5
20A
330
1F
100
AcDbEntity
  8
TOP_PASTE
100
AcDbLine
 10
15.70000035
 20
10.74000011
 30
0.0
 11
15.70000035
 21
9.95999913
 31
0.0
  0
ARC
  5
20B
330
1F
100
AcDbEntity
  8
TOP_PASTE
100
AcDbCircle
 10
15.76000023
 20
8.259999989999999
 30
0.0
 40
0.05999988
100
AcDbArc
 50
180.0
 51
270.0
  0
LINE
  5
20C
330
1F
100
AcDbEntity
  8
TOP_PASTE
100
AcDbLine
 10
15.76000023
 20
8.20000011
 30
0.0
 11
16.44000141
 21
8.20000011
 31
0.0
  0
ARC
  5
20D
330
1F
100
AcDbEntity
  8
TOP_PASTE
100
AcDbCircle
 10
16.44000141
 20
8.259999989999999
 30
0.0
 40
0.05999988
100
AcDbArc
 50
270.0
 51
0.0
  0
LINE
  5
20E
330
1F
100
AcDbEntity
  8
TOP_PASTE
100
AcDbLine
 10
16.50000129
 20
8.259999989999999
 30
0.0
 11
16.50000129
 21
9.04000097
 31
0.0
  0
ARC
  5
20F
330
1F
100
AcDbEntity
  8
TOP_PASTE
100
AcDbCircle
 10
16.44000141
 20
9.04000097
 30
0.0
 40
0.05999988
100
AcDbArc
 50
0.0
 51
90.0
  0
LINE
  5
210
330
1F
100
AcDbEntity
  8
TOP_PASTE
100
AcDbLine
 10
16.44000141
 20
9.100000849999999
 30
0.0
 11
15.76000023
 21
9.100000849999999
 31
0.0
  0
ARC
  5
211
330
1F
100
AcDbEntity
  8
TOP_PASTE
100
AcDbCircle
 10
15.76000023
 20
9.04000097
 30
0.0
 40
0.05999988
100
AcDbArc
 50
90.0
 51
180.0
  0
LINE
  5
212
330
1F
100
AcDbEntity
  8
TOP_PASTE
100
AcDbLine
 10
15.70000035
 20
9.04000097
 30
0.0
 11
15.70000035
 21
8.259999989999999
 31
0.0
  0
ARC
  5
213
330
1F
100
AcDbEntity
  8
TOP_PASTE
100
AcDbCircle
 10
-8.33999983
 20
6.96000005
 30
0.0
 40
0.05999988
100
AcDbArc
 50
180.0
 51
270.0
  0
LINE
  5
214
330
1F
100
AcDbEntity
  8
TOP_PASTE
100
AcDbLine
 10
-8.33999983
 20
6.900000169999999
 30
0.0
 11
-7.659998649999999
 21
6.900000169999999
 31
0.0
  0
ARC
  5
215
330
1F
100
AcDbEntity
  8
TOP_PASTE
100
AcDbCircle
 10
-7.659998649999999
 20
6.96000005
 30
0.0
 40
0.05999988
100
AcDbArc
 50
270.0
 51
0.0
  0
LINE
  5
216
330
1F
100
AcDbEntity
  8
TOP_PASTE
100
AcDbLine
 10
-7.599998769999999
 20
6.96000005
 30
0.0
 11
-7.599998769999999
 21
7.740001029999999
 31
0.0
  0
ARC
  5
217
330
1F
100
AcDbEntity
  8
TOP_PASTE
100
AcDbCircle
 10
-7.659998649999999
 20
7.740001029999999
 30
0.0
 40
0.05999988
100
AcDbArc
 50
0.0
 51
90.0
  0
LINE
  5
218
330
1F
100
AcDbEntity
  8
TOP_PASTE
100
AcDbLine
 10
-7.659998649999999
 20
7.80000091
 30
0.0
 11
-8.33999983
 21
7.80000091
 31
0.0
  0
ARC
  5
219
330
1F
100
AcDbEntity
  8
TOP_PASTE
100
AcDbCircle
 10
-8.33999983
 20
7.740001029999999
 30
0.0
 40
0.05999988
100
AcDbArc
 50
90.0
 51
180.0
  0
LINE
  5
21A
330
1F
100
AcDbEntity
  8
TOP_PASTE
100
AcDbLine
 10
-8.39999971
 20
7.740001029999999
 30
0.0
 11
-8.39999971
 21
6.96000005
 31
0.0
  0
ARC
  5
21B
330
1F
100
AcDbEntity
  8
TOP_PASTE
100
AcDbCircle
 10
-8.33999983
 20
5.26000091
 30
0.0
 40
0.05999988
100
AcDbArc
 50
180.0
 51
270.0
  0
LINE
  5
21C
330
1F
100
AcDbEntity
  8
TOP_PASTE
100
AcDbLine
 10
-8.33999983
 20
5.200001029999999
 30
0.0
 11
-7.659998649999999
 21
5.200001029999999
 31
0.0
  0
ARC
  5
21D
330
1F
100
AcDbEntity
  8
TOP_PASTE
100
AcDbCircle
 10
-7.659998649999999
 20
5.26000091
 30
0.0
 40
0.05999988
100
AcDbArc
 50
270.0
 51
0.0
  0
LINE
  5
21E
330
1F
100
AcDbEntity
  8
TOP_PASTE
100
AcDbLine
 10
-7.599998769999999
 20
5.26000091
 30
0.0
 11
-7.599998769999999
 21
6.040001889999999
 31
0.0
  0
ARC
  5
21F
330
1F
100
AcDbEntity
  8
TOP_PASTE
100
AcDbCircle
 10
-7.659998649999999
 20
6.040001889999999
 30
0.0
 40
0.05999988
100
AcDbArc
 50
0.0
 51
90.0
  0
LINE
  5
220
330
1F
100
AcDbEntity
  8
TOP_PASTE
100
AcDbLine
 10
-7.659998649999999
 20
6.10000177
 30
0.0
 11
-8.33999983
 21
6.10000177
 31
0.0
  0
ARC
  5
221
330
1F
100
AcDbEntity
  8
TOP_PASTE
100
AcDbCircle
 10
-8.33999983
 20
6.040001889999999
 30
0.0
 40
0.05999988
100
AcDbArc
 50
90.0
 51
180.0
  0
LINE
  5
222
330
1F
100
AcDbEntity
  8
TOP_PASTE
100
AcDbLine
 10
-8.39999971
 20
6.040001889999999
 30
0.0
 11
-8.39999971
 21
5.26000091
 31
0.0
  0
ARC
  5
223
330
1F
100
AcDbEntity
  8
TOP_PASTE
100
AcDbCircle
 10
9.65999973
 20
14.70999979
 30
0.0
 40
0.05999988
100
AcDbArc
 50
180.0
 51
270.0
  0
LINE
  5
224
330
1F
100
AcDbEntity
  8
TOP_PASTE
100
AcDbLine
 10
9.65999973
 20
14.64999991
 30
0.0
 11
10.34000091
 21
14.64999991
 31
0.0
  0
ARC
  5
225
330
1F
100
AcDbEntity
  8
TOP_PASTE
100
AcDbCircle
 10
10.34000091
 20
14.70999979
 30
0.0
 40
0.05999988
100
AcDbArc
 50
270.0
 51
0.0
  0
LINE
  5
226
330
1F
100
AcDbEntity
  8
TOP_PASTE
100
AcDbLine
 10
10.40000079
 20
14.70999979
 30
0.0
 11
10.40000079
 21
15.49000077
 31
0.0
  0
ARC
  5
227
330
1F
100
AcDbEntity
  8
TOP_PASTE
100
AcDbCircle
 10
10.34000091
 20
15.49000077
 30
0.0
 40
0.05999988
100
AcDbArc
 50
0.0
 51
90.0
  0
LINE
  5
228
330
1F
100
AcDbEntity
  8
TOP_PASTE
100
AcDbLine
 10
10.34000091
 20
15.55000065
 30
0.0
 11
9.65999973
 21
15.55000065
 31
0.0
  0
ARC
  5
229
330
1F
100
AcDbEntity
  8
TOP_PASTE
100
AcDbCircle
 10
9.65999973
 20
15.49000077
 30
0.0
 40
0.05999988
100
AcDbArc
 50
90.0
 51
180.0
  0
LINE
  5
22A
330
1F
100
AcDbEntity
  8
TOP_PASTE
100
AcDbLine
 10
9.59999985
 20
15.49000077
 30
0.0
 11
9.59999985
 21
14.70999979
 31
0.0
  0
ARC
  5
22B
330
1F
100
AcDbEntity
  8
TOP_PASTE
100
AcDbCircle
 10
9.65999973
 20
13.01000065
 30
0.0
 40
0.05999988
100
AcDbArc
 50
180.0
 51
270.0
  0
LINE
  5
22C
330
1F
100
AcDbEntity
  8
TOP_PASTE
100
AcDbLine
 10
9.65999973
 20
12.95000077
 30
0.0
 11
10.34000091
 21
12.95000077
 31
0.0
  0
ARC
  5
22D
330
1F
100
AcDbEntity
  8
TOP_PASTE
100
AcDbCircle
 10
10.34000091
 20
13.01000065
 30
0.0
 40
0.05999988
100
AcDbArc
 50
270.0
 51
0.0
  0
LINE
  5
22E
330
1F
100
AcDbEntity
  8
TOP_PASTE
100
AcDbLine
 10
10.40000079
 20
13.01000065
 30
0.0
 11
10.40000079
 21
13.79000163
 31
0.0
  0
ARC
  5
22F
330
1F
100
AcDbEntity
  8
TOP_PASTE
100
AcDbCircle
 10
10.34000091
 20
13.79000163
 30
0.0
 40
0.05999988
100
AcDbArc
 50
0.0
 51
90.0
  0
LINE
  5
230
330
1F
100
AcDbEntity
  8
TOP_PASTE
100
AcDbLine
 10
10.34000091
 20
13.85000151
 30
0.0
 11
9.65999973
 21
13.85000151
 31
0.0
  0
ARC
  5
231
330
1F
100
AcDbEntity
  8
TOP_PASTE
100
AcDbCircle
 10
9.65999973
 20
13.79000163
 30
0.0
 40
0.05999988
100
AcDbArc
 50
90.0
 51
180.0
  0
LINE
  5
232
330
1F
100
AcDbEntity
  8
TOP_PASTE
100
AcDbLine
 10
9.59999985
 20
13.79000163
 30
0.0
 11
9.59999985
 21
13.01000065
 31
0.0
  0
ARC
  5
233
330
1F
100
AcDbEntity
  8
TOP_PASTE
100
AcDbCircle
 10
7.659998649999999
 20
13.01000065
 30
0.0
 40
0.05999988
100
AcDbArc
 50
180.0
 51
270.0
  0
LINE
  5
234
330
1F
100
AcDbEntity
  8
TOP_PASTE
100
AcDbLine
 10
7.659998649999999
 20
12.95000077
 30
0.0
 11
8.33999983
 21
12.95000077
 31
0.0
  0
ARC
  5
235
330
1F
100
AcDbEntity
  8
TOP_PASTE
100
AcDbCircle
 10
8.33999983
 20
13.01000065
 30
0.0
 40
0.05999988
100
AcDbArc
 50
270.0
 51
0.0
  0
LINE
  5
236
330
1F
100
AcDbEntity
  8
TOP_PASTE
100
AcDbLine
 10
8.39999971
 20
13.01000065
 30
0.0
 11
8.39999971
 21
13.79000163
 31
0.0
  0
ARC
  5
237
330
1F
100
AcDbEntity
  8
TOP_PASTE
100
AcDbCircle
 10
8.33999983
 20
13.79000163
 30
0.0
 40
0.05999988
100
AcDbArc
 50
0.0
 51
90.0
  0
LINE
  5
238
330
1F
100
AcDbEntity
  8
TOP_PASTE
100
AcDbLine
 10
8.33999983
 20
13.85000151
 30
0.0
 11
7.659998649999999
 21
13.85000151
 31
0.0
  0
ARC
  5
239
330
1F
100
AcDbEntity
  8
TOP_PASTE
100
AcDbCircle
 10
7.659998649999999
 20
13.79000163
 30
0.0
 40
0.05999988
100
AcDbArc
 50
90.0
 51
180.0
  0
LINE
  5
23A
330
1F
100
AcDbEntity
  8
TOP_PASTE
100
AcDbLine
 10
7.599998769999999
 20
13.79000163
 30
0.0
 11
7.599998769999999
 21
13.01000065
 31
0.0
  0
ARC
  5
23B
330
1F
100
AcDbEntity
  8
TOP_PASTE
100
AcDbCircle
 10
7.659998649999999
 20
14.70999979
 30
0.0
 40
0.05999988
100
AcDbArc
 50
180.0
 51
270.0
  0
LINE
  5
23C
330
1F
100
AcDbEntity
  8
TOP_PASTE
100
AcDbLine
 10
7.659998649999999
 20
14.64999991
 30
0.0
 11
8.33999983
 21
14.64999991
 31
0.0
  0
ARC
  5
23D
330
1F
100
AcDbEntity
  8
TOP_PASTE
100
AcDbCircle
 10
8.33999983
 20
14.70999979
 30
0.0
 40
0.05999988
100
AcDbArc
 50
270.0
 51
0.0
  0
LINE
  5
23E
330
1F
100
AcDbEntity
  8
TOP_PASTE
100
AcDbLine
 10
8.39999971
 20
14.70999979
 30
0.0
 11
8.39999971
 21
15.49000077
 31
0.0
  0
ARC
  5
23F
330
1F
100
AcDbEntity
  8
TOP_PASTE
100
AcDbCircle
 10
8.33999983
 20
15.49000077
 30
0.0
 40
0.05999988
100
AcDbArc
 50
0.0
 51
90.0
  0
LINE
  5
240
330
1F
100
AcDbEntity
  8
TOP_PASTE
100
AcDbLine
 10
8.33999983
 20
15.55000065
 30
0.0
 11
7.659998649999999
 21
15.55000065
 31
0.0
  0
ARC
  5
241
330
1F
100
AcDbEntity
  8
TOP_PASTE
100
AcDbCircle
 10
7.659998649999999
 20
15.49000077
 30
0.0
 40
0.05999988
100
AcDbArc
 50
90.0
 51
180.0
  0
LINE
  5
242
330
1F
100
AcDbEntity
  8
TOP_PASTE
100
AcDbLine
 10
7.599998769999999
 20
15.49000077
 30
0.0
 11
7.599998769999999
 21
14.70999979
 31
0.0
  0
ARC
  5
243
330
1F
100
AcDbEntity
  8
TOP_PASTE
100
AcDbCircle
 10
-8.33999983
 20
10.46000067
 30
0.0
 40
0.05999988
100
AcDbArc
 50
180.0
 51
270.0
  0
LINE
  5
244
330
1F
100
AcDbEntity
  8
TOP_PASTE
100
AcDbLine
 10
-8.33999983
 20
10.40000079
 30
0.0
 11
-7.659998649999999
 21
10.40000079
 31
0.0
  0
ARC
  5
245
330
1F
100
AcDbEntity
  8
TOP_PASTE
100
AcDbCircle
 10
-7.659998649999999
 20
10.46000067
 30
0.0
 40
0.05999988
100
AcDbArc
 50
270.0
 51
0.0
  0
LINE
  5
246
330
1F
100
AcDbEntity
  8
TOP_PASTE
100
AcDbLine
 10
-7.599998769999999
 20
10.46000067
 30
0.0
 11
-7.599998769999999
 21
11.24000165
 31
0.0
  0
ARC
  5
247
330
1F
100
AcDbEntity
  8
TOP_PASTE
100
AcDbCircle
 10
-7.659998649999999
 20
11.24000165
 30
0.0
 40
0.05999988
100
AcDbArc
 50
0.0
 51
90.0
  0
LINE
  5
248
330
1F
100
AcDbEntity
  8
TOP_PASTE
100
AcDbLine
 10
-7.659998649999999
 20
11.30000153
 30
0.0
 11
-8.33999983
 21
11.30000153
 31
0.0
  0
ARC
  5
249
330
1F
100
AcDbEntity
  8
TOP_PASTE
100
AcDbCircle
 10
-8.33999983
 20
11.24000165
 30
0.0
 40
0.05999988
100
AcDbArc
 50
90.0
 51
180.0
  0
LINE
  5
24A
330
1F
100
AcDbEntity
  8
TOP_PASTE
100
AcDbLine
 10
-8.39999971
 20
11.24000165
 30
0.0
 11
-8.39999971
 21
10.46000067
 31
0.0
  0
ARC
  5
24B
330
1F
100
AcDbEntity
  8
TOP_PASTE
100
AcDbCircle
 10
-8.33999983
 20
8.760001529999998
 30
0.0
 40
0.05999988
100
AcDbArc
 50
180.0
 51
270.0
  0
LINE
  5
24C
330
1F
100
AcDbEntity
  8
TOP_PASTE
100
AcDbLine
 10
-8.33999983
 20
8.700001649999999
 30
0.0
 11
-7.659998649999999
 21
8.700001649999999
 31
0.0
  0
ARC
  5
24D
330
1F
100
AcDbEntity
  8
TOP_PASTE
100
AcDbCircle
 10
-7.659998649999999
 20
8.760001529999998
 30
0.0
 40
0.05999988
100
AcDbArc
 50
270.0
 51
0.0
  0
LINE
  5
24E
330
1F
100
AcDbEntity
  8
TOP_PASTE
100
AcDbLine
 10
-7.599998769999999
 20
8.760001529999998
 30
0.0
 11
-7.599998769999999
 21
9.54000251
 31
0.0
  0
ARC
  5
24F
330
1F
100
AcDbEntity
  8
TOP_PASTE
100
AcDbCircle
 10
-7.659998649999999
 20
9.54000251
 30
0.0
 40
0.05999988
100
AcDbArc
 50
0.0
 51
90.0
  0
LINE
  5
250
330
1F
100
AcDbEntity
  8
TOP_PASTE
100
AcDbLine
 10
-7.659998649999999
 20
9.60000239
 30
0.0
 11
-8.33999983
 21
9.60000239
 31
0.0
  0
ARC
  5
251
330
1F
100
AcDbEntity
  8
TOP_PASTE
100
AcDbCircle
 10
-8.33999983
 20
9.54000251
 30
0.0
 40
0.05999988
100
AcDbArc
 50
90.0
 51
180.0
  0
LINE
  5
252
330
1F
100
AcDbEntity
  8
TOP_PASTE
100
AcDbLine
 10
-8.39999971
 20
9.54000251
 30
0.0
 11
-8.39999971
 21
8.760001529999998
 31
0.0
  0
ARC
  5
253
330
1F
100
AcDbEntity
  8
TOP_PASTE
100
AcDbCircle
 10
-9.754999539999998
 20
-6.204996479999999
 30
0.0
 40
0.04499864
100
AcDbArc
 50
90.0
 51
180.0
  0
LINE
  5
254
330
1F
100
AcDbEntity
  8
TOP_PASTE
100
AcDbLine
 10
-9.799998179999998
 20
-6.204996479999999
 30
0.0
 11
-9.799998179999998
 21
-7.16499964
 31
0.0
  0
ARC
  5
255
330
1F
100
AcDbEntity
  8
TOP_PASTE
100
AcDbCircle
 10
-9.754999539999998
 20
-7.16499964
 30
0.0
 40
0.04499864
100
AcDbArc
 50
180.0
 51
270.0
  0
LINE
  5
256
330
1F
100
AcDbEntity
  8
TOP_PASTE
100
AcDbLine
 10
-9.754999539999998
 20
-7.209998280000001
 30
0.0
 11
-9.244998019999999
 21
-7.209998280000001
 31
0.0
  0
ARC
  5
257
330
1F
100
AcDbEntity
  8
TOP_PASTE
100
AcDbCircle
 10
-9.244998019999999
 20
-7.16499964
 30
0.0
 40
0.04499864
100
AcDbArc
 50
270.0
 51
0.0
  0
LINE
  5
258
330
1F
100
AcDbEntity
  8
TOP_PASTE
100
AcDbLine
 10
-9.19999938
 20
-7.16499964
 30
0.0
 11
-9.19999938
 21
-6.204996479999999
 31
0.0
  0
ARC
  5
259
330
1F
100
AcDbEntity
  8
TOP_PASTE
100
AcDbCircle
 10
-9.244998019999999
 20
-6.204996479999999
 30
0.0
 40
0.04499864
100
AcDbArc
 50
0.0
 51
90.0
  0
LINE
  5
25A
330
1F
100
AcDbEntity
  8
TOP_PASTE
100
AcDbLine
 10
-9.244998019999999
 20
-6.159997839999999
 30
0.0
 11
-9.754999539999998
 21
-6.159997839999999
 31
0.0
  0
ARC
  5
25B
330
1F
100
AcDbEntity
  8
TOP_PASTE
100
AcDbCircle
 10
-10.70500018
 20
-3.83499868
 30
0.0
 40
0.04499864
100
AcDbArc
 50
90.0
 51
180.0
  0
LINE
  5
25C
330
1F
100
AcDbEntity
  8
TOP_PASTE
100
AcDbLine
 10
-10.74999882
 20
-3.83499868
 30
0.0
 11
-10.74999882
 21
-4.795001839999999
 31
0.0
  0
ARC
  5
25D
330
1F
100
AcDbEntity
  8
TOP_PASTE
100
AcDbCircle
 10
-10.70500018
 20
-4.795001839999999
 30
0.0
 40
0.04499864
100
AcDbArc
 50
180.0
 51
270.0
  0
LINE
  5
25E
330
1F
100
AcDbEntity
  8
TOP_PASTE
100
AcDbLine
 10
-10.70500018
 20
-4.84000048
 30
0.0
 11
-10.19499866
 21
-4.84000048
 31
0.0
  0
ARC
  5
25F
330
1F
100
AcDbEntity
  8
TOP_PASTE
100
AcDbCircle
 10
-10.19499866
 20
-4.795001839999999
 30
0.0
 40
0.04499864
100
AcDbArc
 50
270.0
 51
0.0
  0
LINE
  5
260
330
1F
100
AcDbEntity
  8
TOP_PASTE
100
AcDbLine
 10
-10.15000002
 20
-4.795001839999999
 30
0.0
 11
-10.15000002
 21
-3.83499868
 31
0.0
  0
ARC
  5
261
330
1F
100
AcDbEntity
  8
TOP_PASTE
100
AcDbCircle
 10
-10.19499866
 20
-3.83499868
 30
0.0
 40
0.04499864
100
AcDbArc
 50
0.0
 51
90.0
  0
LINE
  5
262
330
1F
100
AcDbEntity
  8
TOP_PASTE
100
AcDbLine
 10
-10.19499866
 20
-3.79000004
 30
0.0
 11
-10.70500018
 21
-3.79000004
 31
0.0
  0
ARC
  5
263
330
1F
100
AcDbEntity
  8
TOP_PASTE
100
AcDbCircle
 10
-8.8049989
 20
-3.83499868
 30
0.0
 40
0.04499864
100
AcDbArc
 50
90.0
 51
180.0
  0
LINE
  5
264
330
1F
100
AcDbEntity
  8
TOP_PASTE
100
AcDbLine
 10
-8.849997539999999
 20
-3.83499868
 30
0.0
 11
-8.849997539999999
 21
-4.795001839999999
 31
0.0
  0
ARC
  5
265
330
1F
100
AcDbEntity
  8
TOP_PASTE
100
AcDbCircle
 10
-8.8049989
 20
-4.795001839999999
 30
0.0
 40
0.04499864
100
AcDbArc
 50
180.0
 51
270.0
  0
LINE
  5
266
330
1F
100
AcDbEntity
  8
TOP_PASTE
100
AcDbLine
 10
-8.8049989
 20
-4.84000048
 30
0.0
 11
-8.29499738
 21
-4.84000048
 31
0.0
  0
ARC
  5
267
330
1F
100
AcDbEntity
  8
TOP_PASTE
100
AcDbCircle
 10
-8.29499738
 20
-4.795001839999999
 30
0.0
 40
0.04499864
100
AcDbArc
 50
270.0
 51
0.0
  0
LINE
  5
268
330
1F
100
AcDbEntity
  8
TOP_PASTE
100
AcDbLine
 10
-8.24999874
 20
-4.795001839999999
 30
0.0
 11
-8.24999874
 21
-3.83499868
 31
0.0
  0
ARC
  5
269
330
1F
100
AcDbEntity
  8
TOP_PASTE
100
AcDbCircle
 10
-8.29499738
 20
-3.83499868
 30
0.0
 40
0.04499864
100
AcDbArc
 50
0.0
 51
90.0
  0
LINE
  5
26A
330
1F
100
AcDbEntity
  8
TOP_PASTE
100
AcDbLine
 10
-8.29499738
 20
-3.79000004
 30
0.0
 11
-8.8049989
 21
-3.79000004
 31
0.0
  0
ARC
  5
26B
330
1F
100
AcDbEntity
  8
TOP_PASTE
100
AcDbCircle
 10
-12.75500116
 20
-9.7049971
 30
0.0
 40
0.04499864
100
AcDbArc
 50
90.0
 51
180.0
  0
LINE
  5
26C
330
1F
100
AcDbEntity
  8
TOP_PASTE
100
AcDbLine
 10
-12.7999998
 20
-9.7049971
 30
0.0
 11
-12.7999998
 21
-10.66500026
 31
0.0
  0
ARC
  5
26D
330
1F
100
AcDbEntity
  8
TOP_PASTE
100
AcDbCircle
 10
-12.75500116
 20
-10.66500026
 30
0.0
 40
0.04499864
100
AcDbArc
 50
180.0
 51
270.0
  0
LINE
  5
26E
330
1F
100
AcDbEntity
  8
TOP_PASTE
100
AcDbLine
 10
-12.75500116
 20
-10.7099989
 30
0.0
 11
-12.24499964
 21
-10.7099989
 31
0.0
  0
ARC
  5
26F
330
1F
100
AcDbEntity
  8
TOP_PASTE
100
AcDbCircle
 10
-12.24499964
 20
-10.66500026
 30
0.0
 40
0.04499864
100
AcDbArc
 50
270.0
 51
0.0
  0
LINE
  5
270
330
1F
100
AcDbEntity
  8
TOP_PASTE
100
AcDbLine
 10
-12.200001
 20
-10.66500026
 30
0.0
 11
-12.200001
 21
-9.7049971
 31
0.0
  0
ARC
  5
271
330
1F
100
AcDbEntity
  8
TOP_PASTE
100
AcDbCircle
 10
-12.24499964
 20
-9.7049971
 30
0.0
 40
0.04499864
100
AcDbArc
 50
0.0
 51
90.0
  0
LINE
  5
272
330
1F
100
AcDbEntity
  8
TOP_PASTE
100
AcDbLine
 10
-12.24499964
 20
-9.65999846
 30
0.0
 11
-12.75500116
 21
-9.65999846
 31
0.0
  0
ARC
  5
273
330
1F
100
AcDbEntity
  8
TOP_PASTE
100
AcDbCircle
 10
-13.7050018
 20
-7.3349993
 30
0.0
 40
0.04499864
100
AcDbArc
 50
90.0
 51
180.0
  0
LINE
  5
274
330
1F
100
AcDbEntity
  8
TOP_PASTE
100
AcDbLine
 10
-13.75000044
 20
-7.3349993
 30
0.0
 11
-13.75000044
 21
-8.29500246
 31
0.0
  0
ARC
  5
275
330
1F
100
AcDbEntity
  8
TOP_PASTE
100
AcDbCircle
 10
-13.7050018
 20
-8.29500246
 30
0.0
 40
0.04499864
100
AcDbArc
 50
180.0
 51
270.0
  0
LINE
  5
276
330
1F
100
AcDbEntity
  8
TOP_PASTE
100
AcDbLine
 10
-13.7050018
 20
-8.340001099999999
 30
0.0
 11
-13.19500028
 21
-8.340001099999999
 31
0.0
  0
ARC
  5
277
330
1F
100
AcDbEntity
  8
TOP_PASTE
100
AcDbCircle
 10
-13.19500028
 20
-8.29500246
 30
0.0
 40
0.04499864
100
AcDbArc
 50
270.0
 51
0.0
  0
LINE
  5
278
330
1F
100
AcDbEntity
  8
TOP_PASTE
100
AcDbLine
 10
-13.15000164
 20
-8.29500246
 30
0.0
 11
-13.15000164
 21
-7.3349993
 31
0.0
  0
ARC
  5
279
330
1F
100
AcDbEntity
  8
TOP_PASTE
100
AcDbCircle
 10
-13.19500028
 20
-7.3349993
 30
0.0
 40
0.04499864
100
AcDbArc
 50
0.0
 51
90.0
  0
LINE
  5
27A
330
1F
100
AcDbEntity
  8
TOP_PASTE
100
AcDbLine
 10
-13.19500028
 20
-7.29000066
 30
0.0
 11
-13.7050018
 21
-7.29000066
 31
0.0
  0
ARC
  5
27B
330
1F
100
AcDbEntity
  8
TOP_PASTE
100
AcDbCircle
 10
-11.80500052
 20
-7.3349993
 30
0.0
 40
0.04499864
100
AcDbArc
 50
90.0
 51
180.0
  0
LINE
  5
27C
330
1F
100
AcDbEntity
  8
TOP_PASTE
100
AcDbLine
 10
-11.84999916
 20
-7.3349993
 30
0.0
 11
-11.84999916
 21
-8.29500246
 31
0.0
  0
ARC
  5
27D
330
1F
100
AcDbEntity
  8
TOP_PASTE
100
AcDbCircle
 10
-11.80500052
 20
-8.29500246
 30
0.0
 40
0.04499864
100
AcDbArc
 50
180.0
 51
270.0
  0
LINE
  5
27E
330
1F
100
AcDbEntity
  8
TOP_PASTE
100
AcDbLine
 10
-11.80500052
 20
-8.340001099999999
 30
0.0
 11
-11.294999
 21
-8.340001099999999
 31
0.0
  0
ARC
  5
27F
330
1F
100
AcDbEntity
  8
TOP_PASTE
100
AcDbCircle
 10
-11.294999
 20
-8.29500246
 30
0.0
 40
0.04499864
100
AcDbArc
 50
270.0
 51
0.0
  0
LINE
  5
280
330
1F
100
AcDbEntity
  8
TOP_PASTE
100
AcDbLine
 10
-11.25000036
 20
-8.29500246
 30
0.0
 11
-11.25000036
 21
-7.3349993
 31
0.0
  0
ARC
  5
281
330
1F
100
AcDbEntity
  8
TOP_PASTE
100
AcDbCircle
 10
-11.294999
 20
-7.3349993
 30
0.0
 40
0.04499864
100
AcDbArc
 50
0.0
 51
90.0
  0
LINE
  5
282
330
1F
100
AcDbEntity
  8
TOP_PASTE
100
AcDbLine
 10
-11.294999
 20
-7.29000066
 30
0.0
 11
-11.80500052
 21
-7.29000066
 31
0.0
  0
ARC
  5
283
330
1F
100
AcDbEntity
  8
TOP_PASTE
100
AcDbCircle
 10
-18.75500186
 20
-9.7049971
 30
0.0
 40
0.04499864
100
AcDbArc
 50
90.0
 51
180.0
  0
LINE
  5
284
330
1F
100
AcDbEntity
  8
TOP_PASTE
100
AcDbLine
 10
-18.8000005
 20
-9.7049971
 30
0.0
 11
-18.8000005
 21
-10.66500026
 31
0.0
  0
ARC
  5
285
330
1F
100
AcDbEntity
  8
TOP_PASTE
100
AcDbCircle
 10
-18.75500186
 20
-10.66500026
 30
0.0
 40
0.04499864
100
AcDbArc
 50
180.0
 51
270.0
  0
LINE
  5
286
330
1F
100
AcDbEntity
  8
TOP_PASTE
100
AcDbLine
 10
-18.75500186
 20
-10.7099989
 30
0.0
 11
-18.24500034
 21
-10.7099989
 31
0.0
  0
ARC
  5
287
330
1F
100
AcDbEntity
  8
TOP_PASTE
100
AcDbCircle
 10
-18.24500034
 20
-10.66500026
 30
0.0
 40
0.04499864
100
AcDbArc
 50
270.0
 51
0.0
  0
LINE
  5
288
330
1F
100
AcDbEntity
  8
TOP_PASTE
100
AcDbLine
 10
-18.2000017
 20
-10.66500026
 30
0.0
 11
-18.2000017
 21
-9.7049971
 31
0.0
  0
ARC
  5
289
330
1F
100
AcDbEntity
  8
TOP_PASTE
100
AcDbCircle
 10
-18.24500034
 20
-9.7049971
 30
0.0
 40
0.04499864
100
AcDbArc
 50
0.0
 51
90.0
  0
LINE
  5
28A
330
1F
100
AcDbEntity
  8
TOP_PASTE
100
AcDbLine
 10
-18.24500034
 20
-9.65999846
 30
0.0
 11
-18.75500186
 21
-9.65999846
 31
0.0
  0
ARC
  5
28B
330
1F
100
AcDbEntity
  8
TOP_PASTE
100
AcDbCircle
 10
-19.7050025
 20
-7.3349993
 30
0.0
 40
0.04499864
100
AcDbArc
 50
90.0
 51
180.0
  0
LINE
  5
28C
330
1F
100
AcDbEntity
  8
TOP_PASTE
100
AcDbLine
 10
-19.75000114
 20
-7.3349993
 30
0.0
 11
-19.75000114
 21
-8.29500246
 31
0.0
  0
ARC
  5
28D
330
1F
100
AcDbEntity
  8
TOP_PASTE
100
AcDbCircle
 10
-19.7050025
 20
-8.29500246
 30
0.0
 40
0.04499864
100
AcDbArc
 50
180.0
 51
270.0
  0
LINE
  5
28E
330
1F
100
AcDbEntity
  8
TOP_PASTE
100
AcDbLine
 10
-19.7050025
 20
-8.340001099999999
 30
0.0
 11
-19.19500098
 21
-8.340001099999999
 31
0.0
  0
ARC
  5
28F
330
1F
100
AcDbEntity
  8
TOP_PASTE
100
AcDbCircle
 10
-19.19500098
 20
-8.29500246
 30
0.0
 40
0.04499864
100
AcDbArc
 50
270.0
 51
0.0
  0
LINE
  5
290
330
1F
100
AcDbEntity
  8
TOP_PASTE
100
AcDbLine
 10
-19.15000234
 20
-8.29500246
 30
0.0
 11
-19.15000234
 21
-7.3349993
 31
0.0
  0
ARC
  5
291
330
1F
100
AcDbEntity
  8
TOP_PASTE
100
AcDbCircle
 10
-19.19500098
 20
-7.3349993
 30
0.0
 40
0.04499864
100
AcDbArc
 50
0.0
 51
90.0
  0
LINE
  5
292
330
1F
100
AcDbEntity
  8
TOP_PASTE
100
AcDbLine
 10
-19.19500098
 20
-7.29000066
 30
0.0
 11
-19.7050025
 21
-7.29000066
 31
0.0
  0
ARC
  5
293
330
1F
100
AcDbEntity
  8
TOP_PASTE
100
AcDbCircle
 10
-17.80500122
 20
-7.3349993
 30
0.0
 40
0.04499864
100
AcDbArc
 50
90.0
 51
180.0
  0
LINE
  5
294
330
1F
100
AcDbEntity
  8
TOP_PASTE
100
AcDbLine
 10
-17.84999986
 20
-7.3349993
 30
0.0
 11
-17.84999986
 21
-8.29500246
 31
0.0
  0
ARC
  5
295
330
1F
100
AcDbEntity
  8
TOP_PASTE
100
AcDbCircle
 10
-17.80500122
 20
-8.29500246
 30
0.0
 40
0.04499864
100
AcDbArc
 50
180.0
 51
270.0
  0
LINE
  5
296
330
1F
100
AcDbEntity
  8
TOP_PASTE
100
AcDbLine
 10
-17.80500122
 20
-8.340001099999999
 30
0.0
 11
-17.2949997
 21
-8.340001099999999
 31
0.0
  0
ARC
  5
297
330
1F
100
AcDbEntity
  8
TOP_PASTE
100
AcDbCircle
 10
-17.2949997
 20
-8.29500246
 30
0.0
 40
0.04499864
100
AcDbArc
 50
270.0
 51
0.0
  0
LINE
  5
298
330
1F
100
AcDbEntity
  8
TOP_PASTE
100
AcDbLine
 10
-17.25000106
 20
-8.29500246
 30
0.0
 11
-17.25000106
 21
-7.3349993
 31
0.0
  0
ARC
  5
299
330
1F
100
AcDbEntity
  8
TOP_PASTE
100
AcDbCircle
 10
-17.2949997
 20
-7.3349993
 30
0.0
 40
0.04499864
100
AcDbArc
 50
0.0
 51
90.0
  0
LINE
  5
29A
330
1F
100
AcDbEntity
  8
TOP_PASTE
100
AcDbLine
 10
-17.2949997
 20
-7.29000066
 30
0.0
 11
-17.80500122
 21
-7.29000066
 31
0.0
  0
ARC
  5
29B
330
1F
100
AcDbEntity
  8
TOP_PASTE
100
AcDbCircle
 10
-18.99000139
 20
10.88999981
 30
0.0
 40
0.05999988
100
AcDbArc
 50
90.0
 51
180.0
  0
LINE
  5
29C
330
1F
100
AcDbEntity
  8
TOP_PASTE
100
AcDbLine
 10
-19.05000127
 20
10.88999981
 30
0.0
 11
-19.05000127
 21
10.10999883
 31
0.0
  0
ARC
  5
29D
330
1F
100
AcDbEntity
  8
TOP_PASTE
100
AcDbCircle
 10
-18.99000139
 20
10.10999883
 30
0.0
 40
0.05999988
100
AcDbArc
 50
180.0
 51
270.0
  0
LINE
  5
29E
330
1F
100
AcDbEntity
  8
TOP_PASTE
100
AcDbLine
 10
-18.99000139
 20
10.04999895
 30
0.0
 11
-18.31000021
 21
10.04999895
 31
0.0
  0
ARC
  5
29F
330
1F
100
AcDbEntity
  8
TOP_PASTE
100
AcDbCircle
 10
-18.31000021
 20
10.10999883
 30
0.0
 40
0.05999988
100
AcDbArc
 50
270.0
 51
0.0
  0
LINE
  5
2A0
330
1F
100
AcDbEntity
  8
TOP_PASTE
100
AcDbLine
 10
-18.25000033
 20
10.10999883
 30
0.0
 11
-18.25000033
 21
10.88999981
 31
0.0
  0
ARC
  5
2A1
330
1F
100
AcDbEntity
  8
TOP_PASTE
100
AcDbCircle
 10
-18.31000021
 20
10.88999981
 30
0.0
 40
0.05999988
100
AcDbArc
 50
0.0
 51
90.0
  0
LINE
  5
2A2
330
1F
100
AcDbEntity
  8
TOP_PASTE
100
AcDbLine
 10
-18.31000021
 20
10.94999969
 30
0.0
 11
-18.99000139
 21
10.94999969
 31
0.0
  0
ARC
  5
2A3
330
1F
100
AcDbEntity
  8
TOP_PASTE
100
AcDbCircle
 10
-17.48999931
 20
10.88999981
 30
0.0
 40
0.05999988
100
AcDbArc
 50
90.0
 51
180.0
  0
LINE
  5
2A4
330
1F
100
AcDbEntity
  8
TOP_PASTE
100
AcDbLine
 10
-17.54999919
 20
10.88999981
 30
0.0
 11
-17.54999919
 21
10.10999883
 31
0.0
  0
ARC
  5
2A5
330
1F
100
AcDbEntity
  8
TOP_PASTE
100
AcDbCircle
 10
-17.48999931
 20
10.10999883
 30
0.0
 40
0.05999988
100
AcDbArc
 50
180.0
 51
270.0
  0
LINE
  5
2A6
330
1F
100
AcDbEntity
  8
TOP_PASTE
100
AcDbLine
 10
-17.48999931
 20
10.04999895
 30
0.0
 11
-16.80999813
 21
10.04999895
 31
0.0
  0
ARC
  5
2A7
330
1F
100
AcDbEntity
  8
TOP_PASTE
100
AcDbCircle
 10
-16.80999813
 20
10.10999883
 30
0.0
 40
0.05999988
100
AcDbArc
 50
270.0
 51
0.0
  0
LINE
  5
2A8
330
1F
100
AcDbEntity
  8
TOP_PASTE
100
AcDbLine
 10
-16.74999825
 20
10.10999883
 30
0.0
 11
-16.74999825
 21
10.88999981
 31
0.0
  0
ARC
  5
2A9
330
1F
100
AcDbEntity
  8
TOP_PASTE
100
AcDbCircle
 10
-16.80999813
 20
10.88999981
 30
0.0
 40
0.05999988
100
AcDbArc
 50
0.0
 51
90.0
  0
LINE
  5
2AA
330
1F
100
AcDbEntity
  8
TOP_PASTE
100
AcDbLine
 10
-16.80999813
 20
10.94999969
 30
0.0
 11
-17.48999931
 21
10.94999969
 31
0.0
  0
ARC
  5
2AB
330
1F
100
AcDbEntity
  8
TOP_PASTE
100
AcDbCircle
 10
14.68999983
 20
10.59000041
 30
0.0
 40
0.05999988
100
AcDbArc
 50
0.0
 51
90.0
  0
LINE
  5
2AC
330
1F
100
AcDbEntity
  8
TOP_PASTE
100
AcDbLine
 10
14.68999983
 20
10.65000029
 30
0.0
 11
13.90999885
 21
10.65000029
 31
0.0
  0
ARC
  5
2AD
330
1F
100
AcDbEntity
  8
TOP_PASTE
100
AcDbCircle
 10
13.90999885
 20
10.59000041
 30
0.0
 40
0.05999988
100
AcDbArc
 50
90.0
 51
180.0
  0
LINE
  5
2AE
330
1F
100
AcDbEntity
  8
TOP_PASTE
100
AcDbLine
 10
13.84999897
 20
10.59000041
 30
0.0
 11
13.84999897
 21
9.90999923
 31
0.0
  0
ARC
  5
2AF
330
1F
100
AcDbEntity
  8
TOP_PASTE
100
AcDbCircle
 10
13.90999885
 20
9.90999923
 30
0.0
 40
0.05999988
100
AcDbArc
 50
180.0
 51
270.0
  0
LINE
  5
2B0
330
1F
100
AcDbEntity
  8
TOP_PASTE
100
AcDbLine
 10
13.90999885
 20
9.849999350000001
 30
0.0
 11
14.68999983
 21
9.849999350000001
 31
0.0
  0
ARC
  5
2B1
330
1F
100
AcDbEntity
  8
TOP_PASTE
100
AcDbCircle
 10
14.68999983
 20
9.90999923
 30
0.0
 40
0.05999988
100
AcDbArc
 50
270.0
 51
0.0
  0
LINE
  5
2B2
330
1F
100
AcDbEntity
  8
TOP_PASTE
100
AcDbLine
 10
14.74999971
 20
9.90999923
 30
0.0
 11
14.74999971
 21
10.59000041
 31
0.0
  0
ARC
  5
2B3
330
1F
100
AcDbEntity
  8
TOP_PASTE
100
AcDbCircle
 10
14.68999983
 20
9.08999833
 30
0.0
 40
0.05999988
100
AcDbArc
 50
0.0
 51
90.0
  0
LINE
  5
2B4
330
1F
100
AcDbEntity
  8
TOP_PASTE
100
AcDbLine
 10
14.68999983
 20
9.14999821
 30
0.0
 11
13.90999885
 21
9.14999821
 31
0.0
  0
ARC
  5
2B5
330
1F
100
AcDbEntity
  8
TOP_PASTE
100
AcDbCircle
 10
13.90999885
 20
9.08999833
 30
0.0
 40
0.05999988
100
AcDbArc
 50
90.0
 51
180.0
  0
LINE
  5
2B6
330
1F
100
AcDbEntity
  8
TOP_PASTE
100
AcDbLine
 10
13.84999897
 20
9.08999833
 30
0.0
 11
13.84999897
 21
8.409997149999999
 31
0.0
  0
ARC
  5
2B7
330
1F
100
AcDbEntity
  8
TOP_PASTE
100
AcDbCircle
 10
13.90999885
 20
8.409997149999999
 30
0.0
 40
0.05999988
100
AcDbArc
 50
180.0
 51
270.0
  0
LINE
  5
2B8
330
1F
100
AcDbEntity
  8
TOP_PASTE
100
AcDbLine
 10
13.90999885
 20
8.34999727
 30
0.0
 11
14.68999983
 21
8.34999727
 31
0.0
  0
ARC
  5
2B9
330
1F
100
AcDbEntity
  8
TOP_PASTE
100
AcDbCircle
 10
14.68999983
 20
8.409997149999999
 30
0.0
 40
0.05999988
100
AcDbArc
 50
270.0
 51
0.0
  0
LINE
  5
2BA
330
1F
100
AcDbEntity
  8
TOP_PASTE
100
AcDbLine
 10
14.74999971
 20
8.409997149999999
 30
0.0
 11
14.74999971
 21
9.08999833
 31
0.0
  0
ARC
  5
2BB
330
1F
100
AcDbEntity
  8
TOP_PASTE
100
AcDbCircle
 10
9.60999983
 20
16.40999893
 30
0.0
 40
0.05999988
100
AcDbArc
 50
180.0
 51
270.0
  0
LINE
  5
2BC
330
1F
100
AcDbEntity
  8
TOP_PASTE
100
AcDbLine
 10
9.60999983
 20
16.34999905
 30
0.0
 11
10.39000081
 21
16.34999905
 31
0.0
  0
ARC
  5
2BD
330
1F
100
AcDbEntity
  8
TOP_PASTE
100
AcDbCircle
 10
10.39000081
 20
16.40999893
 30
0.0
 40
0.05999988
100
AcDbArc
 50
270.0
 51
0.0
  0
LINE
  5
2BE
330
1F
100
AcDbEntity
  8
TOP_PASTE
100
AcDbLine
 10
10.45000069
 20
16.40999893
 30
0.0
 11
10.45000069
 21
17.09000011
 31
0.0
  0
ARC
  5
2BF
330
1F
100
AcDbEntity
  8
TOP_PASTE
100
AcDbCircle
 10
10.39000081
 20
17.09000011
 30
0.0
 40
0.05999988
100
AcDbArc
 50
0.0
 51
90.0
  0
LINE
  5
2C0
330
1F
100
AcDbEntity
  8
TOP_PASTE
100
AcDbLine
 10
10.39000081
 20
17.14999999
 30
0.0
 11
9.60999983
 21
17.14999999
 31
0.0
  0
ARC
  5
2C1
330
1F
100
AcDbEntity
  8
TOP_PASTE
100
AcDbCircle
 10
9.60999983
 20
17.09000011
 30
0.0
 40
0.05999988
100
AcDbArc
 50
90.0
 51
180.0
  0
LINE
  5
2C2
330
1F
100
AcDbEntity
  8
TOP_PASTE
100
AcDbLine
 10
9.54999995
 20
17.09000011
 30
0.0
 11
9.54999995
 21
16.40999893
 31
0.0
  0
ARC
  5
2C3
330
1F
100
AcDbEntity
  8
TOP_PASTE
100
AcDbCircle
 10
9.60999983
 20
17.91000101
 30
0.0
 40
0.05999988
100
AcDbArc
 50
180.0
 51
270.0
  0
LINE
  5
2C4
330
1F
100
AcDbEntity
  8
TOP_PASTE
100
AcDbLine
 10
9.60999983
 20
17.85000113
 30
0.0
 11
10.39000081
 21
17.85000113
 31
0.0
  0
ARC
  5
2C5
330
1F
100
AcDbEntity
  8
TOP_PASTE
100
AcDbCircle
 10
10.39000081
 20
17.91000101
 30
0.0
 40
0.05999988
100
AcDbArc
 50
270.0
 51
0.0
  0
LINE
  5
2C6
330
1F
100
AcDbEntity
  8
TOP_PASTE
100
AcDbLine
 10
10.45000069
 20
17.91000101
 30
0.0
 11
10.45000069
 21
18.59000219
 31
0.0
  0
ARC
  5
2C7
330
1F
100
AcDbEntity
  8
TOP_PASTE
100
AcDbCircle
 10
10.39000081
 20
18.59000219
 30
0.0
 40
0.05999988
100
AcDbArc
 50
0.0
 51
90.0
  0
LINE
  5
2C8
330
1F
100
AcDbEntity
  8
TOP_PASTE
100
AcDbLine
 10
10.39000081
 20
18.65000207
 30
0.0
 11
9.60999983
 21
18.65000207
 31
0.0
  0
ARC
  5
2C9
330
1F
100
AcDbEntity
  8
TOP_PASTE
100
AcDbCircle
 10
9.60999983
 20
18.59000219
 30
0.0
 40
0.05999988
100
AcDbArc
 50
90.0
 51
180.0
  0
LINE
  5
2CA
330
1F
100
AcDbEntity
  8
TOP_PASTE
100
AcDbLine
 10
9.54999995
 20
18.59000219
 30
0.0
 11
9.54999995
 21
17.91000101
 31
0.0
  0
ARC
  5
2CB
330
1F
100
AcDbEntity
  8
TOP_PASTE
100
AcDbCircle
 10
7.60999875
 20
16.40999893
 30
0.0
 40
0.05999988
100
AcDbArc
 50
180.0
 51
270.0
  0
LINE
  5
2CC
330
1F
100
AcDbEntity
  8
TOP_PASTE
100
AcDbLine
 10
7.60999875
 20
16.34999905
 30
0.0
 11
8.38999973
 21
16.34999905
 31
0.0
  0
ARC
  5
2CD
330
1F
100
AcDbEntity
  8
TOP_PASTE
100
AcDbCircle
 10
8.38999973
 20
16.40999893
 30
0.0
 40
0.05999988
100
AcDbArc
 50
270.0
 51
0.0
  0
LINE
  5
2CE
330
1F
100
AcDbEntity
  8
TOP_PASTE
100
AcDbLine
 10
8.449999609999999
 20
16.40999893
 30
0.0
 11
8.449999609999999
 21
17.09000011
 31
0.0
  0
ARC
  5
2CF
330
1F
100
AcDbEntity
  8
TOP_PASTE
100
AcDbCircle
 10
8.38999973
 20
17.09000011
 30
0.0
 40
0.05999988
100
AcDbArc
 50
0.0
 51
90.0
  0
LINE
  5
2D0
330
1F
100
AcDbEntity
  8
TOP_PASTE
100
AcDbLine
 10
8.38999973
 20
17.14999999
 30
0.0
 11
7.60999875
 21
17.14999999
 31
0.0
  0
ARC
  5
2D1
330
1F
100
AcDbEntity
  8
TOP_PASTE
100
AcDbCircle
 10
7.60999875
 20
17.09000011
 30
0.0
 40
0.05999988
100
AcDbArc
 50
90.0
 51
180.0
  0
LINE
  5
2D2
330
1F
100
AcDbEntity
  8
TOP_PASTE
100
AcDbLine
 10
7.54999887
 20
17.09000011
 30
0.0
 11
7.54999887
 21
16.40999893
 31
0.0
  0
ARC
  5
2D3
330
1F
100
AcDbEntity
  8
TOP_PASTE
100
AcDbCircle
 10
7.60999875
 20
17.91000101
 30
0.0
 40
0.05999988
100
AcDbArc
 50
180.0
 51
270.0
  0
LINE
  5
2D4
330
1F
100
AcDbEntity
  8
TOP_PASTE
100
AcDbLine
 10
7.60999875
 20
17.85000113
 30
0.0
 11
8.38999973
 21
17.85000113
 31
0.0
  0
ARC
  5
2D5
330
1F
100
AcDbEntity
  8
TOP_PASTE
100
AcDbCircle
 10
8.38999973
 20
17.91000101
 30
0.0
 40
0.05999988
100
AcDbArc
 50
270.0
 51
0.0
  0
LINE
  5
2D6
330
1F
100
AcDbEntity
  8
TOP_PASTE
100
AcDbLine
 10
8.449999609999999
 20
17.91000101
 30
0.0
 11
8.449999609999999
 21
18.59000219
 31
0.0
  0
ARC
  5
2D7
330
1F
100
AcDbEntity
  8
TOP_PASTE
100
AcDbCircle
 10
8.38999973
 20
18.59000219
 30
0.0
 40
0.05999988
100
AcDbArc
 50
0.0
 51
90.0
  0
LINE
  5
2D8
330
1F
100
AcDbEntity
  8
TOP_PASTE
100
AcDbLine
 10
8.38999973
 20
18.65000207
 30
0.0
 11
7.60999875
 21
18.65000207
 31
0.0
  0
ARC
  5
2D9
330
1F
100
AcDbEntity
  8
TOP_PASTE
100
AcDbCircle
 10
7.60999875
 20
18.59000219
 30
0.0
 40
0.05999988
100
AcDbArc
 50
90.0
 51
180.0
  0
LINE
  5
2DA
330
1F
100
AcDbEntity
  8
TOP_PASTE
100
AcDbLine
 10
7.54999887
 20
18.59000219
 30
0.0
 11
7.54999887
 21
17.91000101
 31
0.0
  0
LINE
  5
2DB
330
1F
100
AcDbEntity
  8
TOP_PASTE
100
AcDbLine
 10
-9.475000099999999
 20
-3.02500157
 30
0.0
 11
-9.475000099999999
 21
-2.12500083
 31
0.0
  0
LINE
  5
2DC
330
1F
100
AcDbEntity
  8
TOP_PASTE
100
AcDbLine
 10
-9.475000099999999
 20
-2.12500083
 30
0.0
 11
-8.524999459999998
 21
-2.12500083
 31
0.0
  0
LINE
  5
2DD
330
1F
100
AcDbEntity
  8
TOP_PASTE
100
AcDbLine
 10
-8.524999459999998
 20
-2.12500083
 30
0.0
 11
-8.524999459999998
 21
-3.02500157
 31
0.0
  0
LINE
  5
2DE
330
1F
100
AcDbEntity
  8
TOP_PASTE
100
AcDbLine
 10
-8.524999459999998
 20
-3.02500157
 30
0.0
 11
-9.475000099999999
 21
-3.02500157
 31
0.0
  0
LINE
  5
2DF
330
1F
100
AcDbEntity
  8
TOP_PASTE
100
AcDbLine
 10
-9.475000099999999
 20
0.12499975
 30
0.0
 11
-9.475000099999999
 21
1.02500049
 31
0.0
  0
LINE
  5
2E0
330
1F
100
AcDbEntity
  8
TOP_PASTE
100
AcDbLine
 10
-9.475000099999999
 20
1.02500049
 30
0.0
 11
-8.524999459999998
 21
1.02500049
 31
0.0
  0
LINE
  5
2E1
330
1F
100
AcDbEntity
  8
TOP_PASTE
100
AcDbLine
 10
-8.524999459999998
 20
1.02500049
 30
0.0
 11
-8.524999459999998
 21
0.12499975
 31
0.0
  0
LINE
  5
2E2
330
1F
100
AcDbEntity
  8
TOP_PASTE
100
AcDbLine
 10
-8.524999459999998
 20
0.12499975
 30
0.0
 11
-9.475000099999999
 21
0.12499975
 31
0.0
  0
LINE
  5
2E3
330
1F
100
AcDbEntity
  8
TOP_PASTE
100
AcDbLine
 10
-15.9749998
 20
-10.72500141
 30
0.0
 11
-15.9749998
 21
-9.82500067
 31
0.0
  0
LINE
  5
2E4
330
1F
100
AcDbEntity
  8
TOP_PASTE
100
AcDbLine
 10
-15.9749998
 20
-9.82500067
 30
0.0
 11
-15.02499916
 21
-9.82500067
 31
0.0
  0
LINE
  5
2E5
330
1F
100
AcDbEntity
  8
TOP_PASTE
100
AcDbLine
 10
-15.02499916
 20
-9.82500067
 30
0.0
 11
-15.02499916
 21
-10.72500141
 31
0.0
  0
LINE
  5
2E6
330
1F
100
AcDbEntity
  8
TOP_PASTE
100
AcDbLine
 10
-15.02499916
 20
-10.72500141
 30
0.0
 11
-15.9749998
 21
-10.72500141
 31
0.0
  0
LINE
  5
2E7
330
1F
100
AcDbEntity
  8
TOP_PASTE
100
AcDbLine
 10
-15.9749998
 20
-7.575000089999999
 30
0.0
 11
-15.9749998
 21
-6.674999349999999
 31
0.0
  0
LINE
  5
2E8
330
1F
100
AcDbEntity
  8
TOP_PASTE
100
AcDbLine
 10
-15.9749998
 20
-6.674999349999999
 30
0.0
 11
-15.02499916
 21
-6.674999349999999
 31
0.0
  0
LINE
  5
2E9
330
1F
100
AcDbEntity
  8
TOP_PASTE
100
AcDbLine
 10
-15.02499916
 20
-6.674999349999999
 30
0.0
 11
-15.02499916
 21
-7.575000089999999
 31
0.0
  0
LINE
  5
2EA
330
1F
100
AcDbEntity
  8
TOP_PASTE
100
AcDbLine
 10
-15.02499916
 20
-7.575000089999999
 30
0.0
 11
-15.9749998
 21
-7.575000089999999
 31
0.0
  0
ARC
  5
2EB
330
1F
100
AcDbEntity
  8
TOP_PASTE
100
AcDbCircle
 10
12.62875173
 20
10.82874898
 30
0.0
 40
0.07124954
100
AcDbArc
 50
0.0
 51
90.0
  0
LINE
  5
2EC
330
1F
100
AcDbEntity
  8
TOP_PASTE
100
AcDbLine
 10
12.62875173
 20
10.89999852
 30
0.0
 11
11.37125107
 21
10.89999852
 31
0.0
  0
ARC
  5
2ED
330
1F
100
AcDbEntity
  8
TOP_PASTE
100
AcDbCircle
 10
11.37125107
 20
10.82874898
 30
0.0
 40
0.07124954
100
AcDbArc
 50
90.0
 51
180.0
  0
LINE
  5
2EE
330
1F
100
AcDbEntity
  8
TOP_PASTE
100
AcDbLine
 10
11.30000153
 20
10.82874898
 30
0.0
 11
11.30000153
 21
10.02124742
 31
0.0
  0
ARC
  5
2EF
330
1F
100
AcDbEntity
  8
TOP_PASTE
100
AcDbCircle
 10
11.37125107
 20
10.02124742
 30
0.0
 40
0.07124954
100
AcDbArc
 50
180.0
 51
270.0
  0
LINE
  5
2F0
330
1F
100
AcDbEntity
  8
TOP_PASTE
100
AcDbLine
 10
11.37125107
 20
9.949997879999998
 30
0.0
 11
12.62875173
 21
9.949997879999998
 31
0.0
  0
ARC
  5
2F1
330
1F
100
AcDbEntity
  8
TOP_PASTE
100
AcDbCircle
 10
12.62875173
 20
10.02124742
 30
0.0
 40
0.07124954
100
AcDbArc
 50
270.0
 51
0.0
  0
LINE
  5
2F2
330
1F
100
AcDbEntity
  8
TOP_PASTE
100
AcDbLine
 10
12.70000127
 20
10.02124742
 30
0.0
 11
12.70000127
 21
10.82874898
 31
0.0
  0
ARC
  5
2F3
330
1F
100
AcDbEntity
  8
TOP_PASTE
100
AcDbCircle
 10
12.62875173
 20
8.978750139999999
 30
0.0
 40
0.07124954
100
AcDbArc
 50
0.0
 51
90.0
  0
LINE
  5
2F4
330
1F
100
AcDbEntity
  8
TOP_PASTE
100
AcDbLine
 10
12.62875173
 20
9.049999679999999
 30
0.0
 11
11.37125107
 21
9.049999679999999
 31
0.0
  0
ARC
  5
2F5
330
1F
100
AcDbEntity
  8
TOP_PASTE
100
AcDbCircle
 10
11.37125107
 20
8.978750139999999
 30
0.0
 40
0.07124954
100
AcDbArc
 50
90.0
 51
180.0
  0
LINE
  5
2F6
330
1F
100
AcDbEntity
  8
TOP_PASTE
100
AcDbLine
 10
11.30000153
 20
8.978750139999999
 30
0.0
 11
11.30000153
 21
8.17124858
 31
0.0
  0
ARC
  5
2F7
330
1F
100
AcDbEntity
  8
TOP_PASTE
100
AcDbCircle
 10
11.37125107
 20
8.17124858
 30
0.0
 40
0.07124954
100
AcDbArc
 50
180.0
 51
270.0
  0
LINE
  5
2F8
330
1F
100
AcDbEntity
  8
TOP_PASTE
100
AcDbLine
 10
11.37125107
 20
8.09999904
 30
0.0
 11
12.62875173
 21
8.09999904
 31
0.0
  0
ARC
  5
2F9
330
1F
100
AcDbEntity
  8
TOP_PASTE
100
AcDbCircle
 10
12.62875173
 20
8.17124858
 30
0.0
 40
0.07124954
100
AcDbArc
 50
270.0
 51
0.0
  0
LINE
  5
2FA
330
1F
100
AcDbEntity
  8
TOP_PASTE
100
AcDbLine
 10
12.70000127
 20
8.17124858
 30
0.0
 11
12.70000127
 21
8.978750139999999
 31
0.0
  0
ARC
  5
2FB
330
1F
100
AcDbEntity
  8
TOP_PASTE
100
AcDbCircle
 10
10.32875379
 20
10.82874898
 30
0.0
 40
0.07124954
100
AcDbArc
 50
0.0
 51
90.0
  0
LINE
  5
2FC
330
1F
100
AcDbEntity
  8
TOP_PASTE
100
AcDbLine
 10
10.32875379
 20
10.89999852
 30
0.0
 11
9.071253129999999
 21
10.89999852
 31
0.0
  0
ARC
  5
2FD
330
1F
100
AcDbEntity
  8
TOP_PASTE
100
AcDbCircle
 10
9.071253129999999
 20
10.82874898
 30
0.0
 40
0.07124954
100
AcDbArc
 50
90.0
 51
180.0
  0
LINE
  5
2FE
330
1F
100
AcDbEntity
  8
TOP_PASTE
100
AcDbLine
 10
9.000003589999999
 20
10.82874898
 30
0.0
 11
9.000003589999999
 21
10.02124742
 31
0.0
  0
ARC
  5
2FF
330
1F
100
AcDbEntity
  8
TOP_PASTE
100
AcDbCircle
 10
9.071253129999999
 20
10.02124742
 30
0.0
 40
0.07124954
100
AcDbArc
 50
180.0
 51
270.0
  0
LINE
  5
300
330
1F
100
AcDbEntity
  8
TOP_PASTE
100
AcDbLine
 10
9.071253129999999
 20
9.949997879999998
 30
0.0
 11
10.32875379
 21
9.949997879999998
 31
0.0
  0
ARC
  5
301
330
1F
100
AcDbEntity
  8
TOP_PASTE
100
AcDbCircle
 10
10.32875379
 20
10.02124742
 30
0.0
 40
0.07124954
100
AcDbArc
 50
270.0
 51
0.0
  0
LINE
  5
302
330
1F
100
AcDbEntity
  8
TOP_PASTE
100
AcDbLine
 10
10.40000333
 20
10.02124742
 30
0.0
 11
10.40000333
 21
10.82874898
 31
0.0
  0
ARC
  5
303
330
1F
100
AcDbEntity
  8
TOP_PASTE
100
AcDbCircle
 10
10.32875379
 20
8.978750139999999
 30
0.0
 40
0.07124954
100
AcDbArc
 50
0.0
 51
90.0
  0
LINE
  5
304
330
1F
100
AcDbEntity
  8
TOP_PASTE
100
AcDbLine
 10
10.32875379
 20
9.049999679999999
 30
0.0
 11
9.071253129999999
 21
9.049999679999999
 31
0.0
  0
ARC
  5
305
330
1F
100
AcDbEntity
  8
TOP_PASTE
100
AcDbCircle
 10
9.071253129999999
 20
8.978750139999999
 30
0.0
 40
0.07124954
100
AcDbArc
 50
90.0
 51
180.0
  0
LINE
  5
306
330
1F
100
AcDbEntity
  8
TOP_PASTE
100
AcDbLine
 10
9.000003589999999
 20
8.978750139999999
 30
0.0
 11
9.000003589999999
 21
8.17124858
 31
0.0
  0
ARC
  5
307
330
1F
100
AcDbEntity
  8
TOP_PASTE
100
AcDbCircle
 10
9.071253129999999
 20
8.17124858
 30
0.0
 40
0.07124954
100
AcDbArc
 50
180.0
 51
270.0
  0
LINE
  5
308
330
1F
100
AcDbEntity
  8
TOP_PASTE
100
AcDbLine
 10
9.071253129999999
 20
8.09999904
 30
0.0
 11
10.32875379
 21
8.09999904
 31
0.0
  0
ARC
  5
309
330
1F
100
AcDbEntity
  8
TOP_PASTE
100
AcDbCircle
 10
10.32875379
 20
8.17124858
 30
0.0
 40
0.07124954
100
AcDbArc
 50
270.0
 51
0.0
  0
LINE
  5
30A
330
1F
100
AcDbEntity
  8
TOP_PASTE
100
AcDbLine
 10
10.40000333
 20
8.17124858
 30
0.0
 11
10.40000333
 21
8.978750139999999
 31
0.0
  0
ARC
  5
30B
330
1F
100
AcDbEntity
  8
TOP_PASTE
100
AcDbCircle
 10
-9.371247449999998
 20
14.82875114
 30
0.0
 40
0.07124954
100
AcDbArc
 50
0.0
 51
90.0
  0
LINE
  5
30C
330
1F
100
AcDbEntity
  8
TOP_PASTE
100
AcDbLine
 10
-9.371247449999998
 20
14.90000068
 30
0.0
 11
-10.62874811
 21
14.90000068
 31
0.0
  0
ARC
  5
30D
330
1F
100
AcDbEntity
  8
TOP_PASTE
100
AcDbCircle
 10
-10.62874811
 20
14.82875114
 30
0.0
 40
0.07124954
100
AcDbArc
 50
90.0
 51
180.0
  0
LINE
  5
30E
330
1F
100
AcDbEntity
  8
TOP_PASTE
100
AcDbLine
 10
-10.69999765
 20
14.82875114
 30
0.0
 11
-10.69999765
 21
14.02124958
 31
0.0
  0
ARC
  5
30F
330
1F
100
AcDbEntity
  8
TOP_PASTE
100
AcDbCircle
 10
-10.62874811
 20
14.02124958
 30
0.0
 40
0.07124954
100
AcDbArc
 50
180.0
 51
270.0
  0
LINE
  5
310
330
1F
100
AcDbEntity
  8
TOP_PASTE
100
AcDbLine
 10
-10.62874811
 20
13.95000004
 30
0.0
 11
-9.371247449999998
 21
13.95000004
 31
0.0
  0
ARC
  5
311
330
1F
100
AcDbEntity
  8
TOP_PASTE
100
AcDbCircle
 10
-9.371247449999998
 20
14.02124958
 30
0.0
 40
0.07124954
100
AcDbArc
 50
270.0
 51
0.0
  0
LINE
  5
312
330
1F
100
AcDbEntity
  8
TOP_PASTE
100
AcDbLine
 10
-9.299997909999998
 20
14.02124958
 30
0.0
 11
-9.299997909999998
 21
14.82875114
 31
0.0
  0
ARC
  5
313
330
1F
100
AcDbEntity
  8
TOP_PASTE
100
AcDbCircle
 10
-9.371247449999998
 20
12.9787523
 30
0.0
 40
0.07124954
100
AcDbArc
 50
0.0
 51
90.0
  0
LINE
  5
314
330
1F
100
AcDbEntity
  8
TOP_PASTE
100
AcDbLine
 10
-9.371247449999998
 20
13.05000184
 30
0.0
 11
-10.62874811
 21
13.05000184
 31
0.0
  0
ARC
  5
315
330
1F
100
AcDbEntity
  8
TOP_PASTE
100
AcDbCircle
 10
-10.62874811
 20
12.9787523
 30
0.0
 40
0.07124954
100
AcDbArc
 50
90.0
 51
180.0
  0
LINE
  5
316
330
1F
100
AcDbEntity
  8
TOP_PASTE
100
AcDbLine
 10
-10.69999765
 20
12.9787523
 30
0.0
 11
-10.69999765
 21
12.17125074
 31
0.0
  0
ARC
  5
317
330
1F
100
AcDbEntity
  8
TOP_PASTE
100
AcDbCircle
 10
-10.62874811
 20
12.17125074
 30
0.0
 40
0.07124954
100
AcDbArc
 50
180.0
 51
270.0
  0
LINE
  5
318
330
1F
100
AcDbEntity
  8
TOP_PASTE
100
AcDbLine
 10
-10.62874811
 20
12.1000012
 30
0.0
 11
-9.371247449999998
 21
12.1000012
 31
0.0
  0
ARC
  5
319
330
1F
100
AcDbEntity
  8
TOP_PASTE
100
AcDbCircle
 10
-9.371247449999998
 20
12.17125074
 30
0.0
 40
0.07124954
100
AcDbArc
 50
270.0
 51
0.0
  0
LINE
  5
31A
330
1F
100
AcDbEntity
  8
TOP_PASTE
100
AcDbLine
 10
-9.299997909999998
 20
12.17125074
 30
0.0
 11
-9.299997909999998
 21
12.9787523
 31
0.0
  0
ARC
  5
31B
330
1F
100
AcDbEntity
  8
TOP_PASTE
100
AcDbCircle
 10
-10.62875319
 20
8.67125012
 30
0.0
 40
0.07124954
100
AcDbArc
 50
180.0
 51
270.0
  0
LINE
  5
31C
330
1F
100
AcDbEntity
  8
TOP_PASTE
100
AcDbLine
 10
-10.62875319
 20
8.60000058
 30
0.0
 11
-9.37125253
 21
8.60000058
 31
0.0
  0
ARC
  5
31D
330
1F
100
AcDbEntity
  8
TOP_PASTE
100
AcDbCircle
 10
-9.37125253
 20
8.67125012
 30
0.0
 40
0.07124954
100
AcDbArc
 50
270.0
 51
0.0
  0
LINE
  5
31E
330
1F
100
AcDbEntity
  8
TOP_PASTE
100
AcDbLine
 10
-9.30000299
 20
8.67125012
 30
0.0
 11
-9.30000299
 21
9.478751679999998
 31
0.0
  0
ARC
  5
31F
330
1F
100
AcDbEntity
  8
TOP_PASTE
100
AcDbCircle
 10
-9.37125253
 20
9.478751679999998
 30
0.0
 40
0.07124954
100
AcDbArc
 50
0.0
 51
90.0
  0
LINE
  5
320
330
1F
100
AcDbEntity
  8
TOP_PASTE
100
AcDbLine
 10
-9.37125253
 20
9.550001219999999
 30
0.0
 11
-10.62875319
 21
9.550001219999999
 31
0.0
  0
ARC
  5
321
330
1F
100
AcDbEntity
  8
TOP_PASTE
100
AcDbCircle
 10
-10.62875319
 20
9.478751679999998
 30
0.0
 40
0.07124954
100
AcDbArc
 50
90.0
 51
180.0
  0
LINE
  5
322
330
1F
100
AcDbEntity
  8
TOP_PASTE
100
AcDbLine
 10
-10.70000273
 20
9.478751679999998
 30
0.0
 11
-10.70000273
 21
8.67125012
 31
0.0
  0
ARC
  5
323
330
1F
100
AcDbEntity
  8
TOP_PASTE
100
AcDbCircle
 10
-10.62875319
 20
10.52124896
 30
0.0
 40
0.07124954
100
AcDbArc
 50
180.0
 51
270.0
  0
LINE
  5
324
330
1F
100
AcDbEntity
  8
TOP_PASTE
100
AcDbLine
 10
-10.62875319
 20
10.44999942
 30
0.0
 11
-9.37125253
 21
10.44999942
 31
0.0
  0
ARC
  5
325
330
1F
100
AcDbEntity
  8
TOP_PASTE
100
AcDbCircle
 10
-9.37125253
 20
10.52124896
 30
0.0
 40
0.07124954
100
AcDbArc
 50
270.0
 51
0.0
  0
LINE
  5
326
330
1F
100
AcDbEntity
  8
TOP_PASTE
100
AcDbLine
 10
-9.30000299
 20
10.52124896
 30
0.0
 11
-9.30000299
 21
11.32875052
 31
0.0
  0
ARC
  5
327
330
1F
100
AcDbEntity
  8
TOP_PASTE
100
AcDbCircle
 10
-9.37125253
 20
11.32875052
 30
0.0
 40
0.07124954
100
AcDbArc
 50
0.0
 51
90.0
  0
LINE
  5
328
330
1F
100
AcDbEntity
  8
TOP_PASTE
100
AcDbLine
 10
-9.37125253
 20
11.40000006
 30
0.0
 11
-10.62875319
 21
11.40000006
 31
0.0
  0
ARC
  5
329
330
1F
100
AcDbEntity
  8
TOP_PASTE
100
AcDbCircle
 10
-10.62875319
 20
11.32875052
 30
0.0
 40
0.07124954
100
AcDbArc
 50
90.0
 51
180.0
  0
LINE
  5
32A
330
1F
100
AcDbEntity
  8
TOP_PASTE
100
AcDbLine
 10
-10.70000273
 20
11.32875052
 30
0.0
 11
-10.70000273
 21
10.52124896
 31
0.0
  0
ARC
  5
32B
330
1F
100
AcDbEntity
  8
TOP_PASTE
100
AcDbCircle
 10
-7.37124637
 20
14.82875114
 30
0.0
 40
0.07124954
100
AcDbArc
 50
0.0
 51
90.0
  0
LINE
  5
32C
330
1F
100
AcDbEntity
  8
TOP_PASTE
100
AcDbLine
 10
-7.37124637
 20
14.90000068
 30
0.0
 11
-8.62874703
 21
14.90000068
 31
0.0
  0
ARC
  5
32D
330
1F
100
AcDbEntity
  8
TOP_PASTE
100
AcDbCircle
 10
-8.62874703
 20
14.82875114
 30
0.0
 40
0.07124954
100
AcDbArc
 50
90.0
 51
180.0
  0
LINE
  5
32E
330
1F
100
AcDbEntity
  8
TOP_PASTE
100
AcDbLine
 10
-8.69999657
 20
14.82875114
 30
0.0
 11
-8.69999657
 21
14.02124958
 31
0.0
  0
ARC
  5
32F
330
1F
100
AcDbEntity
  8
TOP_PASTE
100
AcDbCircle
 10
-8.62874703
 20
14.02124958
 30
0.0
 40
0.07124954
100
AcDbArc
 50
180.0
 51
270.0
  0
LINE
  5
330
330
1F
100
AcDbEntity
  8
TOP_PASTE
100
AcDbLine
 10
-8.62874703
 20
13.95000004
 30
0.0
 11
-7.37124637
 21
13.95000004
 31
0.0
  0
ARC
  5
331
330
1F
100
AcDbEntity
  8
TOP_PASTE
100
AcDbCircle
 10
-7.37124637
 20
14.02124958
 30
0.0
 40
0.07124954
100
AcDbArc
 50
270.0
 51
0.0
  0
LINE
  5
332
330
1F
100
AcDbEntity
  8
TOP_PASTE
100
AcDbLine
 10
-7.29999683
 20
14.02124958
 30
0.0
 11
-7.29999683
 21
14.82875114
 31
0.0
  0
ARC
  5
333
330
1F
100
AcDbEntity
  8
TOP_PASTE
100
AcDbCircle
 10
-7.37124637
 20
12.9787523
 30
0.0
 40
0.07124954
100
AcDbArc
 50
0.0
 51
90.0
  0
LINE
  5
334
330
1F
100
AcDbEntity
  8
TOP_PASTE
100
AcDbLine
 10
-7.37124637
 20
13.05000184
 30
0.0
 11
-8.62874703
 21
13.05000184
 31
0.0
  0
ARC
  5
335
330
1F
100
AcDbEntity
  8
TOP_PASTE
100
AcDbCircle
 10
-8.62874703
 20
12.9787523
 30
0.0
 40
0.07124954
100
AcDbArc
 50
90.0
 51
180.0
  0
LINE
  5
336
330
1F
100
AcDbEntity
  8
TOP_PASTE
100
AcDbLine
 10
-8.69999657
 20
12.9787523
 30
0.0
 11
-8.69999657
 21
12.17125074
 31
0.0
  0
ARC
  5
337
330
1F
100
AcDbEntity
  8
TOP_PASTE
100
AcDbCircle
 10
-8.62874703
 20
12.17125074
 30
0.0
 40
0.07124954
100
AcDbArc
 50
180.0
 51
270.0
  0
LINE
  5
338
330
1F
100
AcDbEntity
  8
TOP_PASTE
100
AcDbLine
 10
-8.62874703
 20
12.1000012
 30
0.0
 11
-7.37124637
 21
12.1000012
 31
0.0
  0
ARC
  5
339
330
1F
100
AcDbEntity
  8
TOP_PASTE
100
AcDbCircle
 10
-7.37124637
 20
12.17125074
 30
0.0
 40
0.07124954
100
AcDbArc
 50
270.0
 51
0.0
  0
LINE
  5
33A
330
1F
100
AcDbEntity
  8
TOP_PASTE
100
AcDbLine
 10
-7.29999683
 20
12.17125074
 30
0.0
 11
-7.29999683
 21
12.9787523
 31
0.0
  0
ENDSEC
  0
SECTION
  2
OBJECTS
  0
DICTIONARY
  5
C
330
0
100
AcDbDictionary
  3
ACAD_GROUP
350
D
  3
ACAD_LAYOUT
350
1A
  3
ACAD_MATERIAL
350
43
  3
ACAD_MLEADERSTYLE
350
5B
  3
ACAD_MLINESTYLE
350
17
  3
ACAD_PLOTSETTINGS
350
19
  3
ACAD_SCALELIST
350
47
  3
ACAD_VISUALSTYLE
350
2A
  3
ACDBHEADERROUNDTRIPXREC
350
33B
  3
ACDBVARIABLEDICTIONARY
350
35C
  3
DWGPROPS
350
363
  0
DICTIONARY
  5
364
330
8
100
AcDbDictionary
280
     1
  3
ACAD_XREC_ROUNDTRIP
360
365
  0
DICTIONARY
  5
D
102
{ACAD_REACTORS
330
C
102
}
330
C
100
AcDbDictionary
  0
DICTIONARY
  5
1A
102
{ACAD_REACTORS
330
C
102
}
330
C
100
AcDbDictionary
  0
DICTIONARY
  5
43
102
{ACAD_REACTORS
330
C
102
}
330
C
100
AcDbDictionary
  3
BYBLOCK
350
45
  3
BYLAYER
350
44
  3
GLOBAL
350
46
  0
DICTIONARY
  5
5B
102
{ACAD_REACTORS
330
C
102
}
330
C
100
AcDbDictionary
  3
STANDARD
350
5C
  0
DICTIONARY
  5
17
102
{ACAD_REACTORS
330
C
102
}
330
C
100
AcDbDictionary
  3
STANDARD
350
18
  0
DICTIONARY
  5
19
102
{ACAD_REACTORS
330
C
102
}
330
C
100
AcDbDictionary
  0
DICTIONARY
  5
47
102
{ACAD_REACTORS
330
C
102
}
330
C
100
AcDbDictionary
  3
A0
350
48
  3
A1
350
49
  3
A2
350
4A
  3
A3
350
4B
  3
A4
350
4C
  3
A5
350
4D
  3
A6
350
4E
  3
A7
350
4F
  3
A8
350
50
  3
A9
350
51
  3
B1
350
52
  3
B2
350
53
  3
B3
350
54
  3
B4
350
55
  3
B5
350
56
  3
B6
350
57
  3
B7
350
58
  0
DICTIONARY
  5
2A
102
{ACAD_REACTORS
330
C
102
}
330
C
100
AcDbDictionary
  3
2DWIREFRAME
350
2F
  3
BASIC
350
32
  3
BRIGHTEN
350
36
  3
COLORCHANGE
350
3A
  3
CONCEPTUAL
350
34
  3
DIM
350
35
  3
EDGECOLOROFF
350
3D
  3
FACEPATTERN
350
39
  3
FLAT
350
2B
  3
FLATWITHEDGES
350
2C
  3
GOURAUD
350
2D
  3
GOURAUDWITHEDGES
350
2E
  3
HIDDEN
350
31
  3
JITTEROFF
350
3B
  3
LINEPATTERN
350
38
  3
OVERHANGOFF
350
3C
  3
REALISTIC
350
33
  3
SHADED
350
42
  3
SHADED_WITH_EDGES
350
41
  3
SHADES_OF_GRAY
350
3E
  3
SKETCHY
350
3F
  3
THICKEN
350
37
  3
WIREFRAME
350
30
  3
X-RAY
350
40
  0
DICTIONARY
  5
33B
102
{ACAD_REACTORS
330
C
102
}
330
C
100
AcDbDictionary
  3
CEPSNID
350
345
  3
CEPSNTYPE
350
344
  3
DIMSTYLEDATA
350
35B
  3
FINGERPRINTGUID
350
346
  3
HYPERLINKBASE
350
33E
  3
INSUNITS
350
343
  3
LAYOUTDICT
350
340
  3
LWETCUNION
350
342
  3
PLOTSETDICT
350
341
  3
PSVPSCALE
350
348
  3
PUCSBASE
350
34B
  3
PUCSORGBACK
350
351
  3
PUCSORGBOTTOM
350
34D
  3
PUCSORGFRONT
350
350
  3
PUCSORGLEFT
350
34E
  3
PUCSORGRIGHT
350
34F
  3
PUCSORGTOP
350
34C
  3
PUCSORTHOREF
350
349
  3
PUCSORTHOVIEW
350
34A
  3
STYLESHEET
350
33F
  3
TSTACKALIGN
350
33C
  3
TSTACKSIZE
350
33D
  3
UCSBASE
350
354
  3
UCSORGBACK
350
35A
  3
UCSORGBOTTOM
350
356
  3
UCSORGFRONT
350
359
  3
UCSORGLEFT
350
357
  3
UCSORGRIGHT
350
358
  3
UCSORGTOP
350
355
  3
UCSORTHOREF
350
352
  3
UCSORTHOVIEW
350
353
  3
VERSIONGUID
350
347
  0
DICTIONARY
  5
35C
102
{ACAD_REACTORS
330
C
102
}
330
C
100
AcDbDictionary
  3
CANNOSCALE
350
366
  3
CMLEADERSTYLE
350
35E
  3
CTABLESTYLE
350
35D
  3
DIMASSOC
350
361
  3
HIDETEXT
350
362
  3
MSLTSCALE
350
367
  0
XRECORD
  5
363
102
{ACAD_REACTORS
330
C
102
}
330
C
100
AcDbXrecord
  1
DWGPROPS COOKIE
  2

  3

  4

  6

  7

  8
Emile
  9

300
=
301
=
302
=
303
=
304
=
305
=
306
=
307
=
308
=
309
=
 40
0.0
 41
2460085.792046713
 42
2460085.792047697
  1

 90
        0
  0
XRECORD
  5
365
102
{ACAD_REACTORS
330
364
102
}
330
364
100
AcDbXrecord
102
VTR_0.000_0.000_1.000_1.000_VISUALSTYLE
340
2F
102
VTR_0.000_0.000_1.000_1.000_GRIDDISPLAY
 70
     3
102
VTR_0.000_0.000_1.000_1.000_GRIDMAJOR
 70
     5
102
VTR_0.000_0.000_1.000_1.000_DEFAULTLIGHTING
280
     1
102
VTR_0.000_0.000_1.000_1.000_DEFAULTLIGHTINGTYPE
 70
     1
102
VTR_0.000_0.000_1.000_1.000_BRIGHTNESS
141
0.0
102
VTR_0.000_0.000_1.000_1.000_CONTRAST
142
0.0
  0
MATERIAL
  5
45
102
{ACAD_REACTORS
330
43
102
}
102
{ACAD_XDICTIONARY
360
36A
102
}
330
43
100
AcDbMaterial
  1
BYBLOCK
  0
MATERIAL
  5
44
102
{ACAD_REACTORS
330
43
102
}
102
{ACAD_XDICTIONARY
360
368
102
}
330
43
100
AcDbMaterial
  1
BYLAYER
  0
MATERIAL
  5
46
102
{ACAD_REACTORS
330
43
102
}
102
{ACAD_XDICTIONARY
360
36C
102
}
330
43
100
AcDbMaterial
  1
GLOBAL
  0
ACAD_PROXY_OBJECT
  5
5C
102
{ACAD_REACTORS
330
5B
102
}
330
5B
100
AcDbProxyObject
 90
      499
 91
      505
 93
      610
310
40901902A4063FBFFFFFE056BD1B81E855B9FC0AD7A3703D0AD73F4214DD185B99185C9900AD7A3703D0AC73F90141901A02B5E8DC0F42B1CFC02B5E8DC0F42B1CFE5764000000000000300FC0
340
14
340
0
340
11
340
0
 94
        0
1001
ACAD_MLEADERVER
1070
     2
  0
MLINESTYLE
  5
18
102
{ACAD_REACTORS
330
17
102
}
330
17
100
AcDbMlineStyle
  2
Standard
 70
     0
  3

 62
   256
 51
90.0
 52
90.0
 71
     2
 49
0.5
 62
   256
  6
BYLAYER
 49
-0.5
 62
   256
  6
BYLAYER
  0
ACAD_PROXY_OBJECT
  5
48
102
{ACAD_REACTORS
330
47
102
}
330
47
100
AcDbProxyObject
 90
      499
 91
      503
 93
       41
310
903313A31580
  0
ACAD_PROXY_OBJECT
  5
49
102
{ACAD_REACTORS
330
47
102
}
330
47
100
AcDbProxyObject
 90
      499
 91
      503
 93
      257
310
90E312F31323822203D2031272D3022000000000000200FC000000000000284000
  0
ACAD_PROXY_OBJECT
  5
4A
102
{ACAD_REACTORS
330
47
102
}
330
47
100
AcDbProxyObject
 90
      499
 91
      503
 93
      249
310
90D312F363422203D2031272D3022000000000000240FC000000000000284000
  0
ACAD_PROXY_OBJECT
  5
4B
102
{ACAD_REACTORS
330
47
102
}
330
47
100
AcDbProxyObject
 90
      499
 91
      503
 93
      249
310
90D312F333222203D2031272D3022000000000000280FC000000000000284000
  0
ACAD_PROXY_OBJECT
  5
4C
102
{ACAD_REACTORS
330
47
102
}
330
47
100
AcDbProxyObject
 90
      499
 91
      503
 93
      249
310
90D312F313622203D2031272D30220000000000002C0FC000000000000284000
  0
ACAD_PROXY_OBJECT
  5
4D
102
{ACAD_REACTORS
330
47
102
}
330
47
100
AcDbProxyObject
 90
      499
 91
      503
 93
      249
310
90D332F333222203D2031272D30220000000000002E0FC000000000000284000
  0
ACAD_PROXY_OBJECT
  5
4E
102
{ACAD_REACTORS
330
47
102
}
330
47
100
AcDbProxyObject
 90
      499
 91
      503
 93
      241
310
90C312F3822203D2031272D3022000000000000300FC000000000000284000
  0
ACAD_PROXY_OBJECT
  5
4F
102
{ACAD_REACTORS
330
47
102
}
330
47
100
AcDbProxyObject
 90
      499
 91
      503
 93
      249
310
90D332F313622203D2031272D3022000000000000320FC000000000000284000
  0
ACAD_PROXY_OBJECT
  5
50
102
{ACAD_REACTORS
330
47
102
}
330
47
100
AcDbProxyObject
 90
      499
 91
      503
 93
      241
310
90C312F3422203D2031272D3022000000000000340FC000000000000284000
  0
ACAD_PROXY_OBJECT
  5
51
102
{ACAD_REACTORS
330
47
102
}
330
47
100
AcDbProxyObject
 90
      499
 91
      503
 93
      241
310
90C332F3822203D2031272D3022000000000000360FC000000000000284000
  0
ACAD_PROXY_OBJECT
  5
52
102
{ACAD_REACTORS
330
47
102
}
330
47
100
AcDbProxyObject
 90
      499
 91
      503
 93
      241
310
90C312F3222203D2031272D3022000000000000380FC000000000000284000
  0
ACAD_PROXY_OBJECT
  5
53
102
{ACAD_REACTORS
330
47
102
}
330
47
100
AcDbProxyObject
 90
      499
 91
      503
 93
      241
310
90C332F3422203D2031272D30220000000000003A0FC000000000000284000
  0
ACAD_PROXY_OBJECT
  5
54
102
{ACAD_REACTORS
330
47
102
}
330
47
100
AcDbProxyObject
 90
      499
 91
      503
 93
      161
310
90A3122203D2031272D30224000000000000284000
  0
ACAD_PROXY_OBJECT
  5
55
102
{ACAD_REACTORS
330
47
102
}
330
47
100
AcDbProxyObject
 90
      499
 91
      503
 93
      257
310
90E312D312F3222203D2031272D30220000000000003E0FC000000000000284000
  0
ACAD_PROXY_OBJECT
  5
56
102
{ACAD_REACTORS
330
47
102
}
330
47
100
AcDbProxyObject
 90
      499
 91
      503
 93
      225
310
90A3322203D2031272D302200000000000002100000000000000284000
  0
ACAD_PROXY_OBJECT
  5
57
102
{ACAD_REACTORS
330
47
102
}
330
47
100
AcDbProxyObject
 90
      499
 91
      503
 93
      225
310
90A3622203D2031272D302200000000000006100000000000000284000
  0
ACAD_PROXY_OBJECT
  5
58
102
{ACAD_REACTORS
330
47
102
}
330
47
100
AcDbProxyObject
 90
      499
 91
      503
 93
      249
310
90D31272D3022203D2031272D30220000000000000A100000000000000284000
  0
ACAD_PROXY_OBJECT
  5
2F
102
{ACAD_REACTORS
330
2A
102
}
330
2A
100
AcDbProxyObject
 90
      499
 91
      501
 93
      436
310
42CC9915DA5C99599C985B595049028333333333333E33F0000000000000F90107901411070040501600405405064090741402480A0340
1001
ACAD
1000
AcDbSavedByObjectVersion
1070
     0
  0
ACAD_PROXY_OBJECT
  5
32
102
{ACAD_REACTORS
330
2A
102
}
330
2A
100
AcDbProxyObject
 90
      499
 91
      501
 93
      388
310
4150985CDA58D07406404333333333333E33F0000000000000F90107A41107004050150841D405064090741402480A0350
1001
ACAD
1000
AcDbSavedByObjectVersion
1070
     0
  0
ACAD_PROXY_OBJECT
  5
36
102
{ACAD_REACTORS
330
2A
102
}
330
2A
100
AcDbProxyObject
 90
      499
 91
      501
 93
      428
310
42109C9A59DA1D195B90C409028333333333333E33F0000000000000F9010790141107004050150841D405064090741402480A029950
1001
ACAD
1000
AcDbSavedByObjectVersion
1070
     0
  0
ACAD_PROXY_OBJECT
  5
3A
102
{ACAD_REACTORS
330
2A
102
}
330
2A
100
AcDbProxyObject
 90
      499
 91
      501
 93
      452
310
42D0DBDB1BDC90DA185B99D95104090240C333333333333E33F0000000000000F90108901411070040501508421405064090741402480A0350
1001
ACAD
1000
AcDbSavedByObjectVersion
1070
     0
  0
ACAD_PROXY_OBJECT
  5
34
102
{ACAD_REACTORS
330
2A
102
}
330
2A
100
AcDbProxyObject
 90
      499
 91
      501
 93
      500
310
4290DBDB98D95C1D1D585B10940D028333333333333E33F0000000000000F90107902409070040501000000000018199010841D405064090740C02480A0340
1001
ACAD
1000
AcDbSavedByObjectVersion
1070
     0
  0
ACAD_PROXY_OBJECT
  5
35
102
{ACAD_REACTORS
330
2A
102
}
330
2A
100
AcDbProxyObject
 90
      499
 91
      501
 93
      412
310
40D11A5B50B409028333333333333E33F0000000000000F9010790141107004050150841D405064090741402480A02677FFFFFD0
1001
ACAD
1000
AcDbSavedByObjectVersion
1070
     0
  0
ACAD_PROXY_OBJECT
  5
3D
102
{ACAD_REACTORS
330
2A
102
}
330
2A
100
AcDbProxyObject
 90
      499
 91
      501
 93
      452
310
43115919D950DBDB1BDC93D999916409028333333333333E33F0000000000000F9010790141107004050150841D405064090741402480A0350
1001
ACAD
1000
AcDbSavedByObjectVersion
1070
     0
  0
ACAD_PROXY_OBJECT
  5
39
102
{ACAD_REACTORS
330
2A
102
}
330
2A
100
AcDbProxyObject
 90
      499
 91
      501
 93
      444
310
42D19858D95C185D1D195C9B90F409028333333333333E33F0000000000000F9010790141107004050150841D405064090741402480A0350
1001
ACAD
1000
AcDbSavedByObjectVersion
1070
     0
  0
ACAD_PROXY_OBJECT
  5
2B
102
{ACAD_REACTORS
330
2A
102
}
330
2A
100
AcDbProxyObject
 90
      499
 91
      501
 93
      380
310
41119B185D240901404333333333333E33F0000000000000F9010740A907004050150841D405064090741402480A1B50
1001
ACAD
1000
AcDbSavedByObjectVersion
1070
     0
  0
ACAD_PROXY_OBJECT
  5
2C
102
{ACAD_REACTORS
330
2A
102
}
330
2A
100
AcDbProxyObject
 90
      499
 91
      501
 93
      468
310
43519B185D15DA5D1A115919D95CD0140901404333333333333E33F0000000000000F90107409019070040501600405405064090741402480A1B50
1001
ACAD
1000
AcDbSavedByObjectVersion
1070
     0
  0
ACAD_PROXY_OBJECT
  5
2D
102
{ACAD_REACTORS
330
2A
102
}
330
2A
100
AcDbProxyObject
 90
      499
 91
      501
 93
      404
310
41D1DBDD5C985D5910240902404333333333333E33F0000000000000F9010740A9070040501641D405064090741402480A1B50
1001
ACAD
1000
AcDbSavedByObjectVersion
1070
     0
  0
ACAD_PROXY_OBJECT
  5
2E
102
{ACAD_REACTORS
330
2A
102
}
330
2A
100
AcDbProxyObject
 90
      499
 91
      501
 93
      492
310
4411DBDD5C985D5915DA5D1A115919D95CD0340902404333333333333E33F0000000000000F90107409019070040501600405405064090741402480A1B50
1001
ACAD
1000
AcDbSavedByObjectVersion
1070
     0
  0
ACAD_PROXY_OBJECT
  5
31
102
{ACAD_REACTORS
330
2A
102
}
330
2A
100
AcDbProxyObject
 90
      499
 91
      501
 93
      476
310
41921A5919195B90640502408333333333333E33F0000000000000F901079024090700405020000000000001110200405405064090740C02480A0340
1001
ACAD
1000
AcDbSavedByObjectVersion
1070
     0
  0
ACAD_PROXY_OBJECT
  5
3B
102
{ACAD_REACTORS
330
2A
102
}
330
2A
100
AcDbProxyObject
 90
      499
 91
      501
 93
      428
310
42529A5D1D195C93D999914409028333333333333E33F0000000000000F9010790141107004050150A41D405064090741402480A0350
1001
ACAD
1000
AcDbSavedByObjectVersion
1070
     0
  0
ACAD_PROXY_OBJECT
  5
38
102
{ACAD_REACTORS
330
2A
102
}
330
2A
100
AcDbProxyObject
 90
      499
 91
      501
 93
      444
310
42D31A5B995C185D1D195C9B90E409028333333333333E33F0000000000000F9010790141107004050750841D405064090741402483A0350
1001
ACAD
1000
AcDbSavedByObjectVersion
1070
     0
  0
ACAD_PROXY_OBJECT
  5
3C
102
{ACAD_REACTORS
330
2A
102
}
330
2A
100
AcDbProxyObject
 90
      499
 91
      501
 93
      444
310
42D3DD995C9A185B99D3D999915409028333333333333E33F0000000000000F9010790141107004050150941D405064090741402480A0350
1001
ACAD
1000
AcDbSavedByObjectVersion
1070
     0
  0
ACAD_PROXY_OBJECT
  5
33
102
{ACAD_REACTORS
330
2A
102
}
330
2A
100
AcDbProxyObject
 90
      499
 91
      501
 93
      428
310
425499585B1A5CDD1A58D08409038333333333333E33F0000000000000F9010740A907004050150800405405064090740C02480A1B40
1001
ACAD
1000
AcDbSavedByObjectVersion
1070
     0
  0
ACAD_PROXY_OBJECT
  5
42
102
{ACAD_REACTORS
330
2A
102
}
330
2A
100
AcDbProxyObject
 90
      499
 91
      501
 93
      420
310
4194DA1859195911B40902404333333333333E33F0000000000000F9010740A41107004050150800405405064090840C02480A0B40
1001
ACAD
1000
AcDbSavedByObjectVersion
1070
     0
  0
ACAD_PROXY_OBJECT
  5
41
102
{ACAD_REACTORS
330
2A
102
}
330
2A
100
AcDbProxyObject
 90
      499
 91
      501
 93
      516
310
4454DA18591959081DDA5D1A08195919D95CD1A40902404333333333333E33F0000000000000F901074090142907004050250800405405064090740C02480A0B40
1001
ACAD
1000
AcDbSavedByObjectVersion
1070
     0
  0
ACAD_PROXY_OBJECT
  5
3E
102
{ACAD_REACTORS
330
2A
102
}
330
2A
100
AcDbProxyObject
 90
      499
 91
      501
 93
      532
310
4394DA1859195CC81BD98811DC985E5174090240C333333333333E33F0000000000000F901079024090741D01000000000000111010841D405064090740C02480A0340
1001
ACAD
1000
AcDbSavedByObjectVersion
1070
     0
  0
ACAD_PROXY_OBJECT
  5
3F
102
{ACAD_REACTORS
330
2A
102
}
330
2A
100
AcDbProxyObject
 90
      499
 91
      501
 93
      476
310
41D4DAD95D18DA1E51840502408333333333333E33F0000000000000F901079024090741D01000000000000111010B41D405064090741802480A0340
1001
ACAD
1000
AcDbSavedByObjectVersion
1070
     0
  0
ACAD_PROXY_OBJECT
  5
37
102
{ACAD_REACTORS
330
2A
102
}
330
2A
100
AcDbProxyObject
 90
      499
 91
      501
 93
      412
310
41D51A1A58DAD95B90D409028333333333333E33F0000000000000F9010790141107004050150C41D405064090741402480A0350
1001
ACAD
1000
AcDbSavedByObjectVersion
1070
     0
  0
ACAD_PROXY_OBJECT
  5
30
102
{ACAD_REACTORS
330
2A
102
}
330
2A
100
AcDbProxyObject
 90
      499
 91
      501
 93
      420
310
4255DA5C99599C985B595059028333333333333E33F0000000000000F90107901411070040501600405405064090740C02480A0340
1001
ACAD
1000
AcDbSavedByObjectVersion
1070
     0
  0
ACAD_PROXY_OBJECT
  5
40
102
{ACAD_REACTORS
330
2A
102
}
330
2A
100
AcDbProxyObject
 90
      499
 91
      501
 93
      404
310
41560B54985E51940902404000000000000E03F0000000000000F9010740501907004050150841D405064090740C02480A1B40
1001
ACAD
1000
AcDbSavedByObjectVersion
1070
     0
  0
XRECORD
  5
345
102
{ACAD_REACTORS
330
33B
102
}
330
33B
100
AcDbXrecord
340
0
  0
XRECORD
  5
344
102
{ACAD_REACTORS
330
33B
102
}
330
33B
100
AcDbXrecord
 90
        0
  0
XRECORD
  5
35B
102
{ACAD_REACTORS
330
33B
102
}
330
33B
100
AcDbXrecord
1000
DSTYLE
1002
{
1070
   171
 70
     2
1070
   143
 40
25.4
1070
   274
 70
     2
1070
    41
 40
0.18
1070
   141
 40
0.09
1070
   271
 70
     4
1070
    43
 40
0.38
1070
   278
 70
    46
1070
    44
 40
0.18
1070
    42
 40
0.0625
1070
   147
 40
0.09
1070
    77
 70
     0
1070
   272
 70
     4
1070
    73
 70
     1
1070
   172
 70
     0
1070
    74
 70
     1
1070
   283
 70
     1
1070
   340
340
11
1070
   140
 40
0.18
1070
   284
 70
     0
1070
    78
 70
     0
1002
}
  0
XRECORD
  5
346
102
{ACAD_REACTORS
330
33B
102
}
330
33B
100
AcDbXrecord
  1
{3660d587-8d27-4d47-89a0-6ed77be3f1d6}
  0
XRECORD
  5
33E
102
{ACAD_REACTORS
330
33B
102
}
330
33B
100
AcDbXrecord
  1

  0
XRECORD
  5
343
102
{ACAD_REACTORS
330
33B
102
}
330
33B
100
AcDbXrecord
 90
        1
  0
XRECORD
  5
340
102
{ACAD_REACTORS
330
33B
102
}
330
33B
100
AcDbXrecord
340
1A
  0
XRECORD
  5
342
102
{ACAD_REACTORS
330
33B
102
}
330
33B
100
AcDbXrecord
 90
    10781
  0
XRECORD
  5
341
102
{ACAD_REACTORS
330
33B
102
}
330
33B
100
AcDbXrecord
340
19
  0
XRECORD
  5
348
102
{ACAD_REACTORS
330
33B
102
}
330
33B
100
AcDbXrecord
 40
0.0
  0
XRECORD
  5
34B
102
{ACAD_REACTORS
330
33B
102
}
330
33B
100
AcDbXrecord
340
0
  0
XRECORD
  5
351
102
{ACAD_REACTORS
330
33B
102
}
330
33B
100
AcDbXrecord
 10
0.0
 20
0.0
 30
0.0
  0
XRECORD
  5
34D
102
{ACAD_REACTORS
330
33B
102
}
330
33B
100
AcDbXrecord
 10
0.0
 20
0.0
 30
0.0
  0
XRECORD
  5
350
102
{ACAD_REACTORS
330
33B
102
}
330
33B
100
AcDbXrecord
 10
0.0
 20
0.0
 30
0.0
  0
XRECORD
  5
34E
102
{ACAD_REACTORS
330
33B
102
}
330
33B
100
AcDbXrecord
 10
0.0
 20
0.0
 30
0.0
  0
XRECORD
  5
34F
102
{ACAD_REACTORS
330
33B
102
}
330
33B
100
AcDbXrecord
 10
0.0
 20
0.0
 30
0.0
  0
XRECORD
  5
34C
102
{ACAD_REACTORS
330
33B
102
}
330
33B
100
AcDbXrecord
 10
0.0
 20
0.0
 30
0.0
  0
XRECORD
  5
349
102
{ACAD_REACTORS
330
33B
102
}
330
33B
100
AcDbXrecord
340
0
  0
XRECORD
  5
34A
102
{ACAD_REACTORS
330
33B
102
}
330
33B
100
AcDbXrecord
 70
     0
  0
XRECORD
  5
33F
102
{ACAD_REACTORS
330
33B
102
}
330
33B
100
AcDbXrecord
  1

  0
XRECORD
  5
33C
102
{ACAD_REACTORS
330
33B
102
}
330
33B
100
AcDbXrecord
 90
        1
  0
XRECORD
  5
33D
102
{ACAD_REACTORS
330
33B
102
}
330
33B
100
AcDbXrecord
 90
       70
  0
XRECORD
  5
354
102
{ACAD_REACTORS
330
33B
102
}
330
33B
100
AcDbXrecord
340
0
  0
XRECORD
  5
35A
102
{ACAD_REACTORS
330
33B
102
}
330
33B
100
AcDbXrecord
 10
0.0
 20
0.0
 30
0.0
  0
XRECORD
  5
356
102
{ACAD_REACTORS
330
33B
102
}
330
33B
100
AcDbXrecord
 10
0.0
 20
0.0
 30
0.0
  0
XRECORD
  5
359
102
{ACAD_REACTORS
330
33B
102
}
330
33B
100
AcDbXrecord
 10
0.0
 20
0.0
 30
0.0
  0
XRECORD
  5
357
102
{ACAD_REACTORS
330
33B
102
}
330
33B
100
AcDbXrecord
 10
0.0
 20
0.0
 30
0.0
  0
XRECORD
  5
358
102
{ACAD_REACTORS
330
33B
102
}
330
33B
100
AcDbXrecord
 10
0.0
 20
0.0
 30
0.0
  0
XRECORD
  5
355
102
{ACAD_REACTORS
330
33B
102
}
330
33B
100
AcDbXrecord
 10
0.0
 20
0.0
 30
0.0
  0
XRECORD
  5
352
102
{ACAD_REACTORS
330
33B
102
}
330
33B
100
AcDbXrecord
340
0
  0
XRECORD
  5
353
102
{ACAD_REACTORS
330
33B
102
}
330
33B
100
AcDbXrecord
 70
     0
  0
XRECORD
  5
347
102
{ACAD_REACTORS
330
33B
102
}
330
33B
100
AcDbXrecord
  1
{FAEB1C32-E019-11D5-929B-00C0DF256EC4}
  0
DICTIONARYVAR
  5
366
102
{ACAD_REACTORS
330
35C
102
}
330
35C
100
DictionaryVariables
280
     0
  1
1:1
  0
DICTIONARYVAR
  5
35E
102
{ACAD_REACTORS
330
35C
102
}
330
35C
100
DictionaryVariables
280
     0
  1
Standard
  0
DICTIONARYVAR
  5
35D
102
{ACAD_REACTORS
330
35C
102
}
330
35C
100
DictionaryVariables
280
     0
  1
Standard
  0
DICTIONARYVAR
  5
361
102
{ACAD_REACTORS
330
35C
102
}
330
35C
100
DictionaryVariables
280
     0
  1
2
  0
DICTIONARYVAR
  5
362
102
{ACAD_REACTORS
330
35C
102
}
330
35C
100
DictionaryVariables
280
     0
  1
1
  0
DICTIONARYVAR
  5
367
102
{ACAD_REACTORS
330
35C
102
}
330
35C
100
DictionaryVariables
280
     0
  1
1
  0
DICTIONARY
  5
36A
330
45
100
AcDbDictionary
280
     1
  3
ACAD_XREC_ROUNDTRIP
360
36B
  0
DICTIONARY
  5
368
330
44
100
AcDbDictionary
280
     1
  3
ACAD_XREC_ROUNDTRIP
360
369
  0
DICTIONARY
  5
36C
330
46
100
AcDbDictionary
280
     1
  3
ACAD_XREC_ROUNDTRIP
360
36D
  0
XRECORD
  5
36B
102
{ACAD_REACTORS
330
36A
102
}
330
36A
100
AcDbXrecord
102
MATERIAL
148
0.0
149
0.0
149
0.0
 93
        0
 94
      127
282
     0
 72
     1
 77
     1
171
     1
175
     1
179
     1
273
     0
  0
XRECORD
  5
369
102
{ACAD_REACTORS
330
368
102
}
330
368
100
AcDbXrecord
102
MATERIAL
148
0.0
149
0.0
149
0.0
 93
        0
 94
      127
282
     0
 72
     1
 77
     1
171
     1
175
     1
179
     1
273
     0
  0
XRECORD
  5
36D
102
{ACAD_REACTORS
330
36C
102
}
330
36C
100
AcDbXrecord
102
MATERIAL
148
0.0
149
0.0
149
0.0
 93
        0
 94
      127
282
     0
 72
     1
 77
     1
171
     1
175
     1
179
     1
273
     0
  0
ENDSEC
  0
EOF
